<?xml version="1.0" standalone="no"?>
<!DOCTYPE svg PUBLIC "-//W3C//DTD SVG 1.1//EN" "http://www.w3.org/Graphics/SVG/1.1/DTD/svg11.dtd" >
<svg xmlns="http://www.w3.org/2000/svg" xmlns:xlink="http://www.w3.org/1999/xlink" version="1.1">
<metadata>
Created by FontForge 20161013 at Tue Nov 22 01:43:52 2016
 By ,,,
Copyright (c) 2012-2016, Damien Gautier, 205TF. All rights reserved.
</metadata>
<defs>
<font id="Maax-Light" horiz-adv-x="600" >
  <font-face 
    font-family="Maax Light"
    font-weight="250"
    font-stretch="normal"
    units-per-em="1000"
    panose-1="2 0 0 0 0 0 0 0 0 0"
    ascent="750"
    descent="-250"
    x-height="490"
    cap-height="700"
    bbox="-53 -222 1527 996"
    underline-thickness="0"
    underline-position="0"
    unicode-range="U+0020-FB05"
  />
<missing-glyph horiz-adv-x="649" 
d="M323 202q13 0 21.5 -9t8.5 -22t-8.5 -22.5t-21.5 -9.5t-22 9.5t-9 22.5t9 22t22 9zM332 153h8l-9 13q4 1 6 4.5t2 7.5q0 5 -3.5 8.5t-9.5 3.5h-17v-37h8v12h7zM175 400q7 -12 3 -25.5t-16 -20.5q-13 -7 -26.5 -4t-20.5 16t-3 26t16 20q13 7 26.5 4t20.5 -16zM324 184
q4 0 6 -2t2 -4q0 -4 -2 -5.5t-6 -1.5h-7v13h7zM290 412q10 6 21 4t21 -10l-29 -92q-4 4 -7.5 9t-7.5 11q-14 25 -14.5 46.5t16.5 31.5zM344 394q4 -4 7.5 -9t6.5 -11q14 -25 14.5 -46.5t-15.5 -31.5q-10 -5 -20.5 -3.5t-20.5 9.5zM324 684l285 -164v-328l-285 -164l-284 164
v328zM338 561v-75h8v34h36v8h-36v25h39v8h-47zM260 561v-8h23v-67h8v67h24v8h-55zM157 259l89 51l-8 15l-68 -40l20 69q4 15 5 28.5t-6 26.5q-10 18 -30 22.5t-39 -5.5q-18 -10 -23.5 -30t4.5 -38t29.5 -23.5t35.5 4.5l4 3l-20 -70zM323 130q16 0 28 12t12 29q0 16 -12 28
t-28 12q-17 0 -28.5 -12t-11.5 -28q0 -17 11.5 -29t28.5 -12zM365 282q26 16 25 45t-17 56q-16 28 -40.5 43t-50.5 0t-25.5 -44t16.5 -56q16 -28 40.5 -43.5t51.5 -0.5zM523 281q24 13 28.5 35t-6.5 40q-12 22 -33 25.5t-37 -6.5q-9 -5 -14.5 -12t-8.5 -15l-26 46l63 37
l-8 14l-78 -45l47 -82l14 8q-1 9 3 18.5t15 15.5q13 7 27 4t22 -16q7 -15 3 -29.5t-18 -22.5q-12 -7 -22.5 -6.5t-20.5 5.5l-5 -17q11 -4 25.5 -5t29.5 8z" />
    <glyph glyph-name="f_f" unicode="ff" 
d="M36 490h83v41q0 90 44.5 129.5t124.5 39.5h12v-46h-11q-65 0 -93.5 -31t-28.5 -92v-41h243v41q0 90 44.5 129.5t124.5 39.5h11v-46h-10q-65 0 -93.5 -31t-28.5 -92v-41h121v-46h-121v-444h-48v444h-243v-444h-48v444h-83v46z" />
    <glyph glyph-name="fi" unicode="fi" horiz-adv-x="534" 
d="M434 611q-19 0 -32 13t-13 32t13 32t32 13t32 -13t13 -32t-13 -32t-32 -13zM167 0h-48v444h-83v46h83v41q0 90 44.5 129.5t124.5 39.5h12v-46h-11q-65 0 -93.5 -31t-28.5 -92v-41h291v-490h-48v444h-243v-444z" />
    <glyph glyph-name="fl" unicode="fl" horiz-adv-x="534" 
d="M410 0v654h-121q-65 0 -93.5 -31t-28.5 -92v-41h121v-46h-121v-444h-48v444h-83v46h83v41q0 90 44.5 129.5t124.5 39.5h170v-700h-48z" />
    <glyph glyph-name="f_f_i" unicode="ffi" horiz-adv-x="825" 
d="M725 611q-19 0 -32 13t-13 32t13 32t32 13t32 -13t13 -32t-13 -32t-32 -13zM167 444v-444h-48v444h-83v46h83v41q0 90 44.5 129.5t124.5 39.5h12v-46h-11q-65 0 -93.5 -31t-28.5 -92v-41h243v41q0 90 44.5 129.5t124.5 39.5h12v-46h-11q-65 0 -93.5 -31t-28.5 -92v-41
h291v-490h-48v444h-243v-444h-48v444h-243z" />
    <glyph glyph-name="f_f_l" unicode="ffl" horiz-adv-x="825" 
d="M701 0v654h-121q-65 0 -93.5 -31t-28.5 -92v-41h121v-46h-121v-444h-48v444h-243v-444h-48v444h-83v46h83v41q0 90 44.5 129.5t124.5 39.5h12v-46h-11q-65 0 -93.5 -31t-28.5 -92v-41h243v41q0 90 44.5 129.5t124.5 39.5h170v-700h-48z" />
    <glyph glyph-name="f_t" unicode="ft" horiz-adv-x="627" 
d="M410 444h-243v-444h-48v444h-83v46h83v41q0 90 44.5 129.5t124.5 39.5h12v-46h-11q-65 0 -93.5 -31t-28.5 -92v-41h243v137h48v-137h122v-46h-122v-288q0 -56 18.5 -83.5t77.5 -27.5h28v-46l-12 -0.5t-23 -0.5q-66 0 -101.5 31t-35.5 108v307z" />
    <glyph glyph-name="f_b" unicode="fb" horiz-adv-x="935" 
d="M36 490h83v41q0 90 44.5 129.5t124.5 39.5h170v-306q28 50 79 79t113 29q50 0 92 -20.5t71.5 -55t45.5 -81.5t16 -100t-16 -100t-45.5 -81.5t-71.5 -54.5t-92 -20q-62 0 -113 29t-79 80v-98h-48v654h-121q-65 0 -93.5 -31t-28.5 -92v-41h121v-46h-121v-444h-48v444h-83
v46zM644 38q43 0 76.5 16t57 43.5t36 65.5t12.5 82q0 42 -13 80t-36.5 66.5t-57.5 45.5t-75 17q-40 0 -74.5 -17t-59 -45.5t-38.5 -66.5t-14 -80q0 -43 14 -80.5t38.5 -65.5t59 -44.5t74.5 -16.5z" />
    <glyph glyph-name="f_f_b" unicode="ffb" horiz-adv-x="1226" 
d="M941 502q50 0 92 -20.5t71.5 -55t45.5 -81.5t16 -100t-16 -100t-45.5 -81.5t-71.5 -54.5t-92 -20q-62 0 -113 29t-79 80v-98h-48v654h-121q-65 0 -93.5 -31t-28.5 -92v-41h121v-46h-121v-444h-48v444h-243v-444h-48v444h-83v46h83v41q0 90 44.5 129.5t124.5 39.5h12v-46
h-11q-65 0 -93.5 -31t-28.5 -92v-41h243v41q0 90 44.5 129.5t124.5 39.5h170v-306q28 50 79 79t113 29zM935 38q43 0 76.5 16t57 43.5t36 65.5t12.5 82q0 42 -13 80t-36.5 66.5t-57.5 45.5t-75 17q-40 0 -74.5 -17t-59 -45.5t-38.5 -66.5t-14 -80q0 -43 14 -80.5t38.5 -65.5
t59 -44.5t74.5 -16.5z" />
    <glyph glyph-name="f_h" unicode="fh" horiz-adv-x="898" 
d="M288 700h170v-295q28 50 72 73.5t104 23.5q56 0 94 -20t60 -54.5t31 -82t9 -100.5v-245h-48v239q0 95 -30.5 155t-120.5 60q-41 0 -73 -16.5t-53.5 -45t-33 -68t-11.5 -85.5v-239h-48v654h-121q-65 0 -93.5 -30.5t-28.5 -91.5v-42h121v-46h-121v-444h-48v444h-83v46h83
v42q0 90 44.5 129t124.5 39z" />
    <glyph glyph-name="f_f_h" unicode="ffh" horiz-adv-x="1189" 
d="M749 700v-295q28 50 72 73.5t104 23.5q56 0 94 -20t60 -54.5t31 -82t9 -100.5v-245h-48v239q0 95 -30.5 155t-120.5 60q-41 0 -73 -16.5t-53.5 -45t-33 -68t-11.5 -85.5v-239h-48v654h-121q-65 0 -93.5 -31t-28.5 -92v-41h121v-46h-121v-444h-48v444h-243v-444h-48v444
h-83v46h83v41q0 90 44.5 129.5t124.5 39.5h12v-46h-11q-65 0 -93.5 -31t-28.5 -92v-41h243v41q0 90 44.5 129.5t124.5 39.5h170z" />
    <glyph glyph-name="f_j" unicode="fj" horiz-adv-x="534" 
d="M434 611q-19 0 -32 13t-13 32t13 32t32 13t32 -13t13 -32t-13 -32t-32 -13zM320 -200h-22t-16 1v47h31q59 0 78 26.5t19 82.5v487h-243v-444h-48v444h-83v46h83v41q0 90 44.5 129.5t124.5 39.5h12v-46h-11q-65 0 -93.5 -31t-28.5 -92v-41h291v-550q0 -77 -35.5 -108.5
t-102.5 -31.5z" />
    <glyph glyph-name="f_f_j" unicode="ffj" horiz-adv-x="825" 
d="M725 611q-19 0 -32 13t-13 32t13 32t32 13t32 -13t13 -32t-13 -32t-32 -13zM701 444h-243v-444h-48v444h-243v-444h-48v444h-83v46h83v41q0 90 44.5 129.5t124.5 39.5h12v-46h-11q-65 0 -93.5 -31t-28.5 -92v-41h243v41q0 90 44.5 129.5t124.5 39.5h12v-46h-11
q-65 0 -93.5 -31t-28.5 -92v-41h291v-555q0 -77 -35.5 -108.5t-102.5 -31.5h-22t-16 1v47h31q59 0 78 26.5t19 82.5v492z" />
    <glyph glyph-name="f_k" unicode="fk" horiz-adv-x="816" 
d="M410 0v654h-121q-65 0 -93.5 -31t-28.5 -92v-41h121v-46h-121v-444h-48v444h-83v46h83v41q0 90 44.5 129.5t124.5 39.5h170v-491l263 281h64l-190 -206l201 -284h-59l-177 249l-102 -112v-137h-48z" />
    <glyph glyph-name="f_f_k" unicode="ffk" horiz-adv-x="1107" 
d="M701 0v654h-121q-65 0 -93.5 -31t-28.5 -92v-41h121v-46h-121v-444h-48v444h-243v-444h-48v444h-83v46h83v41q0 90 44.5 129.5t124.5 39.5h12v-46h-11q-65 0 -93.5 -31t-28.5 -92v-41h243v41q0 90 44.5 129.5t124.5 39.5h170v-491l263 281h64l-190 -206l201 -284h-59
l-177 249l-102 -112v-137h-48z" />
    <glyph glyph-name="f_f_t" unicode="fft" horiz-adv-x="918" 
d="M701 444h-243v-444h-48v444h-243v-444h-48v444h-83v46h83v41q0 90 44.5 129.5t124.5 39.5h12v-46h-11q-65 0 -93.5 -31t-28.5 -92v-41h243v41q0 90 44.5 129.5t124.5 39.5h11v-46h-10q-65 0 -93.5 -31t-28.5 -92v-41h243v137h48v-137h122v-46h-122v-288q0 -56 18.5 -83.5
t77.5 -27.5h28v-46l-12 -0.5t-23 -0.5q-66 0 -101.5 31t-35.5 108v307z" />
    <glyph glyph-name="t_t" unicode="tt" horiz-adv-x="627" 
d="M547 -2q-66 0 -101.5 31t-35.5 108v307h-243v-288q0 -56 18.5 -83.5t77.5 -27.5h28v-46l-12 -0.5t-23 -0.5q-66 0 -101.5 31t-35.5 108v307h-84v46h84v137h48v-137h243v137h48v-137h122v-46h-122v-288q0 -56 18.5 -83.5t77.5 -27.5h28v-46l-12 -0.5t-23 -0.5z" />
    <glyph glyph-name="t_f" unicode="tf" horiz-adv-x="601" 
d="M256 -2q-66 0 -101.5 31t-35.5 108v307h-84v46h84v137h48v-137h243v42q0 90 44.5 129.5t124.5 39.5h12v-46h-11q-65 0 -93.5 -31t-28.5 -92v-42h121v-46h-121v-444h-48v444h-243v-288q0 -56 18.5 -83.5t77.5 -27.5h28v-46l-12 -0.5t-23 -0.5z" />
    <glyph glyph-name=".notdef" horiz-adv-x="649" 
d="M323 202q13 0 21.5 -9t8.5 -22t-8.5 -22.5t-21.5 -9.5t-22 9.5t-9 22.5t9 22t22 9zM332 153h8l-9 13q4 1 6 4.5t2 7.5q0 5 -3.5 8.5t-9.5 3.5h-17v-37h8v12h7zM175 400q7 -12 3 -25.5t-16 -20.5q-13 -7 -26.5 -4t-20.5 16t-3 26t16 20q13 7 26.5 4t20.5 -16zM324 184
q4 0 6 -2t2 -4q0 -4 -2 -5.5t-6 -1.5h-7v13h7zM290 412q10 6 21 4t21 -10l-29 -92q-4 4 -7.5 9t-7.5 11q-14 25 -14.5 46.5t16.5 31.5zM344 394q4 -4 7.5 -9t6.5 -11q14 -25 14.5 -46.5t-15.5 -31.5q-10 -5 -20.5 -3.5t-20.5 9.5zM324 684l285 -164v-328l-285 -164l-284 164
v328zM338 561v-75h8v34h36v8h-36v25h39v8h-47zM260 561v-8h23v-67h8v67h24v8h-55zM157 259l89 51l-8 15l-68 -40l20 69q4 15 5 28.5t-6 26.5q-10 18 -30 22.5t-39 -5.5q-18 -10 -23.5 -30t4.5 -38t29.5 -23.5t35.5 4.5l4 3l-20 -70zM323 130q16 0 28 12t12 29q0 16 -12 28
t-28 12q-17 0 -28.5 -12t-11.5 -28q0 -17 11.5 -29t28.5 -12zM365 282q26 16 25 45t-17 56q-16 28 -40.5 43t-50.5 0t-25.5 -44t16.5 -56q16 -28 40.5 -43.5t51.5 -0.5zM523 281q24 13 28.5 35t-6.5 40q-12 22 -33 25.5t-37 -6.5q-9 -5 -14.5 -12t-8.5 -15l-26 46l63 37
l-8 14l-78 -45l47 -82l14 8q-1 9 3 18.5t15 15.5q13 7 27 4t22 -16q7 -15 3 -29.5t-18 -22.5q-12 -7 -22.5 -6.5t-20.5 5.5l-5 -17q11 -4 25.5 -5t29.5 8z" />
    <glyph glyph-name=".null" horiz-adv-x="0" 
 />
    <glyph glyph-name="nonmarkingreturn" horiz-adv-x="333" 
 />
    <glyph glyph-name="NULL" horiz-adv-x="0" 
 />
    <glyph glyph-name="NULL" horiz-adv-x="0" 
 />
    <glyph glyph-name="space" unicode=" " horiz-adv-x="290" 
 />
    <glyph glyph-name="exclam" unicode="!" horiz-adv-x="290" 
d="M121 210v491h48v-491h-48zM146 -11q-22 0 -36.5 15t-14.5 36q0 19 14.5 34t36.5 15q20 0 35 -15t15 -34q0 -21 -15 -36t-35 -15z" />
    <glyph glyph-name="quotedbl" unicode="&#x22;" horiz-adv-x="474" 
d="M303 700h52v-245h-52v245zM119 700h52v-245h-52v245z" />
    <glyph glyph-name="numbersign" unicode="#" horiz-adv-x="721" 
d="M290 438l-50 -176h192l51 176h-193zM671 438h-142l-50 -176h139v-46h-152l-62 -216h-46l61 216h-192l-62 -216h-46l61 216h-130v46h143l51 176h-141v46h154l62 217h46l-62 -217h193l62 217h46l-62 -217h129v-46z" />
    <glyph glyph-name="dollar" unicode="$" horiz-adv-x="592" 
d="M283 384l4 -1v281q-77 -3 -123.5 -41.5t-46.5 -95.5q0 -60 47.5 -95.5t118.5 -47.5zM350 324l-17 3v-290q83 4 130.5 45.5t47.5 101.5t-46 93.5t-115 46.5zM333 -114h-46v104q-76 4 -136.5 34.5t-99.5 77.5l34 36q33 -37 83 -65.5t119 -34.5v297l-27 5q-38 7 -73 21
t-61.5 37t-42.5 54.5t-16 72.5q0 43 18 76.5t48 57.5t70 37.5t84 15.5v103h46v-104q65 -7 113.5 -36t85.5 -66l-34 -37q-28 31 -68 57t-97 33v-286l21 -4q98 -16 152.5 -63.5t54.5 -125.5q0 -37 -14.5 -71t-43 -60t-71.5 -42.5t-99 -19.5v-104z" />
    <glyph glyph-name="percent" unicode="%" horiz-adv-x="742" 
d="M210 475q-50 0 -85 34.5t-35 83.5t35 84t85 35q49 0 84 -35t35 -84t-35 -83.5t-84 -34.5zM131 0l428 701h51l-428 -701h-51zM209 672q-30 0 -52.5 -21t-22.5 -58q0 -36 22.5 -57t52.5 -21t53 21t23 57q0 37 -23 58t-53 21zM533 -10q-50 0 -85 34.5t-35 83.5t35 84t85 35
q49 0 84 -35t35 -84t-35 -83.5t-84 -34.5zM532 187q-30 0 -52.5 -21t-22.5 -58q0 -36 22.5 -57t52.5 -21t53 21t23 57q0 37 -23 58t-53 21z" />
    <glyph glyph-name="ampersand" unicode="&#x26;" horiz-adv-x="685" 
d="M314 665q-50 0 -79.5 -27t-29.5 -70q0 -31 16.5 -61.5t37.5 -55.5l27 -36l50 29q31 18 60.5 46t29.5 71q0 45 -31.5 74.5t-80.5 29.5zM116 185q0 -26 11 -53.5t33 -49t54 -35t74 -13.5q35 0 80.5 19.5t88.5 68.5l-184 236l-69 -37q-43 -22 -65.5 -56t-22.5 -80zM552 0
l-66 83q-42 -45 -94.5 -69.5t-104.5 -24.5q-60 0 -101.5 19t-67 47.5t-37 62.5t-11.5 64q0 57 29 105t92 80l54 28q-48 60 -68 97t-20 80q0 60 43 100t118 40t116.5 -43t41.5 -105q0 -49 -29 -86.5t-66 -59.5l-64 -38l172 -224q32 49 53 95t31 86h52q-15 -57 -40 -110.5
t-65 -108.5l91 -118h-59z" />
    <glyph glyph-name="quotesingle" unicode="'" horiz-adv-x="290" 
d="M119 700h52v-245h-52v245z" />
    <glyph glyph-name="parenleft" unicode="(" horiz-adv-x="397" 
d="M347 695q-93 -98 -141 -204.5t-48 -231.5t47 -230.5t141 -203.5l-33 -30q-39 39 -75.5 86.5t-65 104.5t-45.5 125.5t-17 147.5t17 147t45.5 125.5t65.5 105.5t76 88z" />
    <glyph glyph-name="parenright" unicode=")" horiz-adv-x="397" 
d="M51 -175q94 98 141 203.5t47 230.5t-48 231.5t-141 204.5l33 30q39 -40 76 -88t65.5 -105.5t45.5 -125.5t17 -147t-17 -147.5t-45.5 -125.5t-65 -104.5t-75.5 -86.5z" />
    <glyph glyph-name="asterisk" unicode="*" horiz-adv-x="401" 
d="M313 491l-36 -27l-77 106l-77 -107l-36 27l77 106l-124 34l12 43l125 -35v131h46v-131l125 35l13 -43l-125 -34z" />
    <glyph glyph-name="plus" unicode="+" horiz-adv-x="631" 
d="M71 225v43h219v222h47v-222h223v-43h-223v-225h-47v225h-219z" />
    <glyph glyph-name="comma" unicode="," horiz-adv-x="290" 
d="M103 -125h-59l98 239h70z" />
    <glyph glyph-name="hyphen" unicode="-" horiz-adv-x="290" 
d="M270 233h-250v59h250v-59z" />
    <glyph glyph-name="period" unicode="." horiz-adv-x="290" 
d="M144 -11q-21 0 -36.5 15t-15.5 36q0 22 15.5 37.5t36.5 15.5q22 0 38 -15.5t16 -37.5q0 -21 -16 -36t-38 -15z" />
    <glyph glyph-name="slash" unicode="/" horiz-adv-x="461" 
d="M30 -93l355 843h46l-355 -843h-46z" />
    <glyph glyph-name="zero" unicode="0" horiz-adv-x="615" 
d="M307 -11q-65 0 -111.5 31t-76 81.5t-43.5 115.5t-14 133t14 133.5t43.5 116t76 81.5t111.5 31q64 0 111 -31t76.5 -81.5t44 -116t14.5 -133.5t-14.5 -133t-44 -115.5t-76.5 -81.5t-111 -31zM307 39q47 0 84 23t61.5 64t37 98.5t12.5 125.5q0 69 -12.5 126.5t-37 98.5
t-61.5 64t-84 23t-83.5 -23t-61 -64t-37 -98.5t-12.5 -126.5q0 -68 12.5 -125.5t37 -98.5t61 -64t83.5 -23z" />
    <glyph glyph-name="one" unicode="1" horiz-adv-x="502" 
d="M60 50h186v564q-32 -25 -77 -41.5t-109 -20.5v50q60 4 111 27.5t76 71.5h49v-651h176v-50h-412v50z" />
    <glyph glyph-name="two" unicode="2" horiz-adv-x="547" 
d="M121 50h378v-50h-434v22q0 46 10 87.5t35.5 79t69 72t110.5 66.5l19 9q59 28 101 66.5t42 110.5q0 71 -47.5 110t-119.5 39q-64 0 -108 -35.5t-69 -81.5l-43 29q33 57 87 97.5t132 40.5q42 0 81.5 -12t69.5 -36.5t48.5 -63t18.5 -89.5q0 -71 -40 -123.5t-122 -91.5
l-59 -28q-72 -34 -114 -91t-46 -127z" />
    <glyph glyph-name="three" unicode="3" horiz-adv-x="561" 
d="M484 531q0 -33 -10.5 -61t-27.5 -49.5t-38.5 -36t-42.5 -20.5q62 -19 99.5 -63t37.5 -115q0 -49 -18 -86.5t-48 -61.5t-71 -36.5t-86 -12.5q-63 0 -122.5 23.5t-96.5 65.5l36 38q37 -36 81.5 -56t101.5 -20q75 0 123.5 37.5t48.5 109.5q0 74 -55.5 109t-137.5 35h-45v50
h34q37 0 71 9.5t59.5 28t41 45.5t15.5 62q0 36 -14 62t-37 42.5t-52 24.5t-58 8q-49 0 -88.5 -19t-72.5 -50l-36 33q40 39 90 62t107 23q38 0 76 -11.5t68 -34t48.5 -56.5t18.5 -79z" />
    <glyph glyph-name="four" unicode="4" horiz-adv-x="588" 
d="M55 185v40l343 476h50v-466h99v-50h-99v-185h-50v185h-343zM119 235h279v384z" />
    <glyph glyph-name="five" unicode="5" horiz-adv-x="544" 
d="M272 39q38 0 72.5 12.5t60 35t40.5 54.5t15 72q0 85 -52 129t-127 44q-47 0 -87.5 -24.5t-61.5 -55.5h-56l17 395h364v-50h-315l-14 -285q31 38 74 54t90 16q43 0 82.5 -14.5t69.5 -42.5t48 -69.5t18 -95.5q0 -44 -16 -85t-46.5 -72t-75.5 -49.5t-101 -18.5
q-63 0 -116 25.5t-93 69.5l37 38q33 -37 75.5 -60t97.5 -23z" />
    <glyph glyph-name="six" unicode="6" horiz-adv-x="618" 
d="M557 216q0 -54 -18 -96.5t-48.5 -71.5t-71 -44t-85.5 -15q-56 0 -103 26.5t-80.5 74t-52 116t-18.5 151.5q0 78 17 143.5t50 112.5t82 73t112 26q60 0 105 -22.5t75 -55.5l-36 -40q-25 27 -62.5 48t-81.5 21q-53 0 -92 -23t-65 -61.5t-39 -89.5t-14 -106q0 -18 1.5 -51
t2.5 -51q17 78 70.5 120t128.5 42q43 0 83 -15.5t71 -45t50 -71.5t19 -95zM507 217q0 42 -15 75.5t-39 56t-54.5 34.5t-61.5 12q-35 0 -66 -13t-54.5 -36t-37.5 -54.5t-14 -67.5q0 -39 14 -73t38 -59t56 -39t67 -14q71 0 119 49t48 129z" />
    <glyph glyph-name="seven" unicode="7" horiz-adv-x="533" 
d="M71 487v214h443v-55q-116 -140 -179.5 -292t-76.5 -327l-2 -27h-52l2 24q7 85 26.5 171t51 166t75.5 154t100 136h-340v-164h-48z" />
    <glyph glyph-name="eight" unicode="8" horiz-adv-x="546" 
d="M273 -11q-44 0 -83.5 14t-69.5 39.5t-47.5 62t-17.5 82.5q0 36 14 66.5t34.5 53.5t43 37t39.5 17q-13 5 -32.5 17t-37.5 31.5t-30.5 47.5t-12.5 63q0 46 17.5 81.5t45.5 60t64 37.5t73 13t73 -13t64 -37.5t45.5 -60t17.5 -81.5q0 -35 -12.5 -63t-30 -47.5t-37 -31.5
t-32.5 -17q16 -3 38.5 -17t43 -37t34.5 -53.5t14 -66.5q0 -46 -17.5 -82.5t-47.5 -62t-69.5 -39.5t-83.5 -14zM273 334q-69 0 -118.5 -39t-49.5 -110q0 -36 14 -64t37.5 -46.5t54 -28t62.5 -9.5q33 0 63.5 9.5t53.5 28t37 46.5t14 64q0 35 -13.5 63t-36.5 47t-53.5 29
t-64.5 10zM273 664q-22 0 -48.5 -7.5t-49 -24t-37.5 -44t-15 -66.5q0 -68 44.5 -103.5t105.5 -35.5q60 0 105 35.5t45 103.5q0 39 -15 66.5t-37.5 44t-49 24t-48.5 7.5z" />
    <glyph glyph-name="nine" unicode="9" horiz-adv-x="618" 
d="M122 484q0 -42 15 -75.5t39 -56t54.5 -34.5t61.5 -12q35 0 66 13t54.5 36t37.5 54.5t14 67.5q0 39 -14 73t-38 59t-56 39t-67 14q-71 0 -119 -49t-48 -129zM72 485q0 54 18 96.5t48.5 71.5t71 44t85.5 15q56 0 103 -26.5t80.5 -74t52 -116t18.5 -151.5q0 -78 -17 -143.5
t-50 -112.5t-82 -73t-112 -26q-60 0 -105 22.5t-75 55.5l36 40q25 -27 62.5 -47.5t81.5 -20.5q53 0 92 23t65 61t39 89t14 106q0 18 -1.5 51t-2.5 51q-17 -78 -70.5 -120t-128.5 -42q-43 0 -83 15.5t-71 45t-50 71.5t-19 95z" />
    <glyph glyph-name="colon" unicode=":" horiz-adv-x="290" 
d="M144 392q-21 0 -36.5 15t-15.5 36q0 22 15.5 37.5t36.5 15.5q22 0 38 -15.5t16 -37.5q0 -21 -16 -36t-38 -15zM144 -11q-21 0 -36.5 15t-15.5 36q0 22 15.5 37.5t36.5 15.5q22 0 38 -15.5t16 -37.5q0 -21 -16 -36t-38 -15z" />
    <glyph glyph-name="semicolon" unicode=";" horiz-adv-x="290" 
d="M161 392q-21 0 -36.5 15t-15.5 36q0 22 15.5 37.5t36.5 15.5q22 0 38 -15.5t16 -37.5q0 -21 -16 -36t-38 -15zM103 -125h-59l98 239h70z" />
    <glyph glyph-name="less" unicode="&#x3c;" horiz-adv-x="599" 
d="M531 -11l-491 221v70l491 222v-53l-463 -204l463 -204v-52z" />
    <glyph glyph-name="equal" unicode="=" horiz-adv-x="658" 
d="M573 331h-490v43h490v-43zM573 152h-490v43h490v-43z" />
    <glyph glyph-name="greater" unicode="&#x3e;" horiz-adv-x="599" 
d="M68 502l491 -222v-70l-491 -221v52l463 204l-463 204v53z" />
    <glyph glyph-name="question" unicode="?" horiz-adv-x="518" 
d="M254 212h-53v152h14q48 0 84.5 13t61 34t36.5 50t12 60q0 61 -43.5 101.5t-112.5 40.5q-62 0 -105.5 -27.5t-76.5 -74.5l-36 39q37 51 91.5 81.5t126.5 30.5q44 0 83 -13.5t67 -37.5t44 -59t16 -77q0 -37 -13 -72.5t-39 -63.5t-65.5 -48t-91.5 -26v-103zM225 -11
q-22 0 -38 15.5t-16 37.5q0 23 16 39t38 16q23 0 39.5 -16t16.5 -39q0 -22 -16.5 -37.5t-39.5 -15.5z" />
    <glyph glyph-name="at" unicode="@" horiz-adv-x="1111" 
d="M1011 263q0 -60 -15 -110.5t-40 -86.5t-59 -56.5t-71 -20.5q-46 0 -73.5 30t-29.5 79q-28 -51 -75.5 -80t-113.5 -29q-52 0 -94.5 20t-71.5 54.5t-45 81.5t-16 100t16.5 100t46.5 81.5t72 55t92 20.5q66 0 112 -29t74 -79v96h48v-375q0 -32 16.5 -55.5t47.5 -23.5
q33 0 58 21t41 53.5t24 73t8 79.5q0 84 -25 158t-74.5 127.5t-125 84.5t-175.5 31q-94 0 -171 -32.5t-131 -88t-83.5 -131.5t-29.5 -163q0 -89 31.5 -164t88.5 -128.5t137.5 -83.5t176.5 -30q54 0 101 8.5t84 21.5v-48q-34 -13 -81 -21.5t-104 -8.5q-109 0 -198 35t-152 96
t-97.5 144t-34.5 179t33.5 180.5t93.5 147t146 99t190 36.5q108 0 192 -36t140.5 -97t86 -143t29.5 -173zM545 456q-43 0 -78 -17t-60 -46t-38.5 -67.5t-13.5 -81.5q0 -44 13 -82.5t37.5 -66t60 -43t79.5 -15.5q41 0 74 16t55.5 44t35 66t12.5 81t-12.5 81.5t-35 67.5
t-55.5 46t-74 17z" />
    <glyph glyph-name="A" unicode="A" horiz-adv-x="691" 
d="M345 657l-171 -444h343zM378 700l273 -700h-49l-66 165h-381l-64 -165h-51l273 700h65z" />
    <glyph glyph-name="B" unicode="B" horiz-adv-x="649" 
d="M90 0v700h256q111 0 172.5 -46.5t61.5 -131.5q0 -54 -25.5 -94.5t-71.5 -62.5q32 -11 54.5 -30t36 -42.5t19.5 -49.5t6 -51q0 -89 -60.5 -140.5t-175.5 -51.5h-273zM358 652h-220v-271h221q35 0 67 8t55.5 25t37 43.5t13.5 61.5q0 36 -14 61.5t-37.5 41t-55.5 23t-67 7.5
zM138 48h236q76 0 126.5 36t50.5 111q0 35 -14 61.5t-37.5 43.5t-55 25t-66.5 8h-240v-285z" />
    <glyph glyph-name="C" unicode="C" horiz-adv-x="740" 
d="M658 145l32 -36q-48 -57 -119 -88.5t-151 -31.5q-72 0 -136.5 28t-111.5 76.5t-74.5 115t-27.5 141.5t27.5 141.5t75 115t111.5 77t136 28.5q81 0 144.5 -33.5t111.5 -88.5l-34 -34q-40 49 -93 78.5t-126 29.5q-64 0 -119.5 -24t-96 -65.5t-63.5 -99.5t-23 -125
q0 -66 23 -123.5t63.5 -99t96 -66t119.5 -24.5q72 0 133.5 28.5t101.5 79.5z" />
    <glyph glyph-name="D" unicode="D" horiz-adv-x="708" 
d="M90 0v700h172q79 0 148.5 -19.5t119.5 -60.5t79 -107t29 -158q0 -87 -26 -154t-74.5 -111.5t-118.5 -67t-157 -22.5h-172zM271 652h-133v-604h134q61 0 118.5 16t100.5 52t69.5 95t26.5 144q0 82 -26.5 139t-70 92t-100.5 50.5t-119 15.5z" />
    <glyph glyph-name="E" unicode="E" horiz-adv-x="585" 
d="M90 0v700h445v-48h-397v-271h378v-48h-378v-285h397v-48h-445z" />
    <glyph glyph-name="F" unicode="F" horiz-adv-x="563" 
d="M138 0h-48v700h423v-48h-375v-272h353v-48h-353v-332z" />
    <glyph glyph-name="G" unicode="G" horiz-adv-x="759" 
d="M427 289v48h252v-241q-48 -51 -116 -79t-143 -28q-72 0 -136.5 28t-111.5 76.5t-74.5 115t-27.5 141.5t27.5 141.5t75 115t111.5 77t136 28.5q81 0 144.5 -33.5t111.5 -88.5l-35 -36q-37 44 -91 77t-127 33q-65 0 -120.5 -24t-95.5 -65.5t-63 -99.5t-23 -125
q0 -66 23 -123.5t63 -99t95.5 -66t120.5 -24.5q60 0 114 18.5t94 55.5v178h-204z" />
    <glyph glyph-name="H" unicode="H" horiz-adv-x="705" 
d="M567 0v333h-429v-333h-48v700h48v-319h429v319h48v-700h-48z" />
    <glyph glyph-name="I" unicode="I" horiz-adv-x="228" 
d="M90 0v700h48v-700h-48z" />
    <glyph glyph-name="J" unicode="J" horiz-adv-x="506" 
d="M46 84l34 34q22 -35 56.5 -59.5t87.5 -24.5q73 0 113.5 50.5t40.5 140.5v475h48v-475q0 -110 -53 -173t-148 -63q-63 0 -108.5 27t-70.5 68z" />
    <glyph glyph-name="K" unicode="K" horiz-adv-x="616" 
d="M90 0v700h48v-442l355 442h62l-240 -298l261 -402h-58l-237 361l-143 -178v-183h-48z" />
    <glyph glyph-name="L" unicode="L" horiz-adv-x="534" 
d="M90 0v700h48v-652h356v-48h-404z" />
    <glyph glyph-name="M" unicode="M" horiz-adv-x="815" 
d="M434 160h-54l-242 470v-630h-48v700h66l251 -489l251 489h67v-700h-48v631z" />
    <glyph glyph-name="N" unicode="N" horiz-adv-x="726" 
d="M90 0v700h61l437 -635v635h48v-700h-61l-437 634v-634h-48z" />
    <glyph glyph-name="O" unicode="O" horiz-adv-x="840" 
d="M420 -11q-72 0 -136.5 28t-111.5 76.5t-74.5 115t-27.5 141.5t27.5 141.5t75 115t111.5 77t136 28.5q73 0 137 -28.5t111.5 -77t74.5 -115t27 -141.5t-27 -141t-74.5 -114.5t-111.5 -77t-137 -28.5zM420 664q-64 0 -119 -24t-95 -66t-62.5 -99.5t-22.5 -124.5t23 -124.5
t62.5 -99t94.5 -65.5t119 -24t119 24.5t94.5 66.5t62.5 99.5t23 122.5q0 67 -22.5 124.5t-62.5 99.5t-95 66t-119 24z" />
    <glyph glyph-name="P" unicode="P" horiz-adv-x="647" 
d="M322 267h-184v-267h-48v700h232q118 0 186.5 -59.5t68.5 -156.5q0 -99 -68 -158t-187 -59zM337 652h-199v-337h199q86 0 137.5 41.5t51.5 126.5q0 82 -51.5 125.5t-137.5 43.5z" />
    <glyph glyph-name="Q" unicode="Q" horiz-adv-x="841" 
d="M738 -15l-90 90q-46 -40 -104 -63t-124 -23q-72 0 -136.5 28t-111.5 76.5t-74.5 115t-27.5 141.5t27.5 141.5t75 115t111.5 77t136 28.5q73 0 137 -28.5t111.5 -77t74.5 -115t27 -141.5q0 -69 -23.5 -131.5t-65.5 -110.5l90 -89zM420 37q56 0 106 19t88 53l-94 94l33 33
l94 -93q34 41 53 94t19 113q0 67 -22.5 124.5t-62.5 99.5t-95 66t-119 24t-119 -24t-95 -66t-62.5 -99.5t-22.5 -124.5t23 -124.5t62.5 -99t94.5 -65.5t119 -24z" />
    <glyph glyph-name="R" unicode="R" horiz-adv-x="645" 
d="M336 652h-198v-336h198q90 0 140 41t50 126q0 82 -50 125.5t-140 43.5zM339 268h-201v-268h-48v700h232q122 0 188.5 -55t66.5 -162q0 -90 -47 -142.5t-135 -67.5l190 -273h-60z" />
    <glyph glyph-name="S" unicode="S" horiz-adv-x="590" 
d="M339 324l-90 16q-38 7 -73 21t-61.5 37t-42.5 54.5t-16 72.5q0 44 19.5 79t52 59t75.5 36.5t89 12.5q77 0 133 -31t96 -72l-34 -37q-32 35 -80 63.5t-121 28.5q-81 0 -130.5 -39t-49.5 -98q0 -60 47.5 -95.5t118.5 -47.5l71 -12q98 -16 152.5 -63.5t54.5 -125.5
q0 -39 -16 -74.5t-47 -61.5t-77.5 -42t-108.5 -16q-85 0 -152 31t-109 82l34 36q36 -40 93 -70.5t138 -30.5q90 0 142.5 42t52.5 105q0 60 -46 93.5t-115 46.5z" />
    <glyph glyph-name="T" unicode="T" horiz-adv-x="598" 
d="M40 700h518v-47h-238v-653h-48v653h-232v47z" />
    <glyph glyph-name="U" unicode="U" horiz-adv-x="685" 
d="M557 275v425h48v-427q0 -61 -17.5 -113t-51 -90t-83 -59.5t-111.5 -21.5t-111 21.5t-82.5 59.5t-51 90t-17.5 113v427h48v-426q0 -49 14 -92t40.5 -75t67 -51t92.5 -19t92.5 19t67.5 51t41 75.5t14 92.5z" />
    <glyph glyph-name="V" unicode="V" horiz-adv-x="648" 
d="M550 700h58l-252 -700h-64l-252 700h58l226 -652z" />
    <glyph glyph-name="W" unicode="W" horiz-adv-x="932" 
d="M629 0l-163 630l-163 -630h-69l-194 700h57l169 -651l168 651h64l168 -651l169 651h57l-194 -700h-69z" />
    <glyph glyph-name="X" unicode="X" horiz-adv-x="635" 
d="M52 700h58l207 -308l208 308h59l-230 -342l241 -358h-59l-219 326l-218 -326h-59l241 358z" />
    <glyph glyph-name="Y" unicode="Y" horiz-adv-x="630" 
d="M532 700h58l-251 -367v-333h-48v333l-251 367h57l218 -319z" />
    <glyph glyph-name="Z" unicode="Z" horiz-adv-x="586" 
d="M52 700h484v-50l-431 -602h428v-48h-483v50l430 602h-428v48z" />
    <glyph glyph-name="bracketleft" unicode="[" horiz-adv-x="412" 
d="M362 701v-48h-166v-799h166v-48h-212v895h212z" />
    <glyph glyph-name="backslash" unicode="\" horiz-adv-x="461" 
d="M30 750h46l355 -843h-46z" />
    <glyph glyph-name="bracketright" unicode="]" horiz-adv-x="412" 
d="M50 653v48h212v-895h-212v48h166v799h-166z" />
    <glyph glyph-name="asciicircum" unicode="^" horiz-adv-x="618" 
d="M283 417h52l211 -343h-54l-183 302l-185 -302h-52z" />
    <glyph glyph-name="underscore" unicode="_" horiz-adv-x="500" 
d="M20 -194v47h460v-47h-460z" />
    <glyph glyph-name="grave" unicode="`" horiz-adv-x="500" 
d="M333 569h-52l-114 131h70z" />
    <glyph glyph-name="a" unicode="a" horiz-adv-x="513" 
d="M243 231q-68 0 -101.5 -29t-33.5 -72q0 -46 34.5 -69.5t83.5 -23.5q54 0 99 33.5t70 70.5v61q-36 11 -75.5 20t-76.5 9zM397 80q-29 -35 -71 -63t-107 -28q-32 0 -61 9t-50.5 27t-34.5 44.5t-13 61.5q0 71 50 109.5t126 38.5q38 0 79 -10t80 -21v64q0 69 -41.5 105.5
t-103.5 36.5q-48 0 -81.5 -22t-52.5 -53l-36 34q29 43 74 66t97 23q85 0 138.5 -48.5t53.5 -139.5v-314h-46v80z" />
    <glyph glyph-name="b" unicode="b" horiz-adv-x="601" 
d="M316 502q50 0 92 -20.5t71.5 -55t45.5 -81.5t16 -100t-16 -100t-45.5 -81.5t-71.5 -54.5t-92 -20q-62 0 -113 29t-79 80v-98h-48v700h48v-306q28 50 79 79t113 29zM310 38q43 0 76.5 16t57 43.5t36 65.5t12.5 82q0 42 -13 80t-36.5 66.5t-57.5 45.5t-75 17
q-40 0 -74.5 -17t-59 -45.5t-38.5 -66.5t-14 -80q0 -43 14 -80.5t38.5 -65.5t59 -44.5t74.5 -16.5z" />
    <glyph glyph-name="c" unicode="c" horiz-adv-x="536" 
d="M456 105l35 -33q-33 -38 -80.5 -60.5t-103.5 -22.5q-53 0 -98 20t-78 54.5t-52 81.5t-19 100t18.5 100t51.5 81.5t78 55t98 20.5q52 0 98.5 -20.5t78.5 -59.5l-36 -35q-26 31 -62.5 48.5t-77.5 17.5q-40 0 -76 -16.5t-62.5 -44.5t-42 -66t-15.5 -81t15.5 -81t42 -66
t62 -44.5t76.5 -16.5q44 0 82.5 18t66.5 50z" />
    <glyph glyph-name="d" unicode="d" horiz-adv-x="601" 
d="M291 454q-41 0 -75 -17t-57.5 -45.5t-36.5 -66.5t-13 -80q0 -44 12.5 -82t36 -65.5t57 -43.5t76.5 -16q40 0 74.5 16.5t59 44.5t38.5 65.5t14 80.5q0 42 -14 80t-38.5 66.5t-59 45.5t-74.5 17zM285 -11q-50 0 -92 20t-71.5 54.5t-45.5 81.5t-16 100t16 100t45.5 81.5
t71.5 55t92 20.5q62 0 113 -29t79 -79v306h48v-700h-48v98q-28 -51 -79 -80t-113 -29z" />
    <glyph glyph-name="e" unicode="e" horiz-adv-x="554" 
d="M446 107l36 -33q-31 -34 -75 -59.5t-113 -25.5q-54 0 -98 20t-74 54.5t-46 81.5t-16 100q0 55 14.5 102t42.5 81.5t70.5 54t98.5 19.5q53 0 92 -20.5t65 -55t38.5 -81.5t12.5 -100v-11h-383q2 -86 51.5 -141.5t132.5 -55.5q50 0 86 19.5t65 50.5zM439 282
q-4 72 -44 121.5t-109 49.5q-78 0 -122.5 -47t-51.5 -124h327z" />
    <glyph glyph-name="f" unicode="f" horiz-adv-x="310" 
d="M36 490h83v42q0 90 44.5 129.5t124.5 39.5h12v-46h-11q-65 0 -93.5 -31t-28.5 -92v-42h121v-46h-121v-444h-48v444h-83v46z" />
    <glyph glyph-name="g" unicode="g" horiz-adv-x="591" 
d="M287 453q-39 0 -72 -15t-56.5 -41.5t-37 -62.5t-13.5 -78q0 -84 49 -140t130 -56t131.5 55.5t50.5 140.5t-50.5 141t-131.5 56zM515 490v-440q0 -54 -12.5 -101t-40 -81t-71.5 -53.5t-106 -19.5q-78 0 -126 30t-79 67l39 36q25 -32 65 -57.5t99 -25.5q101 0 142.5 57.5
t41.5 147.5v61q-28 -50 -78.5 -74.5t-108.5 -24.5q-47 0 -87 18t-69.5 50.5t-46.5 77t-17 97.5t16.5 98.5t45.5 78.5t69.5 51.5t88.5 18.5q67 0 114.5 -28t72.5 -77v93h48z" />
    <glyph glyph-name="h" unicode="h" horiz-adv-x="564" 
d="M494 0h-48v239q0 95 -30.5 155t-120.5 60q-41 0 -73 -16.5t-53.5 -45t-33 -68t-11.5 -85.5v-239h-48v700h48v-295q28 50 72 73.5t104 23.5q56 0 94 -20t60 -54.5t31 -82t9 -100.5v-245z" />
    <glyph glyph-name="i" unicode="i" horiz-adv-x="200" 
d="M100 622q-19 0 -32 13t-13 32t13 32t32 13t32 -13t13 -32t-13 -32t-32 -13zM76 0v490h48v-490h-48z" />
    <glyph glyph-name="j" unicode="j" horiz-adv-x="207" 
d="M107 622q-19 0 -32 13t-13 32t13 32t32 13t32 -13t13 -32t-13 -32t-32 -13zM83 -48v538h48v-555q0 -77 -35.5 -108.5t-102.5 -31.5h-22t-16 1v47h31q59 0 78 26.5t19 82.5z" />
    <glyph glyph-name="k" unicode="k" horiz-adv-x="482" 
d="M76 0v700h48v-492l262 282h65l-190 -206l201 -284h-59l-177 249l-102 -112v-137h-48z" />
    <glyph glyph-name="l" unicode="l" horiz-adv-x="200" 
d="M76 0v700h48v-700h-48z" />
    <glyph glyph-name="m" unicode="m" horiz-adv-x="863" 
d="M123 490v-81q22 45 62 69t99 24q57 0 95 -26.5t64 -73.5q25 48 65 74t99 26q99 0 142.5 -56.5t43.5 -158.5v-287h-48v285q0 70 -28 119.5t-109 49.5q-60 0 -104.5 -48t-44.5 -144v-262h-48v279q0 76 -32 125.5t-101 49.5q-76 0 -114.5 -53.5t-38.5 -138.5v-262h-49v490
h47z" />
    <glyph glyph-name="n" unicode="n" horiz-adv-x="564" 
d="M494 0h-48v239q0 95 -30.5 155t-120.5 60q-41 0 -73.5 -16.5t-54 -45t-32.5 -68t-11 -85.5v-239h-48v490h47v-85q28 50 72 73.5t105 23.5q56 0 94 -20t60 -54.5t31 -82t9 -100.5v-245z" />
    <glyph glyph-name="o" unicode="o" horiz-adv-x="614" 
d="M307 -11q-53 0 -98 20t-78 54.5t-52 81.5t-19 100t19 100t52 81.5t78 55t98 20.5t98 -20.5t78 -55t52 -81.5t19 -100t-19 -100t-52 -81.5t-78 -54.5t-98 -20zM307 454q-40 0 -75.5 -16t-62 -44t-42.5 -66.5t-16 -82.5t16 -82t42.5 -66t62 -44t75.5 -16t76 16t62.5 44
t42 66t15.5 82t-15.5 82t-42 66t-62 44.5t-76.5 16.5z" />
    <glyph glyph-name="p" unicode="p" horiz-adv-x="601" 
d="M310 37q41 0 75 17t57.5 45.5t36.5 66.5t13 80q0 44 -12.5 82t-36 65.5t-57 43.5t-76.5 16q-40 0 -74.5 -16.5t-59 -44.5t-38.5 -65.5t-14 -80.5q0 -42 14 -80t38.5 -66.5t59 -45.5t74.5 -17zM316 502q50 0 92 -20t71.5 -54.5t45.5 -81.5t16 -100t-16 -100t-45.5 -81.5
t-71.5 -55t-92 -20.5q-62 0 -113 29t-79 79v-291h-48v684h48v-97q28 51 79 80t113 29z" />
    <glyph glyph-name="q" unicode="q" horiz-adv-x="601" 
d="M285 -11q-50 0 -92 20.5t-71.5 55t-45.5 81.5t-16 100t16 100t45.5 81.5t71.5 54.5t92 20q62 0 113 -29t79 -80v97h48v-684h-48v291q-28 -50 -79 -79t-113 -29zM291 453q-43 0 -76.5 -16t-57 -43.5t-36 -65.5t-12.5 -82q0 -42 13 -80t36.5 -66.5t57.5 -45.5t75 -17
q40 0 74.5 17t59 45.5t38.5 66.5t14 80q0 43 -14 80.5t-38.5 65.5t-59 44.5t-74.5 16.5z" />
    <glyph glyph-name="r" unicode="r" horiz-adv-x="345" 
d="M315 502v-49h-18q-40 0 -72 -16.5t-54.5 -45t-34.5 -67.5t-12 -85v-239h-48v490h45v-96q24 50 72.5 79t106.5 29h15z" />
    <glyph glyph-name="s" unicode="s" horiz-adv-x="464" 
d="M277 215l-77 18q-63 15 -98.5 48t-35.5 87q0 34 14 59.5t37 42t53 24.5t61 8q50 0 91 -18.5t74 -50.5l-36 -38q-19 19 -51 39.5t-83 20.5q-47 0 -79 -20.5t-32 -63.5q0 -29 17.5 -53.5t68.5 -36.5l82 -19q64 -15 100 -48.5t36 -84.5q0 -61 -49 -100.5t-130 -39.5
q-63 0 -112.5 23t-77.5 57l32 37q29 -34 69 -52t89 -18q60 0 95 23t35 66q0 32 -22.5 55.5t-70.5 34.5z" />
    <glyph glyph-name="t" unicode="t" horiz-adv-x="336" 
d="M35 490h84v137h48v-137h122v-46h-122v-288q0 -56 18.5 -83.5t77.5 -27.5h28v-46l-12 -0.5t-23 -0.5q-66 0 -101.5 31t-35.5 108v307h-84v46z" />
    <glyph glyph-name="u" unicode="u" horiz-adv-x="564" 
d="M70 490h48v-238q0 -95 30.5 -155t120.5 -60q41 0 73 16.5t53.5 45t33 68t11.5 85.5v238h48v-490h-45v86q-28 -50 -72.5 -73.5t-106.5 -23.5q-56 0 -94 20t-60 54.5t-31 82t-9 100.5v244z" />
    <glyph glyph-name="v" unicode="v" horiz-adv-x="485" 
d="M211 0l-186 490h53l165 -449l165 449h52l-186 -490h-63z" />
    <glyph glyph-name="w" unicode="w" horiz-adv-x="770" 
d="M519 0l-134 449l-134 -449h-74l-147 490h51l133 -449l133 449h76l133 -449l133 449h51l-147 -490h-74z" />
    <glyph glyph-name="x" unicode="x" horiz-adv-x="458" 
d="M89 490l140 -208l140 208h58l-163 -239l174 -251h-59l-150 221l-151 -221h-58l173 251l-163 239h59z" />
    <glyph glyph-name="y" unicode="y" horiz-adv-x="507" 
d="M208 -194h-52l71 189l-202 495h57l174 -440l172 440h54z" />
    <glyph glyph-name="z" unicode="z" horiz-adv-x="475" 
d="M70 490h348v-46l-298 -398h310v-46h-370v49l298 395h-288v46z" />
    <glyph glyph-name="braceleft" unicode="{" horiz-adv-x="482" 
d="M267 546v-582q0 -54 22 -82t64 -28h79v-48h-71q-39 0 -66.5 12.5t-44 34t-24 49.5t-7.5 58v272h-119v44h119v274q0 30 7.5 57.5t24 48t44 33t66.5 12.5h71v-48h-79q-46 0 -66 -29t-20 -78z" />
    <glyph glyph-name="bar" unicode="|" horiz-adv-x="426" 
d="M236 700v-894h-46v894h46z" />
    <glyph glyph-name="braceright" unicode="}" horiz-adv-x="482" 
d="M215 -36v582q0 49 -20 78t-66 29h-79v48h71q39 0 66.5 -12.5t44 -33t24 -48t7.5 -57.5v-274h119v-44h-119v-272q0 -30 -7.5 -58t-24 -49.5t-44 -34t-66.5 -12.5h-71v48h79q42 0 64 28t22 82z" />
    <glyph glyph-name="asciitilde" unicode="~" horiz-adv-x="495" 
d="M379 315h45q6 -54 -15.5 -82.5t-60.5 -28.5q-16 0 -33.5 6t-23.5 9l-70 33q-12 5 -23.5 9t-23.5 4q-22 0 -30.5 -15.5t-8.5 -40.5h-46q-6 54 15.5 82.5t61.5 28.5q16 0 33.5 -6.5t22.5 -8.5l71 -33q12 -5 23 -9t23 -4q22 0 31 16t9 40z" />
    <glyph glyph-name="nbspace" unicode="&#xa0;" horiz-adv-x="290" 
 />
    <glyph glyph-name="exclamdown" unicode="&#xa1;" horiz-adv-x="290" 
d="M145 502q22 0 36.5 -15t14.5 -36q0 -19 -14.5 -34t-36.5 -15q-20 0 -35 15t-15 34q0 21 15 36t35 15zM170 279v-473h-48v473h48z" />
    <glyph glyph-name="cent" unicode="&#xa2;" horiz-adv-x="531" 
d="M491 72q-30 -34 -72 -56t-92 -26v-105h-46v105q-48 5 -88.5 27t-70 55.5t-46 78t-16.5 94.5t16.5 94.5t46 78.5t70 56t88.5 27v105h46v-105q46 -4 86.5 -24t69.5 -55l-36 -35q-23 28 -54 44.5t-66 20.5v-414q38 4 71 21.5t58 45.5zM111 245q0 -79 49 -137.5t121 -68.5
v412q-72 -10 -121 -68.5t-49 -137.5z" />
    <glyph glyph-name="sterling" unicode="&#xa3;" horiz-adv-x="631" 
d="M223 380h215v-43h-206l63 -291h230v168h46v-214h-477v46h152l-63 291h-90v43h81q-7 31 -11 62.5t-4 55.5q0 60 17.5 101t45 66t62.5 36t70 11q36 0 67 -11t56.5 -27.5t46 -37.5t35.5 -40l-32 -32q-28 36 -71 69t-101 33q-79 0 -113.5 -47.5t-34.5 -119.5q0 -25 3.5 -52.5
t9.5 -53.5z" />
    <glyph glyph-name="currency" unicode="&#xa4;" horiz-adv-x="561" 
d="M98 246q0 31 10 59.5t27 52.5l-61 61l31 32l61 -61q24 18 53.5 28t61.5 10q31 0 60 -10t53 -28l61 60l32 -32l-61 -61q17 -23 27 -51.5t10 -59.5t-10 -60.5t-28 -52.5l63 -62l-31 -32l-63 62q-24 -18 -53 -27.5t-60 -9.5q-32 0 -60.5 9.5t-52.5 27.5l-63 -62l-32 32
l62 62q-17 23 -27 52t-10 61zM138 246q0 -56 40.5 -99t102.5 -43t102 43t40 99q0 28 -10.5 54t-29.5 45.5t-45 31.5t-57 12q-32 0 -58.5 -12t-45 -31.5t-29 -45.5t-10.5 -54z" />
    <glyph glyph-name="yen" unicode="&#xa5;" horiz-adv-x="630" 
d="M537 155h-198v-155h-48v155h-198v48h198v102h-198v48h187l-190 348h53l172 -325l171 325h54l-191 -348h188v-48h-198v-102h198v-48z" />
    <glyph glyph-name="brokenbar" unicode="&#xa6;" horiz-adv-x="426" 
d="M190 335v365h46v-365h-46zM236 171v-365h-46v365h46z" />
    <glyph glyph-name="section" unicode="&#xa7;" horiz-adv-x="529" 
d="M304 334l-80 30q-19 7 -39 16t-37 20q-28 -13 -44 -35t-16 -53q0 -29 11.5 -52t30.5 -40.5t43.5 -31t49.5 -23.5l76 -30q21 -8 41.5 -17.5t39.5 -20.5q28 16 44.5 38.5t16.5 52.5q0 32 -12 55.5t-31 40.5t-43.5 28.5t-50.5 21.5zM48 -74l38 33q12 -20 31 -41t43.5 -38
t55.5 -27.5t67 -10.5q66 0 103.5 30.5t37.5 76.5q0 31 -12.5 52.5t-32 37.5t-45 28t-51.5 23l-80 34q-31 13 -60 29t-52 37.5t-37 51t-14 68.5q0 42 19 73.5t49 50.5q-24 22 -38.5 52t-14.5 69q0 40 17 70t43.5 49t60 28.5t66.5 9.5q74 0 119.5 -28.5t80.5 -67.5l-34 -33
q-28 31 -64.5 56t-107.5 25q-55 0 -94 -28.5t-39 -78.5q0 -29 12.5 -53t32.5 -43t45.5 -33t50.5 -23l76 -26q80 -28 124.5 -70.5t44.5 -112.5q0 -43 -18.5 -75.5t-47.5 -54.5q22 -20 35.5 -47t13.5 -63q0 -75 -53 -118t-133 -43q-46 0 -83.5 11.5t-67 30t-51.5 42t-36 47.5z
" />
    <glyph glyph-name="dieresis" unicode="&#xa8;" horiz-adv-x="500" 
d="M162 610q-19 0 -32 13t-13 32t13 32t32 13t32 -13t13 -32t-13 -32t-32 -13zM338 610q-19 0 -32 13t-13 32t13 32t32 13t32 -13t13 -32t-13 -32t-32 -13z" />
    <glyph glyph-name="copyright" unicode="&#xa9;" horiz-adv-x="870" 
d="M435 -11q-72 0 -136.5 28t-111.5 76.5t-74.5 115t-27.5 141.5t27.5 141.5t75 115t111.5 77t136 28.5q73 0 137 -28.5t111.5 -77.5t74.5 -115t27 -141t-27 -141t-74.5 -114.5t-111.5 -77t-137 -28.5zM438 664q-65 0 -121 -24t-96.5 -65.5t-64 -99.5t-23.5 -125
q0 -66 23.5 -123.5t64 -99t96.5 -66t121 -24.5t120 24.5t94.5 66t62 99t22.5 123.5q0 67 -22.5 125t-62 99.5t-94.5 65.5t-120 24zM556 249l36 -34q-25 -28 -59.5 -46.5t-85.5 -18.5q-45 0 -81 15.5t-60 42.5t-37 63.5t-13 77.5q0 43 14.5 79.5t40 63.5t61 42.5t78.5 15.5
q40 0 73.5 -14t59.5 -45l-34 -37q-16 22 -42.5 36t-60.5 14q-61 0 -100 -46t-39 -109t38 -107.5t101 -44.5q37 0 64.5 15t45.5 37z" />
    <glyph glyph-name="ordfeminine" unicode="&#xaa;" horiz-adv-x="391" 
d="M170 334q-49 0 -84.5 28t-35.5 81q0 51 36.5 80.5t97.5 29.5q41 0 74.5 -9t34.5 -9v45q0 46 -28.5 68.5t-74.5 22.5q-22 0 -40 -7t-29.5 -15.5t-17.5 -15.5l-6 -7l-28 31q10 12 40.5 33.5t81.5 21.5q65 0 105 -32.5t40 -104.5v-233h-40v43q-22 -23 -54 -37t-72 -14z
M293 430v67q-16 4 -42.5 9.5t-61.5 5.5q-48 0 -71 -20.5t-23 -49.5q0 -31 23.5 -48t60.5 -17q32 0 61.5 13.5t52.5 39.5z" />
    <glyph glyph-name="guillemotleft" unicode="&#xab;" horiz-adv-x="545" 
d="M60 244l138 246h54l-139 -247l138 -243h-54zM283 244l138 246h54l-139 -247l138 -243h-54z" />
    <glyph glyph-name="logicalnot" unicode="&#xac;" horiz-adv-x="636" 
d="M507 245h-439v43h479v-194h-40v151z" />
    <glyph glyph-name="uni00AD" unicode="&#xad;" horiz-adv-x="290" 
d="M270 233h-250v59h250v-59z" />
    <glyph glyph-name="registered" unicode="&#xae;" horiz-adv-x="701" 
d="M355 160q-55 0 -104 21.5t-85 58.5t-57 88t-21 108t21 107.5t57 88t85 59t104 21.5q56 0 105 -22t85 -59t56.5 -87.5t20.5 -107.5t-20.5 -107.5t-56.5 -88t-85 -59t-105 -21.5zM357 664q-47 0 -87.5 -17.5t-70 -48t-46.5 -72.5t-17 -90t17 -89.5t46.5 -72.5t70 -48.5
t87.5 -17.5t87 17.5t68.5 48.5t45 72.5t16.5 89.5t-16.5 90t-45 72.5t-68.5 48t-87 17.5zM366 537h-54v-89h54q24 0 38.5 10.5t14.5 34.5q0 22 -14.5 33t-38.5 11zM425 319l-68 96h-45v-96h-35v251h85q44 0 68 -19t24 -58q0 -31 -14.5 -49t-42.5 -25l73 -100h-45z" />
    <glyph glyph-name="macron" unicode="&#xaf;" horiz-adv-x="500" 
d="M364 643h-228v47h228v-47z" />
    <glyph glyph-name="degree" unicode="&#xb0;" horiz-adv-x="351" 
d="M176 422q-60 0 -103 42.5t-43 102.5t43 102.5t103 42.5t102.5 -42.5t42.5 -102.5t-42.5 -102.5t-102.5 -42.5zM176 668q-41 0 -68.5 -29t-27.5 -72t27.5 -71t68.5 -28q39 0 67.5 28t28.5 71t-28.5 72t-67.5 29z" />
    <glyph glyph-name="plusminus" unicode="&#xb1;" horiz-adv-x="656" 
d="M573 -43h-490v43h490v-43zM83 305v43h220v222h47v-222h223v-43h-223v-225h-47v225h-220z" />
    <glyph glyph-name="twosuperior" unicode="&#xb2;" horiz-adv-x="349" 
d="M91 352h210v-44h-260v16q0 57 23.5 97.5t85.5 70.5q51 25 77.5 47t26.5 58q0 33 -24.5 51.5t-55.5 18.5q-38 0 -62.5 -19t-38.5 -39l-32 28q18 25 50.5 50t81.5 25q52 0 90 -28t38 -85q0 -44 -28 -77t-80 -57l-21 -10q-43 -20 -62 -46t-19 -57z" />
    <glyph glyph-name="threesuperior" unicode="&#xb3;" horiz-adv-x="339" 
d="M284 416q0 -51 -36 -82.5t-96 -31.5q-39 0 -72.5 14.5t-54.5 39.5l32 32q20 -19 42.5 -30t56.5 -11q37 0 59 20t22 52q0 37 -31 55.5t-71 18.5h-22v42h15q47 0 72.5 18.5t25.5 50.5q0 31 -23.5 47t-53.5 16q-28 0 -48.5 -10t-37.5 -28l-28 33q22 22 50.5 36t65.5 14
q54 0 88 -30t34 -76q0 -33 -21.5 -58.5t-44.5 -33.5q28 -6 52.5 -29t24.5 -69z" />
    <glyph glyph-name="acute" unicode="&#xb4;" horiz-adv-x="500" 
d="M219 569h-52l96 131h70z" />
    <glyph glyph-name="mu" unicode="&#xb5;" horiz-adv-x="568" 
d="M76 -194v684h47v-244q0 -95 30.5 -154.5t120.5 -59.5q41 0 73 16.5t53.5 45t33 67.5t11.5 85v244h47v-490h-44v85q-28 -50 -72.5 -73t-106.5 -23q-50 0 -86.5 19.5t-59.5 53.5v-256h-47z" />
    <glyph glyph-name="paragraph" unicode="&#xb6;" horiz-adv-x="717" 
d="M425 270h-102q-116 0 -184.5 58t-68.5 157q0 97 68.5 156.5t184.5 59.5h304v-894h-48v847h-104v-847h-50v463z" />
    <glyph glyph-name="periodcentered" unicode="&#xb7;" horiz-adv-x="290" 
d="M144 209q-21 0 -36.5 15t-15.5 36q0 22 15.5 37.5t36.5 15.5q22 0 38 -15.5t16 -37.5q0 -21 -16 -36t-38 -15z" />
    <glyph glyph-name="cedilla" unicode="&#xb8;" horiz-adv-x="501" 
d="M259 4h50l-61 -141h-56z" />
    <glyph glyph-name="onesuperior" unicode="&#xb9;" horiz-adv-x="309" 
d="M279 308h-242v44h98v287q-19 -14 -45 -23t-55 -10v41q29 2 58.5 14.5t45.5 38.5h42v-348h98v-44z" />
    <glyph glyph-name="ordmasculine" unicode="&#xba;" horiz-adv-x="469" 
d="M45 522q0 38 14.5 73t39.5 60.5t59.5 41t75.5 15.5t76 -15.5t60 -41t39.5 -60.5t14.5 -73t-14.5 -72.5t-39.5 -60t-60 -40.5t-76 -15t-75.5 15t-59.5 40.5t-39.5 60t-14.5 72.5zM91 522q0 -62 40 -104.5t103 -42.5t103 42.5t40 104.5q0 63 -40 106t-103 43t-103 -43
t-40 -106z" />
    <glyph glyph-name="guillemotright" unicode="&#xbb;" horiz-adv-x="545" 
d="M347 490l138 -246l-137 -244h-54l138 243l-139 247h54zM124 490l138 -246l-137 -244h-54l138 243l-139 247h54z" />
    <glyph glyph-name="onequarter" unicode="&#xbc;" horiz-adv-x="874" 
d="M289 308h-242v44h98v287q-19 -14 -45 -23t-55 -10v41q29 2 58.5 14.5t45.5 38.5h42v-348h98v-44zM220 0l428 700h51l-428 -700h-51zM839 101h-60v-101h-46v101h-193v34l197 257h42v-250h60v-41zM597 142h136v177z" />
    <glyph glyph-name="onehalf" unicode="&#xbd;" horiz-adv-x="926" 
d="M289 308h-242v44h98v287q-19 -14 -45 -23t-55 -10v41q29 2 58.5 14.5t45.5 38.5h42v-348h98v-44zM220 0l428 700h51l-428 -700h-51zM668 44h210v-44h-260v16q0 57 23.5 97.5t85.5 70.5q51 25 77.5 47t26.5 58q0 33 -24.5 51.5t-55.5 18.5q-38 0 -62.5 -19t-38.5 -39
l-32 28q18 25 50.5 50t81.5 25q52 0 90 -28t38 -85q0 -44 -28 -77t-80 -57l-21 -10q-43 -20 -62 -46t-19 -57z" />
    <glyph glyph-name="threequarters" unicode="&#xbe;" horiz-adv-x="853" 
d="M284 416q0 -51 -36 -82.5t-96 -31.5q-39 0 -72.5 14.5t-54.5 39.5l32 32q20 -19 42.5 -30t56.5 -11q37 0 59 20t22 52q0 37 -31 55.5t-71 18.5h-22v42h15q47 0 72.5 18.5t25.5 50.5q0 31 -23.5 47t-53.5 16q-28 0 -48.5 -10t-37.5 -28l-28 33q22 22 50.5 36t65.5 14
q54 0 88 -30t34 -76q0 -33 -21.5 -58.5t-44.5 -33.5q28 -6 52.5 -29t24.5 -69zM199 0l428 700h51l-428 -700h-51zM818 101h-60v-101h-46v101h-193v34l197 257h42v-250h60v-41zM576 142h136v177z" />
    <glyph glyph-name="questiondown" unicode="&#xbf;" horiz-adv-x="518" 
d="M293 502q22 0 38 -15.5t16 -37.5q0 -23 -16 -39t-38 -16q-23 0 -39.5 16t-16.5 39q0 22 16.5 37.5t39.5 15.5zM264 279h53v-136h-14q-48 0 -84.5 -13t-61 -34t-36.5 -50t-12 -60q0 -61 43.5 -101.5t112.5 -40.5q62 0 105.5 27.5t76.5 74.5l36 -39q-37 -51 -91.5 -81.5
t-126.5 -30.5q-44 0 -83 13.5t-67 37.5t-44 59t-16 77q0 37 13 72.5t39 63.5t65.5 48t91.5 26v87z" />
    <glyph glyph-name="Agrave" unicode="&#xc0;" horiz-adv-x="691" 
d="M345 657l-171 -444h343zM378 700l273 -700h-49l-66 165h-381l-64 -165h-51l273 700h65zM390 769h-55l-114 103h78z" />
    <glyph glyph-name="Aacute" unicode="&#xc1;" horiz-adv-x="691" 
d="M345 657l-171 -444h343zM378 700l273 -700h-49l-66 165h-381l-64 -165h-51l273 700h65zM356 769h-55l91 103h78z" />
    <glyph glyph-name="Acircumflex" unicode="&#xc2;" horiz-adv-x="691" 
d="M345 657l-171 -444h343zM378 700l273 -700h-49l-66 165h-381l-64 -165h-51l273 700h65zM209 769l103 103h66l104 -103h-62l-74 68l-76 -68h-61z" />
    <glyph glyph-name="Atilde" unicode="&#xc3;" horiz-adv-x="691" 
d="M345 657l-171 -444h343zM378 700l273 -700h-49l-66 165h-381l-64 -165h-51l273 700h65zM440 862h39q-3 -37 -22.5 -59.5t-47.5 -22.5q-19 0 -37 6.5t-35 13.5q-12 4 -24 9t-25 5q-19 0 -27 -10t-12 -24h-38q3 37 22.5 59.5t47.5 22.5q19 0 33.5 -5.5t30.5 -12.5
q14 -6 28.5 -11t27.5 -5q19 0 27 10.5t12 23.5z" />
    <glyph glyph-name="Adieresis" unicode="&#xc4;" horiz-adv-x="691" 
d="M345 657l-171 -444h343zM378 700l273 -700h-49l-66 165h-381l-64 -165h-51l273 700h65zM433 769q-19 0 -32 13t-13 32t13 32t32 13t32 -13t13 -32t-13 -32t-32 -13zM257 769q-19 0 -32 13t-13 32t13 32t32 13t32 -13t13 -32t-13 -32t-32 -13z" />
    <glyph glyph-name="Aring" unicode="&#xc5;" horiz-adv-x="691" 
d="M91 0h-51l272 698q-19 9 -30.5 26.5t-11.5 39.5q0 31 22.5 53t52.5 22q31 0 53 -22t22 -53q0 -22 -11.5 -39.5t-29.5 -26.5l272 -698h-49l-66 165h-381zM345 657l-171 -444h343zM345 801q-15 0 -26 -10.5t-11 -26.5q0 -15 11 -25.5t26 -10.5q16 0 26.5 10.5t10.5 25.5
q0 16 -10.5 26.5t-26.5 10.5z" />
    <glyph glyph-name="AE" unicode="&#xc6;" horiz-adv-x="865" 
d="M345 657l-171 -444h343zM815 700v-48h-418l106 -271h293v-48h-274l111 -285h182v-48h-213l-66 165h-381l-64 -165h-51l273 700h502z" />
    <glyph glyph-name="Ccedilla" unicode="&#xc7;" horiz-adv-x="740" 
d="M658 145l32 -36q-44 -53 -108.5 -84t-136.5 -35l-55 -127h-56l60 127q-68 5 -127.5 35t-103 77.5t-68.5 111.5t-25 136q0 75 27.5 141.5t75 115t111.5 77t136 28.5q81 0 144.5 -33.5t111.5 -88.5l-34 -34q-40 49 -93 78.5t-126 29.5q-64 0 -119.5 -24t-96 -65.5
t-63.5 -99.5t-23 -125q0 -66 23 -123.5t63.5 -99t96 -66t119.5 -24.5q72 0 133.5 28.5t101.5 79.5z" />
    <glyph glyph-name="Egrave" unicode="&#xc8;" horiz-adv-x="585" 
d="M90 0v700h445v-48h-397v-271h378v-48h-378v-285h397v-48h-445zM370 769h-55l-114 103h78z" />
    <glyph glyph-name="Eacute" unicode="&#xc9;" horiz-adv-x="585" 
d="M90 0v700h445v-48h-397v-271h378v-48h-378v-285h397v-48h-445zM336 769h-55l91 103h78z" />
    <glyph glyph-name="Ecircumflex" unicode="&#xca;" horiz-adv-x="585" 
d="M90 0v700h445v-48h-397v-271h378v-48h-378v-285h397v-48h-445zM189 769l103 103h66l104 -103h-62l-74 68l-76 -68h-61z" />
    <glyph glyph-name="Edieresis" unicode="&#xcb;" horiz-adv-x="585" 
d="M90 0v700h445v-48h-397v-271h378v-48h-378v-285h397v-48h-445zM413 769q-19 0 -32 13t-13 32t13 32t32 13t32 -13t13 -32t-13 -32t-32 -13zM237 769q-19 0 -32 13t-13 32t13 32t32 13t32 -13t13 -32t-13 -32t-32 -13z" />
    <glyph glyph-name="Igrave" unicode="&#xcc;" horiz-adv-x="228" 
d="M90 0v700h48v-700h-48zM159 769h-55l-114 103h78z" />
    <glyph glyph-name="Iacute" unicode="&#xcd;" horiz-adv-x="228" 
d="M90 0v700h48v-700h-48zM125 769h-55l91 103h78z" />
    <glyph glyph-name="Icircumflex" unicode="&#xce;" horiz-adv-x="228" 
d="M90 0v700h48v-700h-48zM-22 769l103 103h66l104 -103h-62l-74 68l-76 -68h-61z" />
    <glyph glyph-name="Idieresis" unicode="&#xcf;" horiz-adv-x="228" 
d="M90 0v700h48v-700h-48zM202 769q-19 0 -32 13t-13 32t13 32t32 13t32 -13t13 -32t-13 -32t-32 -13zM26 769q-19 0 -32 13t-13 32t13 32t32 13t32 -13t13 -32t-13 -32t-32 -13z" />
    <glyph glyph-name="Eth" unicode="&#xd0;" horiz-adv-x="708" 
d="M90 0v335h-80v44h80v321h172q79 0 148.5 -19.5t119.5 -60.5t79 -107t29 -158q0 -87 -26 -154t-74.5 -111.5t-118.5 -67t-157 -22.5h-172zM271 652h-133v-273h178v-44h-178v-287h134q61 0 118.5 16t100.5 52t69.5 95t26.5 144q0 82 -26.5 139t-70 92t-100.5 50.5
t-119 15.5z" />
    <glyph glyph-name="Ntilde" unicode="&#xd1;" horiz-adv-x="726" 
d="M90 0v700h61l437 -635v635h48v-700h-61l-437 634v-634h-48zM478 862h39q-3 -37 -22.5 -59.5t-47.5 -22.5q-19 0 -37 6.5t-35 13.5q-12 4 -24 9t-25 5q-19 0 -27 -10t-12 -24h-38q3 37 22.5 59.5t47.5 22.5q19 0 33.5 -5.5t30.5 -12.5q14 -6 28.5 -11t27.5 -5
q19 0 27 10.5t12 23.5z" />
    <glyph glyph-name="Ograve" unicode="&#xd2;" horiz-adv-x="840" 
d="M420 -11q-72 0 -136.5 28t-111.5 76.5t-74.5 115t-27.5 141.5t27.5 141.5t75 115t111.5 77t136 28.5q73 0 137 -28.5t111.5 -77t74.5 -115t27 -141.5t-27 -141t-74.5 -114.5t-111.5 -77t-137 -28.5zM420 664q-64 0 -119 -24t-95 -66t-62.5 -99.5t-22.5 -124.5t23 -124.5
t62.5 -99t94.5 -65.5t119 -24t119 24.5t94.5 66.5t62.5 99.5t23 122.5q0 67 -22.5 124.5t-62.5 99.5t-95 66t-119 24zM465 769h-55l-114 103h78z" />
    <glyph glyph-name="Oacute" unicode="&#xd3;" horiz-adv-x="840" 
d="M420 -11q-72 0 -136.5 28t-111.5 76.5t-74.5 115t-27.5 141.5t27.5 141.5t75 115t111.5 77t136 28.5q73 0 137 -28.5t111.5 -77t74.5 -115t27 -141.5t-27 -141t-74.5 -114.5t-111.5 -77t-137 -28.5zM420 664q-64 0 -119 -24t-95 -66t-62.5 -99.5t-22.5 -124.5t23 -124.5
t62.5 -99t94.5 -65.5t119 -24t119 24.5t94.5 66.5t62.5 99.5t23 122.5q0 67 -22.5 124.5t-62.5 99.5t-95 66t-119 24zM431 769h-55l91 103h78z" />
    <glyph glyph-name="Ocircumflex" unicode="&#xd4;" horiz-adv-x="840" 
d="M420 -11q-72 0 -136.5 28t-111.5 76.5t-74.5 115t-27.5 141.5t27.5 141.5t75 115t111.5 77t136 28.5q73 0 137 -28.5t111.5 -77t74.5 -115t27 -141.5t-27 -141t-74.5 -114.5t-111.5 -77t-137 -28.5zM420 664q-64 0 -119 -24t-95 -66t-62.5 -99.5t-22.5 -124.5t23 -124.5
t62.5 -99t94.5 -65.5t119 -24t119 24.5t94.5 66.5t62.5 99.5t23 122.5q0 67 -22.5 124.5t-62.5 99.5t-95 66t-119 24zM284 769l103 103h66l104 -103h-62l-74 68l-76 -68h-61z" />
    <glyph glyph-name="Otilde" unicode="&#xd5;" horiz-adv-x="840" 
d="M420 -11q-72 0 -136.5 28t-111.5 76.5t-74.5 115t-27.5 141.5t27.5 141.5t75 115t111.5 77t136 28.5q73 0 137 -28.5t111.5 -77t74.5 -115t27 -141.5t-27 -141t-74.5 -114.5t-111.5 -77t-137 -28.5zM420 664q-64 0 -119 -24t-95 -66t-62.5 -99.5t-22.5 -124.5t23 -124.5
t62.5 -99t94.5 -65.5t119 -24t119 24.5t94.5 66.5t62.5 99.5t23 122.5q0 67 -22.5 124.5t-62.5 99.5t-95 66t-119 24zM515 862h39q-3 -37 -22.5 -59.5t-47.5 -22.5q-19 0 -37 6.5t-35 13.5q-12 4 -24 9t-25 5q-19 0 -27 -10t-12 -24h-38q3 37 22.5 59.5t47.5 22.5
q19 0 33.5 -5.5t30.5 -12.5q14 -6 28.5 -11t27.5 -5q19 0 27 10.5t12 23.5z" />
    <glyph glyph-name="Odieresis" unicode="&#xd6;" horiz-adv-x="840" 
d="M420 -11q-72 0 -136.5 28t-111.5 76.5t-74.5 115t-27.5 141.5t27.5 141.5t75 115t111.5 77t136 28.5q73 0 137 -28.5t111.5 -77t74.5 -115t27 -141.5t-27 -141t-74.5 -114.5t-111.5 -77t-137 -28.5zM420 664q-64 0 -119 -24t-95 -66t-62.5 -99.5t-22.5 -124.5t23 -124.5
t62.5 -99t94.5 -65.5t119 -24t119 24.5t94.5 66.5t62.5 99.5t23 122.5q0 67 -22.5 124.5t-62.5 99.5t-95 66t-119 24zM508 769q-19 0 -32 13t-13 32t13 32t32 13t32 -13t13 -32t-13 -32t-32 -13zM332 769q-19 0 -32 13t-13 32t13 32t32 13t32 -13t13 -32t-13 -32t-32 -13z
" />
    <glyph glyph-name="multiply" unicode="&#xd7;" horiz-adv-x="560" 
d="M84 412l31 30l165 -165l164 163l32 -30l-164 -164l165 -166l-30 -31l-167 165l-165 -165l-32 31l167 166z" />
    <glyph glyph-name="Oslash" unicode="&#xd8;" horiz-adv-x="840" 
d="M181 -21l-42 28l50 70q-54 49 -86.5 120t-32.5 153q0 75 27.5 141.5t75 115t111.5 77t136 28.5q50 0 96 -13.5t86 -38.5l45 63l40 -27l-46 -65q59 -49 94 -122.5t35 -158.5q0 -75 -27 -141t-74.5 -114.5t-111.5 -77t-137 -28.5q-53 0 -101.5 15t-89.5 43zM719 350
q0 75 -28 137.5t-77 105.5l-358 -508q34 -23 76 -35.5t88 -12.5q64 0 119 24.5t94.5 66.5t62.5 99.5t23 122.5zM420 664q-64 0 -119 -24t-95 -66t-62.5 -99.5t-22.5 -124.5q0 -71 25.5 -131.5t69.5 -102.5l359 505q-34 20 -73 31.5t-82 11.5z" />
    <glyph glyph-name="Ugrave" unicode="&#xd9;" horiz-adv-x="685" 
d="M557 275v425h48v-427q0 -61 -17.5 -113t-51 -90t-83 -59.5t-111.5 -21.5t-111 21.5t-82.5 59.5t-51 90t-17.5 113v427h48v-426q0 -49 14 -92t40.5 -75t67 -51t92.5 -19t92.5 19t67.5 51t41 75.5t14 92.5zM387 769h-55l-114 103h78z" />
    <glyph glyph-name="Uacute" unicode="&#xda;" horiz-adv-x="685" 
d="M557 275v425h48v-427q0 -61 -17.5 -113t-51 -90t-83 -59.5t-111.5 -21.5t-111 21.5t-82.5 59.5t-51 90t-17.5 113v427h48v-426q0 -49 14 -92t40.5 -75t67 -51t92.5 -19t92.5 19t67.5 51t41 75.5t14 92.5zM353 769h-55l91 103h78z" />
    <glyph glyph-name="Ucircumflex" unicode="&#xdb;" horiz-adv-x="685" 
d="M557 275v425h48v-427q0 -61 -17.5 -113t-51 -90t-83 -59.5t-111.5 -21.5t-111 21.5t-82.5 59.5t-51 90t-17.5 113v427h48v-426q0 -49 14 -92t40.5 -75t67 -51t92.5 -19t92.5 19t67.5 51t41 75.5t14 92.5zM206 769l103 103h66l104 -103h-62l-74 68l-76 -68h-61z" />
    <glyph glyph-name="Udieresis" unicode="&#xdc;" horiz-adv-x="685" 
d="M557 275v425h48v-427q0 -61 -17.5 -113t-51 -90t-83 -59.5t-111.5 -21.5t-111 21.5t-82.5 59.5t-51 90t-17.5 113v427h48v-426q0 -49 14 -92t40.5 -75t67 -51t92.5 -19t92.5 19t67.5 51t41 75.5t14 92.5zM430 769q-19 0 -32 13t-13 32t13 32t32 13t32 -13t13 -32t-13 -32
t-32 -13zM254 769q-19 0 -32 13t-13 32t13 32t32 13t32 -13t13 -32t-13 -32t-32 -13z" />
    <glyph glyph-name="Yacute" unicode="&#xdd;" horiz-adv-x="630" 
d="M532 700h58l-251 -367v-333h-48v333l-251 367h57l218 -319zM326 770h-55l91 103h78z" />
    <glyph glyph-name="Thorn" unicode="&#xde;" horiz-adv-x="648" 
d="M322 143h-184v-143h-48v700h48v-124h184q118 0 187 -59.5t69 -156.5q0 -99 -68.5 -158t-187.5 -59zM339 528h-201v-337h201q86 0 136.5 44t50.5 124q0 81 -50.5 125t-136.5 44z" />
    <glyph glyph-name="germandbls" unicode="&#xdf;" horiz-adv-x="612" 
d="M80 0v441q0 128 64 199.5t174 71.5q44 0 83 -13.5t67 -38.5t44.5 -60.5t16.5 -79.5q0 -48 -25 -90t-74 -65q66 -24 99 -71t33 -108q0 -96 -60.5 -141t-159.5 -45h-86v48h70q87 0 137.5 31.5t50.5 107.5q0 37 -14.5 64.5t-39.5 45.5t-59 27t-72 9h-73v48h44q32 0 64.5 8
t58 25t42 43t16.5 62q0 29 -11 56t-31.5 47t-51 32t-69.5 12q-85 0 -137.5 -56t-52.5 -169v-441h-48z" />
    <glyph glyph-name="agrave" unicode="&#xe0;" horiz-adv-x="513" 
d="M243 231q-68 0 -101.5 -29t-33.5 -72q0 -46 34.5 -69.5t83.5 -23.5q54 0 99 33.5t70 70.5v61q-36 11 -75.5 20t-76.5 9zM397 80q-29 -35 -71 -63t-107 -28q-32 0 -61 9t-50.5 27t-34.5 44.5t-13 61.5q0 71 50 109.5t126 38.5q38 0 79 -10t80 -21v64q0 69 -41.5 105.5
t-103.5 36.5q-48 0 -81.5 -22t-52.5 -53l-36 34q29 43 74 66t97 23q85 0 138.5 -48.5t53.5 -139.5v-314h-46v80zM318 569h-52l-114 131h70z" />
    <glyph glyph-name="aacute" unicode="&#xe1;" horiz-adv-x="513" 
d="M243 231q-68 0 -101.5 -29t-33.5 -72q0 -46 34.5 -69.5t83.5 -23.5q54 0 99 33.5t70 70.5v61q-36 11 -75.5 20t-76.5 9zM397 80q-29 -35 -71 -63t-107 -28q-32 0 -61 9t-50.5 27t-34.5 44.5t-13 61.5q0 71 50 109.5t126 38.5q38 0 79 -10t80 -21v64q0 69 -41.5 105.5
t-103.5 36.5q-48 0 -81.5 -22t-52.5 -53l-36 34q29 43 74 66t97 23q85 0 138.5 -48.5t53.5 -139.5v-314h-46v80zM274 569h-52l96 131h70z" />
    <glyph glyph-name="acircumflex" unicode="&#xe2;" horiz-adv-x="513" 
d="M243 231q-68 0 -101.5 -29t-33.5 -72q0 -46 34.5 -69.5t83.5 -23.5q54 0 99 33.5t70 70.5v61q-36 11 -75.5 20t-76.5 9zM397 80q-29 -35 -71 -63t-107 -28q-32 0 -61 9t-50.5 27t-34.5 44.5t-13 61.5q0 71 50 109.5t126 38.5q38 0 79 -10t80 -21v64q0 69 -41.5 105.5
t-103.5 36.5q-48 0 -81.5 -22t-52.5 -53l-36 34q29 43 74 66t97 23q85 0 138.5 -48.5t53.5 -139.5v-314h-46v80zM233 700h67l97 -131h-49l-82 92l-81 -92h-49z" />
    <glyph glyph-name="atilde" unicode="&#xe3;" horiz-adv-x="513" 
d="M243 231q-68 0 -101.5 -29t-33.5 -72q0 -46 34.5 -69.5t83.5 -23.5q54 0 99 33.5t70 70.5v61q-36 11 -75.5 20t-76.5 9zM397 80q-29 -35 -71 -63t-107 -28q-32 0 -61 9t-50.5 27t-34.5 44.5t-13 61.5q0 71 50 109.5t126 38.5q38 0 79 -10t80 -21v64q0 69 -41.5 105.5
t-103.5 36.5q-48 0 -81.5 -22t-52.5 -53l-36 34q29 43 74 66t97 23q85 0 138.5 -48.5t53.5 -139.5v-314h-46v80zM360 692h39q-3 -37 -22.5 -59.5t-47.5 -22.5q-19 0 -37 6.5t-35 13.5q-12 4 -24 9t-25 5q-19 0 -27 -10t-12 -24h-38q3 37 22.5 59.5t47.5 22.5q19 0 33.5 -5.5
t30.5 -12.5q14 -6 28.5 -11t27.5 -5q19 0 27 10.5t12 23.5z" />
    <glyph glyph-name="adieresis" unicode="&#xe4;" horiz-adv-x="513" 
d="M243 231q-68 0 -101.5 -29t-33.5 -72q0 -46 34.5 -69.5t83.5 -23.5q54 0 99 33.5t70 70.5v61q-36 11 -75.5 20t-76.5 9zM397 80q-29 -35 -71 -63t-107 -28q-32 0 -61 9t-50.5 27t-34.5 44.5t-13 61.5q0 71 50 109.5t126 38.5q38 0 79 -10t80 -21v64q0 69 -41.5 105.5
t-103.5 36.5q-48 0 -81.5 -22t-52.5 -53l-36 34q29 43 74 66t97 23q85 0 138.5 -48.5t53.5 -139.5v-314h-46v80zM177 610q-19 0 -32 13t-13 32t13 32t32 13t32 -13t13 -32t-13 -32t-32 -13zM353 610q-19 0 -32 13t-13 32t13 32t32 13t32 -13t13 -32t-13 -32t-32 -13z" />
    <glyph glyph-name="aring" unicode="&#xe5;" horiz-adv-x="513" 
d="M243 231q-68 0 -101.5 -29t-33.5 -72q0 -46 34.5 -69.5t83.5 -23.5q54 0 99 33.5t70 70.5v61q-36 11 -75.5 20t-76.5 9zM397 80q-29 -35 -71 -63t-107 -28q-32 0 -61 9t-50.5 27t-34.5 44.5t-13 61.5q0 71 50 109.5t126 38.5q38 0 79 -10t80 -21v64q0 69 -41.5 105.5
t-103.5 36.5q-48 0 -81.5 -22t-52.5 -53l-36 34q29 43 74 66t97 23q85 0 138.5 -48.5t53.5 -139.5v-314h-46v80zM265 563q-30 0 -52.5 22t-22.5 52q0 31 22.5 53t52.5 22q31 0 53 -22t22 -53q0 -30 -22 -52t-53 -22zM265 674q-15 0 -26 -10.5t-11 -26.5q0 -15 11 -25.5
t26 -10.5q16 0 26.5 10.5t10.5 25.5q0 16 -10.5 26.5t-26.5 10.5z" />
    <glyph glyph-name="ae" unicode="&#xe6;" horiz-adv-x="889" 
d="M781 107l36 -36q-31 -34 -75 -58t-115 -24q-65 0 -114.5 30t-79.5 79q-40 -49 -95.5 -79t-118.5 -30q-32 0 -61 9t-50.5 27t-34.5 44.5t-13 61.5q0 71 50 111t126 40h159v30q0 69 -41.5 105.5t-103.5 36.5q-48 0 -81.5 -22t-52.5 -53l-36 34q29 43 74 66t97 23
q64 0 111 -28t67 -80q27 49 76 78.5t118 29.5q52 0 91 -20.5t64.5 -55t38 -81.5t12.5 -100v-11h-384q3 -86 53 -141.5t128 -55.5q53 0 89.5 19t65.5 51zM775 282q-5 72 -45 121.5t-108 49.5q-79 0 -123.5 -47t-52.5 -124h329zM243 234q-68 0 -101.5 -30.5t-33.5 -73.5
q0 -46 34.5 -69.5t83.5 -23.5q64 0 109.5 30t73.5 78q-7 21 -10 43t-4 46h-152z" />
    <glyph glyph-name="ccedilla" unicode="&#xe7;" horiz-adv-x="536" 
d="M456 105l35 -33q-28 -32 -65.5 -53t-81.5 -27l-55 -129h-56l60 127q-50 3 -93 23.5t-74 54.5t-48.5 80t-17.5 97q0 53 18.5 100t51.5 81.5t78 55t98 20.5q52 0 98.5 -20.5t78.5 -59.5l-36 -35q-26 31 -62.5 48.5t-77.5 17.5q-40 0 -76 -16.5t-62.5 -44.5t-42 -66
t-15.5 -81t15.5 -81t42 -66t62 -44.5t76.5 -16.5q44 0 82.5 18t66.5 50z" />
    <glyph glyph-name="egrave" unicode="&#xe8;" horiz-adv-x="554" 
d="M446 107l36 -33q-31 -34 -75 -59.5t-113 -25.5q-54 0 -98 20t-74 54.5t-46 81.5t-16 100q0 55 14.5 102t42.5 81.5t70.5 54t98.5 19.5q53 0 92 -20.5t65 -55t38.5 -81.5t12.5 -100v-11h-383q2 -86 51.5 -141.5t132.5 -55.5q50 0 86 19.5t65 50.5zM439 282
q-4 72 -44 121.5t-109 49.5q-78 0 -122.5 -47t-51.5 -124h327zM357 569h-52l-114 131h70z" />
    <glyph glyph-name="eacute" unicode="&#xe9;" horiz-adv-x="554" 
d="M446 107l36 -33q-31 -34 -75 -59.5t-113 -25.5q-54 0 -98 20t-74 54.5t-46 81.5t-16 100q0 55 14.5 102t42.5 81.5t70.5 54t98.5 19.5q53 0 92 -20.5t65 -55t38.5 -81.5t12.5 -100v-11h-383q2 -86 51.5 -141.5t132.5 -55.5q50 0 86 19.5t65 50.5zM439 282
q-4 72 -44 121.5t-109 49.5q-78 0 -122.5 -47t-51.5 -124h327zM283 569h-52l96 131h70z" />
    <glyph glyph-name="ecircumflex" unicode="&#xea;" horiz-adv-x="554" 
d="M446 107l36 -33q-31 -34 -75 -59.5t-113 -25.5q-54 0 -98 20t-74 54.5t-46 81.5t-16 100q0 55 14.5 102t42.5 81.5t70.5 54t98.5 19.5q53 0 92 -20.5t65 -55t38.5 -81.5t12.5 -100v-11h-383q2 -86 51.5 -141.5t132.5 -55.5q50 0 86 19.5t65 50.5zM439 282
q-4 72 -44 121.5t-109 49.5q-78 0 -122.5 -47t-51.5 -124h327zM242 700h67l97 -131h-49l-82 92l-81 -92h-49z" />
    <glyph glyph-name="edieresis" unicode="&#xeb;" horiz-adv-x="554" 
d="M446 107l36 -33q-31 -34 -75 -59.5t-113 -25.5q-54 0 -98 20t-74 54.5t-46 81.5t-16 100q0 55 14.5 102t42.5 81.5t70.5 54t98.5 19.5q53 0 92 -20.5t65 -55t38.5 -81.5t12.5 -100v-11h-383q2 -86 51.5 -141.5t132.5 -55.5q50 0 86 19.5t65 50.5zM439 282
q-4 72 -44 121.5t-109 49.5q-78 0 -122.5 -47t-51.5 -124h327zM186 610q-19 0 -32 13t-13 32t13 32t32 13t32 -13t13 -32t-13 -32t-32 -13zM362 610q-19 0 -32 13t-13 32t13 32t32 13t32 -13t13 -32t-13 -32t-32 -13z" />
    <glyph glyph-name="igrave" unicode="&#xec;" horiz-adv-x="200" 
d="M76 0v490h48v-490h-48zM183 569h-52l-114 131h70z" />
    <glyph glyph-name="iacute" unicode="&#xed;" horiz-adv-x="200" 
d="M76 0v490h48v-490h-48zM69 569h-52l96 131h70z" />
    <glyph glyph-name="icircumflex" unicode="&#xee;" horiz-adv-x="200" 
d="M76 0v490h48v-490h-48zM68 700h67l97 -131h-49l-82 92l-81 -92h-49z" />
    <glyph glyph-name="idieresis" unicode="&#xef;" horiz-adv-x="200" 
d="M76 0v490h48v-490h-48zM12 610q-19 0 -32 13t-13 32t13 32t32 13t32 -13t13 -32t-13 -32t-32 -13zM188 610q-19 0 -32 13t-13 32t13 32t32 13t32 -13t13 -32t-13 -32t-32 -13z" />
    <glyph glyph-name="eth" unicode="&#xf0;" horiz-adv-x="605" 
d="M179 529v51l94 47l-49 73h59l32 -47l101 55v-53l-75 -39l99 -141q51 -72 78 -133t27 -115q0 -52 -18 -96t-50.5 -75.5t-77.5 -49t-98 -17.5q-46 0 -89.5 15.5t-77 45t-54 72.5t-20.5 98q0 54 20.5 97.5t53.5 73.5t75.5 46.5t86.5 16.5q43 0 71.5 -10.5t53.5 -23.5
l-122 173zM301 37q40 0 75.5 13t62 37t41.5 57.5t15 74.5q0 38 -14.5 72.5t-40 59.5t-61.5 40t-79 15q-35 0 -69.5 -13.5t-61.5 -37.5t-44 -59t-17 -77q0 -41 16.5 -74.5t43.5 -57.5t62 -37t71 -13z" />
    <glyph glyph-name="ntilde" unicode="&#xf1;" horiz-adv-x="564" 
d="M494 0h-48v239q0 95 -30.5 155t-120.5 60q-41 0 -73.5 -16.5t-54 -45t-32.5 -68t-11 -85.5v-239h-48v490h47v-85q28 50 72 73.5t105 23.5q56 0 94 -20t60 -54.5t31 -82t9 -100.5v-245zM380 692h39q-3 -37 -22.5 -59.5t-47.5 -22.5q-19 0 -37 6.5t-35 13.5q-12 4 -24 9
t-25 5q-19 0 -27 -10t-12 -24h-38q3 37 22.5 59.5t47.5 22.5q19 0 33.5 -5.5t30.5 -12.5q14 -6 28.5 -11t27.5 -5q19 0 27 10.5t12 23.5z" />
    <glyph glyph-name="ograve" unicode="&#xf2;" horiz-adv-x="614" 
d="M307 -11q-53 0 -98 20t-78 54.5t-52 81.5t-19 100t19 100t52 81.5t78 55t98 20.5t98 -20.5t78 -55t52 -81.5t19 -100t-19 -100t-52 -81.5t-78 -54.5t-98 -20zM307 454q-40 0 -75.5 -16t-62 -44t-42.5 -66.5t-16 -82.5t16 -82t42.5 -66t62 -44t75.5 -16t76 16t62.5 44
t42 66t15.5 82t-15.5 82t-42 66t-62 44.5t-76.5 16.5zM355 569h-52l-114 131h70z" />
    <glyph glyph-name="oacute" unicode="&#xf3;" horiz-adv-x="614" 
d="M307 -11q-53 0 -98 20t-78 54.5t-52 81.5t-19 100t19 100t52 81.5t78 55t98 20.5t98 -20.5t78 -55t52 -81.5t19 -100t-19 -100t-52 -81.5t-78 -54.5t-98 -20zM307 454q-40 0 -75.5 -16t-62 -44t-42.5 -66.5t-16 -82.5t16 -82t42.5 -66t62 -44t75.5 -16t76 16t62.5 44
t42 66t15.5 82t-15.5 82t-42 66t-62 44.5t-76.5 16.5zM315 569h-52l96 131h70z" />
    <glyph glyph-name="ocircumflex" unicode="&#xf4;" horiz-adv-x="614" 
d="M307 -11q-53 0 -98 20t-78 54.5t-52 81.5t-19 100t19 100t52 81.5t78 55t98 20.5t98 -20.5t78 -55t52 -81.5t19 -100t-19 -100t-52 -81.5t-78 -54.5t-98 -20zM307 454q-40 0 -75.5 -16t-62 -44t-42.5 -66.5t-16 -82.5t16 -82t42.5 -66t62 -44t75.5 -16t76 16t62.5 44
t42 66t15.5 82t-15.5 82t-42 66t-62 44.5t-76.5 16.5zM275 700h67l97 -131h-49l-82 92l-81 -92h-49z" />
    <glyph glyph-name="otilde" unicode="&#xf5;" horiz-adv-x="614" 
d="M307 -11q-53 0 -98 20t-78 54.5t-52 81.5t-19 100t19 100t52 81.5t78 55t98 20.5t98 -20.5t78 -55t52 -81.5t19 -100t-19 -100t-52 -81.5t-78 -54.5t-98 -20zM307 454q-40 0 -75.5 -16t-62 -44t-42.5 -66.5t-16 -82.5t16 -82t42.5 -66t62 -44t75.5 -16t76 16t62.5 44
t42 66t15.5 82t-15.5 82t-42 66t-62 44.5t-76.5 16.5zM402 692h39q-3 -37 -22.5 -59.5t-47.5 -22.5q-19 0 -37 6.5t-35 13.5q-12 4 -24 9t-25 5q-19 0 -27 -10t-12 -24h-38q3 37 22.5 59.5t47.5 22.5q19 0 33.5 -5.5t30.5 -12.5q14 -6 28.5 -11t27.5 -5q19 0 27 10.5
t12 23.5z" />
    <glyph glyph-name="odieresis" unicode="&#xf6;" horiz-adv-x="614" 
d="M307 -11q-53 0 -98 20t-78 54.5t-52 81.5t-19 100t19 100t52 81.5t78 55t98 20.5t98 -20.5t78 -55t52 -81.5t19 -100t-19 -100t-52 -81.5t-78 -54.5t-98 -20zM307 454q-40 0 -75.5 -16t-62 -44t-42.5 -66.5t-16 -82.5t16 -82t42.5 -66t62 -44t75.5 -16t76 16t62.5 44
t42 66t15.5 82t-15.5 82t-42 66t-62 44.5t-76.5 16.5zM219 610q-19 0 -32 13t-13 32t13 32t32 13t32 -13t13 -32t-13 -32t-32 -13zM395 610q-19 0 -32 13t-13 32t13 32t32 13t32 -13t13 -32t-13 -32t-32 -13z" />
    <glyph glyph-name="divide" unicode="&#xf7;" horiz-adv-x="656" 
d="M570 228h-484v44h484v-44zM277 50q0 23 15.5 38.5t37.5 15.5q24 0 39.5 -15.5t15.5 -38.5q0 -22 -15.5 -37.5t-39.5 -15.5q-22 0 -37.5 15.5t-15.5 37.5zM277 439q0 23 15.5 38.5t37.5 15.5q24 0 39.5 -15.5t15.5 -38.5q0 -22 -15.5 -37.5t-39.5 -15.5q-22 0 -37.5 15.5
t-15.5 37.5z" />
    <glyph glyph-name="oslash" unicode="&#xf8;" horiz-adv-x="614" 
d="M307 -11q-37 0 -70.5 10t-61.5 28l-36 -49l-41 28l38 52q-35 34 -55.5 83t-20.5 104q0 53 19 100t52 81.5t78 55t98 20.5q37 0 71 -10t62 -29l36 48l40 -28l-38 -51q35 -35 55.5 -84t20.5 -103q0 -53 -19 -100t-52 -81.5t-78 -54.5t-98 -20zM307 454q-40 0 -75.5 -16
t-62 -44t-42.5 -66.5t-16 -82.5q0 -43 15.5 -80.5t40.5 -65.5l243 324q-22 14 -48.5 22.5t-54.5 8.5zM503 245q0 43 -15 80.5t-41 65.5l-242 -324q22 -14 48 -22t54 -8q40 0 76 16t62.5 44t42 66t15.5 82z" />
    <glyph glyph-name="ugrave" unicode="&#xf9;" horiz-adv-x="564" 
d="M70 490h48v-238q0 -95 30.5 -155t120.5 -60q41 0 73 16.5t53.5 45t33 68t11.5 85.5v238h48v-490h-45v86q-28 -50 -72.5 -73.5t-106.5 -23.5q-56 0 -94 20t-60 54.5t-31 82t-9 100.5v244zM363 569h-52l-114 131h70z" />
    <glyph glyph-name="uacute" unicode="&#xfa;" horiz-adv-x="564" 
d="M70 490h48v-238q0 -95 30.5 -155t120.5 -60q41 0 73 16.5t53.5 45t33 68t11.5 85.5v238h48v-490h-45v86q-28 -50 -72.5 -73.5t-106.5 -23.5q-56 0 -94 20t-60 54.5t-31 82t-9 100.5v244zM249 569h-52l96 131h70z" />
    <glyph glyph-name="ucircumflex" unicode="&#xfb;" horiz-adv-x="564" 
d="M70 490h48v-238q0 -95 30.5 -155t120.5 -60q41 0 73 16.5t53.5 45t33 68t11.5 85.5v238h48v-490h-45v86q-28 -50 -72.5 -73.5t-106.5 -23.5q-56 0 -94 20t-60 54.5t-31 82t-9 100.5v244zM248 700h67l97 -131h-49l-82 92l-81 -92h-49z" />
    <glyph glyph-name="udieresis" unicode="&#xfc;" horiz-adv-x="564" 
d="M70 490h48v-238q0 -95 30.5 -155t120.5 -60q41 0 73 16.5t53.5 45t33 68t11.5 85.5v238h48v-490h-45v86q-28 -50 -72.5 -73.5t-106.5 -23.5q-56 0 -94 20t-60 54.5t-31 82t-9 100.5v244zM192 610q-19 0 -32 13t-13 32t13 32t32 13t32 -13t13 -32t-13 -32t-32 -13z
M368 610q-19 0 -32 13t-13 32t13 32t32 13t32 -13t13 -32t-13 -32t-32 -13z" />
    <glyph glyph-name="yacute" unicode="&#xfd;" horiz-adv-x="507" 
d="M208 -194h-52l71 189l-202 495h57l174 -440l172 440h54zM226 569h-52l96 131h70z" />
    <glyph glyph-name="thorn" unicode="&#xfe;" horiz-adv-x="615" 
d="M324 37q41 0 75 17t57.5 45.5t36.5 66.5t13 80q0 44 -12.5 82t-36 65.5t-57 43.5t-76.5 16q-40 0 -74.5 -16.5t-59 -44.5t-38.5 -65.5t-14 -80.5q0 -42 14 -80t38.5 -66.5t59 -45.5t74.5 -17zM138 97v-291h-48v894h48v-307q28 51 79 80t113 29q50 0 92 -20t71.5 -54.5
t45.5 -81.5t16 -100t-16 -100t-45.5 -81.5t-71.5 -55t-92 -20.5q-62 0 -113 29t-79 79z" />
    <glyph glyph-name="ydieresis" unicode="&#xff;" horiz-adv-x="507" 
d="M208 -194h-52l71 189l-202 495h57l174 -440l172 440h54zM169 610q-19 0 -32 13t-13 32t13 32t32 13t32 -13t13 -32t-13 -32t-32 -13zM345 610q-19 0 -32 13t-13 32t13 32t32 13t32 -13t13 -32t-13 -32t-32 -13z" />
    <glyph glyph-name="Amacron" unicode="&#x100;" horiz-adv-x="691" 
d="M345 657l-171 -444h343zM378 700l273 -700h-49l-66 165h-381l-64 -165h-51l273 700h65zM459 797h-228v47h228v-47z" />
    <glyph glyph-name="amacron" unicode="&#x101;" horiz-adv-x="513" 
d="M243 231q-68 0 -101.5 -29t-33.5 -72q0 -46 34.5 -69.5t83.5 -23.5q54 0 99 33.5t70 70.5v61q-36 11 -75.5 20t-76.5 9zM397 80q-29 -35 -71 -63t-107 -28q-32 0 -61 9t-50.5 27t-34.5 44.5t-13 61.5q0 71 50 109.5t126 38.5q38 0 79 -10t80 -21v64q0 69 -41.5 105.5
t-103.5 36.5q-48 0 -81.5 -22t-52.5 -53l-36 34q29 43 74 66t97 23q85 0 138.5 -48.5t53.5 -139.5v-314h-46v80zM379 643h-228v47h228v-47z" />
    <glyph glyph-name="Abreve" unicode="&#x102;" horiz-adv-x="691" 
d="M345 657l-171 -444h343zM378 700l273 -700h-49l-66 165h-381l-64 -165h-51l273 700h65zM467 872q-4 -52 -34 -82.5t-87 -30.5q-56 0 -87 29t-36 84h47q3 -31 21.5 -48.5t53.5 -17.5q36 0 53.5 17t21.5 49h47z" />
    <glyph glyph-name="abreve" unicode="&#x103;" horiz-adv-x="513" 
d="M243 231q-68 0 -101.5 -29t-33.5 -72q0 -46 34.5 -69.5t83.5 -23.5q54 0 99 33.5t70 70.5v61q-36 11 -75.5 20t-76.5 9zM397 80q-29 -35 -71 -63t-107 -28q-32 0 -61 9t-50.5 27t-34.5 44.5t-13 61.5q0 71 50 109.5t126 38.5q38 0 79 -10t80 -21v64q0 69 -41.5 105.5
t-103.5 36.5q-48 0 -81.5 -22t-52.5 -53l-36 34q29 43 74 66t97 23q85 0 138.5 -48.5t53.5 -139.5v-314h-46v80zM397 701q-4 -54 -37.5 -94t-93.5 -40t-94.5 38.5t-38.5 95.5h47q2 -36 23.5 -61.5t61.5 -25.5t60.5 26t24.5 61h47z" />
    <glyph glyph-name="Aogonek" unicode="&#x104;" horiz-adv-x="691" 
d="M604 0h-2l-66 165h-381l-64 -165h-51l273 700h65l273 -700h-1q-38 -29 -53.5 -48.5t-15.5 -42.5q0 -19 15 -31t47 -12h7v-32l-10.5 -3t-27.5 -3q-39 0 -59.5 19.5t-20.5 51.5q0 26 18 53t54 48zM345 657l-171 -444h343z" />
    <glyph glyph-name="aogonek" unicode="&#x105;" horiz-adv-x="513" 
d="M406 0h-9v80q-29 -35 -71 -63t-107 -28q-32 0 -61 9t-50.5 27t-34.5 44.5t-13 61.5q0 71 50 109.5t126 38.5q38 0 79 -10t80 -21v64q0 69 -41.5 105.5t-103.5 36.5q-48 0 -81.5 -22t-52.5 -53l-36 34q29 43 74 66t97 23q85 0 138.5 -48.5t53.5 -139.5v-314h9
q-38 -29 -53.5 -48.5t-15.5 -42.5q0 -19 15 -31t47 -12h7v-32l-10.5 -3t-27.5 -3q-39 0 -59.5 19.5t-20.5 51.5q0 26 18 53t54 48zM243 231q-68 0 -101.5 -29t-33.5 -72q0 -46 34.5 -69.5t83.5 -23.5q54 0 99 33.5t70 70.5v61q-36 11 -75.5 20t-76.5 9z" />
    <glyph glyph-name="Cacute" unicode="&#x106;" horiz-adv-x="740" 
d="M658 145l32 -36q-48 -57 -119 -88.5t-151 -31.5q-72 0 -136.5 28t-111.5 76.5t-74.5 115t-27.5 141.5t27.5 141.5t75 115t111.5 77t136 28.5q81 0 144.5 -33.5t111.5 -88.5l-34 -34q-40 49 -93 78.5t-126 29.5q-64 0 -119.5 -24t-96 -65.5t-63.5 -99.5t-23 -125
q0 -66 23 -123.5t63.5 -99t96 -66t119.5 -24.5q72 0 133.5 28.5t101.5 79.5zM411 769h-55l91 103h78z" />
    <glyph glyph-name="cacute" unicode="&#x107;" horiz-adv-x="536" 
d="M456 105l35 -33q-33 -38 -80.5 -60.5t-103.5 -22.5q-53 0 -98 20t-78 54.5t-52 81.5t-19 100t18.5 100t51.5 81.5t78 55t98 20.5q52 0 98.5 -20.5t78.5 -59.5l-36 -35q-26 31 -62.5 48.5t-77.5 17.5q-40 0 -76 -16.5t-62.5 -44.5t-42 -66t-15.5 -81t15.5 -81t42 -66
t62 -44.5t76.5 -16.5q44 0 82.5 18t66.5 50zM319 569h-52l96 131h70z" />
    <glyph glyph-name="Ccircumflex" unicode="&#x108;" horiz-adv-x="740" 
d="M658 145l32 -36q-48 -57 -119 -88.5t-151 -31.5q-72 0 -136.5 28t-111.5 76.5t-74.5 115t-27.5 141.5t27.5 141.5t75 115t111.5 77t136 28.5q81 0 144.5 -33.5t111.5 -88.5l-34 -34q-40 49 -93 78.5t-126 29.5q-64 0 -119.5 -24t-96 -65.5t-63.5 -99.5t-23 -125
q0 -66 23 -123.5t63.5 -99t96 -66t119.5 -24.5q72 0 133.5 28.5t101.5 79.5zM294 769l103 103h66l104 -103h-62l-74 68l-76 -68h-61z" />
    <glyph glyph-name="ccircumflex" unicode="&#x109;" horiz-adv-x="536" 
d="M456 105l35 -33q-33 -38 -80.5 -60.5t-103.5 -22.5q-53 0 -98 20t-78 54.5t-52 81.5t-19 100t18.5 100t51.5 81.5t78 55t98 20.5q52 0 98.5 -20.5t78.5 -59.5l-36 -35q-26 31 -62.5 48.5t-77.5 17.5q-40 0 -76 -16.5t-62.5 -44.5t-42 -66t-15.5 -81t15.5 -81t42 -66
t62 -44.5t76.5 -16.5q44 0 82.5 18t66.5 50zM258 700h67l97 -131h-49l-82 92l-81 -92h-49z" />
    <glyph glyph-name="Cdotaccent" unicode="&#x10a;" horiz-adv-x="740" 
d="M658 145l32 -36q-48 -57 -119 -88.5t-151 -31.5q-72 0 -136.5 28t-111.5 76.5t-74.5 115t-27.5 141.5t27.5 141.5t75 115t111.5 77t136 28.5q81 0 144.5 -33.5t111.5 -88.5l-34 -34q-40 49 -93 78.5t-126 29.5q-64 0 -119.5 -24t-96 -65.5t-63.5 -99.5t-23 -125
q0 -66 23 -123.5t63.5 -99t96 -66t119.5 -24.5q72 0 133.5 28.5t101.5 79.5zM420 775q-19 0 -32 13t-13 32t13 32t32 13t32 -13t13 -32t-13 -32t-32 -13z" />
    <glyph glyph-name="cdotaccent" unicode="&#x10b;" horiz-adv-x="536" 
d="M456 105l35 -33q-33 -38 -80.5 -60.5t-103.5 -22.5q-53 0 -98 20t-78 54.5t-52 81.5t-19 100t18.5 100t51.5 81.5t78 55t98 20.5q52 0 98.5 -20.5t78.5 -59.5l-36 -35q-26 31 -62.5 48.5t-77.5 17.5q-40 0 -76 -16.5t-62.5 -44.5t-42 -66t-15.5 -81t15.5 -81t42 -66
t62 -44.5t76.5 -16.5q44 0 82.5 18t66.5 50zM290 610q-19 0 -32 13t-13 32t13 32t32 13t32 -13t13 -32t-13 -32t-32 -13z" />
    <glyph glyph-name="Ccaron" unicode="&#x10c;" horiz-adv-x="740" 
d="M658 145l32 -36q-48 -57 -119 -88.5t-151 -31.5q-72 0 -136.5 28t-111.5 76.5t-74.5 115t-27.5 141.5t27.5 141.5t75 115t111.5 77t136 28.5q81 0 144.5 -33.5t111.5 -88.5l-34 -34q-40 49 -93 78.5t-126 29.5q-64 0 -119.5 -24t-96 -65.5t-63.5 -99.5t-23 -125
q0 -66 23 -123.5t63.5 -99t96 -66t119.5 -24.5q72 0 133.5 28.5t101.5 79.5zM567 872l-104 -103h-66l-103 103h61l76 -68l74 68h62z" />
    <glyph glyph-name="ccaron" unicode="&#x10d;" horiz-adv-x="536" 
d="M456 105l35 -33q-33 -38 -80.5 -60.5t-103.5 -22.5q-53 0 -98 20t-78 54.5t-52 81.5t-19 100t18.5 100t51.5 81.5t78 55t98 20.5q52 0 98.5 -20.5t78.5 -59.5l-36 -35q-26 31 -62.5 48.5t-77.5 17.5q-40 0 -76 -16.5t-62.5 -44.5t-42 -66t-15.5 -81t15.5 -81t42 -66
t62 -44.5t76.5 -16.5q44 0 82.5 18t66.5 50zM325 569h-67l-97 131h49l82 -92l81 92h49z" />
    <glyph glyph-name="Dcaron" unicode="&#x10e;" horiz-adv-x="708" 
d="M90 0v700h172q79 0 148.5 -19.5t119.5 -60.5t79 -107t29 -158q0 -87 -26 -154t-74.5 -111.5t-118.5 -67t-157 -22.5h-172zM271 652h-133v-604h134q61 0 118.5 16t100.5 52t69.5 95t26.5 144q0 82 -26.5 139t-70 92t-100.5 50.5t-119 15.5zM497 872l-104 -103h-66
l-103 103h61l76 -68l74 68h62z" />
    <glyph glyph-name="dcaron" unicode="&#x10f;" horiz-adv-x="601" 
d="M291 454q-41 0 -75 -17t-57.5 -45.5t-36.5 -66.5t-13 -80q0 -44 12.5 -82t36 -65.5t57 -43.5t76.5 -16q40 0 74.5 16.5t59 44.5t38.5 65.5t14 80.5q0 42 -14 80t-38.5 66.5t-59 45.5t-74.5 17zM285 -11q-50 0 -92 20t-71.5 54.5t-45.5 81.5t-16 100t16 100t45.5 81.5
t71.5 55t92 20.5q62 0 113 -29t79 -79v306h48v-700h-48v98q-28 -51 -79 -80t-113 -29zM627 511h-40l27 189h55z" />
    <glyph glyph-name="Dcroat" unicode="&#x110;" horiz-adv-x="708" 
d="M90 0v335h-80v44h80v321h172q79 0 148.5 -19.5t119.5 -60.5t79 -107t29 -158q0 -87 -26 -154t-74.5 -111.5t-118.5 -67t-157 -22.5h-172zM271 652h-133v-273h178v-44h-178v-287h134q61 0 118.5 16t100.5 52t69.5 95t26.5 144q0 82 -26.5 139t-70 92t-100.5 50.5
t-119 15.5z" />
    <glyph glyph-name="dcroat" unicode="&#x111;" horiz-adv-x="601" 
d="M285 -11q-50 0 -92 20t-71.5 54.5t-45.5 81.5t-16 100t16 100t45.5 81.5t71.5 55t92 20.5q62 0 113 -29t79 -79v186h-195v44h195v76h48v-76h66v-44h-66v-580h-48v98q-28 -51 -79 -80t-113 -29zM291 454q-41 0 -75 -17t-57.5 -45.5t-36.5 -66.5t-13 -80q0 -44 12.5 -82
t36 -65.5t57 -43.5t76.5 -16q40 0 74.5 16.5t59 44.5t38.5 65.5t14 80.5q0 42 -14 80t-38.5 66.5t-59 45.5t-74.5 17z" />
    <glyph glyph-name="Emacron" unicode="&#x112;" horiz-adv-x="585" 
d="M90 0v700h445v-48h-397v-271h378v-48h-378v-285h397v-48h-445zM439 797h-228v47h228v-47z" />
    <glyph glyph-name="emacron" unicode="&#x113;" horiz-adv-x="554" 
d="M446 107l36 -33q-31 -34 -75 -59.5t-113 -25.5q-54 0 -98 20t-74 54.5t-46 81.5t-16 100q0 55 14.5 102t42.5 81.5t70.5 54t98.5 19.5q53 0 92 -20.5t65 -55t38.5 -81.5t12.5 -100v-11h-383q2 -86 51.5 -141.5t132.5 -55.5q50 0 86 19.5t65 50.5zM439 282
q-4 72 -44 121.5t-109 49.5q-78 0 -122.5 -47t-51.5 -124h327zM388 643h-228v47h228v-47z" />
    <glyph glyph-name="Ebreve" unicode="&#x114;" horiz-adv-x="585" 
d="M90 0v700h445v-48h-397v-271h378v-48h-378v-285h397v-48h-445zM447 872q-4 -52 -34 -82.5t-87 -30.5q-56 0 -87 29t-36 84h47q3 -31 21.5 -48.5t53.5 -17.5q36 0 53.5 17t21.5 49h47z" />
    <glyph glyph-name="ebreve" unicode="&#x115;" horiz-adv-x="554" 
d="M446 107l36 -33q-31 -34 -75 -59.5t-113 -25.5q-54 0 -98 20t-74 54.5t-46 81.5t-16 100q0 55 14.5 102t42.5 81.5t70.5 54t98.5 19.5q53 0 92 -20.5t65 -55t38.5 -81.5t12.5 -100v-11h-383q2 -86 51.5 -141.5t132.5 -55.5q50 0 86 19.5t65 50.5zM439 282
q-4 72 -44 121.5t-109 49.5q-78 0 -122.5 -47t-51.5 -124h327zM406 701q-4 -54 -37.5 -94t-93.5 -40t-94.5 38.5t-38.5 95.5h47q2 -36 23.5 -61.5t61.5 -25.5t60.5 26t24.5 61h47z" />
    <glyph glyph-name="Edotaccent" unicode="&#x116;" horiz-adv-x="585" 
d="M90 0v700h445v-48h-397v-271h378v-48h-378v-285h397v-48h-445zM325 775q-19 0 -32 13t-13 32t13 32t32 13t32 -13t13 -32t-13 -32t-32 -13z" />
    <glyph glyph-name="edotaccent" unicode="&#x117;" horiz-adv-x="554" 
d="M446 107l36 -33q-31 -34 -75 -59.5t-113 -25.5q-54 0 -98 20t-74 54.5t-46 81.5t-16 100q0 55 14.5 102t42.5 81.5t70.5 54t98.5 19.5q53 0 92 -20.5t65 -55t38.5 -81.5t12.5 -100v-11h-383q2 -86 51.5 -141.5t132.5 -55.5q50 0 86 19.5t65 50.5zM439 282
q-4 72 -44 121.5t-109 49.5q-78 0 -122.5 -47t-51.5 -124h327zM274 610q-19 0 -32 13t-13 32t13 32t32 13t32 -13t13 -32t-13 -32t-32 -13z" />
    <glyph glyph-name="Eogonek" unicode="&#x118;" horiz-adv-x="585" 
d="M90 0v700h445v-48h-397v-271h378v-48h-378v-285h397v-48h-1q-38 -29 -53.5 -48.5t-15.5 -42.5q0 -19 15 -31t47 -12h7v-32l-10.5 -3t-27.5 -3q-39 0 -59.5 19.5t-20.5 51.5q0 26 18 53t54 48h-398z" />
    <glyph glyph-name="eogonek" unicode="&#x119;" horiz-adv-x="554" 
d="M294 -11q-54 0 -98 20t-74 54.5t-46 81.5t-16 100q0 55 14.5 102t42.5 81.5t70.5 54t98.5 19.5q53 0 92 -20.5t65 -55t38.5 -81.5t12.5 -100v-11h-383q2 -86 51.5 -141.5t132.5 -55.5q50 0 86 19.5t65 50.5l36 -33q-11 -12 -24.5 -24.5t-24.5 -22.5q-23 -20 -46.5 -45
t-23.5 -59q0 -27 21.5 -42t61.5 -15h7v-32q-7 -2 -16.5 -4t-22.5 -2q-46 0 -71 20.5t-25 57.5q0 22 13 48.5t33 43.5q-16 -4 -33.5 -6.5t-36.5 -2.5zM112 282h327q-4 72 -44 121.5t-109 49.5q-78 0 -122.5 -47t-51.5 -124z" />
    <glyph glyph-name="Ecaron" unicode="&#x11a;" horiz-adv-x="585" 
d="M90 0v700h445v-48h-397v-271h378v-48h-378v-285h397v-48h-445zM462 872l-104 -103h-66l-103 103h61l76 -68l74 68h62z" />
    <glyph glyph-name="ecaron" unicode="&#x11b;" horiz-adv-x="554" 
d="M446 107l36 -33q-31 -34 -75 -59.5t-113 -25.5q-54 0 -98 20t-74 54.5t-46 81.5t-16 100q0 55 14.5 102t42.5 81.5t70.5 54t98.5 19.5q53 0 92 -20.5t65 -55t38.5 -81.5t12.5 -100v-11h-383q2 -86 51.5 -141.5t132.5 -55.5q50 0 86 19.5t65 50.5zM439 282
q-4 72 -44 121.5t-109 49.5q-78 0 -122.5 -47t-51.5 -124h327zM309 569h-67l-97 131h49l82 -92l81 92h49z" />
    <glyph glyph-name="Gcircumflex" unicode="&#x11c;" horiz-adv-x="759" 
d="M427 289v48h252v-241q-48 -51 -116 -79t-143 -28q-72 0 -136.5 28t-111.5 76.5t-74.5 115t-27.5 141.5t27.5 141.5t75 115t111.5 77t136 28.5q81 0 144.5 -33.5t111.5 -88.5l-35 -36q-37 44 -91 77t-127 33q-65 0 -120.5 -24t-95.5 -65.5t-63 -99.5t-23 -125
q0 -66 23 -123.5t63 -99t95.5 -66t120.5 -24.5q60 0 114 18.5t94 55.5v178h-204zM261 769l103 103h66l104 -103h-62l-74 68l-76 -68h-61z" />
    <glyph glyph-name="gcircumflex" unicode="&#x11d;" horiz-adv-x="591" 
d="M287 453q-39 0 -72 -15t-56.5 -41.5t-37 -62.5t-13.5 -78q0 -84 49 -140t130 -56t131.5 55.5t50.5 140.5t-50.5 141t-131.5 56zM515 490v-440q0 -54 -12.5 -101t-40 -81t-71.5 -53.5t-106 -19.5q-78 0 -126 30t-79 67l39 36q25 -32 65 -57.5t99 -25.5q101 0 142.5 57.5
t41.5 147.5v61q-28 -50 -78.5 -74.5t-108.5 -24.5q-47 0 -87 18t-69.5 50.5t-46.5 77t-17 97.5t16.5 98.5t45.5 78.5t69.5 51.5t88.5 18.5q67 0 114.5 -28t72.5 -77v93h48zM257 700h67l97 -131h-49l-82 92l-81 -92h-49z" />
    <glyph glyph-name="Gbreve" unicode="&#x11e;" horiz-adv-x="759" 
d="M427 289v48h252v-241q-48 -51 -116 -79t-143 -28q-72 0 -136.5 28t-111.5 76.5t-74.5 115t-27.5 141.5t27.5 141.5t75 115t111.5 77t136 28.5q81 0 144.5 -33.5t111.5 -88.5l-35 -36q-37 44 -91 77t-127 33q-65 0 -120.5 -24t-95.5 -65.5t-63 -99.5t-23 -125
q0 -66 23 -123.5t63 -99t95.5 -66t120.5 -24.5q60 0 114 18.5t94 55.5v178h-204zM519 872q-4 -52 -34 -82.5t-87 -30.5q-56 0 -87 29t-36 84h47q3 -31 21.5 -48.5t53.5 -17.5q36 0 53.5 17t21.5 49h47z" />
    <glyph glyph-name="gbreve" unicode="&#x11f;" horiz-adv-x="591" 
d="M287 453q-39 0 -72 -15t-56.5 -41.5t-37 -62.5t-13.5 -78q0 -84 49 -140t130 -56t131.5 55.5t50.5 140.5t-50.5 141t-131.5 56zM515 490v-440q0 -54 -12.5 -101t-40 -81t-71.5 -53.5t-106 -19.5q-78 0 -126 30t-79 67l39 36q25 -32 65 -57.5t99 -25.5q101 0 142.5 57.5
t41.5 147.5v61q-28 -50 -78.5 -74.5t-108.5 -24.5q-47 0 -87 18t-69.5 50.5t-46.5 77t-17 97.5t16.5 98.5t45.5 78.5t69.5 51.5t88.5 18.5q67 0 114.5 -28t72.5 -77v93h48zM421 701q-4 -54 -37.5 -94t-93.5 -40t-94.5 38.5t-38.5 95.5h47q2 -36 23.5 -61.5t61.5 -25.5
t60.5 26t24.5 61h47z" />
    <glyph glyph-name="Gdotaccent" unicode="&#x120;" horiz-adv-x="759" 
d="M427 289v48h252v-241q-48 -51 -116 -79t-143 -28q-72 0 -136.5 28t-111.5 76.5t-74.5 115t-27.5 141.5t27.5 141.5t75 115t111.5 77t136 28.5q81 0 144.5 -33.5t111.5 -88.5l-35 -36q-37 44 -91 77t-127 33q-65 0 -120.5 -24t-95.5 -65.5t-63 -99.5t-23 -125
q0 -66 23 -123.5t63 -99t95.5 -66t120.5 -24.5q60 0 114 18.5t94 55.5v178h-204zM397 775q-19 0 -32 13t-13 32t13 32t32 13t32 -13t13 -32t-13 -32t-32 -13z" />
    <glyph glyph-name="gdotaccent" unicode="&#x121;" horiz-adv-x="591" 
d="M287 453q-39 0 -72 -15t-56.5 -41.5t-37 -62.5t-13.5 -78q0 -84 49 -140t130 -56t131.5 55.5t50.5 140.5t-50.5 141t-131.5 56zM515 490v-440q0 -54 -12.5 -101t-40 -81t-71.5 -53.5t-106 -19.5q-78 0 -126 30t-79 67l39 36q25 -32 65 -57.5t99 -25.5q101 0 142.5 57.5
t41.5 147.5v61q-28 -50 -78.5 -74.5t-108.5 -24.5q-47 0 -87 18t-69.5 50.5t-46.5 77t-17 97.5t16.5 98.5t45.5 78.5t69.5 51.5t88.5 18.5q67 0 114.5 -28t72.5 -77v93h48zM289 610q-19 0 -32 13t-13 32t13 32t32 13t32 -13t13 -32t-13 -32t-32 -13z" />
    <glyph glyph-name="Gcommaaccent" unicode="&#x122;" horiz-adv-x="759" 
d="M427 289v48h252v-241q-48 -51 -116 -79t-143 -28q-72 0 -136.5 28t-111.5 76.5t-74.5 115t-27.5 141.5t27.5 141.5t75 115t111.5 77t136 28.5q81 0 144.5 -33.5t111.5 -88.5l-35 -36q-37 44 -91 77t-127 33q-65 0 -120.5 -24t-95.5 -65.5t-63 -99.5t-23 -125
q0 -66 23 -123.5t63 -99t95.5 -66t120.5 -24.5q60 0 114 18.5t94 55.5v178h-204zM344 -194h49l63 137h-65z" />
    <glyph glyph-name="gcommaaccent" unicode="&#x123;" horiz-adv-x="591" 
d="M287 453q-39 0 -72 -15t-56.5 -41.5t-37 -62.5t-13.5 -78q0 -84 49 -140t130 -56t131.5 55.5t50.5 140.5t-50.5 141t-131.5 56zM515 490v-440q0 -54 -12.5 -101t-40 -81t-71.5 -53.5t-106 -19.5q-78 0 -126 30t-79 67l39 36q25 -32 65 -57.5t99 -25.5q101 0 142.5 57.5
t41.5 147.5v61q-28 -50 -78.5 -74.5t-108.5 -24.5q-47 0 -87 18t-69.5 50.5t-46.5 77t-17 97.5t16.5 98.5t45.5 78.5t69.5 51.5t88.5 18.5q67 0 114.5 -28t72.5 -77v93h48zM327 700h49l-47 -137h-65z" />
    <glyph glyph-name="Hcircumflex" unicode="&#x124;" horiz-adv-x="705" 
d="M567 0v333h-429v-333h-48v700h48v-319h429v319h48v-700h-48zM216 769l103 103h66l104 -103h-62l-74 68l-76 -68h-61z" />
    <glyph glyph-name="hcircumflex" unicode="&#x125;" horiz-adv-x="564" 
d="M494 0h-48v239q0 95 -30.5 155t-120.5 60q-41 0 -73 -16.5t-53.5 -45t-33 -68t-11.5 -85.5v-239h-48v700h48v-295q28 50 72 73.5t104 23.5q56 0 94 -20t60 -54.5t31 -82t9 -100.5v-245zM-35 769l103 103h66l104 -103h-62l-74 68l-76 -68h-61z" />
    <glyph glyph-name="Hbar" unicode="&#x126;" horiz-adv-x="705" 
d="M695 518h-80v-518h-48v333h-429v-333h-48v518h-80v44h80v138h48v-138h429v138h48v-138h80v-44zM138 381h429v137h-429v-137z" />
    <glyph glyph-name="hbar" unicode="&#x127;" horiz-adv-x="564" 
d="M494 0h-48v239q0 95 -30.5 155t-120.5 60q-41 0 -73 -16.5t-53.5 -45t-33 -68t-11.5 -85.5v-239h-48v580h-66v44h66v76h48v-76h195v-44h-195v-175q28 50 72 73.5t104 23.5q56 0 94 -20t60 -54.5t31 -82t9 -100.5v-245z" />
    <glyph glyph-name="Itilde" unicode="&#x128;" horiz-adv-x="228" 
d="M90 0v700h48v-700h-48zM209 862h39q-3 -37 -22.5 -59.5t-47.5 -22.5q-19 0 -37 6.5t-35 13.5q-12 4 -24 9t-25 5q-19 0 -27 -10t-12 -24h-38q3 37 22.5 59.5t47.5 22.5q19 0 33.5 -5.5t30.5 -12.5q14 -6 28.5 -11t27.5 -5q19 0 27 10.5t12 23.5z" />
    <glyph glyph-name="itilde" unicode="&#x129;" horiz-adv-x="200" 
d="M76 0v490h48v-490h-48zM195 692h39q-3 -37 -22.5 -59.5t-47.5 -22.5q-19 0 -37 6.5t-35 13.5q-12 4 -24 9t-25 5q-19 0 -27 -10t-12 -24h-38q3 37 22.5 59.5t47.5 22.5q19 0 33.5 -5.5t30.5 -12.5q14 -6 28.5 -11t27.5 -5q19 0 27 10.5t12 23.5z" />
    <glyph glyph-name="Imacron" unicode="&#x12a;" horiz-adv-x="228" 
d="M90 0v700h48v-700h-48zM228 797h-228v47h228v-47z" />
    <glyph glyph-name="imacron" unicode="&#x12b;" horiz-adv-x="200" 
d="M76 0v490h48v-490h-48zM214 643h-228v47h228v-47z" />
    <glyph glyph-name="Ibreve" unicode="&#x12c;" horiz-adv-x="228" 
d="M90 0v700h48v-700h-48zM236 872q-4 -52 -34 -82.5t-87 -30.5q-56 0 -87 29t-36 84h47q3 -31 21.5 -48.5t53.5 -17.5q36 0 53.5 17t21.5 49h47z" />
    <glyph glyph-name="ibreve" unicode="&#x12d;" horiz-adv-x="200" 
d="M76 0v490h48v-490h-48zM232 701q-4 -54 -37.5 -94t-93.5 -40t-94.5 38.5t-38.5 95.5h47q2 -36 23.5 -61.5t61.5 -25.5t60.5 26t24.5 61h47z" />
    <glyph glyph-name="Iogonek" unicode="&#x12e;" horiz-adv-x="228" 
d="M90 0v700h48v-700q-38 -29 -53.5 -48.5t-15.5 -42.5q0 -19 15 -31t47 -12h7v-32l-10.5 -3t-27.5 -3q-39 0 -59.5 19.5t-20.5 51.5q0 26 18 53t54 48h-2z" />
    <glyph glyph-name="iogonek" unicode="&#x12f;" horiz-adv-x="200" 
d="M76 0v490h48v-490h-1q-38 -29 -53.5 -48.5t-15.5 -42.5q0 -19 15 -31t47 -12h7v-32l-10.5 -3t-27.5 -3q-39 0 -59.5 19.5t-20.5 51.5q0 26 18 53t54 48h-1zM100 622q-19 0 -32 13t-13 32t13 32t32 13t32 -13t13 -32t-13 -32t-32 -13z" />
    <glyph glyph-name="Idotaccent" unicode="&#x130;" horiz-adv-x="228" 
d="M90 0v700h48v-700h-48zM114 775q-19 0 -32 13t-13 32t13 32t32 13t32 -13t13 -32t-13 -32t-32 -13z" />
    <glyph glyph-name="dotlessi" unicode="&#x131;" horiz-adv-x="200" 
d="M76 0v490h48v-490h-48z" />
    <glyph glyph-name="IJ" unicode="&#x132;" horiz-adv-x="734" 
d="M90 0v700h48v-700h-48zM274 84l34 34q22 -35 56.5 -59.5t87.5 -24.5q73 0 113.5 50.5t40.5 140.5v475h48v-475q0 -110 -53 -173t-148 -63q-63 0 -108.5 27t-70.5 68z" />
    <glyph glyph-name="ij" unicode="&#x133;" horiz-adv-x="407" 
d="M100 622q-19 0 -32 13t-13 32t13 32t32 13t32 -13t13 -32t-13 -32t-32 -13zM76 0v490h48v-490h-48zM307 622q-19 0 -32 13t-13 32t13 32t32 13t32 -13t13 -32t-13 -32t-32 -13zM283 -48v538h48v-555q0 -77 -35.5 -108.5t-102.5 -31.5h-22t-16 1v47h31q59 0 78 26.5
t19 82.5z" />
    <glyph glyph-name="Jcircumflex" unicode="&#x134;" horiz-adv-x="506" 
d="M46 84l34 34q22 -35 56.5 -59.5t87.5 -24.5q73 0 113.5 50.5t40.5 140.5v475h48v-475q0 -110 -53 -173t-148 -63q-63 0 -108.5 27t-70.5 68zM268 769l103 103h66l104 -103h-62l-74 68l-76 -68h-61z" />
    <glyph glyph-name="jcircumflex" unicode="&#x135;" horiz-adv-x="207" 
d="M83 -48v538h48v-555q0 -77 -35.5 -108.5t-102.5 -31.5h-22t-16 1v47h31q59 0 78 26.5t19 82.5zM76 700h67l97 -131h-49l-82 92l-81 -92h-49z" />
    <glyph glyph-name="Kcommaaccent" unicode="&#x136;" horiz-adv-x="616" 
d="M90 0v700h48v-442l355 442h62l-240 -298l261 -402h-58l-237 361l-143 -178v-183h-48zM245 -194h49l63 137h-65z" />
    <glyph glyph-name="kcommaaccent" unicode="&#x137;" horiz-adv-x="482" 
d="M76 0v700h48v-492l262 282h65l-190 -206l201 -284h-59l-177 249l-102 -112v-137h-48zM194 -194h49l63 137h-65z" />
    <glyph glyph-name="kgreenlandic" unicode="&#x138;" horiz-adv-x="482" 
d="M76 0v490h48v-282l262 282h65l-190 -206l201 -284h-59l-177 249l-102 -112v-137h-48z" />
    <glyph glyph-name="Lacute" unicode="&#x139;" horiz-adv-x="534" 
d="M90 0v700h48v-652h356v-48h-404zM149 769h-55l91 103h78z" />
    <glyph glyph-name="lacute" unicode="&#x13a;" horiz-adv-x="200" 
d="M76 0v700h48v-700h-48zM120 769h-55l91 103h78z" />
    <glyph glyph-name="Lcommaaccent" unicode="&#x13b;" horiz-adv-x="534" 
d="M90 0v700h48v-652h356v-48h-404zM239 -194h49l63 137h-65z" />
    <glyph glyph-name="lcommaaccent" unicode="&#x13c;" horiz-adv-x="200" 
d="M76 0v700h48v-700h-48zM14 -194h49l63 137h-65z" />
    <glyph glyph-name="Lcaron" unicode="&#x13d;" horiz-adv-x="534" 
d="M90 0v700h48v-652h356v-48h-404zM339 511h-40l27 189h55z" />
    <glyph glyph-name="lcaron" unicode="&#x13e;" horiz-adv-x="200" 
d="M76 0v700h48v-700h-48zM226 511h-40l27 189h55z" />
    <glyph glyph-name="Ldot" unicode="&#x13f;" horiz-adv-x="534" 
d="M90 0v700h48v-652h356v-48h-404zM386 301q-19 0 -32 13t-13 32t13 32t32 13t32 -13t13 -32t-13 -32t-32 -13z" />
    <glyph glyph-name="ldot" unicode="&#x140;" horiz-adv-x="269" 
d="M76 0v700h48v-700h-48zM233 304q-19 0 -32 13t-13 32t13 32t32 13t32 -13t13 -32t-13 -32t-32 -13z" />
    <glyph glyph-name="Lslash" unicode="&#x141;" horiz-adv-x="534" 
d="M10 285v48l80 35v332h48v-311l191 83v-48l-191 -83v-293h356v-48h-404v320z" />
    <glyph glyph-name="lslash" unicode="&#x142;" horiz-adv-x="200" 
d="M-10 279v51l86 43v327h48v-303l86 44v-51l-86 -44v-346h-48v322z" />
    <glyph glyph-name="Nacute" unicode="&#x143;" horiz-adv-x="726" 
d="M90 0v700h61l437 -635v635h48v-700h-61l-437 634v-634h-48zM394 769h-55l91 103h78z" />
    <glyph glyph-name="nacute" unicode="&#x144;" horiz-adv-x="564" 
d="M494 0h-48v239q0 95 -30.5 155t-120.5 60q-41 0 -73.5 -16.5t-54 -45t-32.5 -68t-11 -85.5v-239h-48v490h47v-85q28 50 72 73.5t105 23.5q56 0 94 -20t60 -54.5t31 -82t9 -100.5v-245zM254 569h-52l96 131h70z" />
    <glyph glyph-name="Ncommaaccent" unicode="&#x145;" horiz-adv-x="726" 
d="M90 0v700h61l437 -635v635h48v-700h-61l-437 634v-634h-48zM297 -194h49l63 137h-65z" />
    <glyph glyph-name="ncommaaccent" unicode="&#x146;" horiz-adv-x="564" 
d="M494 0h-48v239q0 95 -30.5 155t-120.5 60q-41 0 -73.5 -16.5t-54 -45t-32.5 -68t-11 -85.5v-239h-48v490h47v-85q28 50 72 73.5t105 23.5q56 0 94 -20t60 -54.5t31 -82t9 -100.5v-245zM209 -194h49l63 137h-65z" />
    <glyph glyph-name="Ncaron" unicode="&#x147;" horiz-adv-x="726" 
d="M90 0v700h61l437 -635v635h48v-700h-61l-437 634v-634h-48zM520 872l-104 -103h-66l-103 103h61l76 -68l74 68h62z" />
    <glyph glyph-name="ncaron" unicode="&#x148;" horiz-adv-x="564" 
d="M494 0h-48v239q0 95 -30.5 155t-120.5 60q-41 0 -73.5 -16.5t-54 -45t-32.5 -68t-11 -85.5v-239h-48v490h47v-85q28 50 72 73.5t105 23.5q56 0 94 -20t60 -54.5t31 -82t9 -100.5v-245zM320 569h-67l-97 131h49l82 -92l81 92h49z" />
    <glyph glyph-name="Eng" unicode="&#x14a;" horiz-adv-x="726" 
d="M498 -205h-22t-16 1v47h31q59 0 78 26.5t19 82.5v49l-450 633v-634h-48v700h61l437 -619v619h48v-765q0 -77 -35.5 -108.5t-102.5 -31.5z" />
    <glyph glyph-name="eng" unicode="&#x14b;" horiz-adv-x="564" 
d="M494 -65q0 -77 -35.5 -108.5t-102.5 -31.5h-22t-16 1v47h31q59 0 78 26.5t19 82.5v287q0 95 -30.5 155t-120.5 60q-41 0 -73.5 -16.5t-54 -45t-32.5 -68t-11 -85.5v-239h-48v490h47v-85q28 50 72 73.5t105 23.5q56 0 94 -20t60 -54.5t31 -82t9 -100.5v-310z" />
    <glyph glyph-name="Omacron" unicode="&#x14c;" horiz-adv-x="840" 
d="M420 -11q-72 0 -136.5 28t-111.5 76.5t-74.5 115t-27.5 141.5t27.5 141.5t75 115t111.5 77t136 28.5q73 0 137 -28.5t111.5 -77t74.5 -115t27 -141.5t-27 -141t-74.5 -114.5t-111.5 -77t-137 -28.5zM420 664q-64 0 -119 -24t-95 -66t-62.5 -99.5t-22.5 -124.5t23 -124.5
t62.5 -99t94.5 -65.5t119 -24t119 24.5t94.5 66.5t62.5 99.5t23 122.5q0 67 -22.5 124.5t-62.5 99.5t-95 66t-119 24zM534 797h-228v47h228v-47z" />
    <glyph glyph-name="omacron" unicode="&#x14d;" horiz-adv-x="614" 
d="M307 -11q-53 0 -98 20t-78 54.5t-52 81.5t-19 100t19 100t52 81.5t78 55t98 20.5t98 -20.5t78 -55t52 -81.5t19 -100t-19 -100t-52 -81.5t-78 -54.5t-98 -20zM307 454q-40 0 -75.5 -16t-62 -44t-42.5 -66.5t-16 -82.5t16 -82t42.5 -66t62 -44t75.5 -16t76 16t62.5 44
t42 66t15.5 82t-15.5 82t-42 66t-62 44.5t-76.5 16.5zM421 643h-228v47h228v-47z" />
    <glyph glyph-name="Obreve" unicode="&#x14e;" horiz-adv-x="840" 
d="M420 -11q-72 0 -136.5 28t-111.5 76.5t-74.5 115t-27.5 141.5t27.5 141.5t75 115t111.5 77t136 28.5q73 0 137 -28.5t111.5 -77t74.5 -115t27 -141.5t-27 -141t-74.5 -114.5t-111.5 -77t-137 -28.5zM420 664q-64 0 -119 -24t-95 -66t-62.5 -99.5t-22.5 -124.5t23 -124.5
t62.5 -99t94.5 -65.5t119 -24t119 24.5t94.5 66.5t62.5 99.5t23 122.5q0 67 -22.5 124.5t-62.5 99.5t-95 66t-119 24zM542 872q-4 -52 -34 -82.5t-87 -30.5q-56 0 -87 29t-36 84h47q3 -31 21.5 -48.5t53.5 -17.5q36 0 53.5 17t21.5 49h47z" />
    <glyph glyph-name="obreve" unicode="&#x14f;" horiz-adv-x="614" 
d="M307 -11q-53 0 -98 20t-78 54.5t-52 81.5t-19 100t19 100t52 81.5t78 55t98 20.5t98 -20.5t78 -55t52 -81.5t19 -100t-19 -100t-52 -81.5t-78 -54.5t-98 -20zM307 454q-40 0 -75.5 -16t-62 -44t-42.5 -66.5t-16 -82.5t16 -82t42.5 -66t62 -44t75.5 -16t76 16t62.5 44
t42 66t15.5 82t-15.5 82t-42 66t-62 44.5t-76.5 16.5zM439 701q-4 -54 -37.5 -94t-93.5 -40t-94.5 38.5t-38.5 95.5h47q2 -36 23.5 -61.5t61.5 -25.5t60.5 26t24.5 61h47z" />
    <glyph glyph-name="Ohungarumlaut" unicode="&#x150;" horiz-adv-x="840" 
d="M420 -11q-72 0 -136.5 28t-111.5 76.5t-74.5 115t-27.5 141.5t27.5 141.5t75 115t111.5 77t136 28.5q73 0 137 -28.5t111.5 -77t74.5 -115t27 -141.5t-27 -141t-74.5 -114.5t-111.5 -77t-137 -28.5zM420 664q-64 0 -119 -24t-95 -66t-62.5 -99.5t-22.5 -124.5t23 -124.5
t62.5 -99t94.5 -65.5t119 -24t119 24.5t94.5 66.5t62.5 99.5t23 122.5q0 67 -22.5 124.5t-62.5 99.5t-95 66t-119 24zM359 769h-45l60 103h66zM512 769h-45l60 103h66z" />
    <glyph glyph-name="ohungarumlaut" unicode="&#x151;" horiz-adv-x="614" 
d="M307 -11q-53 0 -98 20t-78 54.5t-52 81.5t-19 100t19 100t52 81.5t78 55t98 20.5t98 -20.5t78 -55t52 -81.5t19 -100t-19 -100t-52 -81.5t-78 -54.5t-98 -20zM307 454q-40 0 -75.5 -16t-62 -44t-42.5 -66.5t-16 -82.5t16 -82t42.5 -66t62 -44t75.5 -16t76 16t62.5 44
t42 66t15.5 82t-15.5 82t-42 66t-62 44.5t-76.5 16.5zM236 569h-46l76 131h66zM389 569h-46l76 131h66z" />
    <glyph glyph-name="OE" unicode="&#x152;" horiz-adv-x="905" 
d="M855 0h-445q-70 0 -132.5 27.5t-108 74.5t-72.5 111t-27 137q0 72 27 136.5t73 111.5t108 74.5t132 27.5h445v-48h-397v-271h378v-48h-378v-285h397v-48zM410 654q-62 -1 -115.5 -24t-91.5 -63.5t-60 -96t-22 -120.5q0 -63 22 -118.5t60 -96t91.5 -64.5t115.5 -24v607z
" />
    <glyph glyph-name="oe" unicode="&#x153;" horiz-adv-x="1002" 
d="M894 107l36 -36q-31 -34 -75 -58t-115 -24q-75 0 -130 40t-81 103q-29 -63 -88 -103t-134 -40q-53 0 -98 20t-78 54.5t-52 81.5t-19 100t19 100t52 81.5t78 55t98 20.5q73 0 131.5 -39t88.5 -101q24 63 76.5 101.5t132.5 38.5q52 0 91 -20.5t64.5 -55t38 -81.5t12.5 -100
v-11h-386q3 -86 54 -141.5t129 -55.5q53 0 89.5 19t65.5 51zM307 454q-40 0 -75.5 -16t-62 -44t-42.5 -66.5t-16 -82.5t16 -82t42.5 -66t62 -44t75.5 -16t76 16t62.5 44t42 66t15.5 82t-15.5 82t-42 66t-62 44.5t-76.5 16.5zM890 282q-5 72 -46 121.5t-109 49.5
q-79 0 -124.5 -47t-53.5 -124h333z" />
    <glyph glyph-name="Racute" unicode="&#x154;" horiz-adv-x="645" 
d="M336 652h-198v-336h198q90 0 140 41t50 126q0 82 -50 125.5t-140 43.5zM339 268h-201v-268h-48v700h232q122 0 188.5 -55t66.5 -162q0 -90 -47 -142.5t-135 -67.5l190 -273h-60zM346 769h-55l91 103h78z" />
    <glyph glyph-name="racute" unicode="&#x155;" horiz-adv-x="345" 
d="M315 502v-49h-18q-40 0 -72 -16.5t-54.5 -45t-34.5 -67.5t-12 -85v-239h-48v490h45v-96q24 50 72.5 79t106.5 29h15zM168 569h-52l96 131h70z" />
    <glyph glyph-name="Rcommaaccent" unicode="&#x156;" horiz-adv-x="645" 
d="M336 652h-198v-336h198q90 0 140 41t50 126q0 82 -50 125.5t-140 43.5zM339 268h-201v-268h-48v700h232q122 0 188.5 -55t66.5 -162q0 -90 -47 -142.5t-135 -67.5l190 -273h-60zM269 -194h49l63 137h-65z" />
    <glyph glyph-name="rcommaaccent" unicode="&#x157;" horiz-adv-x="345" 
d="M315 502v-49h-18q-40 0 -72 -16.5t-54.5 -45t-34.5 -67.5t-12 -85v-239h-48v490h45v-96q24 50 72.5 79t106.5 29h15zM14 -194h49l63 137h-65z" />
    <glyph glyph-name="Rcaron" unicode="&#x158;" horiz-adv-x="645" 
d="M336 652h-198v-336h198q90 0 140 41t50 126q0 82 -50 125.5t-140 43.5zM339 268h-201v-268h-48v700h232q122 0 188.5 -55t66.5 -162q0 -90 -47 -142.5t-135 -67.5l190 -273h-60zM472 872l-104 -103h-66l-103 103h61l76 -68l74 68h62z" />
    <glyph glyph-name="rcaron" unicode="&#x159;" horiz-adv-x="345" 
d="M315 502v-49h-18q-40 0 -72 -16.5t-54.5 -45t-34.5 -67.5t-12 -85v-239h-48v490h45v-96q24 50 72.5 79t106.5 29h15zM234 569h-67l-97 131h49l82 -92l81 92h49z" />
    <glyph glyph-name="Sacute" unicode="&#x15a;" horiz-adv-x="590" 
d="M339 324l-90 16q-38 7 -73 21t-61.5 37t-42.5 54.5t-16 72.5q0 44 19.5 79t52 59t75.5 36.5t89 12.5q77 0 133 -31t96 -72l-34 -37q-32 35 -80 63.5t-121 28.5q-81 0 -130.5 -39t-49.5 -98q0 -60 47.5 -95.5t118.5 -47.5l71 -12q98 -16 152.5 -63.5t54.5 -125.5
q0 -39 -16 -74.5t-47 -61.5t-77.5 -42t-108.5 -16q-85 0 -152 31t-109 82l34 36q36 -40 93 -70.5t138 -30.5q90 0 142.5 42t52.5 105q0 60 -46 93.5t-115 46.5zM311 769h-55l91 103h78z" />
    <glyph glyph-name="sacute" unicode="&#x15b;" horiz-adv-x="464" 
d="M277 215l-77 18q-63 15 -98.5 48t-35.5 87q0 34 14 59.5t37 42t53 24.5t61 8q50 0 91 -18.5t74 -50.5l-36 -38q-19 19 -51 39.5t-83 20.5q-47 0 -79 -20.5t-32 -63.5q0 -29 17.5 -53.5t68.5 -36.5l82 -19q64 -15 100 -48.5t36 -84.5q0 -61 -49 -100.5t-130 -39.5
q-63 0 -112.5 23t-77.5 57l32 37q29 -34 69 -52t89 -18q60 0 95 23t35 66q0 32 -22.5 55.5t-70.5 34.5zM246 569h-52l96 131h70z" />
    <glyph glyph-name="Scircumflex" unicode="&#x15c;" horiz-adv-x="590" 
d="M339 324l-90 16q-38 7 -73 21t-61.5 37t-42.5 54.5t-16 72.5q0 44 19.5 79t52 59t75.5 36.5t89 12.5q77 0 133 -31t96 -72l-34 -37q-32 35 -80 63.5t-121 28.5q-81 0 -130.5 -39t-49.5 -98q0 -60 47.5 -95.5t118.5 -47.5l71 -12q98 -16 152.5 -63.5t54.5 -125.5
q0 -39 -16 -74.5t-47 -61.5t-77.5 -42t-108.5 -16q-85 0 -152 31t-109 82l34 36q36 -40 93 -70.5t138 -30.5q90 0 142.5 42t52.5 105q0 60 -46 93.5t-115 46.5zM164 769l103 103h66l104 -103h-62l-74 68l-76 -68h-61z" />
    <glyph glyph-name="scircumflex" unicode="&#x15d;" horiz-adv-x="464" 
d="M277 215l-77 18q-63 15 -98.5 48t-35.5 87q0 34 14 59.5t37 42t53 24.5t61 8q50 0 91 -18.5t74 -50.5l-36 -38q-19 19 -51 39.5t-83 20.5q-47 0 -79 -20.5t-32 -63.5q0 -29 17.5 -53.5t68.5 -36.5l82 -19q64 -15 100 -48.5t36 -84.5q0 -61 -49 -100.5t-130 -39.5
q-63 0 -112.5 23t-77.5 57l32 37q29 -34 69 -52t89 -18q60 0 95 23t35 66q0 32 -22.5 55.5t-70.5 34.5zM208 700h67l97 -131h-49l-82 92l-81 -92h-49z" />
    <glyph glyph-name="Scedilla" unicode="&#x15e;" horiz-adv-x="590" 
d="M339 324l-90 16q-38 7 -73 21t-61.5 37t-42.5 54.5t-16 72.5q0 44 19.5 79t52 59t75.5 36.5t89 12.5q77 0 133 -31t96 -72l-34 -37q-32 35 -80 63.5t-121 28.5q-81 0 -130.5 -39t-49.5 -98q0 -60 47.5 -95.5t118.5 -47.5l71 -12q98 -16 152.5 -63.5t54.5 -125.5
q0 -67 -47 -120.5t-139 -68.5l-56 -131h-56l60 126h-11q-85 0 -152 31t-109 82l34 36q36 -40 93 -70.5t138 -30.5q90 0 142.5 42t52.5 105q0 60 -46 93.5t-115 46.5z" />
    <glyph glyph-name="scedilla" unicode="&#x15f;" horiz-adv-x="464" 
d="M277 215l-77 18q-63 15 -98.5 48t-35.5 87q0 34 14 59.5t37 42t53 24.5t61 8q50 0 91 -18.5t74 -50.5l-36 -38q-19 19 -51 39.5t-83 20.5q-47 0 -79 -20.5t-32 -63.5q0 -29 17.5 -53.5t68.5 -36.5l82 -19q64 -15 100 -48.5t36 -84.5q0 -54 -38.5 -91.5t-102.5 -45.5
l-55 -129h-56l60 127q-59 2 -104.5 24.5t-72.5 54.5l32 37q29 -34 69 -52t89 -18q60 0 95 23t35 66q0 32 -22.5 55.5t-70.5 34.5z" />
    <glyph glyph-name="Scaron" unicode="&#x160;" horiz-adv-x="590" 
d="M339 324l-90 16q-38 7 -73 21t-61.5 37t-42.5 54.5t-16 72.5q0 44 19.5 79t52 59t75.5 36.5t89 12.5q77 0 133 -31t96 -72l-34 -37q-32 35 -80 63.5t-121 28.5q-81 0 -130.5 -39t-49.5 -98q0 -60 47.5 -95.5t118.5 -47.5l71 -12q98 -16 152.5 -63.5t54.5 -125.5
q0 -39 -16 -74.5t-47 -61.5t-77.5 -42t-108.5 -16q-85 0 -152 31t-109 82l34 36q36 -40 93 -70.5t138 -30.5q90 0 142.5 42t52.5 105q0 60 -46 93.5t-115 46.5zM437 872l-104 -103h-66l-103 103h61l76 -68l74 68h62z" />
    <glyph glyph-name="scaron" unicode="&#x161;" horiz-adv-x="464" 
d="M277 215l-77 18q-63 15 -98.5 48t-35.5 87q0 34 14 59.5t37 42t53 24.5t61 8q50 0 91 -18.5t74 -50.5l-36 -38q-19 19 -51 39.5t-83 20.5q-47 0 -79 -20.5t-32 -63.5q0 -29 17.5 -53.5t68.5 -36.5l82 -19q64 -15 100 -48.5t36 -84.5q0 -61 -49 -100.5t-130 -39.5
q-63 0 -112.5 23t-77.5 57l32 37q29 -34 69 -52t89 -18q60 0 95 23t35 66q0 32 -22.5 55.5t-70.5 34.5zM275 569h-67l-97 131h49l82 -92l81 92h49z" />
    <glyph glyph-name="uni0162" unicode="&#x162;" horiz-adv-x="598" 
d="M40 700h518v-47h-238v-649h3l-61 -141h-56l66 139v651h-232v47z" />
    <glyph glyph-name="uni0163" unicode="&#x163;" horiz-adv-x="336" 
d="M35 490h84v137h48v-137h122v-46h-122v-288q0 -56 18.5 -83.5t77.5 -27.5h28v-46l-12 -0.5t-23 -0.5h-5l-58 -135h-56l66 140q-41 10 -62.5 42t-21.5 92v307h-84v46z" />
    <glyph glyph-name="Tcaron" unicode="&#x164;" horiz-adv-x="598" 
d="M40 700h518v-47h-238v-653h-48v653h-232v47zM434 872l-104 -103h-66l-103 103h61l76 -68l74 68h62z" />
    <glyph glyph-name="tcaron" unicode="&#x165;" horiz-adv-x="336" 
d="M35 490h84v137h48v-137h122v-46h-122v-288q0 -56 18.5 -83.5t77.5 -27.5h28v-46l-12 -0.5t-23 -0.5q-66 0 -101.5 31t-35.5 108v307h-84v46zM269 561h-40l27 189h55z" />
    <glyph glyph-name="Tbar" unicode="&#x166;" horiz-adv-x="598" 
d="M480 350v-44h-160v-306h-48v306h-160v44h160v303h-232v47h518v-47h-238v-303h160z" />
    <glyph glyph-name="tbar" unicode="&#x167;" horiz-adv-x="336" 
d="M35 490h84v137h48v-137h122v-48h-122v-155h122v-44h-122v-87q0 -56 18.5 -83.5t77.5 -27.5h28v-46l-12 -0.5t-23 -0.5q-66 0 -101.5 31t-35.5 108v106h-84v44h84v155h-84v48z" />
    <glyph glyph-name="Utilde" unicode="&#x168;" horiz-adv-x="685" 
d="M557 275v425h48v-427q0 -61 -17.5 -113t-51 -90t-83 -59.5t-111.5 -21.5t-111 21.5t-82.5 59.5t-51 90t-17.5 113v427h48v-426q0 -49 14 -92t40.5 -75t67 -51t92.5 -19t92.5 19t67.5 51t41 75.5t14 92.5zM437 862h39q-3 -37 -22.5 -59.5t-47.5 -22.5q-19 0 -37 6.5
t-35 13.5q-12 4 -24 9t-25 5q-19 0 -27 -10t-12 -24h-38q3 37 22.5 59.5t47.5 22.5q19 0 33.5 -5.5t30.5 -12.5q14 -6 28.5 -11t27.5 -5q19 0 27 10.5t12 23.5z" />
    <glyph glyph-name="utilde" unicode="&#x169;" horiz-adv-x="564" 
d="M70 490h48v-238q0 -95 30.5 -155t120.5 -60q41 0 73 16.5t53.5 45t33 68t11.5 85.5v238h48v-490h-45v86q-28 -50 -72.5 -73.5t-106.5 -23.5q-56 0 -94 20t-60 54.5t-31 82t-9 100.5v244zM375 692h39q-3 -37 -22.5 -59.5t-47.5 -22.5q-19 0 -37 6.5t-35 13.5q-12 4 -24 9
t-25 5q-19 0 -27 -10t-12 -24h-38q3 37 22.5 59.5t47.5 22.5q19 0 33.5 -5.5t30.5 -12.5q14 -6 28.5 -11t27.5 -5q19 0 27 10.5t12 23.5z" />
    <glyph glyph-name="Umacron" unicode="&#x16a;" horiz-adv-x="685" 
d="M557 275v425h48v-427q0 -61 -17.5 -113t-51 -90t-83 -59.5t-111.5 -21.5t-111 21.5t-82.5 59.5t-51 90t-17.5 113v427h48v-426q0 -49 14 -92t40.5 -75t67 -51t92.5 -19t92.5 19t67.5 51t41 75.5t14 92.5zM456 797h-228v47h228v-47z" />
    <glyph glyph-name="umacron" unicode="&#x16b;" horiz-adv-x="564" 
d="M70 490h48v-238q0 -95 30.5 -155t120.5 -60q41 0 73 16.5t53.5 45t33 68t11.5 85.5v238h48v-490h-45v86q-28 -50 -72.5 -73.5t-106.5 -23.5q-56 0 -94 20t-60 54.5t-31 82t-9 100.5v244zM394 643h-228v47h228v-47z" />
    <glyph glyph-name="Ubreve" unicode="&#x16c;" horiz-adv-x="685" 
d="M557 275v425h48v-427q0 -61 -17.5 -113t-51 -90t-83 -59.5t-111.5 -21.5t-111 21.5t-82.5 59.5t-51 90t-17.5 113v427h48v-426q0 -49 14 -92t40.5 -75t67 -51t92.5 -19t92.5 19t67.5 51t41 75.5t14 92.5zM464 872q-4 -52 -34 -82.5t-87 -30.5q-56 0 -87 29t-36 84h47
q3 -31 21.5 -48.5t53.5 -17.5q36 0 53.5 17t21.5 49h47z" />
    <glyph glyph-name="ubreve" unicode="&#x16d;" horiz-adv-x="564" 
d="M70 490h48v-238q0 -95 30.5 -155t120.5 -60q41 0 73 16.5t53.5 45t33 68t11.5 85.5v238h48v-490h-45v86q-28 -50 -72.5 -73.5t-106.5 -23.5q-56 0 -94 20t-60 54.5t-31 82t-9 100.5v244zM412 701q-4 -54 -37.5 -94t-93.5 -40t-94.5 38.5t-38.5 95.5h47q2 -36 23.5 -61.5
t61.5 -25.5t60.5 26t24.5 61h47z" />
    <glyph glyph-name="Uring" unicode="&#x16e;" horiz-adv-x="685" 
d="M557 275v425h48v-427q0 -61 -17.5 -113t-51 -90t-83 -59.5t-111.5 -21.5t-111 21.5t-82.5 59.5t-51 90t-17.5 113v427h48v-426q0 -49 14 -92t40.5 -75t67 -51t92.5 -19t92.5 19t67.5 51t41 75.5t14 92.5zM342 703q-30 0 -52.5 22t-22.5 52q0 31 22.5 53t52.5 22
q31 0 53 -22t22 -53q0 -30 -22 -52t-53 -22zM342 814q-15 0 -26 -10.5t-11 -26.5q0 -15 11 -25.5t26 -10.5q16 0 26.5 10.5t10.5 25.5q0 16 -10.5 26.5t-26.5 10.5z" />
    <glyph glyph-name="uring" unicode="&#x16f;" horiz-adv-x="564" 
d="M70 490h48v-238q0 -95 30.5 -155t120.5 -60q41 0 73 16.5t53.5 45t33 68t11.5 85.5v238h48v-490h-45v86q-28 -50 -72.5 -73.5t-106.5 -23.5q-56 0 -94 20t-60 54.5t-31 82t-9 100.5v244zM280 563q-30 0 -52.5 22t-22.5 52q0 31 22.5 53t52.5 22q31 0 53 -22t22 -53
q0 -30 -22 -52t-53 -22zM280 674q-15 0 -26 -10.5t-11 -26.5q0 -15 11 -25.5t26 -10.5q16 0 26.5 10.5t10.5 25.5q0 16 -10.5 26.5t-26.5 10.5z" />
    <glyph glyph-name="Uhungarumlaut" unicode="&#x170;" horiz-adv-x="685" 
d="M557 275v425h48v-427q0 -61 -17.5 -113t-51 -90t-83 -59.5t-111.5 -21.5t-111 21.5t-82.5 59.5t-51 90t-17.5 113v427h48v-426q0 -49 14 -92t40.5 -75t67 -51t92.5 -19t92.5 19t67.5 51t41 75.5t14 92.5zM281 769h-45l60 103h66zM434 769h-45l60 103h66z" />
    <glyph glyph-name="uhungarumlaut" unicode="&#x171;" horiz-adv-x="564" 
d="M70 490h48v-238q0 -95 30.5 -155t120.5 -60q41 0 73 16.5t53.5 45t33 68t11.5 85.5v238h48v-490h-45v86q-28 -50 -72.5 -73.5t-106.5 -23.5q-56 0 -94 20t-60 54.5t-31 82t-9 100.5v244zM179 569h-46l76 131h66zM332 569h-46l76 131h66z" />
    <glyph glyph-name="Uogonek" unicode="&#x172;" horiz-adv-x="685" 
d="M557 275v425h48v-427q0 -55 -14.5 -103t-41.5 -84.5t-67 -60.5t-91 -32q-33 -25 -46 -43.5t-13 -40.5q0 -19 15 -31t47 -12h7v-32l-10.5 -3t-27.5 -3q-39 0 -59.5 19.5t-20.5 51.5q0 23 13.5 47t41.5 43q-61 1 -109.5 22.5t-81 59.5t-50 90t-17.5 112v427h48v-426
q0 -49 14 -92t40.5 -75t67 -51t92.5 -19t92.5 19t67.5 51t41 75.5t14 92.5z" />
    <glyph glyph-name="uogonek" unicode="&#x173;" horiz-adv-x="564" 
d="M443 0v86q-28 -50 -72.5 -73.5t-106.5 -23.5q-56 0 -94 20t-60 54.5t-31 82t-9 100.5v244h48v-238q0 -95 30.5 -155t120.5 -60q41 0 73 16.5t53.5 45t33 68t11.5 85.5v238h48v-490h1q-38 -29 -53.5 -48.5t-15.5 -42.5q0 -19 15 -31t47 -12h7v-32l-10.5 -3t-27.5 -3
q-39 0 -59.5 19.5t-20.5 51.5q0 26 18 53t54 48z" />
    <glyph glyph-name="Wcircumflex" unicode="&#x174;" horiz-adv-x="932" 
d="M629 0l-163 630l-163 -630h-69l-194 700h57l169 -651l168 651h64l168 -651l169 651h57l-194 -700h-69zM330 769l103 103h66l104 -103h-62l-74 68l-76 -68h-61z" />
    <glyph glyph-name="wcircumflex" unicode="&#x175;" horiz-adv-x="770" 
d="M519 0l-134 449l-134 -449h-74l-147 490h51l133 -449l133 449h76l133 -449l133 449h51l-147 -490h-74zM353 700h67l97 -131h-49l-82 92l-81 -92h-49z" />
    <glyph glyph-name="Ycircumflex" unicode="&#x176;" horiz-adv-x="630" 
d="M532 700h58l-251 -367v-333h-48v333l-251 367h57l218 -319zM179 770l103 103h66l104 -103h-62l-74 68l-76 -68h-61z" />
    <glyph glyph-name="ycircumflex" unicode="&#x177;" horiz-adv-x="507" 
d="M208 -194h-52l71 189l-202 495h57l174 -440l172 440h54zM225 700h67l97 -131h-49l-82 92l-81 -92h-49z" />
    <glyph glyph-name="Ydieresis" unicode="&#x178;" horiz-adv-x="630" 
d="M532 700h58l-251 -367v-333h-48v333l-251 367h57l218 -319zM403 770q-19 0 -32 13t-13 32t13 32t32 13t32 -13t13 -32t-13 -32t-32 -13zM227 770q-19 0 -32 13t-13 32t13 32t32 13t32 -13t13 -32t-13 -32t-32 -13z" />
    <glyph glyph-name="Zacute" unicode="&#x179;" horiz-adv-x="586" 
d="M52 700h484v-50l-431 -602h428v-48h-483v50l430 602h-428v48zM301 769h-55l91 103h78z" />
    <glyph glyph-name="zacute" unicode="&#x17a;" horiz-adv-x="475" 
d="M70 490h348v-46l-298 -398h310v-46h-370v49l298 395h-288v46zM219 570h-52l96 131h70z" />
    <glyph glyph-name="Zdotaccent" unicode="&#x17b;" horiz-adv-x="586" 
d="M52 700h484v-50l-431 -602h428v-48h-483v50l430 602h-428v48zM290 775q-19 0 -32 13t-13 32t13 32t32 13t32 -13t13 -32t-13 -32t-32 -13z" />
    <glyph glyph-name="zdotaccent" unicode="&#x17c;" horiz-adv-x="475" 
d="M70 490h348v-46l-298 -398h310v-46h-370v49l298 395h-288v46zM250 611q-19 0 -32 13t-13 32t13 32t32 13t32 -13t13 -32t-13 -32t-32 -13z" />
    <glyph glyph-name="Zcaron" unicode="&#x17d;" horiz-adv-x="586" 
d="M52 700h484v-50l-431 -602h428v-48h-483v50l430 602h-428v48zM427 872l-104 -103h-66l-103 103h61l76 -68l74 68h62z" />
    <glyph glyph-name="zcaron" unicode="&#x17e;" horiz-adv-x="475" 
d="M70 490h348v-46l-298 -398h310v-46h-370v49l298 395h-288v46zM285 570h-67l-97 131h49l82 -92l81 92h49z" />
    <glyph glyph-name="florin" unicode="&#x192;" horiz-adv-x="407" 
d="M238 447v-473q0 -90 -43.5 -129.5t-123.5 -39.5h-35v43h34q69 0 95.5 30.5t26.5 95.5v473h-85v43h85v42q0 90 43.5 129.5t123.5 39.5h12v-43h-11q-69 0 -95.5 -30.5t-26.5 -95.5v-42h121v-43h-121z" />
    <glyph glyph-name="Aringacute" unicode="&#x1fa;" horiz-adv-x="691" 
d="M91 0h-51l272 698q-19 9 -30.5 26.5t-11.5 39.5q0 31 22.5 53t52.5 22q31 0 53 -22t22 -53q0 -22 -11.5 -39.5t-29.5 -26.5l272 -698h-49l-66 165h-381zM345 657l-171 -444h343zM356 893h-55l91 103h78zM345 801q-15 0 -26 -10.5t-11 -26.5q0 -15 11 -25.5t26 -10.5
q16 0 26.5 10.5t10.5 25.5q0 16 -10.5 26.5t-26.5 10.5z" />
    <glyph glyph-name="aringacute" unicode="&#x1fb;" horiz-adv-x="513" 
d="M243 231q-68 0 -101.5 -29t-33.5 -72q0 -46 34.5 -69.5t83.5 -23.5q54 0 99 33.5t70 70.5v61q-36 11 -75.5 20t-76.5 9zM397 80q-29 -35 -71 -63t-107 -28q-32 0 -61 9t-50.5 27t-34.5 44.5t-13 61.5q0 71 50 109.5t126 38.5q38 0 79 -10t80 -21v64q0 69 -41.5 105.5
t-103.5 36.5q-48 0 -81.5 -22t-52.5 -53l-36 34q29 43 74 66t97 23q85 0 138.5 -48.5t53.5 -139.5v-314h-46v80zM273 563q-30 0 -52.5 22t-22.5 52q0 31 22.5 53t52.5 22q31 0 53 -22t22 -53q0 -30 -22 -52t-53 -22zM273 674q-15 0 -26 -10.5t-11 -26.5q0 -15 11 -25.5
t26 -10.5q16 0 26.5 10.5t10.5 25.5q0 16 -10.5 26.5t-26.5 10.5zM295 769h-55l91 103h78z" />
    <glyph glyph-name="AEacute" unicode="&#x1fc;" horiz-adv-x="865" 
d="M345 657l-171 -444h343zM815 700v-48h-418l106 -271h293v-48h-274l111 -285h182v-48h-213l-66 165h-381l-64 -165h-51l273 700h502zM606 769h-55l91 103h78z" />
    <glyph glyph-name="aeacute" unicode="&#x1fd;" horiz-adv-x="889" 
d="M781 107l36 -36q-31 -34 -75 -58t-115 -24q-65 0 -114.5 30t-79.5 79q-40 -49 -95.5 -79t-118.5 -30q-32 0 -61 9t-50.5 27t-34.5 44.5t-13 61.5q0 71 50 111t126 40h159v30q0 69 -41.5 105.5t-103.5 36.5q-48 0 -81.5 -22t-52.5 -53l-36 34q29 43 74 66t97 23
q64 0 111 -28t67 -80q27 49 76 78.5t118 29.5q52 0 91 -20.5t64.5 -55t38 -81.5t12.5 -100v-11h-384q3 -86 53 -141.5t128 -55.5q53 0 89.5 19t65.5 51zM775 282q-5 72 -45 121.5t-108 49.5q-79 0 -123.5 -47t-52.5 -124h329zM243 234q-68 0 -101.5 -30.5t-33.5 -73.5
q0 -46 34.5 -69.5t83.5 -23.5q64 0 109.5 30t73.5 78q-7 21 -10 43t-4 46h-152zM469 569h-52l96 131h70z" />
    <glyph glyph-name="Oslashacute" unicode="&#x1fe;" horiz-adv-x="840" 
d="M181 -21l-42 28l50 70q-54 49 -86.5 120t-32.5 153q0 75 27.5 141.5t75 115t111.5 77t136 28.5q50 0 96 -13.5t86 -38.5l45 63l40 -27l-46 -65q59 -49 94 -122.5t35 -158.5q0 -75 -27 -141t-74.5 -114.5t-111.5 -77t-137 -28.5q-53 0 -101.5 15t-89.5 43zM719 350
q0 75 -28 137.5t-77 105.5l-358 -508q34 -23 76 -35.5t88 -12.5q64 0 119 24.5t94.5 66.5t62.5 99.5t23 122.5zM420 664q-64 0 -119 -24t-95 -66t-62.5 -99.5t-22.5 -124.5q0 -71 25.5 -131.5t69.5 -102.5l359 505q-34 20 -73 31.5t-82 11.5zM431 769h-55l91 103h78z" />
    <glyph glyph-name="oslashacute" unicode="&#x1ff;" horiz-adv-x="614" 
d="M307 -11q-37 0 -70.5 10t-61.5 28l-36 -49l-41 28l38 52q-35 34 -55.5 83t-20.5 104q0 53 19 100t52 81.5t78 55t98 20.5q37 0 71 -10t62 -29l36 48l40 -28l-38 -51q35 -35 55.5 -84t20.5 -103q0 -53 -19 -100t-52 -81.5t-78 -54.5t-98 -20zM307 454q-40 0 -75.5 -16
t-62 -44t-42.5 -66.5t-16 -82.5q0 -43 15.5 -80.5t40.5 -65.5l243 324q-22 14 -48.5 22.5t-54.5 8.5zM503 245q0 43 -15 80.5t-41 65.5l-242 -324q22 -14 48 -22t54 -8q40 0 76 16t62.5 44t42 66t15.5 82zM315 569h-52l96 131h70z" />
    <glyph glyph-name="Scommaaccent" unicode="&#x218;" horiz-adv-x="590" 
d="M339 324l-90 16q-38 7 -73 21t-61.5 37t-42.5 54.5t-16 72.5q0 44 19.5 79t52 59t75.5 36.5t89 12.5q77 0 133 -31t96 -72l-34 -37q-32 35 -80 63.5t-121 28.5q-81 0 -130.5 -39t-49.5 -98q0 -60 47.5 -95.5t118.5 -47.5l71 -12q98 -16 152.5 -63.5t54.5 -125.5
q0 -39 -16 -74.5t-47 -61.5t-77.5 -42t-108.5 -16q-85 0 -152 31t-109 82l34 36q36 -40 93 -70.5t138 -30.5q90 0 142.5 42t52.5 105q0 60 -46 93.5t-115 46.5zM254 -194h49l63 137h-65z" />
    <glyph glyph-name="scommaaccent" unicode="&#x219;" horiz-adv-x="464" 
d="M277 215l-77 18q-63 15 -98.5 48t-35.5 87q0 34 14 59.5t37 42t53 24.5t61 8q50 0 91 -18.5t74 -50.5l-36 -38q-19 19 -51 39.5t-83 20.5q-47 0 -79 -20.5t-32 -63.5q0 -29 17.5 -53.5t68.5 -36.5l82 -19q64 -15 100 -48.5t36 -84.5q0 -61 -49 -100.5t-130 -39.5
q-63 0 -112.5 23t-77.5 57l32 37q29 -34 69 -52t89 -18q60 0 95 23t35 66q0 32 -22.5 55.5t-70.5 34.5zM169 -194h49l63 137h-65z" />
    <glyph glyph-name="Tcommaaccent" unicode="&#x21a;" horiz-adv-x="598" 
d="M40 700h518v-47h-238v-653h-48v653h-232v47zM218 -194h49l63 137h-65z" />
    <glyph glyph-name="tcommaaccent" unicode="&#x21b;" horiz-adv-x="336" 
d="M35 490h84v137h48v-137h122v-46h-122v-288q0 -56 18.5 -83.5t77.5 -27.5h28v-46l-12 -0.5t-23 -0.5q-66 0 -101.5 31t-35.5 108v307h-84v46zM139 -194h49l63 137h-65z" />
    <glyph glyph-name="dotlessj" unicode="&#x237;" horiz-adv-x="207" 
d="M83 -48v538h48v-555q0 -77 -35.5 -108.5t-102.5 -31.5h-22t-16 1v47h31q59 0 78 26.5t19 82.5z" />
    <glyph glyph-name="circumflex" unicode="&#x2c6;" horiz-adv-x="501" 
d="M217 700h67l97 -131h-49l-82 92l-81 -92h-49z" />
    <glyph glyph-name="caron" unicode="&#x2c7;" horiz-adv-x="501" 
d="M284 569h-67l-97 131h49l82 -92l81 92h49z" />
    <glyph glyph-name="uni02C9" unicode="&#x2c9;" horiz-adv-x="503" 
d="M367 643h-228v47h228v-47z" />
    <glyph glyph-name="breve" unicode="&#x2d8;" horiz-adv-x="500" 
d="M382 701q-4 -54 -37.5 -94t-93.5 -40t-94.5 38.5t-38.5 95.5h47q2 -36 23.5 -61.5t61.5 -25.5t60.5 26t24.5 61h47z" />
    <glyph glyph-name="dotaccent" unicode="&#x2d9;" horiz-adv-x="500" 
d="M250 610q-19 0 -32 13t-13 32t13 32t32 13t32 -13t13 -32t-13 -32t-32 -13z" />
    <glyph glyph-name="ring" unicode="&#x2da;" horiz-adv-x="500" 
d="M250 563q-30 0 -52.5 22t-22.5 52q0 31 22.5 53t52.5 22q31 0 53 -22t22 -53q0 -30 -22 -52t-53 -22zM250 674q-15 0 -26 -10.5t-11 -26.5q0 -15 11 -25.5t26 -10.5q16 0 26.5 10.5t10.5 25.5q0 16 -10.5 26.5t-26.5 10.5z" />
    <glyph glyph-name="ogonek" unicode="&#x2db;" horiz-adv-x="500" 
d="M263 0h46q-38 -29 -53.5 -48.5t-15.5 -42.5q0 -19 15 -31t47 -12h7v-32l-10.5 -3t-27.5 -3q-39 0 -59.5 19.5t-20.5 51.5q0 26 18 53t54 48z" />
    <glyph glyph-name="tilde" unicode="&#x2dc;" horiz-adv-x="500" 
d="M345 692h39q-3 -37 -22.5 -59.5t-47.5 -22.5q-19 0 -37 6.5t-35 13.5q-12 4 -24 9t-25 5q-19 0 -27 -10t-12 -24h-38q3 37 22.5 59.5t47.5 22.5q19 0 33.5 -5.5t30.5 -12.5q14 -6 28.5 -11t27.5 -5q19 0 27 10.5t12 23.5z" />
    <glyph glyph-name="hungarumlaut" unicode="&#x2dd;" horiz-adv-x="501" 
d="M149 569h-46l76 131h66zM302 569h-46l76 131h66z" />
    <glyph glyph-name="commaaccent" unicode="&#x326;" horiz-adv-x="500" 
d="M243 -194h-49l47 137h65z" />
    <glyph glyph-name="Deltagreek" unicode="&#x394;" horiz-adv-x="693" 
d="M324 700h46l243 -650v-50h-533v50zM347 637l-219 -591h438z" />
    <glyph glyph-name="Omegagreek" unicode="&#x3a9;" horiz-adv-x="778" 
d="M650 48v-48h-175v180q84 22 125.5 83.5t41.5 147.5q0 57 -19.5 104.5t-53.5 80.5t-80 51.5t-99 18.5t-99.5 -18.5t-80.5 -51.5t-54 -80.5t-20 -104.5q0 -86 41.5 -147.5t124.5 -83.5v-180h-175v48h129v98q-75 28 -120.5 100t-45.5 165q0 65 23 120.5t63.5 95.5t95 63
t117.5 23q61 0 116 -23t95 -63t64 -95.5t24 -120.5q0 -92 -46.5 -164t-120.5 -101v-98h129z" />
    <glyph glyph-name="mugreek" unicode="&#x3bc;" horiz-adv-x="568" 
d="M76 -194v684h47v-244q0 -95 30.5 -154.5t120.5 -59.5q41 0 73 16.5t53.5 45t33 67.5t11.5 85v244h47v-490h-44v85q-28 -50 -72.5 -73t-106.5 -23q-50 0 -86.5 19.5t-59.5 53.5v-256h-47z" />
    <glyph glyph-name="pi" unicode="&#x3c0;" horiz-adv-x="665" 
d="M70 444v46h525v-46h-93v-444h-46v444h-248v-444h-46v444h-92z" />
    <glyph glyph-name="Wgrave" unicode="&#x1e80;" horiz-adv-x="932" 
d="M629 0l-163 630l-163 -630h-69l-194 700h57l169 -651l168 651h64l168 -651l169 651h57l-194 -700h-69zM511 769h-55l-114 103h78z" />
    <glyph glyph-name="wgrave" unicode="&#x1e81;" horiz-adv-x="770" 
d="M519 0l-134 449l-134 -449h-74l-147 490h51l133 -449l133 449h76l133 -449l133 449h51l-147 -490h-74zM468 569h-52l-114 131h70z" />
    <glyph glyph-name="Wacute" unicode="&#x1e82;" horiz-adv-x="932" 
d="M629 0l-163 630l-163 -630h-69l-194 700h57l169 -651l168 651h64l168 -651l169 651h57l-194 -700h-69zM477 769h-55l91 103h78z" />
    <glyph glyph-name="wacute" unicode="&#x1e83;" horiz-adv-x="770" 
d="M519 0l-134 449l-134 -449h-74l-147 490h51l133 -449l133 449h76l133 -449l133 449h51l-147 -490h-74zM354 569h-52l96 131h70z" />
    <glyph glyph-name="Wdieresis" unicode="&#x1e84;" horiz-adv-x="932" 
d="M629 0l-163 630l-163 -630h-69l-194 700h57l169 -651l168 651h64l168 -651l169 651h57l-194 -700h-69zM554 769q-19 0 -32 13t-13 32t13 32t32 13t32 -13t13 -32t-13 -32t-32 -13zM378 769q-19 0 -32 13t-13 32t13 32t32 13t32 -13t13 -32t-13 -32t-32 -13z" />
    <glyph glyph-name="wdieresis" unicode="&#x1e85;" horiz-adv-x="770" 
d="M519 0l-134 449l-134 -449h-74l-147 490h51l133 -449l133 449h76l133 -449l133 449h51l-147 -490h-74zM297 610q-19 0 -32 13t-13 32t13 32t32 13t32 -13t13 -32t-13 -32t-32 -13zM473 610q-19 0 -32 13t-13 32t13 32t32 13t32 -13t13 -32t-13 -32t-32 -13z" />
    <glyph glyph-name="Ygrave" unicode="&#x1ef2;" horiz-adv-x="630" 
d="M532 700h58l-251 -367v-333h-48v333l-251 367h57l218 -319zM360 770h-55l-114 103h78z" />
    <glyph glyph-name="ygrave" unicode="&#x1ef3;" horiz-adv-x="507" 
d="M208 -194h-52l71 189l-202 495h57l174 -440l172 440h54zM340 569h-52l-114 131h70z" />
    <glyph glyph-name="thinspace" unicode="&#x2009;" horiz-adv-x="100" 
 />
    <glyph glyph-name="endash" unicode="&#x2013;" horiz-adv-x="500" 
d="M480 239h-460v46h460v-46z" />
    <glyph glyph-name="emdash" unicode="&#x2014;" horiz-adv-x="1000" 
d="M980 240h-960v46h960v-46z" />
    <glyph glyph-name="quoteleft" unicode="&#x2018;" horiz-adv-x="291" 
d="M175 471l-104 229h55l94 -229h-45z" />
    <glyph glyph-name="quoteright" unicode="&#x2019;" horiz-adv-x="291" 
d="M116 471h-45l94 229h55z" />
    <glyph glyph-name="quotesinglbase" unicode="&#x201a;" horiz-adv-x="290" 
d="M89 -115h-45l94 229h55z" />
    <glyph glyph-name="quotedblleft" unicode="&#x201c;" horiz-adv-x="456" 
d="M340 471l-104 229h55l94 -229h-45zM175 471l-104 229h55l94 -229h-45z" />
    <glyph glyph-name="quotedblright" unicode="&#x201d;" horiz-adv-x="456" 
d="M281 471h-45l94 229h55zM116 471h-45l94 229h55z" />
    <glyph glyph-name="quotedblbase" unicode="&#x201e;" horiz-adv-x="456" 
d="M255 -115h-45l94 229h55zM89 -115h-45l94 229h55z" />
    <glyph glyph-name="dagger" unicode="&#x2020;" horiz-adv-x="516" 
d="M486 432h-205v-626h-46v626h-205v46h205v222h46v-222h205v-46z" />
    <glyph glyph-name="daggerdbl" unicode="&#x2021;" horiz-adv-x="518" 
d="M488 124h-206v-318h-46v318h-206v46h206v262h-206v46h206v222h46v-222h206v-46h-206v-262h206v-46z" />
    <glyph glyph-name="bullet" unicode="&#x2022;" horiz-adv-x="408" 
d="M204 149q-46 0 -80 33.5t-34 79.5q0 47 34 80.5t80 33.5t80 -33.5t34 -80.5q0 -46 -34 -79.5t-80 -33.5z" />
    <glyph glyph-name="ellipsis" unicode="&#x2026;" horiz-adv-x="808" 
d="M660 -11q-22 0 -38 15.5t-16 37.5q0 23 16 39t38 16q23 0 39.5 -16t16.5 -39q0 -22 -16.5 -37.5t-39.5 -15.5zM403 -11q-22 0 -38 15.5t-16 37.5q0 23 16 39t38 16q23 0 39.5 -16t16.5 -39q0 -22 -16.5 -37.5t-39.5 -15.5zM146 -11q-22 0 -38 15.5t-16 37.5q0 23 16 39
t38 16q23 0 39.5 -16t16.5 -39q0 -22 -16.5 -37.5t-39.5 -15.5z" />
    <glyph glyph-name="perthousand" unicode="&#x2030;" horiz-adv-x="1057" 
d="M210 475q-50 0 -85 34.5t-35 83.5t35 84t85 35q49 0 84 -35t35 -84t-35 -83.5t-84 -34.5zM131 0l428 701h51l-428 -701h-51zM209 672q-30 0 -52.5 -21t-22.5 -58q0 -36 22.5 -57t52.5 -21t53 21t23 57q0 37 -23 58t-53 21zM533 -10q-50 0 -85 34.5t-35 83.5t35 84t85 35
q49 0 84 -35t35 -84t-35 -83.5t-84 -34.5zM532 187q-30 0 -52.5 -21t-22.5 -58q0 -36 22.5 -57t52.5 -21t53 21t23 57q0 37 -23 58t-53 21zM848 -10q-50 0 -85 34.5t-35 83.5t35 84t85 35q49 0 84 -35t35 -84t-35 -83.5t-84 -34.5zM847 187q-30 0 -52.5 -21t-22.5 -58
q0 -36 22.5 -57t52.5 -21t53 21t23 57q0 37 -23 58t-53 21z" />
    <glyph glyph-name="guilsinglleft" unicode="&#x2039;" horiz-adv-x="322" 
d="M60 244l138 246h54l-139 -246l138 -244h-54z" />
    <glyph glyph-name="guilsinglright" unicode="&#x203a;" horiz-adv-x="322" 
d="M262 244l-138 -246h-54l139 246l-138 244h54z" />
    <glyph glyph-name="fraction" unicode="&#x2044;" horiz-adv-x="579" 
d="M50 0l428 700h51l-428 -700h-51z" />
    <glyph glyph-name="zerosuperior" unicode="&#x2070;" horiz-adv-x="403" 
d="M202 346q54 0 76.5 46.5t22.5 112.5t-22.5 112t-76.5 46t-77 -46t-23 -112t23 -112.5t77 -46.5zM202 302q-78 0 -112.5 57t-34.5 146q0 88 34.5 145t112.5 57q77 0 111.5 -57t34.5 -145q0 -89 -34.5 -146t-111.5 -57z" />
    <glyph glyph-name="foursuperior" unicode="&#x2074;" horiz-adv-x="364" 
d="M329 409h-60v-101h-46v101h-193v34l197 257h42v-250h60v-41zM87 450h136v177z" />
    <glyph glyph-name="zeroinferior" unicode="&#x2080;" horiz-adv-x="403" 
d="M202 36q54 0 76.5 46.5t22.5 112.5t-22.5 112t-76.5 46t-77 -46t-23 -112t23 -112.5t77 -46.5zM202 -8q-78 0 -112.5 57t-34.5 146q0 88 34.5 145t112.5 57q77 0 111.5 -57t34.5 -145q0 -89 -34.5 -146t-111.5 -57z" />
    <glyph glyph-name="oneinferior" unicode="&#x2081;" horiz-adv-x="309" 
d="M279 0h-242v44h98v287q-19 -14 -45 -23t-55 -10v41q29 2 58.5 14.5t45.5 38.5h42v-348h98v-44z" />
    <glyph glyph-name="twoinferior" unicode="&#x2082;" horiz-adv-x="349" 
d="M91 44h210v-44h-260v16q0 57 23.5 97.5t85.5 70.5q51 25 77.5 47t26.5 58q0 33 -24.5 51.5t-55.5 18.5q-38 0 -62.5 -19t-38.5 -39l-32 28q18 25 50.5 50t81.5 25q52 0 90 -28t38 -85q0 -44 -28 -77t-80 -57l-21 -10q-43 -20 -62 -46t-19 -57z" />
    <glyph glyph-name="threeinferior" unicode="&#x2083;" horiz-adv-x="339" 
d="M284 108q0 -51 -36 -82.5t-96 -31.5q-39 0 -72.5 14.5t-54.5 39.5l32 32q20 -19 42.5 -30t56.5 -11q37 0 59 20t22 52q0 37 -31 55.5t-71 18.5h-22v42h15q47 0 72.5 18.5t25.5 50.5q0 31 -23.5 47t-53.5 16q-28 0 -48.5 -10t-37.5 -28l-28 33q22 22 50.5 36t65.5 14
q54 0 88 -30t34 -76q0 -33 -21.5 -58.5t-44.5 -33.5q28 -6 52.5 -29t24.5 -69z" />
    <glyph glyph-name="fourinferior" unicode="&#x2084;" horiz-adv-x="364" 
d="M329 101h-60v-101h-46v101h-193v34l197 257h42v-250h60v-41zM87 142h136v177z" />
    <glyph glyph-name="Euro" unicode="&#x20ac;" horiz-adv-x="735" 
d="M657 84q-39 -46 -92 -70.5t-110 -24.5q-49 0 -94 19.5t-81 53.5t-62.5 82t-39.5 105h-90v47h82q-1 13 -2 27t-1 27q0 12 0.5 24t1.5 24h-81v47h89q12 57 38.5 106.5t63 85t81.5 55.5t95 20q60 0 108.5 -28t85.5 -74l-31 -32q-31 40 -69 63t-91 23q-43 0 -81 -16.5
t-67.5 -46t-50.5 -69.5t-32 -87h260v-47h-268l-2 -24t-1 -24q0 -13 1 -27t3 -27h267v-47h-258q11 -45 32.5 -84t50.5 -67t66 -44.5t80 -16.5q50 0 93.5 20.5t75.5 59.5z" />
    <glyph glyph-name="litre" unicode="&#x2113;" horiz-adv-x="400" 
d="M45 121l-2 41q19 0 37.5 3t35.5 10q-2 20 -3 45.5t-1 60.5q0 138 24.5 204.5t82.5 66.5q44 0 61 -38.5t17 -95.5q0 -96 -40.5 -168.5t-98.5 -100.5q2 -21 6 -42.5t12 -39t19.5 -29t28.5 -11.5q34 0 47.5 28t17.5 75h34q-1 -62 -27 -101.5t-74 -39.5q-25 0 -42.5 12
t-29 32t-18.5 46t-11 54q-17 -6 -37 -9t-39 -3zM150 293q0 -28 1 -53.5t2 -47.5q23 12 42.5 35t33.5 52t22 63t8 68q0 39 -8.5 71.5t-34.5 32.5q-18 0 -31 -18t-20.5 -48.5t-11 -70.5t-3.5 -84z" />
    <glyph glyph-name="numero" unicode="&#x2116;" horiz-adv-x="1190" 
d="M90 0v700h61l437 -635v635h48v-700h-61l-437 634v-634h-48zM766 522q0 38 14.5 73t39.5 60.5t59.5 41t75.5 15.5t76 -15.5t60 -41t39.5 -60.5t14.5 -73t-14.5 -72.5t-39.5 -60t-60 -40.5t-76 -15t-75.5 15t-59.5 40.5t-39.5 60t-14.5 72.5zM812 522q0 -62 40 -104.5
t103 -42.5t103 42.5t40 104.5q0 63 -40 106t-103 43t-103 -43t-40 -106z" />
    <glyph glyph-name="published" unicode="&#x2117;" horiz-adv-x="870" 
d="M435 -11q-72 0 -136.5 28t-111.5 76.5t-74.5 115t-27.5 141.5t27.5 141.5t75 115t111.5 77t136 28.5q73 0 137 -28.5t111.5 -77.5t74.5 -115t27 -141t-27 -141t-74.5 -114.5t-111.5 -77t-137 -28.5zM438 664q-65 0 -121 -24t-96.5 -65.5t-64 -99.5t-23.5 -125
q0 -66 23.5 -123.5t64 -99t96.5 -66t121 -24.5t120 24.5t94.5 66t62 99t22.5 123.5q0 67 -22.5 125t-62 99.5t-94.5 65.5t-120 24zM365 304h101q63 0 101 33t38 88q0 53 -38 86.5t-101 33.5h-146v-391h45v150zM365 500h109q38 0 59.5 -20.5t21.5 -54.5q0 -37 -22 -56.5
t-59 -19.5h-109v151z" />
    <glyph glyph-name="trademark" unicode="&#x2122;" horiz-adv-x="816" 
d="M325 660h-129v-352h-41v352h-125v41h295v-41zM596 396h-41l-123 229v-317h-41v393h41l144 -267l144 267h41v-393h-41v317z" />
    <glyph glyph-name="Omega" unicode="&#x2126;" horiz-adv-x="778" 
d="M650 48v-48h-175v180q84 22 125.5 83.5t41.5 147.5q0 57 -19.5 104.5t-53.5 80.5t-80 51.5t-99 18.5t-99.5 -18.5t-80.5 -51.5t-54 -80.5t-20 -104.5q0 -86 41.5 -147.5t124.5 -83.5v-180h-175v48h129v98q-75 28 -120.5 100t-45.5 165q0 65 23 120.5t63.5 95.5t95 63
t117.5 23q61 0 116 -23t95 -63t64 -95.5t24 -120.5q0 -92 -46.5 -164t-120.5 -101v-98h129z" />
    <glyph glyph-name="estimated" unicode="&#x212e;" horiz-adv-x="650" 
d="M508 94h51q-39 -49 -95 -77t-143 -28q-62 0 -113.5 21t-88.5 58t-58 89t-21 114q0 61 21 113t58 89t88.5 58t113.5 21q58 0 109.5 -21t89.5 -58t60 -89t22 -113v-27h-486v-112q31 -49 84.5 -77t120.5 -28q72 0 114 17.5t73 49.5zM321 514q-67 0 -120.5 -28t-84.5 -77
v-127h410v123q-32 50 -86.5 79.5t-118.5 29.5z" />
    <glyph glyph-name="LeftArrow" unicode="&#x2190;" horiz-adv-x="813" 
d="M361 -22l-311 312l311 312l36 -35l-254 -253h620v-48h-620l254 -253z" />
    <glyph glyph-name="UpArrow" unicode="&#x2191;" horiz-adv-x="724" 
d="M50 402l312 311l312 -311l-35 -36l-253 254v-620h-48v620l-253 -254z" />
    <glyph glyph-name="RightArrow" unicode="&#x2192;" horiz-adv-x="813" 
d="M763 290l-311 -312l-36 35l254 253h-620v48h620l-254 253l36 35z" />
    <glyph glyph-name="DownwArrow" unicode="&#x2193;" horiz-adv-x="724" 
d="M362 -12l-312 311l35 36l253 -254v620h48v-620l253 254l35 -36z" />
    <glyph glyph-name="NorthWestArrow" unicode="&#x2196;" horiz-adv-x="672" 
d="M80 80v441h441v-49h-358l439 -438l-34 -34l-438 438v-358h-50z" />
    <glyph glyph-name="NorthEastArrow" unicode="&#x2197;" horiz-adv-x="672" 
d="M592 521v-441h-50v358l-438 -438l-34 34l439 438h-358v49h441z" />
    <glyph glyph-name="SouthEastArrow" unicode="&#x2198;" horiz-adv-x="672" 
d="M592 441v-441h-441v49h358l-439 438l34 34l438 -438v358h50z" />
    <glyph glyph-name="SouthWestArrow" unicode="&#x2199;" horiz-adv-x="672" 
d="M80 0v441h50v-358l438 438l34 -34l-439 -438h358v-49h-441z" />
    <glyph glyph-name="partialdiff" unicode="&#x2202;" horiz-adv-x="597" 
d="M537 357q0 -83 -18.5 -151.5t-52 -116t-80.5 -74t-103 -26.5q-45 0 -85.5 15t-71 44t-48.5 71.5t-18 96.5q0 53 19 95t50 71.5t71 45t83 15.5q65 0 120.5 -33.5t80.5 -98.5q1 18 1.5 36t0.5 36q-1 55 -14 106t-39 89t-65 61t-92 23q-44 0 -81.5 -20.5t-62.5 -47.5l-36 40
q30 33 75 55.5t105 22.5q63 0 112 -26t82 -73t50 -112.5t17 -143.5zM449 224q0 36 -13.5 67.5t-36 54.5t-53.5 36t-66 13q-31 0 -61.5 -12t-54.5 -34.5t-39 -56t-15 -75.5q0 -80 48 -129t119 -49q35 0 66.5 14t55 39t37 59t13.5 73z" />
    <glyph glyph-name="Delta" unicode="&#x2206;" horiz-adv-x="693" 
d="M324 700h46l243 -650v-50h-533v50zM347 637l-219 -591h438z" />
    <glyph glyph-name="product" unicode="&#x220f;" horiz-adv-x="640" 
d="M90 -194v894h460v-894h-46v848h-368v-848h-46z" />
    <glyph glyph-name="summation" unicode="&#x2211;" horiz-adv-x="561" 
d="M84 -147l231 403l-231 397v47h406v-47h-354l231 -397l-231 -403h354v-47h-406v47z" />
    <glyph glyph-name="minus" unicode="&#x2212;" horiz-adv-x="631" 
d="M73 268h484v-43h-484v43z" />
    <glyph glyph-name="radical" unicode="&#x221a;" horiz-adv-x="719" 
d="M611 700h48l-258 -700h-68l-162 443h-111v47h143l163 -452z" />
    <glyph glyph-name="infinity" unicode="&#x221e;" horiz-adv-x="1268" 
d="M370 490q74 0 131 -47.5t132 -154.5q70 105 128.5 153.5t136.5 48.5q49 0 93 -18.5t76.5 -51t51.5 -78t19 -98.5t-19.5 -98t-52.5 -77t-76.5 -50.5t-90.5 -18.5q-78 0 -138 54.5t-125 145.5q-38 -53 -69 -91t-61.5 -62t-64 -35.5t-74.5 -11.5q-48 0 -91.5 18.5
t-75.5 50.5t-51 77t-19 98t20 98.5t53 78t76.5 51t90.5 18.5zM900 441q-36 0 -65 -13t-55 -38t-53 -61t-58 -82q30 -40 56.5 -76t53 -63t56 -43t65.5 -16q37 0 71 15t59.5 41.5t40.5 62t15 76.5q0 87 -54 142t-132 55zM598 244q-30 37 -55 72.5t-50.5 63t-55 44.5t-67.5 17
t-72.5 -14.5t-60 -40.5t-40.5 -62.5t-15 -79.5q0 -87 53.5 -141t131.5 -54q73 0 123.5 54t107.5 141z" />
    <glyph glyph-name="integral" unicode="&#x222b;" horiz-adv-x="390" 
d="M222 542v-568q0 -90 -43.5 -129.5t-123.5 -39.5h-34v43h33q69 0 95.5 30.5t26.5 95.5v568q0 90 43.5 129.5t123.5 39.5h26v-43h-25q-69 0 -95.5 -30.5t-26.5 -95.5z" />
    <glyph glyph-name="approxequal" unicode="&#x2248;" horiz-adv-x="670" 
d="M536 422h43q6 -64 -24 -100t-73 -36q-17 0 -36.5 5.5t-39.5 12.5l-148 55q-12 6 -30 10.5t-33 4.5q-31 0 -44 -23.5t-13 -58.5h-43q-5 64 25 99.5t73 35.5q16 0 35.5 -5.5t40.5 -12.5l148 -56q12 -4 30 -8.5t32 -4.5q31 0 44 24t13 58zM536 236h43q6 -64 -24 -100
t-73 -36q-17 0 -36.5 5.5t-39.5 13.5l-148 54q-12 5 -30 10t-33 5q-31 0 -44 -24t-13 -58h-43q-5 64 25 100t73 36q16 0 35.5 -5.5t40.5 -12.5l148 -55q12 -6 30 -10.5t32 -4.5q31 0 44 23.5t13 58.5z" />
    <glyph glyph-name="notequal" unicode="&#x2260;" horiz-adv-x="655" 
d="M207 17h-53l82 135h-153v43h180l83 136h-263v43h289l78 127h52l-78 -127h149v-43h-175l-83 -136h258v-43h-284z" />
    <glyph glyph-name="lessequal" unicode="&#x2264;" horiz-adv-x="599" 
d="M531 88l-491 178v57l491 179v-53l-427 -154l427 -155v-52zM531 -43h-490v43h490v-43z" />
    <glyph glyph-name="greaterequal" unicode="&#x2265;" horiz-adv-x="599" 
d="M68 502l492 -179v-57l-492 -178v52l427 155l-427 154v53zM559 -43h-490v43h490v-43z" />
    <glyph glyph-name="BlackSquare" unicode="&#x25a0;" horiz-adv-x="651" 
d="M80 137v491h491v-491h-491z" />
    <glyph glyph-name="UpTriangle" unicode="&#x25b2;" horiz-adv-x="760" 
d="M40 80l340 540l340 -540h-680z" />
    <glyph glyph-name="RightTriangle" unicode="&#x25ba;" horiz-adv-x="660" 
d="M620 350l-540 -340v680z" />
    <glyph glyph-name="DownTriangle" unicode="&#x25bc;" horiz-adv-x="760" 
d="M380 80l-340 540h680z" />
    <glyph glyph-name="LeftTriangle" unicode="&#x25c0;" horiz-adv-x="660" 
d="M580 10l-540 340l540 340v-680z" />
    <glyph glyph-name="Diamond" unicode="&#x25c6;" horiz-adv-x="718" 
d="M40 385l319 319l319 -319l-319 -319z" />
    <glyph glyph-name="lozenge" unicode="&#x25ca;" horiz-adv-x="692" 
d="M322 701h48l227 -450l-227 -456h-48l-226 456zM152 251l194 -395l196 395l-196 390z" />
    <glyph glyph-name="BlackCircle" unicode="&#x25cf;" horiz-adv-x="630" 
d="M315 75q-57 0 -107 21.5t-87.5 59t-59 87.5t-21.5 107q0 56 21.5 106.5t59 87.5t87.5 59t107 22q56 0 106.5 -22t87.5 -59t59 -87.5t22 -106.5q0 -57 -22 -107t-59 -87.5t-87.5 -59t-106.5 -21.5z" />
    <glyph glyph-name="HeavyBlackHeart" unicode="&#x2764;" horiz-adv-x="646" 
d="M461 626q25 0 52.5 -7.5t50.5 -25t37.5 -48t14.5 -75.5q0 -58 -36 -98t-84.5 -80.5t-97.5 -90.5t-75 -127h-1q-25 77 -74 127t-97.5 90.5t-84.5 80.5t-36 98q0 45 14.5 75.5t37 48t50 25t53.5 7.5q32 0 55 -10t38 -25t24 -33.5t13 -35.5h15q4 17 13 35.5t24.5 33.5
t38.5 25t55 10z" />
    <glyph glyph-name="i.TRK" horiz-adv-x="200" 
d="M100 622q-19 0 -32 13t-13 32t13 32t32 13t32 -13t13 -32t-13 -32t-32 -13zM76 0v490h48v-490h-48z" />
    <glyph glyph-name="caron.alt" horiz-adv-x="500" 
d="M249 511h-40l27 189h55z" />
    <glyph glyph-name="revcommaaccent" horiz-adv-x="500" 
d="M257 700h49l-47 -137h-65z" />
    <glyph glyph-name="grave.cap" horiz-adv-x="501" 
d="M335 769h-55l-114 103h78z" />
    <glyph glyph-name="acute.cap" horiz-adv-x="501" 
d="M221 769h-55l91 103h78z" />
    <glyph glyph-name="circumflex.cap" horiz-adv-x="501" 
d="M114 769l103 103h66l104 -103h-62l-74 68l-76 -68h-61z" />
    <glyph glyph-name="caron.cap" horiz-adv-x="501" 
d="M387 872l-104 -103h-66l-103 103h61l76 -68l74 68h62z" />
    <glyph glyph-name="tilde.cap" horiz-adv-x="500" 
d="M345 862h39q-3 -37 -22.5 -59.5t-47.5 -22.5q-19 0 -37 6.5t-35 13.5q-12 4 -24 9t-25 5q-19 0 -27 -10t-12 -24h-38q3 37 22.5 59.5t47.5 22.5q19 0 33.5 -5.5t30.5 -12.5q14 -6 28.5 -11t27.5 -5q19 0 27 10.5t12 23.5z" />
    <glyph glyph-name="dieresis.cap" horiz-adv-x="500" 
d="M338 769q-19 0 -32 13t-13 32t13 32t32 13t32 -13t13 -32t-13 -32t-32 -13zM162 769q-19 0 -32 13t-13 32t13 32t32 13t32 -13t13 -32t-13 -32t-32 -13z" />
    <glyph glyph-name="macron.cap" horiz-adv-x="500" 
d="M364 797h-228v47h228v-47z" />
    <glyph glyph-name="breve.cap" horiz-adv-x="500" 
d="M372 872q-4 -52 -34 -82.5t-87 -30.5q-56 0 -87 29t-36 84h47q3 -31 21.5 -48.5t53.5 -17.5q36 0 53.5 17t21.5 49h47z" />
    <glyph glyph-name="ring.cap" horiz-adv-x="500" 
d="M250 703q-30 0 -52.5 22t-22.5 52q0 31 22.5 53t52.5 22q31 0 53 -22t22 -53q0 -30 -22 -52t-53 -22zM250 814q-15 0 -26 -10.5t-11 -26.5q0 -15 11 -25.5t26 -10.5q16 0 26.5 10.5t10.5 25.5q0 16 -10.5 26.5t-26.5 10.5z" />
    <glyph glyph-name="hungarumlaut.cap" horiz-adv-x="501" 
d="M156 769h-45l60 103h66zM309 769h-45l60 103h66z" />
    <glyph glyph-name="dotaccent.cap" horiz-adv-x="500" 
d="M250 775q-19 0 -32 13t-13 32t13 32t32 13t32 -13t13 -32t-13 -32t-32 -13z" />
    <glyph glyph-name="cedilla.cap" horiz-adv-x="501" 
d="M259 4h50l-61 -141h-56z" />
    <glyph glyph-name="ogonek.cap" horiz-adv-x="500" 
d="M263 0h46q-38 -29 -53.5 -48.5t-15.5 -42.5q0 -19 15 -31t47 -12h7v-32l-10.5 -3t-27.5 -3q-39 0 -59.5 19.5t-20.5 51.5q0 26 18 53t54 48z" />
    <glyph glyph-name="commaaccent.cap" horiz-adv-x="500" 
d="M243 -194h-49l47 137h65z" />
    <glyph glyph-name="hyphen.cap" horiz-adv-x="290" 
d="M270 321h-250v59h250v-59z" />
    <glyph glyph-name="exclamdown.cap" horiz-adv-x="290" 
d="M170 492v-491h-48v491h48zM145 713q22 0 36.5 -15t14.5 -36q0 -19 -14.5 -34t-36.5 -15q-20 0 -35 15t-15 34q0 21 15 36t35 15z" />
    <glyph glyph-name="questiondown.cap" horiz-adv-x="518" 
d="M264 489h53v-152h-14q-48 0 -84.5 -13t-61 -34t-36.5 -50t-12 -60q0 -61 43.5 -101.5t112.5 -40.5q62 0 105.5 27.5t76.5 74.5l36 -39q-37 -51 -91.5 -81.5t-126.5 -30.5q-44 0 -83 13.5t-67 37.5t-44 59t-16 77q0 37 13 72.5t39 63.5t65.5 48t91.5 26v103zM293 712
q22 0 38 -15.5t16 -37.5q0 -23 -16 -39t-38 -16q-23 0 -39.5 16t-16.5 39q0 22 16.5 37.5t39.5 15.5z" />
    <glyph glyph-name="guilsinglleft.cap" horiz-adv-x="322" 
d="M60 349l138 246h54l-139 -246l138 -244h-54z" />
    <glyph glyph-name="guilsinglright.cap" horiz-adv-x="322" 
d="M262 349l-138 -246h-54l139 246l-138 244h54z" />
    <glyph glyph-name="guillemotleft.cap" horiz-adv-x="545" 
d="M60 349l138 246h54l-139 -247l138 -243h-54zM283 349l138 246h54l-139 -247l138 -243h-54z" />
    <glyph glyph-name="guillemotright.cap" horiz-adv-x="545" 
d="M347 595l138 -246l-137 -244h-54l138 243l-139 247h54zM124 595l138 -246l-137 -244h-54l138 243l-139 247h54z" />
    <glyph glyph-name="slash.cap" horiz-adv-x="402" 
d="M30 0l296 701h46l-296 -701h-46z" />
    <glyph glyph-name="backslash.cap" horiz-adv-x="402" 
d="M76 701l296 -701h-46l-296 701h46z" />
    <glyph glyph-name="endash.cap" horiz-adv-x="500" 
d="M480 328h-460v46h460v-46z" />
    <glyph glyph-name="emdash.cap" horiz-adv-x="1000" 
d="M980 328h-960v46h960v-46z" />
    <glyph glyph-name="periodcentered.cap" horiz-adv-x="290" 
d="M97 350q0 20 14 34.5t34 14.5q21 0 34.5 -14.5t13.5 -34.5q0 -19 -13.5 -32t-35.5 -13q-19 0 -33 13t-14 32z" />
    <glyph glyph-name="parenleft.cap" horiz-adv-x="397" 
d="M347 786q-93 -98 -141 -204.5t-48 -231.5t47 -230.5t141 -203.5l-33 -30q-39 39 -75.5 86.5t-65 104.5t-45.5 125.5t-17 147.5t17 147t45.5 125.5t65.5 105.5t76 88z" />
    <glyph glyph-name="parenright.cap" horiz-adv-x="397" 
d="M51 -85q94 98 141 203.5t47 230.5t-48 231.5t-141 204.5l33 30q39 -40 76 -88t65.5 -105.5t45.5 -125.5t17 -147t-17 -147.5t-45.5 -125.5t-65 -104.5t-75.5 -86.5z" />
    <glyph glyph-name="bracketleft.cap" horiz-adv-x="412" 
d="M362 798v-48h-166v-799h166v-48h-212v895h212z" />
    <glyph glyph-name="bracketright.cap" horiz-adv-x="412" 
d="M50 750v48h212v-895h-212v48h166v799h-166z" />
    <glyph glyph-name="braceleft.cap" horiz-adv-x="482" 
d="M267 643v-582q0 -54 22 -82t64 -28h79v-48h-71q-39 0 -66.5 12.5t-44 34t-24 49.5t-7.5 58v272h-119v44h119v274q0 30 7.5 57.5t24 48t44 33t66.5 12.5h71v-48h-79q-46 0 -66 -29t-20 -78z" />
    <glyph glyph-name="braceright.cap" horiz-adv-x="482" 
d="M215 61v582q0 49 -20 78t-66 29h-79v48h71q39 0 66.5 -12.5t44 -33t24 -48t7.5 -57.5v-274h119v-44h-119v-272q0 -30 -7.5 -58t-24 -49.5t-44 -34t-66.5 -12.5h-71v48h79q42 0 64 28t22 82z" />
    <glyph glyph-name="A.ss01" horiz-adv-x="654" 
d="M260 652l-115 -439h363l-118 439h-130zM425 700l189 -700h-48l-46 165h-386l-43 -165h-51l189 700h196z" />
    <glyph glyph-name="G.ss01" horiz-adv-x="771" 
d="M631 0v53q-44 -31 -98.5 -47.5t-112.5 -16.5q-72 0 -136.5 28t-111.5 76.5t-74.5 115t-27.5 141.5t27.5 141.5t75 115t111.5 77t136 28.5q81 0 147 -31t114 -86l-36 -37q-40 49 -94.5 77.5t-127.5 28.5q-65 0 -121 -24t-96.5 -65.5t-64 -99.5t-23.5 -125
q0 -66 23.5 -123.5t64 -99t96.5 -66t121 -24.5q60 0 114 18.5t94 55.5v178h-204v48h252v-337h-48z" />
    <glyph glyph-name="I.ss01" horiz-adv-x="511" 
d="M90 652v48h331v-48h-141v-604h141v-48h-331v48h142v604h-142z" />
    <glyph glyph-name="J.ss01" horiz-adv-x="553" 
d="M55 238h48v-19q0 -37 10 -70t30 -58t51.5 -39.5t73.5 -14.5q49 0 79.5 19t47.5 50.5t23.5 73.5t6.5 88v384h-256v48h304v-438q0 -56 -10 -106t-33.5 -87t-63 -58.5t-98.5 -21.5q-52 0 -92 18t-67 49t-40.5 73t-13.5 90v19z" />
    <glyph glyph-name="K.ss01" horiz-adv-x="595" 
d="M90 0v700h48v-312h137l208 312h64l-232 -338l240 -362h-62l-221 340h-134v-340h-48z" />
    <glyph glyph-name="M.ss01" horiz-adv-x="839" 
d="M374 0l-143 652h-93v-652h-48v700h179l142 -652h12l143 652h183v-700h-48v652h-98l-142 -652h-87z" />
    <glyph glyph-name="Q.ss01" horiz-adv-x="840" 
d="M420 -11q-72 0 -136.5 28t-111.5 76.5t-74.5 115t-27.5 141.5t27.5 141.5t75 115t111.5 77t136 28.5q73 0 137 -28.5t111.5 -77.5t74.5 -115t27 -141t-27 -141t-74.5 -114.5t-111.5 -77t-137 -28.5zM615 106l-192 192l37 37l192 -191q33 40 51.5 93t18.5 113
q0 67 -22.5 125t-62 99.5t-94.5 65.5t-120 24t-121 -24t-96.5 -65.5t-64 -99.5t-23.5 -125q0 -66 23.5 -123.5t64 -99t96.5 -66t121 -24.5q56 0 105 18t87 51z" />
    <glyph glyph-name="V.ss01" horiz-adv-x="668" 
d="M428 0h-188l-200 700h51l186 -652h114l186 652h51z" />
    <glyph glyph-name="W.ss01" horiz-adv-x="970" 
d="M412 0h-172l-200 700h51l186 -652h98l84 297l-101 355h51l76 -266l76 266h51l-102 -355l85 -297h98l186 652h51l-200 -700h-172l-73 255z" />
    <glyph glyph-name="X.ss01" horiz-adv-x="615" 
d="M55 700h51l131 -317h140l132 317h51l-140 -338l150 -362h-51l-140 335h-143l-140 -335h-51l150 362z" />
    <glyph glyph-name="a.ss01" horiz-adv-x="506" 
d="M112 442v48h318v-490h-211q-72 0 -118 43.5t-46 103.5q0 64 45.5 107t118.5 43h163v145h-270zM222 48h160v201h-160q-55 0 -87 -28.5t-32 -71.5t32 -72t87 -29z" />
    <glyph glyph-name="e.ss01" horiz-adv-x="482" 
d="M131 334q0 -47 35 -83t93 -36q55 0 90 36t35 83q0 46 -35 83t-90 37q-59 0 -93.5 -37t-34.5 -83zM432 334q0 -72 -50.5 -119.5t-125.5 -47.5q-40 0 -73.5 15t-58.5 42v-176h288v-48h-336v319q0 43 14.5 77.5t39 57.5t57.5 35.5t69 12.5q75 0 125.5 -46.5t50.5 -121.5z
" />
    <glyph glyph-name="f.ss01" horiz-adv-x="421" 
d="M121 490v74q0 63 38.5 105.5t103.5 42.5t104 -42.5t39 -97.5h-50q0 41 -26 67t-67 26t-67.5 -25.5t-26.5 -76.5v-73h236v-46h-236v-444h-48v444h-85v46h85z" />
    <glyph glyph-name="g.ss01" horiz-adv-x="544" 
d="M485 -194h-436v51h385l-302 253q-34 29 -54 72t-20 94q0 44 15.5 83t42.5 68t64 46t81 17h228v-46h-99q35 -30 56 -74t21 -94q0 -44 -15.5 -83t-42.5 -67.5t-64 -45.5t-80 -17l220 -185v-72zM268 442q-34 0 -63.5 -13.5t-51 -36t-34 -52.5t-12.5 -63q0 -71 46.5 -118.5
t109.5 -47.5q65 0 110.5 47t45.5 119q0 32 -11.5 62t-31.5 52.5t-48 36.5t-60 14z" />
    <glyph glyph-name="h.ss01" horiz-adv-x="534" 
d="M76 0v700h48v-210h334v-490h-48v444h-286v-444h-48z" />
    <glyph glyph-name="j.ss01" horiz-adv-x="204" 
d="M104 622q-19 0 -32 13t-13 32t13 32t32 13t32 -13t13 -32t-13 -32t-32 -13zM-53 -194v48h133v636h48v-684h-181z" />
    <glyph glyph-name="k.ss01" horiz-adv-x="493" 
d="M124 700v-429h147l115 219h54l-127 -241l140 -249h-54l-126 223h-149v-223h-48v700h48z" />
    <glyph glyph-name="l.ss01" horiz-adv-x="200" 
d="M76 0v700h48v-700h-48z" />
    <glyph glyph-name="m.ss01" horiz-adv-x="816" 
d="M76 0v490h664v-490h-48v444h-260v-444h-48v444h-260v-444h-48z" />
    <glyph glyph-name="n.ss01" horiz-adv-x="532" 
d="M76 0v490h380v-490h-48v444h-284v-444h-48z" />
    <glyph glyph-name="r.ss01" horiz-adv-x="352" 
d="M316 490v-46h-192v-444h-48v490h240z" />
    <glyph glyph-name="s.ss01" horiz-adv-x="463" 
d="M362 134l-195 116q-57 34 -73 68t-16 61q0 30 12 53t33 38.5t48 23.5t57 8q48 0 88 -19t73 -51l-36 -37q-17 19 -50.5 39t-79.5 20q-40 0 -68.5 -18.5t-28.5 -55.5q0 -28 19 -51t56 -45l217 -128q0 -30 -11.5 -60t-35 -53.5t-59 -38.5t-82.5 -15q-60 0 -106 23t-74 57
l35 38q37 -39 72.5 -54.5t72.5 -15.5q32 0 57 9.5t41.5 23.5t25 31t8.5 33z" />
    <glyph glyph-name="t.ss01" horiz-adv-x="383" 
d="M338 0h-191v444h-112v46h112v137h48v-137h143v-46h-143v-396h143v-48z" />
    <glyph glyph-name="u.ss01" horiz-adv-x="521" 
d="M76 0v490h48v-442h273v442h48v-490h-369z" />
    <glyph glyph-name="y.ss01" horiz-adv-x="518" 
d="M235 -194v163l-210 521h52l182 -450l182 450h52l-210 -519v-165h-48z" />
    <glyph glyph-name="Agrave.ss01" horiz-adv-x="654" 
d="M260 652l-115 -439h363l-118 439h-130zM425 700l189 -700h-48l-46 165h-386l-43 -165h-51l189 700h196zM372 769h-55l-114 103h78z" />
    <glyph glyph-name="Aacute.ss01" horiz-adv-x="654" 
d="M260 652l-115 -439h363l-118 439h-130zM425 700l189 -700h-48l-46 165h-386l-43 -165h-51l189 700h196zM338 769h-55l91 103h78z" />
    <glyph glyph-name="Acircumflex.ss01" horiz-adv-x="654" 
d="M260 652l-115 -439h363l-118 439h-130zM425 700l189 -700h-48l-46 165h-386l-43 -165h-51l189 700h196zM191 769l103 103h66l104 -103h-62l-74 68l-76 -68h-61z" />
    <glyph glyph-name="Atilde.ss01" horiz-adv-x="654" 
d="M260 652l-115 -439h363l-118 439h-130zM425 700l189 -700h-48l-46 165h-386l-43 -165h-51l189 700h196zM422 862h39q-3 -37 -22.5 -59.5t-47.5 -22.5q-19 0 -37 6.5t-35 13.5q-12 4 -24 9t-25 5q-19 0 -27 -10t-12 -24h-38q3 37 22.5 59.5t47.5 22.5q19 0 33.5 -5.5
t30.5 -12.5q14 -6 28.5 -11t27.5 -5q19 0 27 10.5t12 23.5z" />
    <glyph glyph-name="Adieresis.ss01" horiz-adv-x="654" 
d="M260 652l-115 -439h363l-118 439h-130zM425 700l189 -700h-48l-46 165h-386l-43 -165h-51l189 700h196zM415 769q-19 0 -32 13t-13 32t13 32t32 13t32 -13t13 -32t-13 -32t-32 -13zM239 769q-19 0 -32 13t-13 32t13 32t32 13t32 -13t13 -32t-13 -32t-32 -13z" />
    <glyph glyph-name="Aring.ss01" horiz-adv-x="654" 
d="M425 700l189 -700h-48l-46 165h-386l-43 -165h-51l189 700h61q-16 10 -27 27t-11 37q0 31 22.5 53t52.5 22q31 0 53 -22t22 -53q0 -20 -10.5 -37t-27.5 -27h61zM260 652l-115 -439h363l-118 439h-130zM327 801q-15 0 -26 -10.5t-11 -26.5q0 -15 11 -25.5t26 -10.5
q16 0 26.5 10.5t10.5 25.5q0 16 -10.5 26.5t-26.5 10.5z" />
    <glyph glyph-name="AE.ss01" horiz-adv-x="859" 
d="M260 652l-115 -439h363l-118 439h-130zM809 0h-243l-46 165h-386l-43 -165h-51l189 700h580v-48h-371l73 -271h279v-48h-266l77 -285h208v-48z" />
    <glyph glyph-name="Ccedilla.ss01" horiz-adv-x="740" 
d="M658 145l32 -36q-48 -57 -119 -88.5t-151 -31.5h-5v-126h-45v130q-63 9 -118.5 40t-95.5 78t-63 108.5t-23 130.5q0 75 27.5 141.5t75 115t111.5 77t136 28.5q81 0 144.5 -33.5t111.5 -88.5l-34 -34q-40 49 -93 78.5t-126 29.5q-64 0 -119.5 -24t-96 -65.5t-63.5 -99.5
t-23 -125q0 -66 23 -123.5t63.5 -99t96 -66t119.5 -24.5q72 0 133.5 28.5t101.5 79.5z" />
    <glyph glyph-name="Igrave.ss01" horiz-adv-x="511" 
d="M90 652v48h331v-48h-141v-604h141v-48h-331v48h142v604h-142zM301 769h-55l-114 103h78z" />
    <glyph glyph-name="Iacute.ss01" horiz-adv-x="511" 
d="M90 652v48h331v-48h-141v-604h141v-48h-331v48h142v604h-142zM267 769h-55l91 103h78z" />
    <glyph glyph-name="Icircumflex.ss01" horiz-adv-x="511" 
d="M90 652v48h331v-48h-141v-604h141v-48h-331v48h142v604h-142zM120 769l103 103h66l104 -103h-62l-74 68l-76 -68h-61z" />
    <glyph glyph-name="Idieresis.ss01" horiz-adv-x="511" 
d="M90 652v48h331v-48h-141v-604h141v-48h-331v48h142v604h-142zM344 769q-19 0 -32 13t-13 32t13 32t32 13t32 -13t13 -32t-13 -32t-32 -13zM168 769q-19 0 -32 13t-13 32t13 32t32 13t32 -13t13 -32t-13 -32t-32 -13z" />
    <glyph glyph-name="IJ.ss01" horiz-adv-x="1064" 
d="M90 652v48h331v-48h-141v-604h141v-48h-331v48h142v604h-142zM566 238h48v-19q0 -37 10 -70t30 -58t51.5 -39.5t73.5 -14.5q49 0 79.5 19t47.5 50.5t23.5 73.5t6.5 88v384h-256v48h304v-438q0 -56 -10 -106t-33.5 -87t-63 -58.5t-98.5 -21.5q-52 0 -92 18t-67 49
t-40.5 73t-13.5 90v19z" />
    <glyph glyph-name="agrave.ss01" horiz-adv-x="506" 
d="M112 442v48h318v-490h-211q-72 0 -118 43.5t-46 103.5q0 64 45.5 107t118.5 43h163v145h-270zM222 48h160v201h-160q-55 0 -87 -28.5t-32 -71.5t32 -72t87 -29zM354 569h-52l-114 131h70z" />
    <glyph glyph-name="aacute.ss01" horiz-adv-x="506" 
d="M112 442v48h318v-490h-211q-72 0 -118 43.5t-46 103.5q0 64 45.5 107t118.5 43h163v145h-270zM222 48h160v201h-160q-55 0 -87 -28.5t-32 -71.5t32 -72t87 -29zM300 569h-52l96 131h70z" />
    <glyph glyph-name="acircumflex.ss01" horiz-adv-x="506" 
d="M112 442v48h318v-490h-211q-72 0 -118 43.5t-46 103.5q0 64 45.5 107t118.5 43h163v145h-270zM222 48h160v201h-160q-55 0 -87 -28.5t-32 -71.5t32 -72t87 -29zM239 700h67l97 -131h-49l-82 92l-81 -92h-49z" />
    <glyph glyph-name="atilde.ss01" horiz-adv-x="506" 
d="M112 442v48h318v-490h-211q-72 0 -118 43.5t-46 103.5q0 64 45.5 107t118.5 43h163v145h-270zM222 48h160v201h-160q-55 0 -87 -28.5t-32 -71.5t32 -72t87 -29zM366 692h39q-3 -37 -22.5 -59.5t-47.5 -22.5q-19 0 -37 6.5t-35 13.5q-12 4 -24 9t-25 5q-19 0 -27 -10
t-12 -24h-38q3 37 22.5 59.5t47.5 22.5q19 0 33.5 -5.5t30.5 -12.5q14 -6 28.5 -11t27.5 -5q19 0 27 10.5t12 23.5z" />
    <glyph glyph-name="adieresis.ss01" horiz-adv-x="506" 
d="M112 442v48h318v-490h-211q-72 0 -118 43.5t-46 103.5q0 64 45.5 107t118.5 43h163v145h-270zM222 48h160v201h-160q-55 0 -87 -28.5t-32 -71.5t32 -72t87 -29zM183 610q-19 0 -32 13t-13 32t13 32t32 13t32 -13t13 -32t-13 -32t-32 -13zM359 610q-19 0 -32 13t-13 32
t13 32t32 13t32 -13t13 -32t-13 -32t-32 -13z" />
    <glyph glyph-name="amacron.ss01" horiz-adv-x="506" 
d="M112 442v48h318v-490h-211q-72 0 -118 43.5t-46 103.5q0 64 45.5 107t118.5 43h163v145h-270zM222 48h160v201h-160q-55 0 -87 -28.5t-32 -71.5t32 -72t87 -29zM385 643h-228v47h228v-47z" />
    <glyph glyph-name="abreve.ss01" horiz-adv-x="506" 
d="M112 442v48h318v-490h-211q-72 0 -118 43.5t-46 103.5q0 64 45.5 107t118.5 43h163v145h-270zM222 48h160v201h-160q-55 0 -87 -28.5t-32 -71.5t32 -72t87 -29zM403 701q-4 -54 -37.5 -94t-93.5 -40t-94.5 38.5t-38.5 95.5h47q2 -36 23.5 -61.5t61.5 -25.5t60.5 26
t24.5 61h47z" />
    <glyph glyph-name="aring.ss01" horiz-adv-x="506" 
d="M112 442v48h318v-490h-211q-72 0 -118 43.5t-46 103.5q0 64 45.5 107t118.5 43h163v145h-270zM222 48h160v201h-160q-55 0 -87 -28.5t-32 -71.5t32 -72t87 -29zM271 563q-30 0 -52.5 22t-22.5 52q0 31 22.5 53t52.5 22q31 0 53 -22t22 -53q0 -30 -22 -52t-53 -22z
M271 674q-15 0 -26 -10.5t-11 -26.5q0 -15 11 -25.5t26 -10.5q16 0 26.5 10.5t10.5 25.5q0 16 -10.5 26.5t-26.5 10.5z" />
    <glyph glyph-name="aringacute.ss01" horiz-adv-x="506" 
d="M112 442v48h318v-490h-211q-72 0 -118 43.5t-46 103.5q0 64 45.5 107t118.5 43h163v145h-270zM222 48h160v201h-160q-55 0 -87 -28.5t-32 -71.5t32 -72t87 -29zM281 563q-30 0 -52.5 22t-22.5 52q0 31 22.5 53t52.5 22q31 0 53 -22t22 -53q0 -30 -22 -52t-53 -22z
M281 674q-15 0 -26 -10.5t-11 -26.5q0 -15 11 -25.5t26 -10.5q16 0 26.5 10.5t10.5 25.5q0 16 -10.5 26.5t-26.5 10.5zM311 769h-55l91 103h78z" />
    <glyph glyph-name="aogonek.ss01" horiz-adv-x="506" 
d="M382 0h-163q-72 0 -118 43.5t-46 103.5q0 64 45.5 107t118.5 43h163v145h-270v48h318v-490h-2q-38 -29 -53.5 -48.5t-15.5 -42.5q0 -19 15 -31t47 -12h7v-32l-10.5 -3t-27.5 -3q-39 0 -59.5 19.5t-20.5 51.5q0 26 18 53t54 48zM222 48h160v201h-160q-55 0 -87 -28.5
t-32 -71.5t32 -72t87 -29z" />
    <glyph glyph-name="ae.ss01" horiz-adv-x="812" 
d="M216 48h166v172h-166q-55 0 -84 -25t-29 -61q0 -37 29 -61.5t84 -24.5zM596 442h-166v-172h166q55 0 84 25t29 61q0 37 -29 61.5t-84 24.5zM430 222v-174h290v-48h-507q-75 0 -116.5 38.5t-41.5 93.5q0 57 41 96.5t117 39.5h169v174h-270v48h487q75 0 116.5 -38.5
t41.5 -93.5q0 -57 -40.5 -96.5t-117.5 -39.5h-169z" />
    <glyph glyph-name="aeacute.ss01" horiz-adv-x="812" 
d="M216 48h166v172h-166q-55 0 -84 -25t-29 -61q0 -37 29 -61.5t84 -24.5zM596 442h-166v-172h166q55 0 84 25t29 61q0 37 -29 61.5t-84 24.5zM430 222v-174h290v-48h-507q-75 0 -116.5 38.5t-41.5 93.5q0 57 41 96.5t117 39.5h169v174h-270v48h487q75 0 116.5 -38.5
t41.5 -93.5q0 -57 -40.5 -96.5t-117.5 -39.5h-169zM424 569h-52l96 131h70z" />
    <glyph glyph-name="ccedilla.ss01" horiz-adv-x="536" 
d="M456 105l35 -33q-32 -37 -77.5 -59.5t-99.5 -23.5v-126h-45v129q-46 7 -84.5 29t-66 55.5t-43 77t-15.5 91.5q0 53 18.5 100t51.5 81.5t78 55t98 20.5q52 0 98.5 -20.5t78.5 -59.5l-36 -35q-26 31 -62.5 48.5t-77.5 17.5q-40 0 -76 -16.5t-62.5 -44.5t-42 -66t-15.5 -81
t15.5 -81t42 -66t62 -44.5t76.5 -16.5q44 0 82.5 18t66.5 50z" />
    <glyph glyph-name="egrave.ss01" horiz-adv-x="482" 
d="M131 334q0 -47 35 -83t93 -36q55 0 90 36t35 83q0 46 -35 83t-90 37q-59 0 -93.5 -37t-34.5 -83zM432 334q0 -72 -50.5 -119.5t-125.5 -47.5q-40 0 -73.5 15t-58.5 42v-176h288v-48h-336v319q0 43 14.5 77.5t39 57.5t57.5 35.5t69 12.5q75 0 125.5 -46.5t50.5 -121.5z
M334 569h-52l-114 131h70z" />
    <glyph glyph-name="eacute.ss01" horiz-adv-x="482" 
d="M131 334q0 -47 35 -83t93 -36q55 0 90 36t35 83q0 46 -35 83t-90 37q-59 0 -93.5 -37t-34.5 -83zM432 334q0 -72 -50.5 -119.5t-125.5 -47.5q-40 0 -73.5 15t-58.5 42v-176h288v-48h-336v319q0 43 14.5 77.5t39 57.5t57.5 35.5t69 12.5q75 0 125.5 -46.5t50.5 -121.5z
M220 569h-52l96 131h70z" />
    <glyph glyph-name="ecircumflex.ss01" horiz-adv-x="482" 
d="M131 334q0 -47 35 -83t93 -36q55 0 90 36t35 83q0 46 -35 83t-90 37q-59 0 -93.5 -37t-34.5 -83zM432 334q0 -72 -50.5 -119.5t-125.5 -47.5q-40 0 -73.5 15t-58.5 42v-176h288v-48h-336v319q0 43 14.5 77.5t39 57.5t57.5 35.5t69 12.5q75 0 125.5 -46.5t50.5 -121.5z
M219 700h67l97 -131h-49l-82 92l-81 -92h-49z" />
    <glyph glyph-name="edieresis.ss01" horiz-adv-x="482" 
d="M131 334q0 -47 35 -83t93 -36q55 0 90 36t35 83q0 46 -35 83t-90 37q-59 0 -93.5 -37t-34.5 -83zM432 334q0 -72 -50.5 -119.5t-125.5 -47.5q-40 0 -73.5 15t-58.5 42v-176h288v-48h-336v319q0 43 14.5 77.5t39 57.5t57.5 35.5t69 12.5q75 0 125.5 -46.5t50.5 -121.5z
M163 610q-19 0 -32 13t-13 32t13 32t32 13t32 -13t13 -32t-13 -32t-32 -13zM339 610q-19 0 -32 13t-13 32t13 32t32 13t32 -13t13 -32t-13 -32t-32 -13z" />
    <glyph glyph-name="gcircumflex.ss01" horiz-adv-x="544" 
d="M485 -194h-436v51h385l-302 253q-34 29 -54 72t-20 94q0 44 15.5 83t42.5 68t64 46t81 17h228v-46h-99q35 -30 56 -74t21 -94q0 -44 -15.5 -83t-42.5 -67.5t-64 -45.5t-80 -17l220 -185v-72zM268 442q-34 0 -63.5 -13.5t-51 -36t-34 -52.5t-12.5 -63q0 -71 46.5 -118.5
t109.5 -47.5q65 0 110.5 47t45.5 119q0 32 -11.5 62t-31.5 52.5t-48 36.5t-60 14zM243 700h67l97 -131h-49l-82 92l-81 -92h-49z" />
    <glyph glyph-name="gbreve.ss01" horiz-adv-x="544" 
d="M485 -194h-436v51h385l-302 253q-34 29 -54 72t-20 94q0 44 15.5 83t42.5 68t64 46t81 17h228v-46h-99q35 -30 56 -74t21 -94q0 -44 -15.5 -83t-42.5 -67.5t-64 -45.5t-80 -17l220 -185v-72zM268 442q-34 0 -63.5 -13.5t-51 -36t-34 -52.5t-12.5 -63q0 -71 46.5 -118.5
t109.5 -47.5q65 0 110.5 47t45.5 119q0 32 -11.5 62t-31.5 52.5t-48 36.5t-60 14zM407 701q-4 -54 -37.5 -94t-93.5 -40t-94.5 38.5t-38.5 95.5h47q2 -36 23.5 -61.5t61.5 -25.5t60.5 26t24.5 61h47z" />
    <glyph glyph-name="gdotaccent.ss01" horiz-adv-x="544" 
d="M485 -194h-436v51h385l-302 253q-34 29 -54 72t-20 94q0 44 15.5 83t42.5 68t64 46t81 17h228v-46h-99q35 -30 56 -74t21 -94q0 -44 -15.5 -83t-42.5 -67.5t-64 -45.5t-80 -17l220 -185v-72zM268 442q-34 0 -63.5 -13.5t-51 -36t-34 -52.5t-12.5 -63q0 -71 46.5 -118.5
t109.5 -47.5q65 0 110.5 47t45.5 119q0 32 -11.5 62t-31.5 52.5t-48 36.5t-60 14zM275 610q-19 0 -32 13t-13 32t13 32t32 13t32 -13t13 -32t-13 -32t-32 -13z" />
    <glyph glyph-name="gcommaaccent.ss01" horiz-adv-x="544" 
d="M485 -194h-436v51h385l-302 253q-34 29 -54 72t-20 94q0 44 15.5 83t42.5 68t64 46t81 17h228v-46h-99q35 -30 56 -74t21 -94q0 -44 -15.5 -83t-42.5 -67.5t-64 -45.5t-80 -17l220 -185v-72zM268 442q-34 0 -63.5 -13.5t-51 -36t-34 -52.5t-12.5 -63q0 -71 46.5 -118.5
t109.5 -47.5q65 0 110.5 47t45.5 119q0 32 -11.5 62t-31.5 52.5t-48 36.5t-60 14zM282 700h49l-47 -137h-65z" />
    <glyph glyph-name="hbar.ss01" horiz-adv-x="534" 
d="M76 0v580h-66v44h66v76h48v-76h195v-44h-195v-90h334v-490h-48v442h-286v-442h-48z" />
    <glyph glyph-name="ij.ss01" horiz-adv-x="404" 
d="M100 622q-19 0 -32 13t-13 32t13 32t32 13t32 -13t13 -32t-13 -32t-32 -13zM76 0v490h48v-490h-48zM304 622q-19 0 -32 13t-13 32t13 32t32 13t32 -13t13 -32t-13 -32t-32 -13zM147 -194v48h133v636h48v-684h-181z" />
    <glyph glyph-name="dotlessj.ss01" horiz-adv-x="204" 
d="M-53 -194v48h133v636h48v-684h-181z" />
    <glyph glyph-name="kgreenlandic.ss01" horiz-adv-x="493" 
d="M124 490v-219h147l115 219h54l-127 -241l140 -249h-54l-126 223h-149v-223h-48v490h48z" />
    <glyph glyph-name="lslash.ss01" horiz-adv-x="200" 
d="M-10 279v51l86 43v327h48v-303l86 44v-51l-86 -44v-346h-48v322z" />
    <glyph glyph-name="nacute.ss01" horiz-adv-x="532" 
d="M76 0v490h380v-490h-48v444h-284v-444h-48zM235 569h-52l96 131h70z" />
    <glyph glyph-name="ncaron.ss01" horiz-adv-x="532" 
d="M76 0v490h380v-490h-48v444h-284v-444h-48zM301 569h-67l-97 131h49l82 -92l81 92h49z" />
    <glyph glyph-name="ntilde.ss01" horiz-adv-x="532" 
d="M76 0v490h380v-490h-48v444h-284v-444h-48zM361 692h39q-3 -37 -22.5 -59.5t-47.5 -22.5q-19 0 -37 6.5t-35 13.5q-12 4 -24 9t-25 5q-19 0 -27 -10t-12 -24h-38q3 37 22.5 59.5t47.5 22.5q19 0 33.5 -5.5t30.5 -12.5q14 -6 28.5 -11t27.5 -5q19 0 27 10.5t12 23.5z" />
    <glyph glyph-name="oe.ss01" horiz-adv-x="901" 
d="M550 334q0 -47 35 -83t93 -36q55 0 90 36t35 83q0 46 -35 83t-90 37q-59 0 -93.5 -37t-34.5 -83zM300 454q-39 0 -74.5 -16t-61.5 -43.5t-41.5 -65t-15.5 -78.5q0 -44 15.5 -81.5t41.5 -64.5t61.5 -42.5t74.5 -15.5q40 0 76 15t62.5 42t42 65t15.5 82q0 41 -15.5 78
t-42 64.5t-62 44t-76.5 16.5zM300 0q-51 0 -95.5 20t-76.5 53.5t-50 79.5t-18 98q0 51 18.5 97t50.5 80t76.5 54t95.5 20q66 0 120 -32.5t85 -83.5q19 55 65.5 85.5t103.5 30.5q75 0 125.5 -46.5t50.5 -121.5q0 -72 -50.5 -119.5t-125.5 -47.5q-40 0 -73.5 15t-58.5 42l-1 1
q-5 -54 -31 -100t-66 -77h386v-48h-531z" />
    <glyph glyph-name="eng.ss01" horiz-adv-x="532" 
d="M456 -194h-181v48h133v588h-284v-442h-48v490h380v-684z" />
    <glyph glyph-name="racute.ss01" horiz-adv-x="352" 
d="M316 490v-46h-192v-444h-48v490h240zM173 569h-52l96 131h70z" />
    <glyph glyph-name="rcaron.ss01" horiz-adv-x="352" 
d="M316 490v-46h-192v-444h-48v490h240zM239 569h-67l-97 131h49l82 -92l81 92h49z" />
    <glyph glyph-name="sacute.ss01" horiz-adv-x="463" 
d="M362 134l-195 116q-57 34 -73 68t-16 61q0 30 12 53t33 38.5t48 23.5t57 8q48 0 88 -19t73 -51l-36 -37q-17 19 -50.5 39t-79.5 20q-40 0 -68.5 -18.5t-28.5 -55.5q0 -28 19 -51t56 -45l217 -128q0 -30 -11.5 -60t-35 -53.5t-59 -38.5t-82.5 -15q-60 0 -106 23t-74 57
l35 38q37 -39 72.5 -54.5t72.5 -15.5q32 0 57 9.5t41.5 23.5t25 31t8.5 33zM208 569h-52l96 131h70z" />
    <glyph glyph-name="scircumflex.ss01" horiz-adv-x="463" 
d="M362 134l-195 116q-57 34 -73 68t-16 61q0 30 12 53t33 38.5t48 23.5t57 8q48 0 88 -19t73 -51l-36 -37q-17 19 -50.5 39t-79.5 20q-40 0 -68.5 -18.5t-28.5 -55.5q0 -28 19 -51t56 -45l217 -128q0 -30 -11.5 -60t-35 -53.5t-59 -38.5t-82.5 -15q-60 0 -106 23t-74 57
l35 38q37 -39 72.5 -54.5t72.5 -15.5q32 0 57 9.5t41.5 23.5t25 31t8.5 33zM207 700h67l97 -131h-49l-82 92l-81 -92h-49z" />
    <glyph glyph-name="scaron.ss01" horiz-adv-x="463" 
d="M362 134l-195 116q-57 34 -73 68t-16 61q0 30 12 53t33 38.5t48 23.5t57 8q48 0 88 -19t73 -51l-36 -37q-17 19 -50.5 39t-79.5 20q-40 0 -68.5 -18.5t-28.5 -55.5q0 -28 19 -51t56 -45l217 -128q0 -30 -11.5 -60t-35 -53.5t-59 -38.5t-82.5 -15q-60 0 -106 23t-74 57
l35 38q37 -39 72.5 -54.5t72.5 -15.5q32 0 57 9.5t41.5 23.5t25 31t8.5 33zM274 569h-67l-97 131h49l82 -92l81 92h49z" />
    <glyph glyph-name="scedilla.ss01" horiz-adv-x="463" 
d="M362 134l-195 116q-57 34 -73 68t-16 61q0 30 12 53t33 38.5t48 23.5t57 8q48 0 88 -19t73 -51l-36 -37q-17 19 -50.5 39t-79.5 20q-40 0 -68.5 -18.5t-28.5 -55.5q0 -28 19 -51t56 -45l217 -128q0 -29 -10.5 -57.5t-32 -51.5t-53.5 -38.5t-75 -18.5v-127h-45v128
q-50 5 -88.5 26.5t-63.5 51.5l35 38q37 -39 72.5 -54.5t72.5 -15.5q32 0 57 9.5t41.5 23.5t25 31t8.5 33z" />
    <glyph glyph-name="scommaaccent.ss01" horiz-adv-x="463" 
d="M362 134l-195 116q-57 34 -73 68t-16 61q0 30 12 53t33 38.5t48 23.5t57 8q48 0 88 -19t73 -51l-36 -37q-17 19 -50.5 39t-79.5 20q-40 0 -68.5 -18.5t-28.5 -55.5q0 -28 19 -51t56 -45l217 -128q0 -30 -11.5 -60t-35 -53.5t-59 -38.5t-82.5 -15q-60 0 -106 23t-74 57
l35 38q37 -39 72.5 -54.5t72.5 -15.5q32 0 57 9.5t41.5 23.5t25 31t8.5 33zM168 -194h49l63 137h-65z" />
    <glyph glyph-name="germandbls.ss01" horiz-adv-x="599" 
d="M271 48h60q75 0 122.5 38.5t47.5 105.5q0 66 -49.5 105t-135.5 39h-45v72l173 244h-306v-652h-48v700h411v-54l-188 -260q109 -1 172.5 -54.5t63.5 -138.5q0 -43 -16.5 -78.5t-45 -61t-67.5 -39.5t-83 -14h-66v48z" />
    <glyph glyph-name="tcaron.ss01" horiz-adv-x="383" 
d="M338 0h-191v444h-112v46h112v137h48v-137h143v-46h-143v-396h143v-48zM339 564h-40l27 189h55z" />
    <glyph glyph-name="tbar.ss01" horiz-adv-x="383" 
d="M338 0h-191v243h-112v44h112v155h-112v48h112v137h48v-137h143v-48h-143v-155h143v-44h-143v-195h143v-48z" />
    <glyph glyph-name="ugrave.ss01" horiz-adv-x="521" 
d="M76 0v490h48v-442h273v442h48v-490h-369zM343 569h-52l-114 131h70z" />
    <glyph glyph-name="uacute.ss01" horiz-adv-x="521" 
d="M76 0v490h48v-442h273v442h48v-490h-369zM229 569h-52l96 131h70z" />
    <glyph glyph-name="ucircumflex.ss01" horiz-adv-x="521" 
d="M76 0v490h48v-442h273v442h48v-490h-369zM228 700h67l97 -131h-49l-82 92l-81 -92h-49z" />
    <glyph glyph-name="udieresis.ss01" horiz-adv-x="521" 
d="M76 0v490h48v-442h273v442h48v-490h-369zM172 610q-19 0 -32 13t-13 32t13 32t32 13t32 -13t13 -32t-13 -32t-32 -13zM348 610q-19 0 -32 13t-13 32t13 32t32 13t32 -13t13 -32t-13 -32t-32 -13z" />
    <glyph glyph-name="umacron.ss01" horiz-adv-x="521" 
d="M76 0v490h48v-442h273v442h48v-490h-369zM374 643h-228v47h228v-47z" />
    <glyph glyph-name="ubreve.ss01" horiz-adv-x="521" 
d="M76 0v490h48v-442h273v442h48v-490h-369zM392 701q-4 -54 -37.5 -94t-93.5 -40t-94.5 38.5t-38.5 95.5h47q2 -36 23.5 -61.5t61.5 -25.5t60.5 26t24.5 61h47z" />
    <glyph glyph-name="uhungarumlaut.ss01" horiz-adv-x="521" 
d="M76 0v490h48v-442h273v442h48v-490h-369zM159 569h-46l76 131h66zM312 569h-46l76 131h66z" />
    <glyph glyph-name="uogonek.ss01" horiz-adv-x="521" 
d="M76 0v490h48v-442h273v442h48v-490h-126q-38 -29 -53.5 -48.5t-15.5 -42.5q0 -19 15 -31t47 -12h7v-32l-10.5 -3t-27.5 -3q-39 0 -59.5 19.5t-20.5 51.5q0 26 18 53t54 48h-197z" />
    <glyph glyph-name="yacute.ss01" horiz-adv-x="518" 
d="M235 -194v163l-210 521h52l182 -450l182 450h52l-210 -519v-165h-48zM228 569h-52l96 131h70z" />
    <glyph glyph-name="ydieresis.ss01" horiz-adv-x="518" 
d="M235 -194v163l-210 521h52l182 -450l182 450h52l-210 -519v-165h-48zM171 610q-19 0 -32 13t-13 32t13 32t32 13t32 -13t13 -32t-13 -32t-32 -13zM347 610q-19 0 -32 13t-13 32t13 32t32 13t32 -13t13 -32t-13 -32t-32 -13z" />
    <glyph glyph-name="f_b.ss01" horiz-adv-x="923" 
d="M638 502q50 0 92 -20.5t71.5 -55t45.5 -81.5t16 -100t-16 -100t-45.5 -81.5t-71.5 -54.5t-92 -20q-62 0 -113 29t-79 80v-98h-48v444h-229v-444h-48v444h-85v46h85v74q0 63 38.5 105.5t103.5 42.5q50 0 85.5 -26.5t49.5 -65.5v80h48v-306q28 50 79 79t113 29zM632 38
q43 0 76.5 16t57 43.5t36 65.5t12.5 82q0 42 -13 80t-36.5 66.5t-57.5 45.5t-75 17q-40 0 -74.5 -17t-59 -45.5t-38.5 -66.5t-14 -80q0 -43 14 -80.5t38.5 -65.5t59 -44.5t74.5 -16.5zM169 563v-73h229v82h-42q0 41 -26 67t-67 26t-67.5 -25.5t-26.5 -76.5z" />
    <glyph glyph-name="f_f_b.ss01" horiz-adv-x="1199" 
d="M914 -11q-62 0 -113 29t-79 80v-98h-48v444h-229v-444h-48v444h-228v-444h-48v444h-85v46h85v74q0 63 38.5 105.5t103.5 42.5q54 0 91.5 -31t47.5 -75q11 47 47 76.5t90 29.5q51 0 86.5 -26.5t48.5 -66.5v81h48v-306q28 50 79 79t113 29q50 0 92 -20.5t71.5 -55
t45.5 -81.5t16 -100t-16 -100t-45.5 -81.5t-71.5 -54.5t-92 -20zM445 490h229v82h-42q0 41 -26 67t-67 26t-67.5 -25.5t-26.5 -76.5v-73zM397 490v82h-41q0 41 -26 67t-67 26t-67.5 -25.5t-26.5 -76.5v-73h228zM908 38q43 0 76.5 16t57 43.5t36 65.5t12.5 82q0 42 -13 80
t-36.5 66.5t-57.5 45.5t-75 17q-40 0 -74.5 -17t-59 -45.5t-38.5 -66.5t-14 -80q0 -43 14 -80.5t38.5 -65.5t59 -44.5t74.5 -16.5z" />
    <glyph glyph-name="f_f.ss01" horiz-adv-x="691" 
d="M391 490v82h-35q0 41 -26 67t-67 26t-67.5 -25.5t-26.5 -76.5v-73h222zM169 0h-48v444h-85v46h85v74q0 63 38.5 105.5t103.5 42.5q51 0 87 -27.5t49 -67.5q13 43 48 69t86 26q65 0 104 -42.5t39 -97.5h-50q0 41 -26 67t-67 26t-67.5 -25.5t-26.5 -76.5v-73h236v-46h-236
v-444h-48v444h-222v-444z" />
    <glyph glyph-name="f_h.ss01" horiz-adv-x="855" 
d="M169 490h228v82h-41q0 41 -26 67t-67 26t-67.5 -25.5t-26.5 -76.5v-73zM169 0h-48v444h-85v46h85v74q0 63 38.5 105.5t103.5 42.5q50 0 85 -26t49 -64v78h48v-210h334v-490h-48v444h-286v-444h-48v444h-228v-444z" />
    <glyph glyph-name="f_f_h.ss01" horiz-adv-x="1132" 
d="M445 490h229v82h-42q0 41 -26 67t-67 26t-67.5 -25.5t-26.5 -76.5v-73zM397 490v82h-41q0 41 -26 67t-67 26t-67.5 -25.5t-26.5 -76.5v-73h228zM169 0h-48v444h-85v46h85v74q0 63 38.5 105.5t103.5 42.5q54 0 91.5 -31t47.5 -75q11 47 47 76.5t90 29.5q51 0 86.5 -26.5
t48.5 -66.5v81h48v-210h334v-490h-48v444h-286v-444h-48v444h-229v-444h-48v444h-228v-444z" />
    <glyph glyph-name="fi.ss01" horiz-adv-x="508" 
d="M169 0h-48v444h-85v46h85v74q0 63 38.5 105.5t103.5 42.5t104 -42.5t39 -97.5h-50q0 41 -26 67t-67 26t-67.5 -25.5t-26.5 -76.5v-73h263v-490h-48v444h-215v-444z" />
    <glyph glyph-name="f_f_i.ss01" horiz-adv-x="783" 
d="M396 490v82h-40q0 41 -26 67t-67 26t-67.5 -25.5t-26.5 -76.5v-73h227zM169 0h-48v444h-85v46h85v74q0 63 38.5 105.5t103.5 42.5q54 0 90.5 -30.5t47.5 -73.5q12 46 48 75t89 29q65 0 104 -42.5t39 -97.5h-50q0 41 -26 67t-67 26t-67.5 -25.5t-26.5 -76.5v-73h263v-490
h-48v444h-215v-444h-48v444h-227v-444z" />
    <glyph glyph-name="f_j.ss01" horiz-adv-x="501" 
d="M425 490v-684h-181v48h133v590h-208v-444h-48v444h-85v46h85v74q0 63 38.5 105.5t103.5 42.5t104 -42.5t39 -97.5h-50q0 41 -26 67t-67 26t-67.5 -25.5t-26.5 -76.5v-73h256z" />
    <glyph glyph-name="f_f_j.ss01" horiz-adv-x="776" 
d="M396 490v82h-40q0 41 -26 67t-67 26t-67.5 -25.5t-26.5 -76.5v-73h227zM700 490v-684h-181v48h133v590h-208v-444h-48v444h-227v-444h-48v444h-85v46h85v74q0 63 38.5 105.5t103.5 42.5q54 0 90.5 -30.5t47.5 -73.5q12 46 48 75t89 29q65 0 104 -42.5t39 -97.5h-50
q0 41 -26 67t-67 26t-67.5 -25.5t-26.5 -76.5v-73h256z" />
    <glyph glyph-name="f_k.ss01" horiz-adv-x="814" 
d="M169 490h228v82h-41q0 41 -26 67t-67 26t-67.5 -25.5t-26.5 -76.5v-73zM169 0h-48v444h-85v46h85v74q0 63 38.5 105.5t103.5 42.5q50 0 85 -26t49 -64v78h48v-429h147l115 219h54l-127 -241l140 -249h-54l-126 223h-149v-223h-48v444h-228v-444z" />
    <glyph glyph-name="f_f_k.ss01" horiz-adv-x="1090" 
d="M445 490h228v82h-41q0 41 -26 67t-67 26t-67.5 -25.5t-26.5 -76.5v-73zM397 490v82h-41q0 41 -26 67t-67 26t-67.5 -25.5t-26.5 -76.5v-73h228zM169 0h-48v444h-85v46h85v74q0 63 38.5 105.5t103.5 42.5q54 0 91.5 -31t47.5 -75q11 47 47 76.5t90 29.5q50 0 85 -26
t49 -64v78h48v-429h147l115 219h54l-127 -241l140 -249h-54l-126 223h-149v-223h-48v444h-228v-444h-48v444h-228v-444z" />
    <glyph glyph-name="fl.ss01" horiz-adv-x="521" 
d="M169 490h228v82h-41q0 41 -26 67t-67 26t-67.5 -25.5t-26.5 -76.5v-73zM169 0h-48v444h-85v46h85v74q0 63 38.5 105.5t103.5 42.5q50 0 85 -26t49 -64v78h48v-700h-48v444h-228v-444z" />
    <glyph glyph-name="f_f_l.ss01" horiz-adv-x="796" 
d="M444 490h228v82h-41q0 41 -26 67t-67 26t-67.5 -25.5t-26.5 -76.5v-73zM396 490v82h-40q0 41 -26 67t-67 26t-67.5 -25.5t-26.5 -76.5v-73h227zM169 0h-48v444h-85v46h85v74q0 63 38.5 105.5t103.5 42.5q54 0 90.5 -30.5t47.5 -73.5q12 46 48 75t89 29q50 0 85 -26
t49 -64v78h48v-700h-48v444h-228v-444h-48v444h-227v-444z" />
    <glyph glyph-name="f_t.ss01" horiz-adv-x="633" 
d="M397 490v82h-41q0 41 -26 67t-67 26t-67.5 -25.5t-26.5 -76.5v-73h228zM169 0h-48v444h-85v46h85v74q0 63 38.5 105.5t103.5 42.5q50 0 85 -26t49 -64v5h48v-137h143v-46h-143v-396h143v-48h-191v444h-228v-444z" />
    <glyph glyph-name="f_f_t.ss01" horiz-adv-x="909" 
d="M445 0h-48v444h-228v-444h-48v444h-85v46h85v74q0 63 38.5 105.5t103.5 42.5q54 0 91 -31t48 -75q11 47 47 76.5t90 29.5q50 0 85 -26t49 -64v5h48v-137h143v-46h-143v-396h143v-48h-191v444h-228v-444zM673 490v82h-41q0 41 -26 67t-67 26t-67.5 -25.5t-26.5 -76.5v-73
h228zM169 563v-73h228v74v8h-41q0 41 -26 67t-67 26t-67.5 -25.5t-26.5 -76.5z" />
    <glyph glyph-name="t_t.ss01" horiz-adv-x="658" 
d="M338 0h-191v444h-112v46h112v137h48v-137h227v137h48v-137h143v-46h-143v-396h143v-48h-191v444h-227v-396h143v-48z" />
    <glyph glyph-name="t_f.ss01" horiz-adv-x="723" 
d="M423 490v74q0 63 38.5 105.5t103.5 42.5t104 -42.5t39 -97.5h-50q0 41 -26 67t-67 26t-67.5 -25.5t-26.5 -76.5v-73h236v-46h-236v-444h-48v444h-228v-396h143v-48h-191v444h-112v46h112v137h48v-137h228z" />
    <glyph glyph-name="cedilla.ss01" horiz-adv-x="500" 
d="M228 0h45v-137h-45v137z" />
    <glyph glyph-name="cedilla.ss01.cap" horiz-adv-x="500" 
d="M228 0h45v-137h-45v137z" />
    <glyph glyph-name="comma.ss01" horiz-adv-x="290" 
d="M44 -120l102 234l55 -25l-103 -233z" />
    <glyph glyph-name="semicolon.ss01" horiz-adv-x="290" 
d="M152 384q-24 0 -41 16.5t-17 40.5q0 26 17 43.5t41 17.5q26 0 44 -17.5t18 -43.5q0 -24 -18 -40.5t-44 -16.5zM44 -120l102 234l55 -25l-103 -233z" />
    <glyph glyph-name="colon.ss01" horiz-adv-x="290" 
d="M143 384q-24 0 -41 16.5t-17 40.5q0 26 17 43.5t41 17.5q26 0 44 -17.5t18 -43.5q0 -24 -18 -40.5t-44 -16.5zM143 -11q-24 0 -41 16.5t-17 40.5q0 26 17 43.5t41 17.5q26 0 44 -17.5t18 -43.5q0 -24 -18 -40.5t-44 -16.5z" />
    <glyph glyph-name="period.ss01" horiz-adv-x="290" 
d="M143 -11q-24 0 -41 16.5t-17 40.5q0 26 17 43.5t41 17.5q26 0 44 -17.5t18 -43.5q0 -24 -18 -40.5t-44 -16.5z" />
    <glyph glyph-name="ellipsis.ss01" horiz-adv-x="801" 
d="M654 -11q-24 0 -41 16.5t-17 40.5q0 26 17 43.5t41 17.5q26 0 44 -17.5t18 -43.5q0 -24 -18 -40.5t-44 -16.5zM398 -11q-24 0 -41 16.5t-17 40.5q0 26 17 43.5t41 17.5q26 0 44 -17.5t18 -43.5q0 -24 -18 -40.5t-44 -16.5zM143 -11q-24 0 -41 16.5t-17 40.5q0 26 17 43.5
t41 17.5q26 0 44 -17.5t18 -43.5q0 -24 -18 -40.5t-44 -16.5z" />
    <glyph glyph-name="exclam.ss01" horiz-adv-x="291" 
d="M121 210v491h48v-491h-48zM146 -11q-22 0 -36.5 15t-14.5 36q0 19 14.5 34t36.5 15q20 0 35 -15t15 -34q0 -21 -15 -36t-35 -15z" />
    <glyph glyph-name="exclamdown.ss01" horiz-adv-x="291" 
d="M145 502q22 0 36.5 -15t14.5 -36q0 -19 -14.5 -34t-36.5 -15q-20 0 -35 15t-15 34q0 21 15 36t35 15zM170 262v-456h-48v456h48z" />
    <glyph glyph-name="exclamdown.cap.ss01" horiz-adv-x="291" 
d="M170 491v-491h-48v491h48zM145 712q22 0 36.5 -15t14.5 -36q0 -19 -14.5 -34t-36.5 -15q-20 0 -35 15t-15 34q0 21 15 36t35 15z" />
    <glyph glyph-name="question.ss01" horiz-adv-x="576" 
d="M246 289h-9v48h7q49 0 87 15.5t63.5 40t38.5 54.5t13 58q0 67 -47.5 113t-116.5 46q-60 0 -103 -28t-74 -74l-36 40q37 49 90 79.5t123 30.5q44 0 83.5 -16t68 -43.5t45.5 -64.5t17 -80q0 -38 -16 -77t-47 -70.5t-78 -51.5t-109 -20zM254 -11q-24 0 -41 16.5t-17 40.5
q0 26 17 43.5t41 17.5q26 0 44 -17.5t18 -43.5q0 -24 -18 -40.5t-44 -16.5z" />
    <glyph glyph-name="questiondown.ss01" horiz-adv-x="534" 
d="M301 502q24 0 41 -16.5t17 -40.5q0 -26 -17 -43.5t-41 -17.5q-26 0 -44 17.5t-18 43.5q0 24 18 40.5t44 16.5zM309 218h9v-48h-7q-49 0 -87 -15.5t-63.5 -40t-38.5 -54.5t-13 -58q0 -67 47.5 -113t116.5 -46q60 0 103 28t74 74l36 -40q-37 -49 -90 -79.5t-123 -30.5
q-44 0 -83.5 16t-68 43.5t-45.5 64.5t-17 80q0 38 16 77t47 70.5t78 51.5t109 20z" />
    <glyph glyph-name="questiondown.cap.ss01" horiz-adv-x="576" 
d="M330 414h9v-48h-7q-49 0 -87 -15.5t-63.5 -40t-38.5 -54.5t-13 -58q0 -67 47.5 -113t116.5 -46q60 0 103 28t74 74l36 -40q-37 -49 -90 -79.5t-123 -30.5q-44 0 -83.5 16t-68 43.5t-45.5 64.5t-17 80q0 38 16 77t47 70.5t78 51.5t109 20zM322 714q24 0 41 -16.5t17 -40.5
q0 -26 -17 -43.5t-41 -17.5q-26 0 -44 17.5t-18 43.5q0 24 18 40.5t44 16.5z" />
    <glyph glyph-name="quoteleft.ss01" horiz-adv-x="290" 
d="M118 461l-57 25l105 227l46 -22z" />
    <glyph glyph-name="quoteright.ss01" horiz-adv-x="290" 
d="M172 713l57 -25l-105 -227l-46 22z" />
    <glyph glyph-name="quotedblleft.ss01" horiz-adv-x="451" 
d="M118 461l-57 25l105 227l46 -22zM279 455l-57 25l105 227l46 -22z" />
    <glyph glyph-name="quotedblright.ss01" horiz-adv-x="452" 
d="M172 713l57 -25l-105 -227l-46 22zM334 707l57 -25l-105 -227l-46 22z" />
    <glyph glyph-name="quotesinglbase.ss01" horiz-adv-x="290" 
d="M138 122l57 -25l-105 -227l-46 22z" />
    <glyph glyph-name="quotedblbase.ss01" horiz-adv-x="455" 
d="M138 122l57 -25l-105 -227l-46 22zM303 122l57 -25l-105 -227l-46 22z" />
    <glyph glyph-name="periodcentered.ss01" horiz-adv-x="290" 
d="M143 202q-24 0 -41 16.5t-17 40.5q0 26 17 43.5t41 17.5q26 0 44 -17.5t18 -43.5q0 -24 -18 -40.5t-44 -16.5z" />
    <glyph glyph-name="periodcentered.cap.ss01" horiz-adv-x="290" 
d="M143 301q-24 0 -41 16.5t-17 40.5q0 26 17 43.5t41 17.5q26 0 44 -17.5t18 -43.5q0 -24 -18 -40.5t-44 -16.5z" />
    <glyph glyph-name="ampersand.ss01" horiz-adv-x="716" 
d="M530 0h-230q-44 0 -82.5 14.5t-66 41t-43 64t-15.5 83.5q0 50 32.5 97.5t80.5 69.5q-39 24 -61 65t-22 85q0 78 54 129t135 52h43v-48h-43q-67 0 -103 -39t-36 -93q0 -25 8 -49t23.5 -42.5t38 -30t51.5 -11.5h188v313h48v-313h146v-48h-146v-340zM294 340q-72 0 -113 -44
t-41 -105q0 -57 44.5 -100t115.5 -43h182v292h-188z" />
    <glyph glyph-name="zero.ss01" horiz-adv-x="615" 
d="M307 -11q-65 0 -111.5 31t-76 81.5t-43.5 115.5t-14 133t14 133.5t43.5 116t76 81.5t111.5 31q64 0 111 -31t76.5 -81.5t44 -116t14.5 -133.5t-14.5 -133t-44 -115.5t-76.5 -81.5t-111 -31zM306 662q-47 0 -84 -22.5t-61.5 -63.5t-37 -98.5t-12.5 -127.5q0 -38 4 -73
t11 -66l348 318q-23 62 -65.5 97.5t-102.5 35.5zM306 39q47 0 84 23t61.5 64t37.5 98.5t13 125.5q0 35 -3.5 68t-10.5 61l-346 -316q24 -57 65.5 -90.5t98.5 -33.5z" />
    <glyph glyph-name="one.ss01" horiz-adv-x="580" 
d="M101 50h186v601h-186v50h236v-651h176v-50h-412v50z" />
    <glyph glyph-name="two.ss01" horiz-adv-x="638" 
d="M307 295q-42 0 -78.5 16t-64 44t-43 66t-15.5 81q0 44 17 83t46.5 67t69.5 44t85 16q44 0 83.5 -16t68.5 -44t46 -67t17 -83q0 -62 -33 -112t-80 -95l-259 -245h375v-50h-438v55l255 244q-13 -2 -23.5 -3t-28.5 -1zM325 663q-69 0 -118 -46.5t-49 -115.5t48.5 -116
t117.5 -47t117 47t48 116t-48 115.5t-116 46.5z" />
    <glyph glyph-name="three.ss01" horiz-adv-x="628" 
d="M496 701v-50l-195 -244q113 -9 169 -68t56 -143q0 -44 -18 -82t-49 -66t-73.5 -44t-92.5 -16q-69 0 -121 28.5t-90 71.5l40 42q34 -37 74.5 -61t101.5 -24q78 0 123.5 45t45.5 121q0 63 -51 104t-141 41h-47v39l204 256h-327v50h391z" />
    <glyph glyph-name="four.ss01" horiz-adv-x="606" 
d="M80 185v115l291 401h60l-297 -407v-59h236v178h50v-178h120v-50h-120v-185h-50v185h-290z" />
    <glyph glyph-name="five.ss01" horiz-adv-x="633" 
d="M306 39q38 0 72.5 12t60 34.5t40.5 54.5t15 71q0 86 -52 130.5t-127 44.5q-47 0 -87.5 -24.5t-61.5 -55.5h-56v395h393v-50h-341v-285q31 38 74 54t90 16q43 0 82.5 -14.5t69.5 -42.5t48 -69.5t18 -95.5q0 -44 -16.5 -85t-47.5 -72t-76 -49.5t-102 -18.5q-63 0 -112 27
t-89 71l37 38q33 -37 73 -61.5t95 -24.5z" />
    <glyph glyph-name="six.ss01" horiz-adv-x="661" 
d="M570 216q0 -54 -19.5 -97t-52 -71.5t-75.5 -43.5t-90 -15q-52 0 -96 17.5t-75.5 48.5t-49 74t-17.5 94q0 60 26 115t58 101l181 261h61l-207 -291q28 16 55.5 24.5t69.5 8.5q44 0 86 -15.5t74 -45t51.5 -71.5t19.5 -94zM330 390q-37 0 -70 -12.5t-57 -35t-38.5 -55.5
t-14.5 -74q0 -40 14.5 -72.5t39 -55t57 -35t69.5 -12.5t70.5 12.5t58 35t39 55t14.5 72.5q0 41 -14.5 74t-39 55.5t-58 35t-70.5 12.5z" />
    <glyph glyph-name="seven.ss01" horiz-adv-x="577" 
d="M87 470v231h430v-56l-279 -645h-62l288 651h-330v-181h-47z" />
    <glyph glyph-name="eight.ss01" horiz-adv-x="586" 
d="M293 -11q-43 0 -81 14.5t-66 40t-44.5 61.5t-16.5 79q0 61 33 109t84 72q-48 22 -74.5 66.5t-26.5 101.5q0 41 16 74.5t42.5 56.5t61 35.5t72.5 12.5t73 -12.5t61.5 -35.5t42.5 -56.5t16 -74.5q0 -57 -27 -101.5t-75 -66.5q51 -24 84.5 -72t33.5 -109q0 -43 -16.5 -79
t-45 -61.5t-66.5 -40t-81 -14.5zM435 526q0 62 -43 100t-99 38q-57 0 -99.5 -38t-42.5 -100q0 -57 38.5 -98.5t103.5 -41.5q64 0 103 41.5t39 98.5zM447 187q0 63 -43.5 106.5t-112.5 43.5t-112.5 -43.5t-43.5 -106.5t43 -105.5t113 -42.5q69 0 112.5 42.5t43.5 105.5z" />
    <glyph glyph-name="nine.ss01" horiz-adv-x="653" 
d="M95 484q0 54 19.5 97t52 72t75.5 44t90 15q52 0 96 -17.5t75.5 -49t49 -74.5t17.5 -94q0 -60 -26 -115t-58 -101l-181 -261h-61l207 291q-25 -16 -58 -24.5t-67 -8.5q-44 0 -86 15.5t-74 45t-51.5 71.5t-19.5 94zM335 310q37 0 70 12.5t57 35t38.5 55.5t14.5 74
q0 40 -14.5 72.5t-39 55.5t-57 35.5t-69.5 12.5t-70.5 -12.5t-58 -35.5t-39 -55.5t-14.5 -72.5q0 -41 14.5 -74t39 -55.5t58 -35t70.5 -12.5z" />
    <glyph glyph-name="dollar.ss01" horiz-adv-x="592" 
d="M319 -114h-44v104q-76 4 -136 34.5t-99 77.5l34 36q36 -40 93 -70.5t138 -30.5q90 0 142.5 42t52.5 105q0 60 -46 93.5t-115 46.5l-90 16q-38 7 -73 21t-61.5 37t-42.5 54.5t-16 72.5q0 43 18 76.5t48 57.5t69.5 37.5t83.5 15.5v103h44v-104q66 -6 115.5 -35.5
t86.5 -66.5l-34 -37q-32 35 -80 63.5t-121 28.5q-81 0 -130.5 -39t-49.5 -98q0 -60 47.5 -95.5t118.5 -47.5l71 -12q98 -16 152.5 -63.5t54.5 -125.5q0 -37 -14.5 -71.5t-43.5 -60.5t-72.5 -42.5t-100.5 -19.5v-103z" />
    <glyph glyph-name="A.ss02" horiz-adv-x="724" 
d="M362 596l-176 -382h351zM362 701l322 -701h-48l-77 166h-395l-76 -166h-48z" />
    <glyph glyph-name="K.ss02" horiz-adv-x="568" 
d="M452 700h65l-314 -337l325 -363h-65l-325 362v-362h-48v700h48v-338z" />
    <glyph glyph-name="M.ss02" horiz-adv-x="815" 
d="M677 534l-269 -422l-270 422v-534h-48v701l317 -496l318 496v-701h-48v534z" />
    <glyph glyph-name="N.ss02" horiz-adv-x="728" 
d="M638 0l-500 567v-567h-48v701l500 -569v568h48v-700z" />
    <glyph glyph-name="Q.ss02" horiz-adv-x="853" 
d="M747 -26l-100 100q-46 -40 -104 -62.5t-123 -22.5q-72 0 -136.5 28t-111.5 76.5t-74.5 115t-27.5 141.5t27.5 141.5t75 115t111.5 77t136 28.5q73 0 137 -28.5t111.5 -77t74.5 -115t27 -141.5q0 -69 -23 -130t-63 -109l99 -99zM420 664q-64 0 -119 -24t-95 -66
t-62.5 -99.5t-22.5 -124.5t23 -124.5t62.5 -99t94.5 -65.5t119 -24t119 24.5t94.5 66.5t62.5 99.5t23 122.5q0 67 -22.5 124.5t-62.5 99.5t-95 66t-119 24z" />
    <glyph glyph-name="R.ss02" horiz-adv-x="644" 
d="M339 652h-201v-336h201q86 0 138 41t52 126q0 82 -52 125.5t-138 43.5zM529 0l-217 268h-174v-268h-48v700h232q123 0 189.5 -54t66.5 -162q0 -96 -52 -149t-150 -64l218 -271h-65z" />
    <glyph glyph-name="S.ss02" horiz-adv-x="542" 
d="M314 316l-77 29q-35 13 -67 30t-55.5 39t-37.5 51t-14 66q0 43 18 77t48 57t69 35t80 12q70 0 120 -30.5t78 -71.5l-36 -35q-25 35 -61.5 62t-102.5 27q-72 0 -117 -35.5t-45 -92.5q0 -31 12.5 -54t33.5 -40t48.5 -30.5t57.5 -24.5l62 -23q81 -30 127.5 -74t46.5 -122
q0 -37 -15 -69.5t-44 -57t-70.5 -38.5t-93.5 -14q-79 0 -140.5 34.5t-98.5 88.5l35 36q37 -54 87 -82.5t120 -28.5q81 0 125 37t44 94q0 60 -41 93.5t-96 54.5z" />
    <glyph glyph-name="V.ss02" horiz-adv-x="645" 
d="M327 -17h-9l-278 717h57l225 -592l226 592h57z" />
    <glyph glyph-name="W.ss02" horiz-adv-x="925" 
d="M656 -17h-9l-185 530l-184 -530h-9l-229 717h57l178 -580l187 555l188 -555l178 580h57z" />
    <glyph glyph-name="Z.ss02" horiz-adv-x="660" 
d="M50 0l466 652h-440v48h534l-466 -652h441v-48h-535z" />
    <glyph glyph-name="a.ss02" horiz-adv-x="610" 
d="M299 454q-43 0 -77.5 -17t-59 -46t-38 -67t-13.5 -79q0 -44 13 -82t37 -66t59 -44t79 -16q40 0 74 16.5t59 44.5t39.5 66t14.5 81q0 42 -14.5 80t-39.5 66.5t-59 45.5t-74 17zM291 -11q-52 0 -95 20t-73 54.5t-46.5 81.5t-16.5 100t17 100t47.5 81.5t73.5 55t93 20.5
q66 0 117.5 -29t79.5 -79v96h46v-490h-46v98q-28 -51 -79.5 -80t-117.5 -29z" />
    <glyph glyph-name="k.ss02" horiz-adv-x="459" 
d="M372 0l-248 252v-252h-48v700h48v-448l238 238h67l-238 -237l248 -253h-67z" />
    <glyph glyph-name="v.ss02" horiz-adv-x="450" 
d="M229 0h-8l-202 490h53l153 -376l153 376h53z" />
    <glyph glyph-name="w.ss02" horiz-adv-x="692" 
d="M185 0l-161 490h50l120 -371l137 371h28l138 -373l121 373h50l-161 -490h-16l-146 392l-145 -392h-15z" />
    <glyph glyph-name="z.ss02" horiz-adv-x="507" 
d="M56 9l309 433h-300v48h386v-16l-305 -426h296v-48h-386v9z" />
    <glyph glyph-name="Agrave.ss02" horiz-adv-x="724" 
d="M362 596l-176 -382h351zM362 701l322 -701h-48l-77 166h-395l-76 -166h-48zM407 769h-55l-114 103h78z" />
    <glyph glyph-name="Aacute.ss02" horiz-adv-x="724" 
d="M362 596l-176 -382h351zM362 701l322 -701h-48l-77 166h-395l-76 -166h-48zM373 769h-55l91 103h78z" />
    <glyph glyph-name="Acircumflex.ss02" horiz-adv-x="724" 
d="M362 596l-176 -382h351zM362 701l322 -701h-48l-77 166h-395l-76 -166h-48zM226 769l103 103h66l104 -103h-62l-74 68l-76 -68h-61z" />
    <glyph glyph-name="Atilde.ss02" horiz-adv-x="724" 
d="M362 596l-176 -382h351zM362 701l322 -701h-48l-77 166h-395l-76 -166h-48zM457 862h39q-3 -37 -22.5 -59.5t-47.5 -22.5q-19 0 -37 6.5t-35 13.5q-12 4 -24 9t-25 5q-19 0 -27 -10t-12 -24h-38q3 37 22.5 59.5t47.5 22.5q19 0 33.5 -5.5t30.5 -12.5q14 -6 28.5 -11
t27.5 -5q19 0 27 10.5t12 23.5z" />
    <glyph glyph-name="Adieresis.ss02" horiz-adv-x="724" 
d="M362 596l-176 -382h351zM362 701l322 -701h-48l-77 166h-395l-76 -166h-48zM450 769q-19 0 -32 13t-13 32t13 32t32 13t32 -13t13 -32t-13 -32t-32 -13zM274 769q-19 0 -32 13t-13 32t13 32t32 13t32 -13t13 -32t-13 -32t-32 -13z" />
    <glyph glyph-name="Aring.ss02" horiz-adv-x="724" 
d="M88 0h-48l317 690q-28 1 -49 23t-21 51q0 31 22.5 53t52.5 22q31 0 53 -22t22 -53q0 -29 -20.5 -51t-49.5 -23l317 -690h-48l-77 166h-395zM362 596l-176 -382h351zM362 801q-15 0 -26 -10.5t-11 -26.5q0 -15 11 -25.5t26 -10.5q16 0 26.5 10.5t10.5 25.5
q0 16 -10.5 26.5t-26.5 10.5z" />
    <glyph glyph-name="AE.ss02" horiz-adv-x="891" 
d="M362 596l-176 -382h351zM362 701h479v-48h-457l125 -272h313v-48h-291l131 -285h179v-48h-205l-77 166h-395l-76 -166h-48z" />
    <glyph glyph-name="Ntilde.ss02" horiz-adv-x="728" 
d="M638 0l-500 567v-567h-48v701l500 -569v568h48v-700zM468 862h39q-3 -37 -22.5 -59.5t-47.5 -22.5q-19 0 -37 6.5t-35 13.5q-12 4 -24 9t-25 5q-19 0 -27 -10t-12 -24h-38q3 37 22.5 59.5t47.5 22.5q19 0 33.5 -5.5t30.5 -12.5q14 -6 28.5 -11t27.5 -5q19 0 27 10.5
t12 23.5z" />
    <glyph glyph-name="Eng.ss02" horiz-adv-x="728" 
d="M638 700v-765q0 -77 -35.5 -108.5t-102.5 -31.5h-22t-16 1v47h31q59 0 78 26.5t19 82.5v102l-452 513v-567h-48v701l500 -569v568h48z" />
    <glyph glyph-name="Scaron.ss02" horiz-adv-x="542" 
d="M314 316l-77 29q-35 13 -67 30t-55.5 39t-37.5 51t-14 66q0 43 18 77t48 57t69 35t80 12q70 0 120 -30.5t78 -71.5l-36 -35q-25 35 -61.5 62t-102.5 27q-72 0 -117 -35.5t-45 -92.5q0 -31 12.5 -54t33.5 -40t48.5 -30.5t57.5 -24.5l62 -23q81 -30 127.5 -74t46.5 -122
q0 -37 -15 -69.5t-44 -57t-70.5 -38.5t-93.5 -14q-79 0 -140.5 34.5t-98.5 88.5l35 36q37 -54 87 -82.5t120 -28.5q81 0 125 37t44 94q0 60 -41 93.5t-96 54.5zM422 872l-104 -103h-66l-103 103h61l76 -68l74 68h62z" />
    <glyph glyph-name="Zcaron.ss02" horiz-adv-x="660" 
d="M50 0l466 652h-440v48h534l-466 -652h441v-48h-535zM480 872l-104 -103h-66l-103 103h61l76 -68l74 68h62z" />
    <glyph glyph-name="agrave.ss02" horiz-adv-x="610" 
d="M299 454q-43 0 -77.5 -17t-59 -46t-38 -67t-13.5 -79q0 -44 13 -82t37 -66t59 -44t79 -16q40 0 74 16.5t59 44.5t39.5 66t14.5 81q0 42 -14.5 80t-39.5 66.5t-59 45.5t-74 17zM291 -11q-52 0 -95 20t-73 54.5t-46.5 81.5t-16.5 100t17 100t47.5 81.5t73.5 55t93 20.5
q66 0 117.5 -29t79.5 -79v96h46v-490h-46v98q-28 -51 -79.5 -80t-117.5 -29zM393 569h-52l-114 131h70z" />
    <glyph glyph-name="aacute.ss02" horiz-adv-x="610" 
d="M299 454q-43 0 -77.5 -17t-59 -46t-38 -67t-13.5 -79q0 -44 13 -82t37 -66t59 -44t79 -16q40 0 74 16.5t59 44.5t39.5 66t14.5 81q0 42 -14.5 80t-39.5 66.5t-59 45.5t-74 17zM291 -11q-52 0 -95 20t-73 54.5t-46.5 81.5t-16.5 100t17 100t47.5 81.5t73.5 55t93 20.5
q66 0 117.5 -29t79.5 -79v96h46v-490h-46v98q-28 -51 -79.5 -80t-117.5 -29zM319 569h-52l96 131h70z" />
    <glyph glyph-name="acircumflex.ss02" horiz-adv-x="610" 
d="M299 454q-43 0 -77.5 -17t-59 -46t-38 -67t-13.5 -79q0 -44 13 -82t37 -66t59 -44t79 -16q40 0 74 16.5t59 44.5t39.5 66t14.5 81q0 42 -14.5 80t-39.5 66.5t-59 45.5t-74 17zM291 -11q-52 0 -95 20t-73 54.5t-46.5 81.5t-16.5 100t17 100t47.5 81.5t73.5 55t93 20.5
q66 0 117.5 -29t79.5 -79v96h46v-490h-46v98q-28 -51 -79.5 -80t-117.5 -29zM278 700h67l97 -131h-49l-82 92l-81 -92h-49z" />
    <glyph glyph-name="atilde.ss02" horiz-adv-x="610" 
d="M299 454q-43 0 -77.5 -17t-59 -46t-38 -67t-13.5 -79q0 -44 13 -82t37 -66t59 -44t79 -16q40 0 74 16.5t59 44.5t39.5 66t14.5 81q0 42 -14.5 80t-39.5 66.5t-59 45.5t-74 17zM291 -11q-52 0 -95 20t-73 54.5t-46.5 81.5t-16.5 100t17 100t47.5 81.5t73.5 55t93 20.5
q66 0 117.5 -29t79.5 -79v96h46v-490h-46v98q-28 -51 -79.5 -80t-117.5 -29zM405 692h39q-3 -37 -22.5 -59.5t-47.5 -22.5q-19 0 -37 6.5t-35 13.5q-12 4 -24 9t-25 5q-19 0 -27 -10t-12 -24h-38q3 37 22.5 59.5t47.5 22.5q19 0 33.5 -5.5t30.5 -12.5q14 -6 28.5 -11
t27.5 -5q19 0 27 10.5t12 23.5z" />
    <glyph glyph-name="adieresis.ss02" horiz-adv-x="610" 
d="M299 454q-43 0 -77.5 -17t-59 -46t-38 -67t-13.5 -79q0 -44 13 -82t37 -66t59 -44t79 -16q40 0 74 16.5t59 44.5t39.5 66t14.5 81q0 42 -14.5 80t-39.5 66.5t-59 45.5t-74 17zM291 -11q-52 0 -95 20t-73 54.5t-46.5 81.5t-16.5 100t17 100t47.5 81.5t73.5 55t93 20.5
q66 0 117.5 -29t79.5 -79v96h46v-490h-46v98q-28 -51 -79.5 -80t-117.5 -29zM222 610q-19 0 -32 13t-13 32t13 32t32 13t32 -13t13 -32t-13 -32t-32 -13zM398 610q-19 0 -32 13t-13 32t13 32t32 13t32 -13t13 -32t-13 -32t-32 -13z" />
    <glyph glyph-name="amacron.ss02" horiz-adv-x="610" 
d="M299 454q-43 0 -77.5 -17t-59 -46t-38 -67t-13.5 -79q0 -44 13 -82t37 -66t59 -44t79 -16q40 0 74 16.5t59 44.5t39.5 66t14.5 81q0 42 -14.5 80t-39.5 66.5t-59 45.5t-74 17zM291 -11q-52 0 -95 20t-73 54.5t-46.5 81.5t-16.5 100t17 100t47.5 81.5t73.5 55t93 20.5
q66 0 117.5 -29t79.5 -79v96h46v-490h-46v98q-28 -51 -79.5 -80t-117.5 -29zM424 643h-228v47h228v-47z" />
    <glyph glyph-name="abreve.ss02" horiz-adv-x="610" 
d="M299 454q-43 0 -77.5 -17t-59 -46t-38 -67t-13.5 -79q0 -44 13 -82t37 -66t59 -44t79 -16q40 0 74 16.5t59 44.5t39.5 66t14.5 81q0 42 -14.5 80t-39.5 66.5t-59 45.5t-74 17zM291 -11q-52 0 -95 20t-73 54.5t-46.5 81.5t-16.5 100t17 100t47.5 81.5t73.5 55t93 20.5
q66 0 117.5 -29t79.5 -79v96h46v-490h-46v98q-28 -51 -79.5 -80t-117.5 -29zM442 701q-4 -54 -37.5 -94t-93.5 -40t-94.5 38.5t-38.5 95.5h47q2 -36 23.5 -61.5t61.5 -25.5t60.5 26t24.5 61h47z" />
    <glyph glyph-name="aring.ss02" horiz-adv-x="610" 
d="M299 454q-43 0 -77.5 -17t-59 -46t-38 -67t-13.5 -79q0 -44 13 -82t37 -66t59 -44t79 -16q40 0 74 16.5t59 44.5t39.5 66t14.5 81q0 42 -14.5 80t-39.5 66.5t-59 45.5t-74 17zM291 -11q-52 0 -95 20t-73 54.5t-46.5 81.5t-16.5 100t17 100t47.5 81.5t73.5 55t93 20.5
q66 0 117.5 -29t79.5 -79v96h46v-490h-46v98q-28 -51 -79.5 -80t-117.5 -29zM310 563q-30 0 -52.5 22t-22.5 52q0 31 22.5 53t52.5 22q31 0 53 -22t22 -53q0 -30 -22 -52t-53 -22zM310 674q-15 0 -26 -10.5t-11 -26.5q0 -15 11 -25.5t26 -10.5q16 0 26.5 10.5t10.5 25.5
q0 16 -10.5 26.5t-26.5 10.5z" />
    <glyph glyph-name="aringacute.ss02" horiz-adv-x="610" 
d="M299 454q-43 0 -77.5 -17t-59 -46t-38 -67t-13.5 -79q0 -44 13 -82t37 -66t59 -44t79 -16q40 0 74 16.5t59 44.5t39.5 66t14.5 81q0 42 -14.5 80t-39.5 66.5t-59 45.5t-74 17zM291 -11q-52 0 -95 20t-73 54.5t-46.5 81.5t-16.5 100t17 100t47.5 81.5t73.5 55t93 20.5
q66 0 117.5 -29t79.5 -79v96h46v-490h-46v98q-28 -51 -79.5 -80t-117.5 -29zM310 563q-30 0 -52.5 22t-22.5 52q0 31 22.5 53t52.5 22q31 0 53 -22t22 -53q0 -30 -22 -52t-53 -22zM310 674q-15 0 -26 -10.5t-11 -26.5q0 -15 11 -25.5t26 -10.5q16 0 26.5 10.5t10.5 25.5
q0 16 -10.5 26.5t-26.5 10.5zM331 769h-55l91 103h78z" />
    <glyph glyph-name="aogonek.ss02" horiz-adv-x="610" 
d="M487 0h1v98q-28 -51 -79.5 -80t-117.5 -29q-52 0 -95 20t-73 54.5t-46.5 81.5t-16.5 100t17 100t47.5 81.5t73.5 55t93 20.5q66 0 117.5 -29t79.5 -79v96h46v-490h-1q-38 -29 -53.5 -48.5t-15.5 -42.5q0 -19 15 -31t47 -12h7v-32l-10.5 -3t-27.5 -3q-39 0 -59.5 19.5
t-20.5 51.5q0 26 18 53t54 48zM299 454q-43 0 -77.5 -17t-59 -46t-38 -67t-13.5 -79q0 -44 13 -82t37 -66t59 -44t79 -16q40 0 74 16.5t59 44.5t39.5 66t14.5 81q0 42 -14.5 80t-39.5 66.5t-59 45.5t-74 17z" />
    <glyph glyph-name="ae.ss02" horiz-adv-x="976" 
d="M868 107l36 -33q-31 -34 -75 -59.5t-113 -25.5q-60 0 -106 24t-76 64v-77h-46v98q-28 -51 -79.5 -80t-117.5 -29q-52 0 -95 20t-73 54.5t-46.5 81.5t-16.5 100t17 100t47.5 81.5t73.5 55t93 20.5q66 0 117.5 -29t79.5 -79v96h46v-68q28 37 71.5 58.5t102.5 21.5
q53 0 92 -20.5t65 -55t38.5 -81.5t12.5 -100v-11h-382v-17q7 -79 55.5 -129.5t127.5 -50.5q50 0 86 19.5t65 50.5zM299 454q-43 0 -77.5 -17t-59 -46t-38 -67t-13.5 -79q0 -44 13 -82t37 -66t59 -44t79 -16q40 0 74 16.5t59 44.5t39.5 66t14.5 81q0 42 -14.5 80t-39.5 66.5
t-59 45.5t-74 17zM861 282q-4 72 -44 121.5t-109 49.5q-78 0 -122.5 -47t-51.5 -124h327z" />
    <glyph glyph-name="kgreenlandic.ss02" horiz-adv-x="459" 
d="M372 0l-248 252v-252h-48v490h48v-238l238 238h67l-238 -237l248 -253h-67z" />
    <glyph glyph-name="germandbls.ss02" horiz-adv-x="573" 
d="M253 0v48h45q81 0 129 38t48 109q0 35 -14 62t-37.5 44.5t-55 26.5t-66.5 9h-46v49h27q71 0 121 34t50 101q0 57 -43 100t-112 43q-87 0 -129 -53t-42 -132v-479h-48v502q0 44 15 82.5t43 66.5t67.5 44.5t88.5 16.5t88 -16t65.5 -42.5t40.5 -60.5t14 -69q0 -51 -24.5 -92
t-70.5 -63q62 -23 89 -74t27 -100q0 -89 -59 -142t-177 -53h-34z" />
    <glyph glyph-name="zcaron.ss02" horiz-adv-x="507" 
d="M56 9l309 433h-300v48h386v-16l-305 -426h296v-48h-386v9zM295 569h-67l-97 131h49l82 -92l81 92h49z" />
    <glyph glyph-name="question.ss02" horiz-adv-x="515" 
d="M254 427l44 17q42 16 66 45.5t24 69.5q0 50 -37 77t-91 27q-49 0 -85.5 -24.5t-66.5 -61.5l-33 38q25 37 74 67t111 30q80 0 130 -42.5t50 -108.5q0 -57 -31 -96t-100 -69l-46 -20q-37 -16 -57.5 -37t-20.5 -47q0 -32 19 -50.5t49 -18.5q21 0 36 8.5t25 20.5l35 -37
q-17 -18 -44 -29.5t-54 -11.5q-49 0 -83.5 31t-34.5 80q0 50 33 85.5t88 56.5zM249 -11q-24 0 -41 16.5t-17 40.5q0 26 17 43.5t41 17.5q26 0 44 -17.5t18 -43.5q0 -24 -18 -40.5t-44 -16.5z" />
    <glyph glyph-name="questiondown.ss02" horiz-adv-x="515" 
d="M266 502q24 0 41 -16.5t17 -40.5q0 -26 -17 -43.5t-41 -17.5q-26 0 -44 17.5t-18 43.5q0 24 18 40.5t44 16.5zM261 80l-44 -17q-42 -16 -66 -45.5t-24 -69.5q0 -50 37 -77t91 -27q49 0 85.5 24.5t66.5 61.5l33 -38q-25 -37 -74 -67t-111 -30q-80 0 -130 42.5t-50 108.5
q0 57 31 96t100 69l46 20q37 16 57.5 37t20.5 47q0 32 -19 50.5t-49 18.5q-21 0 -36 -8.5t-25 -20.5l-35 37q17 18 44 29.5t54 11.5q49 0 83.5 -31t34.5 -80q0 -50 -33 -85.5t-88 -56.5z" />
    <glyph glyph-name="questiondown.cap.ss02" horiz-adv-x="515" 
d="M261 275l-44 -17q-42 -16 -66 -45.5t-24 -69.5q0 -50 37 -77t91 -27q49 0 85.5 24.5t66.5 61.5l33 -38q-25 -37 -74 -67t-111 -30q-80 0 -130 42.5t-50 108.5q0 57 31 96t100 69l46 20q37 16 57.5 37t20.5 47q0 32 -19 50.5t-49 18.5q-21 0 -36 -8.5t-25 -20.5l-35 37
q17 18 44 29.5t54 11.5q49 0 83.5 -31t34.5 -80q0 -50 -33 -85.5t-88 -56.5zM266 713q24 0 41 -16.5t17 -40.5q0 -26 -17 -43.5t-41 -17.5q-26 0 -44 17.5t-18 43.5q0 24 18 40.5t44 16.5z" />
    <glyph glyph-name="ampersand.ss02" horiz-adv-x="679" 
d="M323 664q-45 0 -75 -26t-30 -70q0 -31 12 -61t31 -56l25 -33l50 32q33 21 58 49t25 65q0 41 -25 70.5t-71 29.5zM118 167q0 -54 35 -93t104 -39q41 0 93 31.5t99 71.5l-173 219l-69 -45q-40 -26 -64.5 -62.5t-24.5 -82.5zM557 0l-79 99q-22 -18 -47 -37.5t-53 -35.5
t-58.5 -26.5t-63.5 -10.5q-47 0 -82.5 15t-58 40t-34 56.5t-11.5 64.5q0 67 34.5 112.5t88.5 81.5l54 36q-46 60 -61.5 97t-15.5 80q0 57 43 98.5t107 41.5q36 0 64 -12t47 -32t28.5 -46.5t9.5 -54.5q0 -45 -27 -82.5t-60 -59.5l-64 -43l167 -212l94 82l31 -40l-94 -80
l103 -132h-62z" />
    <glyph glyph-name="zero.ss02" horiz-adv-x="611" 
d="M305 -11q-65 0 -111.5 31t-76 81.5t-43.5 115.5t-14 133t14 133.5t43.5 116t76 81.5t111.5 31q64 0 111 -31t76.5 -81.5t44 -116t14.5 -133.5t-14.5 -133t-44 -115.5t-76.5 -81.5t-111 -31zM305 39q47 0 84 23t61.5 64t37 98.5t12.5 125.5q0 69 -12.5 126.5t-37 98.5
t-61.5 64t-84 23t-83.5 -23t-61 -64t-37 -98.5t-12.5 -126.5q0 -68 12.5 -125.5t37 -98.5t61 -64t83.5 -23z" />
    <glyph glyph-name="one.ss02" horiz-adv-x="317" 
d="M15 495v60l182 157v-712h-50v604z" />
    <glyph glyph-name="two.ss02" horiz-adv-x="553" 
d="M96 551l-36 36q31 55 82 90t118 35q90 0 145 -52.5t55 -141.5q0 -59 -26.5 -105.5t-80.5 -111.5l-207 -251h342v-50h-448l255 308q51 63 83 109t32 100q0 28 -10.5 54t-29.5 46.5t-47 33t-63 12.5q-58 0 -97.5 -33.5t-66.5 -78.5z" />
    <glyph glyph-name="three.ss02" horiz-adv-x="572" 
d="M83 651v50h396l-207 -307q118 -5 176.5 -59.5t58.5 -137.5q0 -46 -17.5 -84.5t-48 -66t-73 -42.5t-92.5 -15q-69 0 -123.5 28t-92.5 71l40 42q35 -37 75.5 -62.5t101.5 -25.5q80 0 128 43t48 112q0 75 -56 109.5t-144 34.5h-74l209 310h-305z" />
    <glyph glyph-name="four.ss02" horiz-adv-x="576" 
d="M25 185l403 526v-476h108v-50h-108v-185h-51v185h-352zM124 235h253v330z" />
    <glyph glyph-name="five.ss02" horiz-adv-x="543" 
d="M123 301l-45 15l95 385h286v-50h-247l-66 -262l8.5 8t25 17t41.5 17t59 8q43 0 84 -15t73 -43.5t51.5 -70.5t19.5 -96q0 -44 -16.5 -85t-47.5 -72t-76 -49.5t-102 -18.5q-63 0 -114.5 25.5t-91.5 69.5l37 38q33 -37 75.5 -60t97.5 -23q38 0 71.5 12t58.5 34.5t39.5 54.5
t14.5 71q0 82 -51 130t-127 48q-44 0 -73.5 -14t-47 -30t-25 -30z" />
    <glyph glyph-name="six.ss02" 
d="M545 217q0 -54 -19.5 -97t-52 -72t-75.5 -44t-90 -15q-52 0 -96 17.5t-75.5 49t-49 74.5t-17.5 94q0 60 26 115t58 101l181 260h60l-205 -297q22 16 54 28t72 12q44 0 86 -15.5t73.5 -45t50.5 -71.5t19 -94zM307 395q-38 0 -71.5 -12.5t-58 -35.5t-39 -56.5t-14.5 -74.5
t14.5 -74t39.5 -56.5t58.5 -36t70.5 -12.5q38 0 71.5 12.5t58.5 36t39.5 56.5t14.5 74t-14.5 74.5t-39.5 56.5t-58.5 35.5t-71.5 12.5z" />
    <glyph glyph-name="seven.ss02" horiz-adv-x="499" 
d="M40 651v50h439l-282 -701h-55l264 651h-366z" />
    <glyph glyph-name="eight.ss02" horiz-adv-x="557" 
d="M278 -11q-45 0 -85 16.5t-69.5 45t-46.5 68.5t-17 87q0 75 38.5 125.5t95.5 69.5q-40 19 -63.5 58t-23.5 82q0 35 13.5 66.5t36.5 54.5t54.5 36.5t66.5 13.5t66.5 -13.5t54.5 -36.5t36.5 -54.5t13.5 -66.5q0 -43 -24 -82t-64 -58q57 -19 96.5 -69.5t39.5 -125.5
q0 -47 -17.5 -87t-47 -68.5t-69.5 -45t-85 -16.5zM401 543q0 54 -37 87.5t-86 33.5t-86 -33.5t-37 -87.5t38 -85.5t85 -31.5q46 0 84.5 31.5t38.5 85.5zM448 204q0 36 -14 67t-37.5 53.5t-54 35t-63.5 12.5q-71 0 -120.5 -48t-49.5 -120q0 -73 50 -120t120 -47t119.5 47
t49.5 120z" />
    <glyph glyph-name="nine.ss02" 
d="M55 484q0 54 19.5 97t52 72t75.5 44t90 15q52 0 96 -17.5t75.5 -49t49 -74.5t17.5 -94q0 -60 -26 -115t-58 -101l-181 -261h-60l205 298q-22 -16 -54 -28t-72 -12q-44 0 -86 15.5t-73.5 45t-50.5 71.5t-19 94zM293 306q38 0 71.5 12.5t58 35.5t39 56.5t14.5 74.5
t-14.5 74t-39.5 56.5t-58.5 36t-70.5 12.5q-38 0 -71.5 -12.5t-58.5 -36t-39.5 -56.5t-14.5 -74t14.5 -74.5t39.5 -56.5t58.5 -35.5t71.5 -12.5z" />
    <glyph glyph-name="dollar.ss02" horiz-adv-x="542" 
d="M285 -113h-44v104q-66 8 -117 40.5t-84 80.5l35 36q37 -54 87 -82.5t120 -28.5q81 0 125 37t44 94q0 60 -41 93.5t-96 54.5l-77 29q-35 13 -67 30t-55.5 39t-37.5 51t-14 66q0 38 14.5 69t38.5 54t56.5 37t68.5 19v105h44v-103q67 -1 115 -31.5t76 -70.5l-36 -35
q-25 35 -61.5 62t-102.5 27q-72 0 -117 -35.5t-45 -92.5q0 -31 12.5 -54t33.5 -40t48.5 -30.5t57.5 -24.5l62 -23q81 -30 127.5 -74t46.5 -122q0 -37 -15 -69.5t-43 -57t-68.5 -38.5t-90.5 -14v-102z" />
    <glyph glyph-name="A.ss03" horiz-adv-x="691" 
d="M345 657l-153 -396h306zM378 700l273 -700h-49l-85 213h-344l-82 -213h-51l273 700h65z" />
    <glyph glyph-name="C.ss03" horiz-adv-x="642" 
d="M556 149l35 -40q-40 -57 -97 -88.5t-130 -31.5q-65 0 -119.5 26.5t-93 74.5t-60 114.5t-21.5 145.5t21.5 145.5t60.5 114.5t93 75t119 27q72 0 125.5 -31.5t93.5 -86.5l-37 -39q-34 49 -76 79t-104 30q-56 0 -101.5 -23t-77 -64.5t-49 -99.5t-17.5 -127
q0 -68 17.5 -125.5t49 -99t77 -65t101.5 -23.5q61 0 109 30.5t81 81.5z" />
    <glyph glyph-name="D.ss03" horiz-adv-x="668" 
d="M90 0v700h157q166 0 258.5 -80.5t92.5 -264.5q0 -175 -85 -265t-266 -90h-157zM256 652h-118v-604h119q65 0 119 16t92.5 52t60 95t21.5 144q0 82 -21.5 139t-60 92t-93 50.5t-119.5 15.5z" />
    <glyph glyph-name="G.ss03" horiz-adv-x="726" 
d="M588 0v145q-9 -28 -28 -56t-46.5 -50t-64 -36t-79.5 -14q-72 0 -128.5 28t-94.5 76.5t-57.5 115t-19.5 141.5t20 141.5t58.5 115t95.5 77t130 28.5q82 0 146.5 -35t102.5 -95l-35 -38q-30 53 -86.5 86.5t-128.5 33.5q-61 0 -109 -24.5t-80 -66.5t-49 -99.5t-17 -123.5
q0 -62 17 -119t49 -100t80 -68.5t109 -25.5q49 0 86.5 19t64 52t41.5 79t19 100h-195v48h247v-335h-48z" />
    <glyph glyph-name="J.ss03" horiz-adv-x="547" 
d="M418 212v488h49v-488q0 -99 -52 -161t-154 -62q-49 0 -87.5 17t-64.5 45.5t-40 67t-14 81.5v17h48v-17q0 -42 13 -73.5t34.5 -53t50 -32t60.5 -10.5q84 0 120.5 49t36.5 132z" />
    <glyph glyph-name="M.ss03" horiz-adv-x="839" 
d="M384 0l-246 638v-638h-48v700h76l254 -659l254 659h75v-700h-48v635l-245 -635h-72z" />
    <glyph glyph-name="O.ss03" horiz-adv-x="740" 
d="M370 -11q-72 0 -128.5 28t-94.5 76.5t-57.5 115t-19.5 141.5t20 141.5t58 115t94 77t128 28.5q73 0 129.5 -28.5t94 -77t57 -115t19.5 -141.5t-19.5 -141t-57 -114.5t-94 -77t-129.5 -28.5zM373 664q-63 0 -110.5 -23.5t-79.5 -65.5t-48 -99.5t-16 -125.5t16 -125.5
t48 -99t79.5 -65t110.5 -23.5t109.5 24.5t77.5 66t46 99t15 123.5q0 68 -15 125.5t-46 99.5t-77.5 65.5t-109.5 23.5z" />
    <glyph glyph-name="Q.ss03" horiz-adv-x="744" 
d="M355 0q-69 0 -122.5 28t-89.5 76t-54.5 113t-18.5 138q0 74 19.5 139.5t57 113.5t92.5 76t126 28q72 0 128 -28t93 -76.5t56 -113.5t19 -139q0 -100 -35 -182t-102 -128l150 9v-54h-319zM368 664q-64 0 -111 -23.5t-78 -64.5t-46 -98t-15 -123q0 -65 15 -121t46 -97.5
t78 -65t111 -23.5t110.5 23.5t76.5 65t44 97.5t14 121q0 66 -14.5 123t-44 98t-76 64.5t-110.5 23.5z" />
    <glyph glyph-name="R.ss03" horiz-adv-x="638" 
d="M339 652h-201v-296h201q86 0 138.5 31.5t52.5 116.5q0 82 -52.5 115t-138.5 33zM322 308h-184v-308h-48v700h232q123 0 189.5 -43.5t66.5 -151.5q0 -74 -31.5 -117.5t-91.5 -62.5q41 -23 64.5 -65t33.5 -105l23 -155h-52l-22 159q-11 79 -54 114t-126 35z" />
    <glyph glyph-name="a.ss03" horiz-adv-x="566" 
d="M404 249l-167 -26q-56 -9 -86 -34.5t-30 -66.5q0 -38 31.5 -63t83.5 -25q72 0 120 50.5t48 134.5v30zM405 85q-16 -38 -64 -67t-111 -29q-75 0 -117 38t-42 95q0 61 44 98.5t124 49.5l165 25v34q0 62 -37 93t-95 31q-54 0 -86.5 -23t-44.5 -63h-52q10 57 58.5 96
t124.5 39q79 0 129.5 -45t50.5 -129v-215q0 -37 11.5 -53.5t43.5 -16.5v-45l-10.5 -0.5t-15.5 -0.5q-35 0 -55.5 24.5t-20.5 63.5z" />
    <glyph glyph-name="i.ss03" horiz-adv-x="200" 
d="M60 619v81h80v-81h-80zM76 0v490h48v-490h-48z" />
    <glyph glyph-name="j.ss03" horiz-adv-x="203" 
d="M64 619v81h80v-81h-80zM80 -43v533h48v-550q0 -77 -35.5 -108.5t-102.5 -31.5h-22t-16 1v47h31q59 0 78 26.5t19 82.5z" />
    <glyph glyph-name="y.ss03" horiz-adv-x="503" 
d="M478 490l-245 -615q-13 -34 -39.5 -57t-72.5 -23h-16.5t-20.5 0.5t-17 0.5h-7v48l51 -1q16 0 40.5 7t38.5 46l37 99l-202 495h54l175 -445l174 445h50z" />
    <glyph glyph-name="Agrave.ss03" horiz-adv-x="691" 
d="M345 657l-153 -396h306zM378 700l273 -700h-49l-85 213h-344l-82 -213h-51l273 700h65zM390 769h-55l-114 103h78z" />
    <glyph glyph-name="Aacute.ss03" horiz-adv-x="691" 
d="M345 657l-153 -396h306zM378 700l273 -700h-49l-85 213h-344l-82 -213h-51l273 700h65zM356 769h-55l91 103h78z" />
    <glyph glyph-name="Acircumflex.ss03" horiz-adv-x="691" 
d="M345 657l-153 -396h306zM378 700l273 -700h-49l-85 213h-344l-82 -213h-51l273 700h65zM209 769l103 103h66l104 -103h-62l-74 68l-76 -68h-61z" />
    <glyph glyph-name="Atilde.ss03" horiz-adv-x="691" 
d="M345 657l-153 -396h306zM378 700l273 -700h-49l-85 213h-344l-82 -213h-51l273 700h65zM440 862h39q-3 -37 -22.5 -59.5t-47.5 -22.5q-19 0 -37 6.5t-35 13.5q-12 4 -24 9t-25 5q-19 0 -27 -10t-12 -24h-38q3 37 22.5 59.5t47.5 22.5q19 0 33.5 -5.5t30.5 -12.5
q14 -6 28.5 -11t27.5 -5q19 0 27 10.5t12 23.5z" />
    <glyph glyph-name="Adieresis.ss03" horiz-adv-x="691" 
d="M345 657l-153 -396h306zM378 700l273 -700h-49l-85 213h-344l-82 -213h-51l273 700h65zM217 780v81h80v-81h-80zM394 780v81h80v-81h-80z" />
    <glyph glyph-name="Aring.ss03" horiz-adv-x="691" 
d="M91 0h-51l272 698q-19 9 -30.5 26.5t-11.5 39.5q0 31 22.5 53t52.5 22q31 0 53 -22t22 -53q0 -22 -11.5 -39.5t-29.5 -26.5l272 -698h-49l-85 213h-344zM345 657l-153 -396h306zM345 801q-15 0 -26 -10.5t-11 -26.5q0 -15 11 -25.5t26 -10.5q16 0 26.5 10.5t10.5 25.5
q0 16 -10.5 26.5t-26.5 10.5z" />
    <glyph glyph-name="AE.ss03" horiz-adv-x="873" 
d="M345 657l-153 -396h307zM602 0l-83 213h-346l-82 -213h-51l273 700h510v-48h-427l106 -271h302v-48h-283l111 -285h191v-48h-221z" />
    <glyph glyph-name="Ccedilla.ss03" horiz-adv-x="642" 
d="M556 149l35 -40q-34 -50 -82 -80t-108 -37l-55 -129h-56l60 127q-62 3 -114 30.5t-88.5 74.5t-57 112.5t-20.5 142.5q0 79 21.5 145.5t60.5 114.5t93 75t119 27q72 0 125.5 -31.5t93.5 -86.5l-37 -39q-34 49 -76 79t-104 30q-56 0 -101.5 -23t-77 -64.5t-49 -99.5
t-17.5 -127q0 -68 17.5 -125.5t49 -99t77 -65t101.5 -23.5q61 0 109 30.5t81 81.5z" />
    <glyph glyph-name="Eth.ss03" horiz-adv-x="668" 
d="M90 0v335h-80v44h80v321h157q166 0 258.5 -80.5t92.5 -264.5q0 -175 -85 -265t-266 -90h-157zM256 652h-118v-273h178v-44h-178v-287h119q65 0 119 16t92.5 52t60 95t21.5 144q0 82 -21.5 139t-60 92t-93 50.5t-119.5 15.5z" />
    <glyph glyph-name="Dcroat.ss03" horiz-adv-x="668" 
d="M90 0v335h-80v44h80v321h157q166 0 258.5 -80.5t92.5 -264.5q0 -175 -85 -265t-266 -90h-157zM256 652h-118v-273h178v-44h-178v-287h119q65 0 119 16t92.5 52t60 95t21.5 144q0 82 -21.5 139t-60 92t-93 50.5t-119.5 15.5z" />
    <glyph glyph-name="Edieresis.ss03" horiz-adv-x="585" 
d="M90 0v700h445v-48h-397v-271h378v-48h-378v-285h397v-48h-445zM197 780v81h80v-81h-80zM374 780v81h80v-81h-80z" />
    <glyph glyph-name="Idieresis.ss03" horiz-adv-x="228" 
d="M90 0v700h48v-700h-48zM-14 780v81h80v-81h-80zM163 780v81h80v-81h-80z" />
    <glyph glyph-name="IJ.ss03" horiz-adv-x="775" 
d="M90 0v700h48v-700h-48zM646 212v488h49v-488q0 -99 -52 -161t-154 -62q-49 0 -87.5 17t-64.5 45.5t-40 67t-14 81.5v17h48v-17q0 -42 13 -73.5t34.5 -53t50 -32t60.5 -10.5q84 0 120.5 49t36.5 132z" />
    <glyph glyph-name="Ograve.ss03" horiz-adv-x="740" 
d="M370 -11q-72 0 -128.5 28t-94.5 76.5t-57.5 115t-19.5 141.5t20 141.5t58 115t94 77t128 28.5q73 0 129.5 -28.5t94 -77t57 -115t19.5 -141.5t-19.5 -141t-57 -114.5t-94 -77t-129.5 -28.5zM373 664q-63 0 -110.5 -23.5t-79.5 -65.5t-48 -99.5t-16 -125.5t16 -125.5
t48 -99t79.5 -65t110.5 -23.5t109.5 24.5t77.5 66t46 99t15 123.5q0 68 -15 125.5t-46 99.5t-77.5 65.5t-109.5 23.5zM415 769h-55l-114 103h78z" />
    <glyph glyph-name="Oacute.ss03" horiz-adv-x="740" 
d="M370 -11q-72 0 -128.5 28t-94.5 76.5t-57.5 115t-19.5 141.5t20 141.5t58 115t94 77t128 28.5q73 0 129.5 -28.5t94 -77t57 -115t19.5 -141.5t-19.5 -141t-57 -114.5t-94 -77t-129.5 -28.5zM373 664q-63 0 -110.5 -23.5t-79.5 -65.5t-48 -99.5t-16 -125.5t16 -125.5
t48 -99t79.5 -65t110.5 -23.5t109.5 24.5t77.5 66t46 99t15 123.5q0 68 -15 125.5t-46 99.5t-77.5 65.5t-109.5 23.5zM381 769h-55l91 103h78z" />
    <glyph glyph-name="Ocircumflex.ss03" horiz-adv-x="740" 
d="M370 -11q-72 0 -128.5 28t-94.5 76.5t-57.5 115t-19.5 141.5t20 141.5t58 115t94 77t128 28.5q73 0 129.5 -28.5t94 -77t57 -115t19.5 -141.5t-19.5 -141t-57 -114.5t-94 -77t-129.5 -28.5zM373 664q-63 0 -110.5 -23.5t-79.5 -65.5t-48 -99.5t-16 -125.5t16 -125.5
t48 -99t79.5 -65t110.5 -23.5t109.5 24.5t77.5 66t46 99t15 123.5q0 68 -15 125.5t-46 99.5t-77.5 65.5t-109.5 23.5zM234 769l103 103h66l104 -103h-62l-74 68l-76 -68h-61z" />
    <glyph glyph-name="Otilde.ss03" horiz-adv-x="740" 
d="M370 -11q-72 0 -128.5 28t-94.5 76.5t-57.5 115t-19.5 141.5t20 141.5t58 115t94 77t128 28.5q73 0 129.5 -28.5t94 -77t57 -115t19.5 -141.5t-19.5 -141t-57 -114.5t-94 -77t-129.5 -28.5zM373 664q-63 0 -110.5 -23.5t-79.5 -65.5t-48 -99.5t-16 -125.5t16 -125.5
t48 -99t79.5 -65t110.5 -23.5t109.5 24.5t77.5 66t46 99t15 123.5q0 68 -15 125.5t-46 99.5t-77.5 65.5t-109.5 23.5zM465 862h39q-3 -37 -22.5 -59.5t-47.5 -22.5q-19 0 -37 6.5t-35 13.5q-12 4 -24 9t-25 5q-19 0 -27 -10t-12 -24h-38q3 37 22.5 59.5t47.5 22.5
q19 0 33.5 -5.5t30.5 -12.5q14 -6 28.5 -11t27.5 -5q19 0 27 10.5t12 23.5z" />
    <glyph glyph-name="Odieresis.ss03" horiz-adv-x="740" 
d="M370 -11q-72 0 -128.5 28t-94.5 76.5t-57.5 115t-19.5 141.5t20 141.5t58 115t94 77t128 28.5q73 0 129.5 -28.5t94 -77t57 -115t19.5 -141.5t-19.5 -141t-57 -114.5t-94 -77t-129.5 -28.5zM373 664q-63 0 -110.5 -23.5t-79.5 -65.5t-48 -99.5t-16 -125.5t16 -125.5
t48 -99t79.5 -65t110.5 -23.5t109.5 24.5t77.5 66t46 99t15 123.5q0 68 -15 125.5t-46 99.5t-77.5 65.5t-109.5 23.5zM242 780v81h80v-81h-80zM419 780v81h80v-81h-80z" />
    <glyph glyph-name="Oslash.ss03" horiz-adv-x="740" 
d="M138 -21l-42 28l56 80q-40 49 -61 117t-21 146q0 75 20 141.5t58 115t94 77t128 28.5q55 0 101 -16.5t81 -46.5l52 74l40 -27l-58 -81q41 -49 62.5 -118t21.5 -147q0 -75 -19.5 -141t-57 -114.5t-94 -77t-129.5 -28.5q-55 0 -100.5 16.5t-80.5 45.5zM621 350
q0 68 -15.5 126t-46.5 100l-343 -486q30 -25 69 -39t88 -14q63 0 109.5 24.5t77.5 66t46 99t15 123.5zM373 664q-63 0 -110.5 -23.5t-79.5 -65.5t-48 -99.5t-16 -125.5q0 -67 15.5 -124t46.5 -99l344 485q-28 25 -66.5 38.5t-85.5 13.5z" />
    <glyph glyph-name="OE.ss03" horiz-adv-x="905" 
d="M855 0h-445q-70 0 -132.5 27.5t-108 74.5t-72.5 111t-27 137q0 72 27 136.5t73 111.5t108 74.5t132 27.5h445v-48h-397v-271h378v-48h-378v-285h397v-48zM410 654q-62 -1 -115.5 -24t-91.5 -63.5t-60 -96t-22 -120.5q0 -63 22 -118.5t60 -96t91.5 -64.5t115.5 -24v607z
" />
    <glyph glyph-name="Udieresis.ss03" horiz-adv-x="685" 
d="M557 275v425h48v-427q0 -61 -17.5 -113t-51 -90t-83 -59.5t-111.5 -21.5t-111 21.5t-82.5 59.5t-51 90t-17.5 113v427h48v-426q0 -49 14 -92t40.5 -75t67 -51t92.5 -19t92.5 19t67.5 51t41 75.5t14 92.5zM214 780v81h80v-81h-80zM391 780v81h80v-81h-80z" />
    <glyph glyph-name="Ydieresis.ss03" horiz-adv-x="630" 
d="M532 700h58l-251 -367v-333h-48v333l-251 367h57l218 -319zM187 781v81h80v-81h-80zM364 781v81h80v-81h-80z" />
    <glyph glyph-name="agrave.ss03" horiz-adv-x="566" 
d="M404 249l-167 -26q-56 -9 -86 -34.5t-30 -66.5q0 -38 31.5 -63t83.5 -25q72 0 120 50.5t48 134.5v30zM405 85q-16 -38 -64 -67t-111 -29q-75 0 -117 38t-42 95q0 61 44 98.5t124 49.5l165 25v34q0 62 -37 93t-95 31q-54 0 -86.5 -23t-44.5 -63h-52q10 57 58.5 96
t124.5 39q79 0 129.5 -45t50.5 -129v-215q0 -37 11.5 -53.5t43.5 -16.5v-45l-10.5 -0.5t-15.5 -0.5q-35 0 -55.5 24.5t-20.5 63.5zM348 569h-52l-114 131h70z" />
    <glyph glyph-name="aacute.ss03" horiz-adv-x="566" 
d="M404 249l-167 -26q-56 -9 -86 -34.5t-30 -66.5q0 -38 31.5 -63t83.5 -25q72 0 120 50.5t48 134.5v30zM405 85q-16 -38 -64 -67t-111 -29q-75 0 -117 38t-42 95q0 61 44 98.5t124 49.5l165 25v34q0 62 -37 93t-95 31q-54 0 -86.5 -23t-44.5 -63h-52q10 57 58.5 96
t124.5 39q79 0 129.5 -45t50.5 -129v-215q0 -37 11.5 -53.5t43.5 -16.5v-45l-10.5 -0.5t-15.5 -0.5q-35 0 -55.5 24.5t-20.5 63.5zM291 569h-52l96 131h70z" />
    <glyph glyph-name="acircumflex.ss03" horiz-adv-x="566" 
d="M404 249l-167 -26q-56 -9 -86 -34.5t-30 -66.5q0 -38 31.5 -63t83.5 -25q72 0 120 50.5t48 134.5v30zM405 85q-16 -38 -64 -67t-111 -29q-75 0 -117 38t-42 95q0 61 44 98.5t124 49.5l165 25v34q0 62 -37 93t-95 31q-54 0 -86.5 -23t-44.5 -63h-52q10 57 58.5 96
t124.5 39q79 0 129.5 -45t50.5 -129v-215q0 -37 11.5 -53.5t43.5 -16.5v-45l-10.5 -0.5t-15.5 -0.5q-35 0 -55.5 24.5t-20.5 63.5zM233 700h67l97 -131h-49l-82 92l-81 -92h-49z" />
    <glyph glyph-name="atilde.ss03" horiz-adv-x="566" 
d="M404 249l-167 -26q-56 -9 -86 -34.5t-30 -66.5q0 -38 31.5 -63t83.5 -25q72 0 120 50.5t48 134.5v30zM405 85q-16 -38 -64 -67t-111 -29q-75 0 -117 38t-42 95q0 61 44 98.5t124 49.5l165 25v34q0 62 -37 93t-95 31q-54 0 -86.5 -23t-44.5 -63h-52q10 57 58.5 96
t124.5 39q79 0 129.5 -45t50.5 -129v-215q0 -37 11.5 -53.5t43.5 -16.5v-45l-10.5 -0.5t-15.5 -0.5q-35 0 -55.5 24.5t-20.5 63.5zM360 692h39q-3 -37 -22.5 -59.5t-47.5 -22.5q-19 0 -37 6.5t-35 13.5q-12 4 -24 9t-25 5q-19 0 -27 -10t-12 -24h-38q3 37 22.5 59.5
t47.5 22.5q19 0 33.5 -5.5t30.5 -12.5q14 -6 28.5 -11t27.5 -5q19 0 27 10.5t12 23.5z" />
    <glyph glyph-name="adieresis.ss03" horiz-adv-x="566" 
d="M404 249l-167 -26q-56 -9 -86 -34.5t-30 -66.5q0 -38 31.5 -63t83.5 -25q72 0 120 50.5t48 134.5v30zM405 85q-16 -38 -64 -67t-111 -29q-75 0 -117 38t-42 95q0 61 44 98.5t124 49.5l165 25v34q0 62 -37 93t-95 31q-54 0 -86.5 -23t-44.5 -63h-52q10 57 58.5 96
t124.5 39q79 0 129.5 -45t50.5 -129v-215q0 -37 11.5 -53.5t43.5 -16.5v-45l-10.5 -0.5t-15.5 -0.5q-35 0 -55.5 24.5t-20.5 63.5zM137 612v81h80v-81h-80zM314 612v81h80v-81h-80z" />
    <glyph glyph-name="amacron.ss03" horiz-adv-x="566" 
d="M404 249l-167 -26q-56 -9 -86 -34.5t-30 -66.5q0 -38 31.5 -63t83.5 -25q72 0 120 50.5t48 134.5v30zM405 85q-16 -38 -64 -67t-111 -29q-75 0 -117 38t-42 95q0 61 44 98.5t124 49.5l165 25v34q0 62 -37 93t-95 31q-54 0 -86.5 -23t-44.5 -63h-52q10 57 58.5 96
t124.5 39q79 0 129.5 -45t50.5 -129v-215q0 -37 11.5 -53.5t43.5 -16.5v-45l-10.5 -0.5t-15.5 -0.5q-35 0 -55.5 24.5t-20.5 63.5zM379 643h-228v47h228v-47z" />
    <glyph glyph-name="abreve.ss03" horiz-adv-x="566" 
d="M404 249l-167 -26q-56 -9 -86 -34.5t-30 -66.5q0 -38 31.5 -63t83.5 -25q72 0 120 50.5t48 134.5v30zM405 85q-16 -38 -64 -67t-111 -29q-75 0 -117 38t-42 95q0 61 44 98.5t124 49.5l165 25v34q0 62 -37 93t-95 31q-54 0 -86.5 -23t-44.5 -63h-52q10 57 58.5 96
t124.5 39q79 0 129.5 -45t50.5 -129v-215q0 -37 11.5 -53.5t43.5 -16.5v-45l-10.5 -0.5t-15.5 -0.5q-35 0 -55.5 24.5t-20.5 63.5zM397 701q-4 -54 -37.5 -94t-93.5 -40t-94.5 38.5t-38.5 95.5h47q2 -36 23.5 -61.5t61.5 -25.5t60.5 26t24.5 61h47z" />
    </font>
</defs>
</svg>
