<svg xmlns="http://www.w3.org/2000/svg">
<defs>
<font id="Maax-MediumItalic" horiz-adv-x="600" >
  <font-face 
    font-family="Maax Medium"
    font-weight="500"
    font-style="italic"
    font-stretch="normal"
    units-per-em="1000"
    panose-1="2 0 0 0 0 0 0 0 0 0"
    ascent="750"
    descent="-250"
    x-height="490"
    cap-height="700"
    bbox="-88 -206 1549 1003"
    underline-thickness="0"
    underline-position="0"
    unicode-range="U+0020-FB05"
  />
<missing-glyph horiz-adv-x="625" 
d="M311 202q13 0 21.5 -9t8.5 -22t-8.5 -22.5t-21.5 -9.5t-22 9.5t-9 22.5t9 22t22 9zM320 153h8l-9 13q4 1 6 4.5t2 7.5q0 5 -3.5 8.5t-9.5 3.5h-17v-37h8v12h7zM163 400q7 -12 3 -25.5t-16 -20.5q-13 -7 -26.5 -4t-20.5 16t-3 26t16 20q13 7 26.5 4t20.5 -16zM312 184
q4 0 6 -2t2 -4q0 -4 -2 -5.5t-6 -1.5h-7v13h7zM278 412q10 6 21 4t21 -10l-29 -92q-4 4 -7.5 9t-7.5 11q-14 25 -14.5 46.5t16.5 31.5zM332 394q4 -4 7.5 -9t6.5 -11q14 -25 14.5 -46.5t-15.5 -31.5q-10 -5 -20.5 -3.5t-20.5 9.5zM312 684l285 -164v-328l-285 -164l-284 164
v328zM326 561v-75h8v34h36v8h-36v25h39v8h-47zM248 561v-8h23v-67h8v67h24v8h-55zM145 259l89 51l-8 15l-68 -40l20 69q4 15 5 28.5t-6 26.5q-10 18 -30 22.5t-39 -5.5q-18 -10 -23.5 -30t4.5 -38t29.5 -23.5t35.5 4.5l4 3l-20 -70zM311 130q16 0 28 12t12 29q0 16 -12 28
t-28 12q-17 0 -28.5 -12t-11.5 -28q0 -17 11.5 -29t28.5 -12zM353 282q26 16 25 45t-17 56q-16 28 -40.5 43t-50.5 0t-25.5 -44t16.5 -56q16 -28 40.5 -43.5t51.5 -0.5zM511 281q24 13 28.5 35t-6.5 40q-12 22 -33 25.5t-37 -6.5q-9 -5 -14.5 -12t-8.5 -15l-26 46l63 37
l-8 14l-78 -45l47 -82l14 8q-1 9 3 18.5t15 15.5q13 7 27 4t22 -16q7 -15 3 -29.5t-18 -22.5q-12 -7 -22.5 -6.5t-20.5 5.5l-5 -17q11 -4 25.5 -5t29.5 8z" />
    <glyph glyph-name="f_f" unicode="ff" horiz-adv-x="656" 
d="M665 712q16 0 24.5 -0.5l8.5 -0.5l-15 -107h-25q-51 0 -74.5 -21t-29.5 -64l-4 -29h110l-15 -106h-109l-55 -384h-114l53 384h-196l-55 -384h-114l54 384h-71l15 106h71l5 34q15 98 74.5 143t149.5 45q16 0 24.5 -0.5l8.5 -0.5l-15 -107h-25q-51 0 -74.5 -21t-29.5 -64
l-4 -29h198l5 34q15 98 74.5 143t149.5 45z" />
    <glyph glyph-name="fi" unicode="fi" horiz-adv-x="589" 
d="M367 0l53 384h-196l-55 -384h-114l54 384h-71l15 106h71l5 34q15 98 75 143t150 45q15 0 24 -0.5l9 -0.5l-15 -107h-25q-51 0 -75 -21t-30 -64l-4 -29h313l-69 -490h-115zM442 638q0 31 22 52.5t53 21.5q29 0 49 -20.5t20 -48.5q0 -31 -22.5 -52.5t-53.5 -21.5
q-28 0 -48 20.5t-20 48.5z" />
    <glyph glyph-name="fl" unicode="fl" horiz-adv-x="598" 
d="M353 700h240l-98 -700h-115l83 593h-117q-51 0 -75 -18t-29 -61l-4 -24h110l-15 -106h-109l-55 -384h-114l54 384h-71l15 106h71l4 30q15 98 75 139t150 41z" />
    <glyph glyph-name="f_f_i" unicode="ffi" horiz-adv-x="900" 
d="M353 712q16 0 24.5 -0.5l8.5 -0.5l-15 -107h-25q-51 0 -74.5 -21t-29.5 -64l-4 -29h198l5 34q15 98 74.5 143t149.5 45q16 0 24.5 -0.5l8.5 -0.5l-15 -107h-25q-51 0 -74.5 -21t-29.5 -64l-4 -29h313l-69 -490h-115l53 384h-196l-55 -384h-114l53 384h-196l-55 -384h-114
l54 384h-71l15 106h71l5 34q15 98 74.5 143t149.5 45zM754 640q0 30 21 51t50 21q30 0 51 -21t21 -51q0 -29 -21 -49.5t-51 -20.5q-29 0 -50 20.5t-21 49.5z" />
    <glyph glyph-name="f_f_l" unicode="ffl" horiz-adv-x="898" 
d="M679 0l83 593h-104q-51 0 -75 -18t-29 -61l-4 -24h110l-15 -106h-109l-55 -384h-114l53 384h-196l-55 -384h-114l54 384h-71l15 106h71l5 34q15 98 74.5 143t149.5 45q16 0 24.5 -0.5l8.5 -0.5l-15 -107h-25q-51 0 -74.5 -21t-29.5 -64l-4 -29h198l4 30q15 98 75 139
t150 41h227l-99 -700h-114z" />
    <glyph glyph-name="f_t" unicode="ft" horiz-adv-x="669" 
d="M391 171l29 213h-196l-55 -384h-114l54 384h-71l15 106h71l5 34q15 98 74.5 143t149.5 45q16 0 24.5 -0.5l8.5 -0.5l-15 -107h-25q-51 0 -74.5 -21t-29.5 -64l-4 -29h197l20 137h114l-20 -137h111l-15 -106h-111l-29 -210q-6 -40 8 -55t51 -15h8.5t14 0.5t13 0.5h5.5
l-14 -105l-20 -1t-45 -1q-81 0 -114 46t-21 127z" />
    <glyph glyph-name="f_b" unicode="fb" horiz-adv-x="940" 
d="M899 273q0 -62 -22 -114.5t-59 -90t-87.5 -58.5t-107.5 -21q-45 0 -81 17.5t-55 45.5l-8 -52h-112l83 593h-104q-51 0 -75 -18t-29 -61l-4 -24h110l-15 -106h-109l-55 -384h-114l54 384h-71l15 106h71l4 30q15 98 75 139t150 41h227l-35 -251q25 22 60.5 37.5t81.5 15.5
t85 -17.5t67 -48t44 -72.5t16 -91zM780 268q0 56 -30 92.5t-83 36.5q-66 0 -110.5 -50.5t-44.5 -124.5q0 -56 31 -92.5t82 -36.5q66 0 110.5 51t44.5 124z" />
    <glyph glyph-name="f_f_b" unicode="ffb" horiz-adv-x="1252" 
d="M1211 273q0 -62 -22 -114.5t-59 -90t-87.5 -58.5t-107.5 -21q-45 0 -81 17.5t-55 45.5l-8 -52h-112l83 593h-104q-51 0 -75 -18t-29 -61l-4 -24h110l-15 -106h-109l-55 -384h-114l53 384h-196l-55 -384h-114l54 384h-71l15 106h71l5 34q15 98 74.5 143t149.5 45
q16 0 24.5 -0.5l8.5 -0.5l-15 -107h-25q-51 0 -74.5 -21t-29.5 -64l-4 -29h198l4 30q15 98 75 139t150 41h227l-35 -251q25 22 60.5 37.5t81.5 15.5t85 -17.5t67 -48t44 -72.5t16 -91zM1092 268q0 56 -30 92.5t-83 36.5q-66 0 -110.5 -50.5t-44.5 -124.5q0 -56 30.5 -92.5
t82.5 -36.5q66 0 110.5 51t44.5 124z" />
    <glyph glyph-name="f_h" unicode="fh" horiz-adv-x="903" 
d="M580 700l-35 -251q23 23 59 38t75 15q80 0 126 -49.5t46 -132.5q0 -12 -1.5 -24t-2.5 -25l-38 -271h-116l40 281q1 6 1.5 12.5t0.5 12.5q0 41 -21 65t-64 24q-59 0 -92 -41.5t-43 -109.5l-34 -244h-114l83 593h-104q-51 0 -75 -18t-29 -61l-4 -24h110l-15 -106h-109
l-55 -384h-114l54 384h-71l15 106h71l4 30q15 98 75 139t150 41h227z" />
    <glyph glyph-name="f_f_h" unicode="ffh" horiz-adv-x="1215" 
d="M892 700l-36 -251q24 23 60 38t75 15q80 0 126 -49.5t46 -132.5q0 -12 -1.5 -24t-2.5 -25l-38 -271h-116l40 281q1 6 1.5 12.5t0.5 12.5q0 41 -21 65t-64 24q-59 0 -92 -41.5t-43 -109.5l-34 -244h-114l83 593h-104q-51 0 -75 -18t-29 -61l-4 -24h110l-15 -106h-109
l-55 -384h-114l53 384h-196l-55 -384h-114l54 384h-71l15 106h71l5 34q15 98 74.5 143t149.5 45q16 0 24.5 -0.5l8.5 -0.5l-15 -107h-25q-51 0 -74.5 -21t-29.5 -64l-4 -29h198l4 30q15 98 75 139t150 41h227z" />
    <glyph glyph-name="f_j" unicode="fj" horiz-adv-x="582" 
d="M363 -27l57 411h-196l-55 -384h-114l54 384h-71l15 106h71l5 34q15 98 74.5 143t149.5 45q16 0 24.5 -0.5l8.5 -0.5l-15 -107h-25q-51 0 -74.5 -21t-29.5 -64l-4 -29h312l-75 -532q-12 -83 -57 -123t-126 -40q-25 0 -42.5 1l-17.5 1l14 105l16.5 -0.5t20.5 -0.5
q37 0 55.5 16t24.5 56zM442 640q0 30 20.5 51t49.5 21q30 0 51 -21t21 -51q0 -29 -21 -49.5t-51 -20.5q-29 0 -49.5 20.5t-20.5 49.5z" />
    <glyph glyph-name="f_f_j" unicode="ffj" horiz-adv-x="894" 
d="M353 712q16 0 24.5 -0.5l8.5 -0.5l-15 -107h-25q-51 0 -74.5 -21t-29.5 -64l-4 -29h198l5 34q15 98 74.5 143t149.5 45q16 0 24.5 -0.5l8.5 -0.5l-15 -107h-25q-51 0 -74.5 -21t-29.5 -64l-4 -29h312l-75 -532q-12 -83 -57 -123t-126 -40q-25 0 -42.5 1l-17.5 1l14 105
l16.5 -0.5t20.5 -0.5q37 0 55.5 16t24.5 56l57 411h-196l-55 -384h-114l53 384h-196l-55 -384h-114l54 384h-71l15 106h71l5 34q15 98 74.5 143t149.5 45zM753 640q0 30 21 51t50 21q30 0 51 -21t21 -51q0 -29 -21 -49.5t-51 -20.5q-29 0 -50 20.5t-21 49.5z" />
    <glyph glyph-name="f_k" unicode="fk" horiz-adv-x="866" 
d="M367 0l83 593h-104q-51 0 -75 -18t-29 -61l-4 -24h110l-15 -106h-109l-55 -384h-114l54 384h-71l15 106h71l4 30q15 98 75 139t150 41h227l-55 -396l193 186h151l-215 -205l153 -285h-131l-108 208l-66 -63l-21 -145h-114z" />
    <glyph glyph-name="f_f_k" unicode="ffk" horiz-adv-x="1178" 
d="M679 0l83 593h-104q-51 0 -75 -18t-29 -61l-4 -24h110l-15 -106h-109l-55 -384h-114l53 384h-196l-55 -384h-114l54 384h-71l15 106h71l5 34q15 98 74.5 143t149.5 45q16 0 24.5 -0.5l8.5 -0.5l-15 -107h-25q-51 0 -74.5 -21t-29.5 -64l-4 -29h198l4 30q15 98 75 139
t150 41h227l-56 -396l194 186h151l-215 -205l153 -285h-131l-108 208l-67 -63l-20 -145h-114z" />
    <glyph glyph-name="f_f_t" unicode="fft" horiz-adv-x="982" 
d="M839 -2q-81 0 -114 46t-22 127l30 213h-197l-55 -384h-114l53 384h-196l-55 -384h-114l54 384h-71l15 106h71l5 34q15 98 74.5 143t149.5 45q16 0 24.5 -0.5l8.5 -0.5l-15 -107h-25q-51 0 -74.5 -21t-29.5 -64l-4 -29h198l5 34q15 98 74.5 143t149.5 45q16 0 24.5 -0.5
l8.5 -0.5l-15 -107h-25q-51 0 -74.5 -21t-29.5 -64l-4 -29h198l19 137h114l-19 -137h111l-15 -106h-111l-30 -210q-5 -40 8.5 -55t51.5 -15h7.5t14 0.5t13 0.5h5.5l-14 -105l-19.5 -1t-44.5 -1z" />
    <glyph glyph-name="t_t" unicode="tt" horiz-adv-x="674" 
d="M395 171l30 213h-198l-30 -213q-5 -37 9 -52t51 -15h8t14 0.5t13 0.5h6l-15 -105l-19.5 -1t-44.5 -1q-81 0 -114 46t-22 127l30 213h-70l15 106h70l20 137h114l-20 -137h198l20 137h114l-20 -137h111l-15 -106h-111l-30 -213q-5 -37 9 -52t51 -15h8t14 0.5t13 0.5h6
l-15 -105l-19.5 -1t-44.5 -1q-81 0 -114 46t-22 127z" />
    <glyph glyph-name="t_f" unicode="tf" horiz-adv-x="660" 
d="M83 171l30 213h-70l15 106h70l20 137h114l-20 -137h198l5 34q15 98 74.5 143t149.5 45q16 0 24.5 -0.5l8.5 -0.5l-15 -107h-25q-51 0 -74.5 -21t-28.5 -64l-4 -29h109l-15 -106h-109l-55 -384h-114l54 384h-198l-30 -213q-5 -37 9 -52t51 -15h8t14 0.5t13 0.5h6l-15 -105
l-19.5 -1t-44.5 -1q-81 0 -114 46t-22 127z" />
    <glyph glyph-name=".notdef" horiz-adv-x="625" 
d="M311 202q13 0 21.5 -9t8.5 -22t-8.5 -22.5t-21.5 -9.5t-22 9.5t-9 22.5t9 22t22 9zM320 153h8l-9 13q4 1 6 4.5t2 7.5q0 5 -3.5 8.5t-9.5 3.5h-17v-37h8v12h7zM163 400q7 -12 3 -25.5t-16 -20.5q-13 -7 -26.5 -4t-20.5 16t-3 26t16 20q13 7 26.5 4t20.5 -16zM312 184
q4 0 6 -2t2 -4q0 -4 -2 -5.5t-6 -1.5h-7v13h7zM278 412q10 6 21 4t21 -10l-29 -92q-4 4 -7.5 9t-7.5 11q-14 25 -14.5 46.5t16.5 31.5zM332 394q4 -4 7.5 -9t6.5 -11q14 -25 14.5 -46.5t-15.5 -31.5q-10 -5 -20.5 -3.5t-20.5 9.5zM312 684l285 -164v-328l-285 -164l-284 164
v328zM326 561v-75h8v34h36v8h-36v25h39v8h-47zM248 561v-8h23v-67h8v67h24v8h-55zM145 259l89 51l-8 15l-68 -40l20 69q4 15 5 28.5t-6 26.5q-10 18 -30 22.5t-39 -5.5q-18 -10 -23.5 -30t4.5 -38t29.5 -23.5t35.5 4.5l4 3l-20 -70zM311 130q16 0 28 12t12 29q0 16 -12 28
t-28 12q-17 0 -28.5 -12t-11.5 -28q0 -17 11.5 -29t28.5 -12zM353 282q26 16 25 45t-17 56q-16 28 -40.5 43t-50.5 0t-25.5 -44t16.5 -56q16 -28 40.5 -43.5t51.5 -0.5zM511 281q24 13 28.5 35t-6.5 40q-12 22 -33 25.5t-37 -6.5q-9 -5 -14.5 -12t-8.5 -15l-26 46l63 37
l-8 14l-78 -45l47 -82l14 8q-1 9 3 18.5t15 15.5q13 7 27 4t22 -16q7 -15 3 -29.5t-18 -22.5q-12 -7 -22.5 -6.5t-20.5 5.5l-5 -17q11 -4 25.5 -5t29.5 8z" />
    <glyph glyph-name=".null" horiz-adv-x="0" 
 />
    <glyph glyph-name="nonmarkingreturn" horiz-adv-x="333" 
 />
    <glyph glyph-name="NULL" horiz-adv-x="0" 
 />
    <glyph glyph-name="NULL" horiz-adv-x="0" 
 />
    <glyph glyph-name="space" unicode=" " horiz-adv-x="291" 
 />
    <glyph glyph-name="exclam" unicode="!" horiz-adv-x="315" 
d="M85 220l68 480h118l-67 -480h-119zM47 64q0 31 21.5 53.5t52.5 22.5t53.5 -22.5t22.5 -53.5t-22.5 -53t-53.5 -22t-52.5 22t-21.5 53z" />
    <glyph glyph-name="quotedbl" unicode="&#x22;" horiz-adv-x="450" 
d="M119 700h114l-37 -265h-114zM319 700h113l-37 -265h-113z" />
    <glyph glyph-name="numbersign" unicode="#" horiz-adv-x="806" 
d="M52 284h136l57 134h-122l14 107h153l76 175h118l-76 -175h148l74 175h120l-76 -175h107l-15 -107h-136l-57 -134h122l-16 -108h-151l-74 -176h-120l76 176h-149l-75 -176h-119l76 176h-107zM364 418l-57 -134h147l58 134h-148z" />
    <glyph glyph-name="dollar" unicode="$" horiz-adv-x="646" 
d="M447 815l-16 -110q62 -12 108.5 -41t74.5 -64l-88 -80q-19 23 -47.5 42.5t-62.5 29.5l-27 -187q97 -18 146.5 -69t49.5 -126q0 -90 -68.5 -151t-185.5 -69l-14 -104h-95l15 108q-72 10 -127.5 45.5t-89.5 81.5l88 79q25 -34 61.5 -59.5t82.5 -35.5l28 200l-8 2
q-81 16 -131.5 63.5t-50.5 125.5q0 49 20.5 87.5t54.5 66t78.5 43t93.5 18.5l15 104h95zM465 204q0 31 -23.5 51.5t-68.5 31.5l-26 -186q52 7 85 34.5t33 68.5zM211 503q0 -31 21.5 -50.5t64.5 -29.5l25 177q-49 -5 -80 -31.5t-31 -65.5z" />
    <glyph glyph-name="percent" unicode="%" horiz-adv-x="782" 
d="M100 558q0 65 47 109.5t112 44.5q56 0 91.5 -38t35.5 -91q0 -64 -46.5 -109t-109.5 -45q-58 0 -94 37.5t-36 91.5zM192 563q0 -20 13 -33t32 -13q22 0 39.5 16.5t17.5 43.5q0 22 -13.5 34.5t-29.5 12.5q-22 0 -40.5 -16.5t-18.5 -44.5zM430 120q0 65 47 109t113 44
q56 0 91 -37.5t35 -90.5q0 -64 -46 -109.5t-110 -45.5q-57 0 -93.5 38t-36.5 92zM523 125q0 -21 13 -33.5t31 -12.5q22 0 39.5 16.5t17.5 43.5q0 21 -13.5 33.5t-29.5 12.5q-22 0 -40 -16t-18 -44zM82 0l529 700h123l-528 -700h-124z" />
    <glyph glyph-name="ampersand" unicode="&#x26;" horiz-adv-x="694" 
d="M471 0l-36 54q-43 -34 -91.5 -49.5t-101.5 -15.5t-92.5 17t-65.5 44t-38.5 61t-12.5 67q0 69 41 121.5t112 90.5l27 14q-23 37 -36 70.5t-13 67.5q0 74 54.5 122t145.5 48q75 0 120 -44.5t45 -104.5t-35 -100.5t-94 -75.5l-29 -16l91 -138q20 29 37 59.5t31 67.5h118
q-20 -57 -51.5 -115.5t-75.5 -108.5l85 -136h-135zM254 95q30 0 63 12t61 37l-109 172l-16 -9q-48 -25 -74 -52.5t-26 -68.5q0 -37 25.5 -64t75.5 -27zM285 538q0 -16 6 -34.5t19 -38.5l7 -11l24 13q29 17 51 37t22 48q0 23 -16 38t-44 15q-31 0 -50 -18t-19 -49z" />
    <glyph glyph-name="quotesingle" unicode="'" horiz-adv-x="251" 
d="M119 700h114l-37 -265h-114z" />
    <glyph glyph-name="parenleft" unicode="(" horiz-adv-x="378" 
d="M426 648q-104 -93 -169.5 -209.5t-65.5 -255.5q0 -88 28 -169t88 -150l-83 -69q-29 32 -56.5 74t-48 90.5t-33 104.5t-12.5 117q0 82 21 158.5t58 144.5t88.5 129t113.5 112z" />
    <glyph glyph-name="parenright" unicode=")" horiz-adv-x="378" 
d="M-38 -128q104 93 169.5 209.5t65.5 255.5q0 88 -28.5 169t-88.5 150l83 69q29 -32 56.5 -74t48 -90.5t33 -104.5t12.5 -117q0 -82 -21 -158.5t-58 -144.5t-88.5 -129t-113.5 -112z" />
    <glyph glyph-name="asterisk" unicode="*" horiz-adv-x="470" 
d="M112 481l87 92l-109 27l32 92l112 -37l10 118h100l-21 -118l116 33l20 -94l-121 -24l66 -93l-84 -59l-56 101l-77 -101z" />
    <glyph glyph-name="plus" unicode="+" horiz-adv-x="617" 
d="M68 299h191l26 191h108l-27 -191h192l-15 -106h-192l-27 -193h-108l27 193h-190z" />
    <glyph glyph-name="comma" unicode="," horiz-adv-x="291" 
d="M65 -133h-117l131 251h137z" />
    <glyph glyph-name="hyphen" unicode="-" horiz-adv-x="291" 
d="M17 209l14 104h249l-15 -104h-248z" />
    <glyph glyph-name="period" unicode="." horiz-adv-x="291" 
d="M41 65q0 31 22 53t53 22t53.5 -22t22.5 -53t-22.5 -53t-53.5 -22t-53 22t-22 53z" />
    <glyph glyph-name="slash" unicode="/" horiz-adv-x="552" 
d="M101 -93h-123l473 843h123z" />
    <glyph glyph-name="zero" unicode="0" horiz-adv-x="636" 
d="M472 428q0 80 -29.5 127t-88.5 47q-56 0 -93 -35t-58.5 -85t-30 -107t-8.5 -100q0 -81 29.5 -128.5t89.5 -47.5q54 0 90.5 36.5t58.5 88t31 108t9 96.5zM364 712q56 0 98.5 -22t71 -59.5t43 -89.5t14.5 -111q0 -73 -18.5 -151.5t-57 -142.5t-99 -105.5t-143.5 -41.5
q-57 0 -100 21.5t-71.5 59.5t-43 89.5t-14.5 111.5q0 75 19 153.5t58 142t99.5 104.5t143.5 41z" />
    <glyph glyph-name="one" unicode="1" horiz-adv-x="541" 
d="M23 111h174l61 433q-32 -21 -80.5 -34t-99.5 -13l15 107q26 1 55 6.5t56 17t50.5 29.5t39.5 43h106l-83 -589h166l-15 -111h-460z" />
    <glyph glyph-name="two" unicode="2" horiz-adv-x="590" 
d="M156 111h353l-15 -111h-488l3 23q15 115 74.5 199.5t199.5 147.5l34 15q61 28 92.5 58t31.5 77q0 37 -28.5 59.5t-76.5 22.5q-57 0 -103.5 -32t-76.5 -83l-70 82q42 63 109.5 103t151.5 40q43 0 82 -12.5t68.5 -36.5t47 -59.5t17.5 -81.5q0 -88 -53.5 -141.5
t-147.5 -97.5l-63 -30q-57 -27 -93.5 -60.5t-48.5 -81.5z" />
    <glyph glyph-name="three" unicode="3" horiz-adv-x="568" 
d="M415 359q33 -18 59.5 -56.5t26.5 -90.5q0 -55 -22 -97t-59 -70t-87 -42t-106 -14q-69 0 -129.5 29t-100.5 83l87 76q28 -40 67 -59t86 -19q28 0 54.5 7t46 21.5t31.5 36t12 49.5q0 43 -36.5 65t-99.5 22h-56l16 112h45q78 0 117.5 31t39.5 80q0 39 -29.5 59t-69.5 20
q-46 0 -85.5 -18t-73.5 -53l-67 79q46 44 106 73t129 29q42 0 80.5 -12t67.5 -34.5t46.5 -56t17.5 -76.5q0 -35 -11 -63t-27.5 -49.5t-36.5 -36.5t-39 -25z" />
    <glyph glyph-name="four" unicode="4" horiz-adv-x="610" 
d="M556 160h-101l-22 -160h-119l22 160h-318l13 99l375 441h126l-62 -433h101zM161 267h190l38 268z" />
    <glyph glyph-name="five" unicode="5" horiz-adv-x="587" 
d="M420 241q0 50 -32.5 80.5t-83.5 30.5q-40 0 -75 -20t-54 -52h-110l76 420h409l-15 -111h-299l-32 -171q24 17 54 28.5t73 11.5q42 0 80.5 -14.5t67 -41.5t45.5 -66t17 -86q0 -57 -22 -105t-61.5 -82.5t-94 -54t-119.5 -19.5q-73 0 -128 30.5t-90 81.5l91 79
q23 -35 59 -58t87 -23q31 0 59.5 10t50 28.5t34.5 45t13 58.5z" />
    <glyph glyph-name="six" unicode="6" horiz-adv-x="612" 
d="M282 -11q-107 0 -172.5 77.5t-65.5 214.5q0 94 25 174t70 136.5t108 88.5t138 32q66 0 114.5 -28.5t76.5 -67.5l-87 -78q-17 28 -48.5 46t-74.5 18q-71 0 -127.5 -61.5t-70.5 -160.5q32 39 77.5 60t95.5 21q43 0 81.5 -15.5t66.5 -43t44.5 -66.5t16.5 -86q0 -61 -23 -110
t-60 -82t-85.5 -51t-99.5 -18zM322 353q-28 0 -53.5 -10.5t-45.5 -29t-32 -45t-12 -58.5q0 -48 30.5 -79.5t79.5 -31.5q26 0 52 10t45.5 28.5t32 45.5t12.5 61q0 50 -31.5 79.5t-77.5 29.5z" />
    <glyph glyph-name="seven" unicode="7" horiz-adv-x="559" 
d="M69 469l32 231h493l-15 -104q-122 -117 -202 -256.5t-117 -299.5l-9 -40h-120l9 39q38 166 111.5 305t179.5 245h-231l-17 -120h-114z" />
    <glyph glyph-name="eight" unicode="8" horiz-adv-x="595" 
d="M251 -11q-93 0 -154 52t-61 136q0 37 13 68.5t32 55t42 39.5t43 24q-24 16 -46.5 49t-22.5 80q0 50 20.5 90.5t55 69t80.5 44t96 15.5q87 0 145 -52.5t58 -134.5q0 -34 -11 -61.5t-27 -48t-35.5 -35t-35.5 -23.5q28 -14 55 -52.5t27 -89.5q0 -52 -21 -94t-58 -71t-87 -45
t-108 -16zM296 305q-57 0 -98 -31t-41 -85q0 -43 31.5 -66.5t78.5 -23.5q57 0 98 30.5t41 84.5q0 43 -30.5 67t-79.5 24zM338 602q-20 0 -42 -6.5t-39.5 -19.5t-29 -33.5t-11.5 -48.5q0 -39 28 -60.5t67 -21.5q46 0 83 28t37 79q0 42 -29.5 62.5t-63.5 20.5z" />
    <glyph glyph-name="nine" unicode="9" horiz-adv-x="611" 
d="M329 712q108 0 173 -77.5t65 -214.5q0 -94 -25 -174t-70 -136.5t-108 -88.5t-138 -32q-66 0 -114.5 28.5t-76.5 67.5l87 78q17 -28 48.5 -46t74.5 -18q71 0 127.5 61.5t70.5 160.5q-32 -39 -77.5 -60t-95.5 -21q-43 0 -81.5 15.5t-66.5 43t-44.5 66.5t-16.5 86
q0 61 23 110t60 82t85.5 51t99.5 18zM289 348q28 0 54 10.5t45.5 29t31.5 45t12 58.5q0 48 -30 79.5t-79 31.5q-27 0 -52.5 -10t-45.5 -28.5t-32 -45.5t-12 -61q0 -50 31 -79.5t77 -29.5z" />
    <glyph glyph-name="colon" unicode=":" horiz-adv-x="291" 
d="M41 64q0 31 22 53.5t53 22.5t53.5 -22.5t22.5 -53.5t-22.5 -53t-53.5 -22t-53 22t-22 53zM92 426q0 31 21.5 53.5t52.5 22.5t54 -22.5t23 -53.5t-23 -53t-54 -22t-52.5 22t-21.5 53z" />
    <glyph glyph-name="semicolon" unicode=";" horiz-adv-x="291" 
d="M95 426q0 31 22 53.5t53 22.5t53.5 -22.5t22.5 -53.5t-22.5 -53t-53.5 -22t-53 22t-22 53zM59 -133h-117l131 251h137z" />
    <glyph glyph-name="less" unicode="&#x3c;" horiz-adv-x="619" 
d="M43 184l17 122l526 196l-17 -121l-386 -138l347 -138l-16 -116z" />
    <glyph glyph-name="equal" unicode="=" horiz-adv-x="635" 
d="M76 306l16 106h490l-16 -106h-490zM48 104l15 106h490l-15 -106h-490z" />
    <glyph glyph-name="greater" unicode="&#x3e;" horiz-adv-x="619" 
d="M576 307l-17 -122l-526 -196l18 121l385 138l-347 138l17 116z" />
    <glyph glyph-name="question" unicode="?" horiz-adv-x="550" 
d="M296 220h-118l25 172l38 1q75 1 121.5 37t46.5 87q0 37 -28 61t-72 24q-53 0 -95 -25t-74 -68l-66 83q44 54 108.5 87t139.5 33q44 0 82 -15t65.5 -40.5t43.5 -61t16 -76.5q0 -87 -61 -147.5t-161 -74.5zM143 65q0 31 21.5 53t52.5 22t53.5 -22t22.5 -53t-22.5 -53
t-53.5 -22t-52.5 22t-21.5 53z" />
    <glyph glyph-name="at" unicode="@" horiz-adv-x="1069" 
d="M390 220q0 -52 27.5 -90t81.5 -38q34 0 62.5 14.5t48 39t30.5 56t11 65.5q0 52 -27.5 89.5t-81.5 37.5q-35 0 -63 -14.5t-48 -38.5t-30.5 -55.5t-10.5 -65.5zM654 59q-29 -28 -73 -49t-102 -21q-47 0 -85 17.5t-65 47.5t-42 71.5t-15 89.5q0 61 21.5 113.5t58 91
t86.5 60.5t106 22q46 0 80 -16t55 -42l7 46h111l-48 -337q-4 -28 2.5 -48.5t34.5 -20.5q24 0 47.5 19t41 51t28.5 74t11 88q0 65 -19.5 120.5t-59 96t-99.5 64t-140 23.5q-90 0 -170 -30.5t-139.5 -85.5t-94.5 -132.5t-35 -169.5q0 -71 25 -129.5t70.5 -99.5t111 -63.5
t146.5 -22.5q60 0 104.5 8t92.5 22l-13 -92q-43 -13 -92 -21.5t-109 -8.5q-100 0 -181 30t-137.5 83t-87 127t-30.5 162q0 117 43 212.5t117 162.5t174.5 103.5t213.5 36.5q95 0 171.5 -29.5t129.5 -81.5t81.5 -123.5t28.5 -154.5q0 -74 -21.5 -136t-57.5 -105.5t-83 -68
t-97 -24.5q-43 0 -68 19.5t-35 50.5z" />
    <glyph glyph-name="A" unicode="A" horiz-adv-x="700" 
d="M464 700l174 -700h-121l-39 147h-299l-79 -147h-129l373 700h120zM384 540l-148 -285h218z" />
    <glyph glyph-name="B" unicode="B" horiz-adv-x="679" 
d="M27 0l99 700h291q98 0 158 -48t60 -130q0 -53 -28.5 -96t-77.5 -68q40 -25 59.5 -61t19.5 -76q0 -103 -74.5 -162t-195.5 -59h-311zM161 111h174q67 0 110 27t43 83q0 43 -34 63.5t-87 20.5h-179zM391 589h-163l-25 -180h165q67 0 105 26.5t38 75.5q0 42 -31.5 60
t-88.5 18z" />
    <glyph glyph-name="C" unicode="C" horiz-adv-x="719" 
d="M585 200l70 -88q-57 -58 -132 -90.5t-167 -32.5q-72 0 -131 24.5t-100 68t-64 103t-23 128.5q0 88 32 162t87.5 126.5t130 81.5t159.5 29q87 0 152 -35t108 -92l-90 -80q-31 43 -76.5 69t-108.5 26q-50 0 -99 -20.5t-86.5 -57t-61 -89.5t-23.5 -117q0 -98 58 -156.5
t149 -58.5q62 0 117 25t99 74z" />
    <glyph glyph-name="D" unicode="D" horiz-adv-x="719" 
d="M27 0l99 700h214q65 0 126.5 -17.5t109.5 -55t77 -96.5t29 -140q0 -109 -40 -184.5t-102.5 -121t-141.5 -65.5t-157 -20h-214zM320 589h-92l-67 -478h87q62 0 118.5 15t99 48.5t68 86t25.5 127.5q0 55 -19 93.5t-51.5 62t-76 34.5t-92.5 11z" />
    <glyph glyph-name="E" unicode="E" horiz-adv-x="634" 
d="M27 0l99 700h493l-16 -111h-375l-24 -177h360l-16 -109h-360l-27 -192h375l-16 -111h-493z" />
    <glyph glyph-name="F" unicode="F" horiz-adv-x="577" 
d="M146 0h-119l99 700h464l-16 -111h-346l-25 -185h322l-15 -110h-323z" />
    <glyph glyph-name="G" unicode="G" horiz-adv-x="744" 
d="M432 600q-50 0 -99 -20.5t-86.5 -57t-61 -89t-23.5 -116.5q0 -96 58 -156t149 -60q46 0 90.5 14.5t81.5 42.5l14 105h-161l16 110h278l-39 -271q-54 -51 -130 -82t-163 -31q-71 0 -129.5 25.5t-100.5 69.5t-65 103.5t-23 127.5q0 89 33 162.5t89 125.5t130.5 80.5
t156.5 28.5q88 0 152.5 -34t108.5 -91l-88 -79q-32 45 -78.5 68.5t-109.5 23.5z" />
    <glyph glyph-name="H" unicode="H" horiz-adv-x="713" 
d="M475 0l43 303h-330l-42 -303h-119l99 700h119l-41 -287h329l41 287h119l-99 -700h-119z" />
    <glyph glyph-name="I" unicode="I" horiz-adv-x="265" 
d="M27 0l99 700h119l-99 -700h-119z" />
    <glyph glyph-name="J" unicode="J" horiz-adv-x="513" 
d="M-9 97l88 75q19 -34 47 -53.5t68 -19.5q52 0 83.5 34t39.5 92l66 475h120l-68 -483q-15 -103 -77 -165.5t-173 -62.5q-64 0 -115 30t-79 78z" />
    <glyph glyph-name="K" unicode="K" horiz-adv-x="645" 
d="M27 0l99 700h119l-47 -330l310 330h147l-285 -302l203 -398h-130l-159 310l-111 -117l-27 -193h-119z" />
    <glyph glyph-name="L" unicode="L" horiz-adv-x="554" 
d="M27 0l99 700h119l-84 -589h329l-15 -111h-448z" />
    <glyph glyph-name="M" unicode="M" horiz-adv-x="818" 
d="M329 147l-119 308l-64 -455h-119l99 700h114l158 -419l278 419h122l-99 -700h-119l65 455l-206 -308h-110z" />
    <glyph glyph-name="N" unicode="N" horiz-adv-x="733" 
d="M476 0l-257 523l-73 -523h-119l99 700h138l255 -525l74 525h120l-99 -700h-138z" />
    <glyph glyph-name="O" unicode="O" horiz-adv-x="798" 
d="M38 311q0 87 33.5 160.5t89 127t130.5 83.5t157 30q68 0 125.5 -25t99 -68t64.5 -102t23 -127q0 -86 -32.5 -159.5t-87.5 -127t-129.5 -84t-158.5 -30.5q-68 0 -126 25t-99.5 68.5t-65 102.5t-23.5 126zM162 317q0 -45 13.5 -84.5t39.5 -68.5t64 -46t87 -17
q59 0 109.5 23t86.5 61.5t56.5 90t20.5 107.5q0 45 -14 85t-40 69t-64 46t-85 17q-60 0 -110.5 -23t-86.5 -62t-56.5 -90.5t-20.5 -107.5z" />
    <glyph glyph-name="P" unicode="P" horiz-adv-x="636" 
d="M328 237h-149l-33 -237h-119l99 700h268q108 0 172 -59.5t64 -150.5q0 -59 -22 -106t-61.5 -79.5t-95.5 -50t-123 -17.5zM372 589h-143l-34 -242h137q82 0 130 35.5t48 103.5q0 50 -37.5 76.5t-100.5 26.5z" />
    <glyph glyph-name="Q" unicode="Q" horiz-adv-x="798" 
d="M38 311q0 87 33.5 160.5t89 127t130.5 83.5t157 30q68 0 125.5 -25t99 -68t64.5 -102t23 -127q0 -78 -27.5 -146.5t-73.5 -119.5l64 -75l-82 -71l-66 75q-47 -31 -104.5 -47.5t-118.5 -16.5q-68 0 -126 25t-99.5 68.5t-65 102.5t-23.5 126zM162 317q0 -45 13.5 -84.5
t39.5 -68.5t64 -46t87 -17q38 0 72 10t64 28l-75 87l83 72l73 -85q26 36 41 79.5t15 90.5q0 45 -14 85t-40 69t-64 46t-85 17q-60 0 -110.5 -23t-86.5 -62t-56.5 -90.5t-20.5 -107.5z" />
    <glyph glyph-name="R" unicode="R" horiz-adv-x="666" 
d="M443 0l-119 238h-145l-33 -238h-119l99 700h268q105 0 171 -57t66 -153q0 -87 -49.5 -148t-133.5 -86l128 -256h-133zM376 589h-147l-34 -241h141q83 0 128.5 37t45.5 100q0 50 -36 77t-98 27z" />
    <glyph glyph-name="S" unicode="S" horiz-adv-x="642" 
d="M359 290l-87 17q-81 16 -131.5 63.5t-50.5 125.5q0 52 23 92.5t60.5 67.5t86.5 41.5t101 14.5q88 0 152.5 -33.5t100.5 -78.5l-88 -80q-28 34 -73.5 58t-104.5 24q-60 0 -98.5 -27.5t-38.5 -71.5q0 -34 27 -54t80 -30l70 -13q98 -18 147.5 -69t49.5 -127q0 -97 -78 -159
t-211 -62q-94 0 -164.5 39t-111.5 93l88 79q32 -43 83 -72t118 -29q68 0 112 28.5t44 76.5q0 33 -27.5 54.5t-78.5 31.5z" />
    <glyph glyph-name="T" unicode="T" horiz-adv-x="598" 
d="M81 700h538l-16 -111h-210l-83 -589h-119l83 589h-208z" />
    <glyph glyph-name="U" unicode="U" horiz-adv-x="692" 
d="M504 294l58 406h119l-57 -408q-20 -144 -101.5 -223.5t-213.5 -79.5q-116 0 -184.5 69.5t-68.5 186.5q0 15 1 32t3 33l56 390h119l-57 -408q-1 -10 -2.5 -21.5t-1.5 -21.5q0 -65 35 -107.5t107 -42.5q86 0 131 54t57 141z" />
    <glyph glyph-name="V" unicode="V" horiz-adv-x="635" 
d="M291 152l261 548h127l-344 -700h-126l-146 700h118z" />
    <glyph glyph-name="W" unicode="W" horiz-adv-x="926" 
d="M635 197l197 503h132l-289 -700h-125l-61 508l-207 -508h-125l-91 700h125l56 -503l199 503h131z" />
    <glyph glyph-name="X" unicode="X" horiz-adv-x="662" 
d="M343 456l189 244h147l-272 -341l186 -359h-136l-131 261l-204 -261h-146l285 359l-173 341h137z" />
    <glyph glyph-name="Y" unicode="Y" horiz-adv-x="606" 
d="M191 700l116 -313l203 313h135l-293 -440l-37 -260h-119l37 260l-168 440h126z" />
    <glyph glyph-name="Z" unicode="Z" horiz-adv-x="641" 
d="M115 700h520l-15 -106l-436 -483h373l-15 -111h-529l15 106l435 483h-365z" />
    <glyph glyph-name="bracketleft" unicode="[" horiz-adv-x="369" 
d="M40 -194l126 894h262l-15 -107h-146l-96 -680h146l-15 -107h-262z" />
    <glyph glyph-name="backslash" unicode="\" horiz-adv-x="417" 
d="M150 750l237 -843h-120l-237 843h120z" />
    <glyph glyph-name="bracketright" unicode="]" horiz-adv-x="369" 
d="M323 700l-126 -894h-262l15 107h146l96 680h-146l15 107h262z" />
    <glyph glyph-name="asciicircum" unicode="^" horiz-adv-x="636" 
d="M414 427l166 -363h-120l-114 249l-183 -249h-125l266 363h110z" />
    <glyph glyph-name="underscore" unicode="_" horiz-adv-x="528" 
d="M7 -194l15 104h456l-15 -104h-456z" />
    <glyph glyph-name="grave" unicode="`" horiz-adv-x="500" 
d="M147 700h144l61 -138h-110z" />
    <glyph glyph-name="a" unicode="a" horiz-adv-x="587" 
d="M41 214q0 58 19 110.5t52.5 92t80 62.5t100.5 23q41 0 77.5 -15.5t61.5 -53.5l8 57h114l-69 -490h-114l7 47q-23 -25 -59.5 -41.5t-86.5 -16.5q-42 0 -77 17t-60.5 47t-39.5 71.5t-14 89.5zM158 219q0 -54 28 -90t77 -36q34 0 61.5 15t46.5 40t29 57t10 65q0 54 -29 91.5
t-75 37.5q-34 0 -61.5 -15t-46.5 -40t-29.5 -58t-10.5 -67z" />
    <glyph glyph-name="b" unicode="b" horiz-adv-x="607" 
d="M566 273q0 -62 -22 -114.5t-59 -90t-87.5 -58.5t-107.5 -21q-45 0 -81 17.5t-55 45.5l-8 -52h-112l99 700h114l-35 -251q25 22 60.5 37.5t81.5 15.5t85 -17.5t67 -48t44 -72.5t16 -91zM447 268q0 56 -30 92.5t-83 36.5q-66 0 -110.5 -50.5t-44.5 -124.5q0 -56 30.5 -92.5
t82.5 -36.5q66 0 110.5 51t44.5 124z" />
    <glyph glyph-name="c" unicode="c" horiz-adv-x="539" 
d="M415 160l64 -83q-40 -41 -92 -64.5t-120 -23.5q-50 0 -92 17.5t-71.5 48.5t-46 73.5t-16.5 92.5q0 60 22.5 111.5t61 89t91 59t111.5 21.5q63 0 112.5 -24.5t80.5 -67.5l-87 -75q-19 28 -47.5 43.5t-63.5 15.5q-33 0 -63 -13t-52 -36t-35 -54t-13 -67q0 -55 33 -91.5
t91 -36.5q40 0 72 16.5t60 47.5z" />
    <glyph glyph-name="d" unicode="d" horiz-adv-x="607" 
d="M41 217q0 64 22.5 117t60 90t87.5 57.5t106 20.5q47 0 81 -16.5t55 -42.5l36 257h115l-99 -700h-113l7 46q-28 -26 -67 -41.5t-84 -15.5t-83.5 17.5t-65.5 48.5t-42.5 72.5t-15.5 89.5zM160 222q0 -56 30 -92.5t82 -36.5q66 0 111.5 50.5t45.5 124.5q0 56 -30.5 92.5
t-83.5 36.5q-66 0 -110.5 -51t-44.5 -124z" />
    <glyph glyph-name="e" unicode="e" horiz-adv-x="551" 
d="M504 214h-346v-8q1 -48 30.5 -80t84.5 -32q39 0 73.5 16.5t63.5 46.5l68 -74q-38 -40 -91.5 -67t-126.5 -27q-99 0 -158.5 63t-59.5 162q0 60 20.5 112.5t56.5 91.5t85.5 61.5t108.5 22.5q52 0 90 -19t61.5 -49.5t35 -69t11.5 -78.5q0 -27 -3.5 -49.5zM302 399
q-49 0 -82.5 -29.5t-46.5 -71.5h223q1 44 -23.5 72.5t-70.5 28.5z" />
    <glyph glyph-name="f" unicode="f" horiz-adv-x="344" 
d="M353 712q16 0 24.5 -0.5l8.5 -0.5l-15 -107h-25q-51 0 -74.5 -21t-29.5 -64l-4 -29h110l-15 -106h-109l-55 -384h-114l54 384h-71l15 106h71l5 34q15 98 74.5 143t149.5 45z" />
    <glyph glyph-name="g" unicode="g" horiz-adv-x="594" 
d="M9 -102l87 74q16 -28 48 -49.5t81 -21.5q66 0 107.5 37.5t49.5 96.5l3 26q-26 -26 -62.5 -38t-79.5 -12q-44 0 -81 17t-63.5 46t-41.5 69.5t-15 86.5q0 65 23.5 116t61 85.5t85 52.5t94.5 18q41 0 77 -15.5t58 -45.5l7 49h113l-64 -456q-16 -110 -90.5 -174.5
t-192.5 -64.5q-44 0 -79 11.5t-60 27.5t-41.5 34t-24.5 30zM160 236q0 -54 30.5 -87t78.5 -33q29 0 56 12t47.5 33t32.5 51t12 65q0 54 -30.5 87t-79.5 33q-29 0 -56 -12t-47 -33t-32 -51t-12 -65z" />
    <glyph glyph-name="h" unicode="h" horiz-adv-x="570" 
d="M247 700l-36 -251q24 23 60 38t75 15q80 0 126 -49.5t46 -132.5q0 -12 -1.5 -24t-2.5 -25l-38 -271h-116l40 281q1 6 1.5 12.5t0.5 12.5q0 41 -21 65t-64 24q-59 0 -92 -41.5t-43 -109.5l-34 -244h-114l99 700h114z" />
    <glyph glyph-name="i" unicode="i" horiz-adv-x="259" 
d="M38 0l69 490h115l-69 -490h-115zM114 640q0 30 20.5 51t49.5 21q30 0 51 -21t21 -51q0 -29 -21 -49.5t-51 -20.5q-29 0 -49.5 20.5t-20.5 49.5z" />
    <glyph glyph-name="j" unicode="j" horiz-adv-x="267" 
d="M47 -27l73 517h115l-76 -532q-11 -83 -56.5 -123t-125.5 -40q-25 0 -42.5 1l-17.5 1l14 105l16.5 -0.5t19.5 -0.5q37 0 56 16t24 56zM126 640q0 30 20.5 51t50.5 21q29 0 50.5 -21t21.5 -51q0 -29 -21.5 -49.5t-50.5 -20.5q-30 0 -50.5 20.5t-20.5 49.5z" />
    <glyph glyph-name="k" unicode="k" horiz-adv-x="533" 
d="M34 0l99 700h114l-56 -396l194 186h151l-215 -205l153 -285h-131l-108 208l-67 -63l-20 -145h-114z" />
    <glyph glyph-name="l" unicode="l" horiz-adv-x="253" 
d="M34 0l99 700h114l-99 -700h-114z" />
    <glyph glyph-name="m" unicode="m" horiz-adv-x="857" 
d="M215 490l-6 -44q22 22 56 39t75 17q45 0 77.5 -21t49.5 -53q30 35 72 54.5t88 19.5q86 0 131 -49.5t45 -130.5q0 -12 -1 -24.5t-2 -25.5l-38 -272h-115l40 284q1 7 1.5 13.5t0.5 13.5q0 40 -19 62t-58 22q-49 0 -80 -34.5t-40 -95.5l-37 -265h-115l40 282q1 7 1 14.5
v14.5q0 40 -18.5 62t-55.5 22q-51 0 -82.5 -38t-40.5 -102l-36 -255h-114l69 490h112z" />
    <glyph glyph-name="n" unicode="n" horiz-adv-x="570" 
d="M215 490l-6 -44q24 24 61 40t76 16q80 0 126 -49.5t46 -132.5q0 -12 -1.5 -24t-2.5 -25l-38 -271h-116l40 281q1 6 1.5 12.5t0.5 12.5q0 41 -21 65t-64 24q-59 0 -92 -41.5t-43 -109.5l-34 -244h-114l69 490h112z" />
    <glyph glyph-name="o" unicode="o" horiz-adv-x="596" 
d="M41 219q0 60 22.5 112.5t61.5 90t91.5 59t111.5 21.5q51 0 93 -18.5t71.5 -50t46 -74t16.5 -89.5q0 -61 -22.5 -112.5t-61.5 -89t-91.5 -58.5t-111.5 -21q-50 0 -92 18t-72 49t-46.5 73.5t-16.5 89.5zM159 224q0 -55 33.5 -91.5t86.5 -36.5q66 0 112 49t46 121
q0 55 -33 91.5t-87 36.5q-66 0 -112 -49t-46 -121z" />
    <glyph glyph-name="p" unicode="p" horiz-adv-x="608" 
d="M566 276q0 -63 -22 -116.5t-59 -91t-86.5 -58.5t-105.5 -21q-46 0 -80 15.5t-57 44.5l-35 -243h-114l96 684h112l-6 -46q28 26 66.5 42t83.5 16q46 0 84 -17.5t65 -47.5t42.5 -71.5t15.5 -89.5zM447 268q0 56 -30 92.5t-82 36.5q-66 0 -111.5 -50.5t-45.5 -124.5
q0 -56 31 -92.5t83 -36.5q66 0 110.5 51t44.5 124z" />
    <glyph glyph-name="q" unicode="q" horiz-adv-x="606" 
d="M41 216q0 66 23 119t60.5 90t87.5 57t104 20q29 0 53 -7.5t41.5 -17.5t28.5 -21t15 -18l7 52h112l-96 -684h-115l34 236q-25 -22 -62.5 -37.5t-83.5 -15.5q-91 0 -150 64t-59 163zM160 222q0 -56 30 -92.5t82 -36.5q66 0 111 50.5t45 124.5q0 56 -30.5 92.5t-82.5 36.5
q-66 0 -110.5 -51t-44.5 -124z" />
    <glyph glyph-name="r" unicode="r" horiz-adv-x="373" 
d="M385 496l-16 -110h-20q-69 0 -114 -42.5t-58 -136.5l-29 -207h-114l69 490h112l-7 -52q29 31 66 45t80 14q10 0 19 -0.5t12 -0.5z" />
    <glyph glyph-name="s" unicode="s" horiz-adv-x="486" 
d="M266 186l-54 13q-66 16 -104 52.5t-38 95.5q0 36 15.5 65t42 49t61.5 30.5t73 10.5q53 0 102.5 -20t84.5 -58l-78 -74q-18 19 -47.5 35.5t-69.5 16.5q-31 0 -50.5 -13t-19.5 -35q0 -16 12 -27t34 -16l62 -16q57 -14 99 -49t42 -98q0 -72 -56.5 -115.5t-152.5 -43.5
q-72 0 -127 29.5t-77 65.5l78 70q28 -35 64.5 -51t73.5 -16q36 0 59.5 14t23.5 38q0 16 -14 28t-39 19z" />
    <glyph glyph-name="t" unicode="t" horiz-adv-x="362" 
d="M219 -2q-81 0 -114 46t-22 127l30 213h-70l15 106h70l20 137h114l-20 -137h111l-15 -106h-111l-30 -213q-5 -37 9 -52t51 -15h8t14 0.5t13 0.5h6l-15 -105l-19.5 -1t-44.5 -1z" />
    <glyph glyph-name="u" unicode="u" horiz-adv-x="559" 
d="M345 0l6 43q-28 -27 -64.5 -40.5t-76.5 -13.5q-76 0 -117 46.5t-41 125.5q0 13 1 27t3 27l39 275h114l-39 -283q-1 -7 -1.5 -13.5t-0.5 -12.5q0 -40 20 -63t60 -23q57 0 87 39.5t40 107.5l35 248h116l-69 -490h-112z" />
    <glyph glyph-name="v" unicode="v" horiz-adv-x="506" 
d="M525 490l-248 -490h-119l-110 490h119l67 -342l164 342h127z" />
    <glyph glyph-name="w" unicode="w" horiz-adv-x="779" 
d="M211 150l141 340h134l47 -340l134 340h128l-211 -490h-129l-52 344l-149 -344h-130l-72 490h119z" />
    <glyph glyph-name="x" unicode="x" horiz-adv-x="515" 
d="M203 490l71 -148l115 148h137l-192 -238l134 -252h-128l-82 163l-127 -163h-137l204 252l-124 238h129z" />
    <glyph glyph-name="y" unicode="y" horiz-adv-x="544" 
d="M196 -194h-126l107 195l-125 489h123l82 -345l181 345h128z" />
    <glyph glyph-name="z" unicode="z" horiz-adv-x="506" 
d="M104 490h380l-13 -93l-275 -293h244l-14 -104h-399l13 93l271 294h-222z" />
    <glyph glyph-name="braceleft" unicode="{" horiz-adv-x="427" 
d="M324 513l-74 -523q-7 -46 14 -64t58 -18h48l-15 -105h-62q-88 0 -130 50t-29 139l28 207h-110l15 110h110l29 205q13 93 66.5 139.5t143.5 46.5h65l-15 -106h-50q-37 0 -61 -17.5t-31 -63.5z" />
    <glyph glyph-name="bar" unicode="|" horiz-adv-x="384" 
d="M71 -194l126 894h113l-126 -894h-113z" />
    <glyph glyph-name="braceright" unicode="}" horiz-adv-x="427" 
d="M113 -10l74 523q6 46 -15 64t-58 18h-47l14 105h63q87 0 129.5 -50t29.5 -139l-29 -206h111l-15 -109h-111l-29 -207q-13 -93 -66.5 -139.5t-143.5 -46.5h-65l15 106h51q37 0 61 17.5t31 63.5z" />
    <glyph glyph-name="asciitilde" unicode="~" horiz-adv-x="520" 
d="M375 336h92q-7 -66 -40.5 -108t-89.5 -42q-18 0 -33 4t-23 7l-63 24q-10 4 -19.5 6.5t-19.5 2.5q-17 0 -27 -11.5t-12 -30.5h-93q7 67 41 109t91 42q18 0 32.5 -4t22.5 -7l63 -24q10 -4 19.5 -7t19.5 -3q17 0 27 11.5t12 30.5z" />
    <glyph glyph-name="nbspace" unicode="&#xa0;" horiz-adv-x="291" 
 />
    <glyph glyph-name="exclamdown" unicode="&#xa1;" horiz-adv-x="315" 
d="M224 271l-65 -465h-119l65 465h119zM260 432q0 -32 -22.5 -54.5t-53.5 -22.5q-30 0 -50.5 21t-20.5 50q0 31 23 53.5t55 22.5q29 0 49 -20.5t20 -49.5z" />
    <glyph glyph-name="cent" unicode="&#xa2;" horiz-adv-x="539" 
d="M415 160l64 -83q-34 -35 -76 -57t-95 -29l-15 -105h-96l15 109q-78 17 -124.5 78.5t-46.5 147.5q0 54 18.5 101.5t51 84t77 61t95.5 31.5l15 105h96l-15 -107q45 -8 80.5 -30.5t60.5 -56.5l-87 -75q-13 19 -31 32.5t-39 20.5l-40 -287q26 6 48.5 21t43.5 38zM159 224
q0 -41 17.5 -72.5t51.5 -45.5l39 278q-47 -17 -77.5 -60.5t-30.5 -99.5z" />
    <glyph glyph-name="sterling" unicode="&#xa3;" horiz-adv-x="640" 
d="M444 311h-163l16 -199h152l17 123h107l-33 -235h-511l16 112h132l-16 199h-89l14 100h68q-1 7 -0.5 13.5t0.5 9.5q0 76 25.5 129.5t63.5 86t84.5 47.5t87.5 15q81 0 129.5 -33t73.5 -76l-91 -81q-18 31 -48 55.5t-74 24.5q-61 0 -96 -43t-35 -111q0 -6 -0.5 -16.5
t0.5 -20.5h183z" />
    <glyph glyph-name="currency" unicode="&#xa4;" horiz-adv-x="581" 
d="M80 222q0 34 11.5 64t30.5 58l-48 59l91 77l47 -57q24 12 49.5 19t52.5 7t51.5 -7t43.5 -19l64 57l69 -77l-65 -59q6 -16 10 -36.5t4 -39.5q0 -34 -12 -63.5t-31 -57.5l51 -58l-92 -78l-48 58q-24 -13 -49.5 -19.5t-52.5 -6.5q-26 0 -50.5 6.5t-43.5 18.5l-64 -57l-69 78
l64 58q-7 16 -10.5 36t-3.5 39zM192 235q0 -33 22 -57.5t58 -24.5q44 0 75.5 32t31.5 72q0 35 -21.5 60t-58.5 25q-45 0 -76 -32.5t-31 -74.5z" />
    <glyph glyph-name="yen" unicode="&#xa5;" horiz-adv-x="642" 
d="M525 124h-178l-17 -124h-119l18 124h-173l14 101h173l9 60h-173l14 101h126l-140 314h131l118 -302l198 302h129l-220 -314h126l-14 -101h-177l-8 -60h176z" />
    <glyph glyph-name="brokenbar" unicode="&#xa6;" horiz-adv-x="384" 
d="M71 -194l51 365h113l-51 -365h-113zM145 335l52 365h113l-52 -365h-113z" />
    <glyph glyph-name="section" unicode="&#xa7;" horiz-adv-x="631" 
d="M559 240q0 -50 -22.5 -90.5t-61.5 -74.5q15 -19 20.5 -41.5t5.5 -44.5q0 -39 -17 -74.5t-48 -62t-75.5 -42t-97.5 -15.5q-78 0 -134 35t-93 95l89 75q28 -51 66.5 -74t83.5 -23q50 0 78 21t28 52q0 29 -21 46.5t-59 31.5l-91 33q-67 24 -109 67.5t-42 110.5
q0 56 26.5 99.5t69.5 71.5q-11 17 -16.5 39.5t-5.5 44.5q0 41 17.5 76.5t47.5 61t71.5 40t90.5 14.5q75 0 126 -31.5t79 -74.5l-86 -75q-22 32 -54.5 52.5t-79.5 20.5q-40 0 -67.5 -21t-27.5 -52q0 -24 16.5 -42.5t54.5 -34.5l73 -30q76 -31 120.5 -73t44.5 -111zM355 314
l-131 55q-19 -13 -32 -36.5t-13 -48.5q0 -28 19.5 -51t65.5 -42l135 -54q20 16 30.5 38t10.5 44q0 29 -20 52.5t-65 42.5z" />
    <glyph glyph-name="dieresis" unicode="&#xa8;" horiz-adv-x="500" 
d="M85 645q0 26 18.5 45.5t45.5 19.5t46.5 -19.5t19.5 -45.5q0 -27 -19.5 -46t-46.5 -19t-45.5 19t-18.5 46zM285 645q0 26 18.5 45.5t46.5 19.5q26 0 45.5 -19.5t19.5 -45.5q0 -27 -19.5 -46t-45.5 -19q-28 0 -46.5 19t-18.5 46z" />
    <glyph glyph-name="copyright" unicode="&#xa9;" horiz-adv-x="813" 
d="M48 314q0 84 33.5 157t89.5 126t131 84t157 31q68 0 126 -24.5t100 -68t65.5 -103.5t23.5 -131q0 -84 -33.5 -156.5t-89.5 -125.5t-131 -83.5t-157 -30.5q-68 0 -126 24t-100 67t-65.5 103t-23.5 131zM127 315q0 -53 17.5 -98.5t49.5 -79t77 -52.5t100 -19q66 0 125 25.5
t103 68.5t70 101.5t26 124.5q0 52 -17.5 97.5t-49.5 79t-77 53t-100 19.5q-66 0 -125.5 -25.5t-103.5 -69t-69.5 -102t-25.5 -123.5zM506 282l38 -76q-19 -20 -60 -38t-91 -18q-78 0 -127.5 52t-49.5 129q0 48 18.5 88.5t49.5 69t72.5 44.5t88.5 16q44 0 82 -18t61 -52
l-70 -61q-16 20 -36 31t-46 11q-49 0 -85 -37t-36 -88q0 -40 24 -68t67 -28q30 0 54 11.5t46 31.5z" />
    <glyph glyph-name="ordfeminine" unicode="&#xaa;" horiz-adv-x="442" 
d="M34 499q0 46 15.5 85.5t43 67.5t65 44t80.5 16q37 0 61.5 -12t40.5 -29l4 33h94l-51 -361h-94l5 32q-18 -16 -46 -28.5t-67 -12.5q-36 0 -64 13.5t-47.5 36t-29.5 52.5t-10 63zM130 508q0 -39 19 -65.5t59 -26.5q51 0 81.5 36t30.5 85q0 40 -21 66.5t-64 26.5t-74 -35.5
t-31 -86.5z" />
    <glyph glyph-name="guillemotleft" unicode="&#xab;" horiz-adv-x="613" 
d="M38 245l171 245h125l-178 -250l104 -240h-119zM300 245l171 245h125l-178 -250l104 -240h-119z" />
    <glyph glyph-name="logicalnot" unicode="&#xac;" horiz-adv-x="617" 
d="M49 189l15 106h490l-34 -242h-109l19 136h-381z" />
    <glyph glyph-name="uni00AD" unicode="&#xad;" horiz-adv-x="291" 
d="M17 209l14 104h249l-15 -104h-248z" />
    <glyph glyph-name="registered" unicode="&#xae;" horiz-adv-x="652" 
d="M57 409q0 63 24.5 118.5t66.5 96t98.5 64.5t118.5 24q53 0 97.5 -19t77 -52.5t50.5 -80t18 -100.5q0 -63 -25 -118t-67.5 -95t-99 -63.5t-118.5 -23.5q-52 0 -96.5 18.5t-76.5 52t-50 79t-18 99.5zM130 409q0 -75 48.5 -127t128.5 -52q46 0 88 18.5t72.5 49.5t49 73.5
t18.5 89.5q0 38 -13 71t-36.5 57.5t-56.5 38.5t-73 14q-47 0 -88 -18.5t-71.5 -50t-48.5 -74.5t-18 -90zM365 317l-33 69h-36l-10 -69h-72l36 251h120q39 0 63.5 -23t24.5 -60q0 -28 -16.5 -51t-41.5 -35l41 -82h-76zM348 509h-34l-9 -62h33q24 0 36 9.5t12 25.5
q0 13 -9.5 20t-28.5 7z" />
    <glyph glyph-name="macron" unicode="&#xaf;" horiz-adv-x="500" 
d="M136 700h241l-14 -97h-241z" />
    <glyph glyph-name="degree" unicode="&#xb0;" horiz-adv-x="431" 
d="M70 532q0 38 15 71t40 57t59.5 38t73.5 14q63 0 103.5 -41t40.5 -106q0 -37 -14.5 -70.5t-39.5 -57.5t-59 -38.5t-74 -14.5q-63 0 -104 41t-41 107zM166 540q0 -27 17 -45t44 -18q30 0 54.5 22.5t24.5 58.5q0 27 -17 45t-43 18q-31 0 -55.5 -22.5t-24.5 -58.5z" />
    <glyph glyph-name="plusminus" unicode="&#xb1;" horiz-adv-x="627" 
d="M16 -110l15 103h497l-15 -103h-497zM88 374h190l27 191h108l-27 -191h192l-15 -106h-192l-27 -193h-108l27 193h-190z" />
    <glyph glyph-name="twosuperior" unicode="&#xb2;" horiz-adv-x="381" 
d="M134 392h191l-12 -84h-300l2 13q10 69 46 117.5t115 82.5l23 9q33 15 46 27.5t13 30.5q0 15 -13.5 25t-35.5 10q-29 0 -55 -16.5t-44 -43.5l-53 59q23 35 68 60t97 25q26 0 50 -6.5t42.5 -19.5t30 -32.5t11.5 -45.5q0 -51 -30 -82.5t-87 -56.5l-27 -12q-39 -17 -55.5 -30
t-22.5 -30z" />
    <glyph glyph-name="threesuperior" unicode="&#xb3;" horiz-adv-x="371" 
d="M281 513q20 -10 33.5 -29.5t13.5 -48.5q0 -32 -14.5 -57t-38.5 -42t-56.5 -25.5t-67.5 -8.5q-46 0 -83.5 18t-56.5 46l72 62q16 -23 38 -33t45 -10q28 0 47 13t19 34q0 16 -15.5 26.5t-52.5 10.5h-35l11 76h31q38 0 55.5 12.5t17.5 31.5q0 16 -13.5 25t-35.5 9
q-24 0 -43 -8.5t-38 -28.5l-55 59q28 25 66 43.5t87 18.5q25 0 48.5 -5.5t41.5 -17t29 -30t11 -44.5q0 -35 -17 -58.5t-44 -38.5z" />
    <glyph glyph-name="acute" unicode="&#xb4;" horiz-adv-x="500" 
d="M230 700h144l-136 -138h-113z" />
    <glyph glyph-name="mu" unicode="&#xb5;" horiz-adv-x="567" 
d="M7 -194l96 684h116l-40 -285q-7 -51 11.5 -80.5t64.5 -29.5q57 0 88.5 39.5t41.5 107.5l34 248h115l-69 -490h-112l6 45q-26 -26 -57 -41t-71 -15q-21 0 -42 7t-37 21l-29 -211h-116z" />
    <glyph glyph-name="paragraph" unicode="&#xb6;" horiz-adv-x="741" 
d="M339 258h-51q-107 0 -168 55.5t-61 142.5q0 56 21 101t59.5 76.5t92 49t118.5 17.5h371l-126 -894h-117l111 787h-86l-111 -787h-117z" />
    <glyph glyph-name="periodcentered" unicode="&#xb7;" horiz-adv-x="291" 
d="M73 258q0 31 22 53.5t53 22.5t53.5 -22.5t22.5 -53.5t-22.5 -53t-53.5 -22t-53 22t-22 53z" />
    <glyph glyph-name="cedilla" unicode="&#xb8;" horiz-adv-x="500" 
d="M350 11l-83 -148h-117l95 148h105z" />
    <glyph glyph-name="onesuperior" unicode="&#xb9;" horiz-adv-x="347" 
d="M24 392h99l28 197q-19 -11 -46 -17.5t-57 -6.5l12 81q31 1 64 13.5t51 40.5h87l-43 -308h96l-12 -84h-291z" />
    <glyph glyph-name="ordmasculine" unicode="&#xba;" horiz-adv-x="467" 
d="M34 504q0 44 17.5 82t47 65.5t69.5 43.5t85 16q81 0 130.5 -47.5t49.5 -118.5q0 -44 -15.5 -82.5t-44 -67t-69.5 -45t-91 -16.5q-78 0 -128.5 48t-50.5 122zM132 508q0 -39 23.5 -64.5t63.5 -25.5q49 0 83 34.5t34 83.5q0 40 -24 65.5t-64 25.5q-48 0 -82 -34.5
t-34 -84.5z" />
    <glyph glyph-name="guillemotright" unicode="&#xbb;" horiz-adv-x="612" 
d="M312 245l-171 -245h-125l178 250l-104 240h119zM574 245l-171 -245h-125l178 250l-104 240h119z" />
    <glyph glyph-name="onequarter" unicode="&#xbc;" horiz-adv-x="866" 
d="M24 392h99l28 197q-19 -11 -46 -17.5t-57 -6.5l12 81q31 1 64 13.5t51 40.5h87l-43 -308h96l-12 -84h-291zM136 0l529 700h115l-529 -700h-115zM833 80h-58l-11 -80h-95l11 80h-184l11 74l206 238h106l-33 -233h58zM606 159h85l17 120z" />
    <glyph glyph-name="onehalf" unicode="&#xbd;" horiz-adv-x="918" 
d="M24 392h99l28 197q-19 -11 -46 -17.5t-57 -6.5l12 81q31 1 64 13.5t51 40.5h87l-43 -308h96l-12 -84h-291zM136 0l529 700h115l-529 -700h-115zM671 84h191l-12 -84h-300l2 13q10 69 46 117.5t115 82.5l23 9q33 15 46 27.5t13 30.5q0 15 -13.5 25t-35.5 10
q-29 0 -55 -16.5t-44 -43.5l-53 59q23 35 68 60t97 25q26 0 50 -6.5t42.5 -19.5t30 -32.5t11.5 -45.5q0 -51 -30 -82.5t-87 -56.5l-27 -12q-39 -17 -55.5 -30t-22.5 -30z" />
    <glyph glyph-name="threequarters" unicode="&#xbe;" horiz-adv-x="872" 
d="M281 513q20 -10 33.5 -29.5t13.5 -48.5q0 -32 -14.5 -57t-38.5 -42t-56.5 -25.5t-67.5 -8.5q-46 0 -83.5 18t-56.5 46l72 62q16 -23 38 -33t45 -10q28 0 47 13t19 34q0 16 -15.5 26.5t-52.5 10.5h-35l11 76h31q38 0 55.5 12.5t17.5 31.5q0 16 -13.5 25t-35.5 9
q-24 0 -43 -8.5t-38 -28.5l-55 59q28 25 66 43.5t87 18.5q25 0 48.5 -5.5t41.5 -17t29 -30t11 -44.5q0 -35 -17 -58.5t-44 -38.5zM142 0l529 700h115l-529 -700h-115zM838 80h-58l-11 -80h-95l11 80h-184l11 74l206 238h106l-33 -233h58zM611 159h85l17 120z" />
    <glyph glyph-name="questiondown" unicode="&#xbf;" horiz-adv-x="550" 
d="M373 271h-119l-10 -71q-99 -15 -160 -74.5t-61 -146.5q0 -82 58 -133t150 -51q75 0 138.5 31.5t107.5 85.5l-65 83q-32 -43 -75 -66t-94 -23q-47 0 -73.5 22.5t-26.5 58.5q0 50 46.5 83t121.5 34h38zM409 429q0 -32 -23 -55t-55 -23q-31 0 -52 21t-21 52q0 32 23.5 55
t55.5 23q31 0 51.5 -21t20.5 -52z" />
    <glyph glyph-name="Agrave" unicode="&#xc0;" horiz-adv-x="700" 
d="M464 700l174 -700h-121l-39 147h-299l-79 -147h-129l373 700h120zM384 540l-148 -285h218zM274 872h138l59 -103h-116z" />
    <glyph glyph-name="Aacute" unicode="&#xc1;" horiz-adv-x="700" 
d="M464 700l174 -700h-121l-39 147h-299l-79 -147h-129l373 700h120zM384 540l-148 -285h218zM414 872h143l-110 -103h-120z" />
    <glyph glyph-name="Acircumflex" unicode="&#xc2;" horiz-adv-x="700" 
d="M464 700l174 -700h-121l-39 147h-299l-79 -147h-129l373 700h120zM384 540l-148 -285h218zM256 769l104 103h143l76 -103h-114l-42 49l-57 -49h-110z" />
    <glyph glyph-name="Atilde" unicode="&#xc3;" horiz-adv-x="700" 
d="M464 700l174 -700h-121l-39 147h-299l-79 -147h-129l373 700h120zM384 540l-148 -285h218zM509 885h80q-7 -48 -36 -82t-70 -34q-13 0 -26 4l-26 8l-26 9q-8 4 -16 5.5t-16 1.5q-11 0 -20 -6.5t-12 -21.5h-80q7 49 35.5 82.5t69.5 33.5q13 0 26 -3.5t26 -7.5l27 -10
q8 -3 15.5 -5t15.5 -2q11 0 20.5 7t12.5 21z" />
    <glyph glyph-name="Adieresis" unicode="&#xc4;" horiz-adv-x="700" 
d="M464 700l174 -700h-121l-39 147h-299l-79 -147h-129l373 700h120zM384 540l-148 -285h218zM259 828q0 26 18.5 45.5t45.5 19.5t46.5 -19.5t19.5 -45.5q0 -27 -19.5 -46t-46.5 -19t-45.5 19t-18.5 46zM459 828q0 26 18.5 45.5t46.5 19.5q26 0 45.5 -19.5t19.5 -45.5
q0 -27 -19.5 -46t-45.5 -19q-28 0 -46.5 19t-18.5 46z" />
    <glyph glyph-name="Aring" unicode="&#xc5;" horiz-adv-x="700" 
d="M319 765q0 43 32.5 73t74.5 30q36 0 59.5 -23.5t23.5 -59.5q0 -27 -13 -49.5t-35 -35.5h3l174 -700h-121l-39 147h-299l-79 -147h-129l373 700h4q-13 11 -21 28t-8 37zM384 540l-148 -285h218zM386 771q0 -10 7 -17t17 -7q13 0 22.5 9t9.5 22q0 10 -7 17t-17 7
q-13 0 -22.5 -9t-9.5 -22z" />
    <glyph glyph-name="AE" unicode="&#xc6;" horiz-adv-x="927" 
d="M912 700l-17 -111h-405l45 -177h321l-15 -109h-279l48 -192h218l-15 -111h-297l-38 147h-300l-79 -147h-128l373 700h568zM384 540l-149 -285h218z" />
    <glyph glyph-name="Ccedilla" unicode="&#xc7;" horiz-adv-x="719" 
d="M585 200l70 -88q-49 -49 -110 -80.5t-134 -39.5l-71 -129h-117l83 130q-61 8 -111 35.5t-84.5 69t-53.5 97t-19 118.5q0 88 32 162t87.5 126.5t130 81.5t159.5 29q87 0 152 -35t108 -92l-90 -80q-31 43 -76.5 69t-108.5 26q-50 0 -99 -20.5t-86.5 -57t-61 -89.5
t-23.5 -117q0 -98 58 -156.5t149 -58.5q62 0 117 25t99 74z" />
    <glyph glyph-name="Egrave" unicode="&#xc8;" horiz-adv-x="634" 
d="M27 0l99 700h493l-16 -111h-375l-24 -177h360l-16 -109h-360l-27 -192h375l-16 -111h-493zM243 872h138l59 -103h-116z" />
    <glyph glyph-name="Eacute" unicode="&#xc9;" horiz-adv-x="634" 
d="M27 0l99 700h493l-16 -111h-375l-24 -177h360l-16 -109h-360l-27 -192h375l-16 -111h-493zM375 872h143l-110 -103h-120z" />
    <glyph glyph-name="Ecircumflex" unicode="&#xca;" horiz-adv-x="634" 
d="M27 0l99 700h493l-16 -111h-375l-24 -177h360l-16 -109h-360l-27 -192h375l-16 -111h-493zM217 769l104 103h143l76 -103h-114l-42 49l-57 -49h-110z" />
    <glyph glyph-name="Edieresis" unicode="&#xcb;" horiz-adv-x="634" 
d="M27 0l99 700h493l-16 -111h-375l-24 -177h360l-16 -109h-360l-27 -192h375l-16 -111h-493zM220 828q0 26 18.5 45.5t45.5 19.5t46.5 -19.5t19.5 -45.5q0 -27 -19.5 -46t-46.5 -19t-45.5 19t-18.5 46zM420 828q0 26 18.5 45.5t46.5 19.5q26 0 45.5 -19.5t19.5 -45.5
q0 -27 -19.5 -46t-45.5 -19q-28 0 -46.5 19t-18.5 46z" />
    <glyph glyph-name="Igrave" unicode="&#xcc;" horiz-adv-x="265" 
d="M27 0l99 700h119l-99 -700h-119zM53 872h138l59 -103h-116z" />
    <glyph glyph-name="Iacute" unicode="&#xcd;" horiz-adv-x="265" 
d="M27 0l99 700h119l-99 -700h-119zM193 872h143l-110 -103h-120z" />
    <glyph glyph-name="Icircumflex" unicode="&#xce;" horiz-adv-x="265" 
d="M27 0l99 700h119l-99 -700h-119zM36 769l104 103h143l76 -103h-114l-42 49l-57 -49h-110z" />
    <glyph glyph-name="Idieresis" unicode="&#xcf;" horiz-adv-x="265" 
d="M27 0l99 700h119l-99 -700h-119zM38 828q0 26 18.5 45.5t45.5 19.5t46.5 -19.5t19.5 -45.5q0 -27 -19.5 -46t-46.5 -19t-45.5 19t-18.5 46zM238 828q0 26 18.5 45.5t46.5 19.5q26 0 45.5 -19.5t19.5 -45.5q0 -27 -19.5 -46t-45.5 -19q-28 0 -46.5 19t-18.5 46z" />
    <glyph glyph-name="Eth" unicode="&#xd0;" horiz-adv-x="719" 
d="M27 0l43 304h-76l14 107h77l41 289h214q65 0 126.5 -17.5t109.5 -55t77 -96.5t29 -140q0 -109 -40 -184.5t-102.5 -121t-141.5 -65.5t-157 -20h-214zM310 304h-121l-27 -193h86q62 0 118.5 15t99 48.5t68 86t25.5 127.5q0 55 -19 93.5t-51.5 62t-76 34.5t-92.5 11h-91
l-25 -178h120z" />
    <glyph glyph-name="Ntilde" unicode="&#xd1;" horiz-adv-x="733" 
d="M476 0l-257 523l-73 -523h-119l99 700h138l255 -525l74 525h120l-99 -700h-138zM519 885h80q-7 -48 -36 -82t-70 -34q-13 0 -26 4l-26 8l-26 9q-8 4 -16 5.5t-16 1.5q-11 0 -20 -6.5t-12 -21.5h-80q7 49 35.5 82.5t69.5 33.5q13 0 26 -3.5t26 -7.5l27 -10q8 -3 15.5 -5
t15.5 -2q11 0 20.5 7t12.5 21z" />
    <glyph glyph-name="Ograve" unicode="&#xd2;" horiz-adv-x="798" 
d="M38 311q0 87 33.5 160.5t89 127t130.5 83.5t157 30q68 0 125.5 -25t99 -68t64.5 -102t23 -127q0 -86 -32.5 -159.5t-87.5 -127t-129.5 -84t-158.5 -30.5q-68 0 -126 25t-99.5 68.5t-65 102.5t-23.5 126zM162 317q0 -45 13.5 -84.5t39.5 -68.5t64 -46t87 -17
q59 0 109.5 23t86.5 61.5t56.5 90t20.5 107.5q0 45 -14 85t-40 69t-64 46t-85 17q-60 0 -110.5 -23t-86.5 -62t-56.5 -90.5t-20.5 -107.5zM317 872h138l59 -103h-116z" />
    <glyph glyph-name="Oacute" unicode="&#xd3;" horiz-adv-x="798" 
d="M38 311q0 87 33.5 160.5t89 127t130.5 83.5t157 30q68 0 125.5 -25t99 -68t64.5 -102t23 -127q0 -86 -32.5 -159.5t-87.5 -127t-129.5 -84t-158.5 -30.5q-68 0 -126 25t-99.5 68.5t-65 102.5t-23.5 126zM162 317q0 -45 13.5 -84.5t39.5 -68.5t64 -46t87 -17
q59 0 109.5 23t86.5 61.5t56.5 90t20.5 107.5q0 45 -14 85t-40 69t-64 46t-85 17q-60 0 -110.5 -23t-86.5 -62t-56.5 -90.5t-20.5 -107.5zM458 872h143l-110 -103h-120z" />
    <glyph glyph-name="Ocircumflex" unicode="&#xd4;" horiz-adv-x="798" 
d="M38 311q0 87 33.5 160.5t89 127t130.5 83.5t157 30q68 0 125.5 -25t99 -68t64.5 -102t23 -127q0 -86 -32.5 -159.5t-87.5 -127t-129.5 -84t-158.5 -30.5q-68 0 -126 25t-99.5 68.5t-65 102.5t-23.5 126zM162 317q0 -45 13.5 -84.5t39.5 -68.5t64 -46t87 -17
q59 0 109.5 23t86.5 61.5t56.5 90t20.5 107.5q0 45 -14 85t-40 69t-64 46t-85 17q-60 0 -110.5 -23t-86.5 -62t-56.5 -90.5t-20.5 -107.5zM300 769l104 103h143l76 -103h-114l-42 49l-57 -49h-110z" />
    <glyph glyph-name="Otilde" unicode="&#xd5;" horiz-adv-x="798" 
d="M38 311q0 87 33.5 160.5t89 127t130.5 83.5t157 30q68 0 125.5 -25t99 -68t64.5 -102t23 -127q0 -86 -32.5 -159.5t-87.5 -127t-129.5 -84t-158.5 -30.5q-68 0 -126 25t-99.5 68.5t-65 102.5t-23.5 126zM162 317q0 -45 13.5 -84.5t39.5 -68.5t64 -46t87 -17
q59 0 109.5 23t86.5 61.5t56.5 90t20.5 107.5q0 45 -14 85t-40 69t-64 46t-85 17q-60 0 -110.5 -23t-86.5 -62t-56.5 -90.5t-20.5 -107.5zM553 885h80q-7 -48 -36 -82t-70 -34q-13 0 -26 4l-26 8l-26 9q-8 4 -16 5.5t-16 1.5q-11 0 -20 -6.5t-12 -21.5h-80q7 49 35.5 82.5
t69.5 33.5q13 0 26 -3.5t26 -7.5l27 -10q8 -3 15.5 -5t15.5 -2q11 0 20.5 7t12.5 21z" />
    <glyph glyph-name="Odieresis" unicode="&#xd6;" horiz-adv-x="798" 
d="M38 311q0 87 33.5 160.5t89 127t130.5 83.5t157 30q68 0 125.5 -25t99 -68t64.5 -102t23 -127q0 -86 -32.5 -159.5t-87.5 -127t-129.5 -84t-158.5 -30.5q-68 0 -126 25t-99.5 68.5t-65 102.5t-23.5 126zM162 317q0 -45 13.5 -84.5t39.5 -68.5t64 -46t87 -17
q59 0 109.5 23t86.5 61.5t56.5 90t20.5 107.5q0 45 -14 85t-40 69t-64 46t-85 17q-60 0 -110.5 -23t-86.5 -62t-56.5 -90.5t-20.5 -107.5zM302 828q0 26 18.5 45.5t45.5 19.5t46.5 -19.5t19.5 -45.5q0 -27 -19.5 -46t-46.5 -19t-45.5 19t-18.5 46zM502 828q0 26 18.5 45.5
t46.5 19.5q26 0 45.5 -19.5t19.5 -45.5q0 -27 -19.5 -46t-45.5 -19q-28 0 -46.5 19t-18.5 46z" />
    <glyph glyph-name="multiply" unicode="&#xd7;" horiz-adv-x="590" 
d="M170 469l128 -148l168 148l68 -77l-169 -149l129 -150l-80 -71l-130 151l-172 -151l-67 77l172 151l-128 149z" />
    <glyph glyph-name="Oslash" unicode="&#xd8;" horiz-adv-x="798" 
d="M38 311q0 87 33.5 160.5t89 127t130.5 83.5t157 30q43 0 82 -10.5t73 -29.5l52 62l72 -58l-51 -61q40 -43 62 -101t22 -124q0 -86 -32.5 -159.5t-87.5 -127t-129.5 -84t-158.5 -30.5q-46 0 -87.5 11.5t-76.5 32.5l-54 -64l-72 58l55 66q-37 43 -58 99t-21 119zM639 383
q0 40 -11 75t-31 63l-333 -396q22 -12 47.5 -18t54.5 -6q59 0 109.5 23t86.5 61.5t56.5 90t20.5 107.5zM162 317q0 -37 9 -69.5t26 -59.5l329 392q-19 10 -42 15t-48 5q-60 0 -110.5 -23t-86.5 -62t-56.5 -90.5t-20.5 -107.5z" />
    <glyph glyph-name="Ugrave" unicode="&#xd9;" horiz-adv-x="692" 
d="M504 294l58 406h119l-57 -408q-20 -144 -101.5 -223.5t-213.5 -79.5q-116 0 -184.5 69.5t-68.5 186.5q0 15 1 32t3 33l56 390h119l-57 -408q-1 -10 -2.5 -21.5t-1.5 -21.5q0 -65 35 -107.5t107 -42.5q86 0 131 54t57 141zM269 872h138l59 -103h-116z" />
    <glyph glyph-name="Uacute" unicode="&#xda;" horiz-adv-x="692" 
d="M504 294l58 406h119l-57 -408q-20 -144 -101.5 -223.5t-213.5 -79.5q-116 0 -184.5 69.5t-68.5 186.5q0 15 1 32t3 33l56 390h119l-57 -408q-1 -10 -2.5 -21.5t-1.5 -21.5q0 -65 35 -107.5t107 -42.5q86 0 131 54t57 141zM410 872h143l-110 -103h-120z" />
    <glyph glyph-name="Ucircumflex" unicode="&#xdb;" horiz-adv-x="692" 
d="M504 294l58 406h119l-57 -408q-20 -144 -101.5 -223.5t-213.5 -79.5q-116 0 -184.5 69.5t-68.5 186.5q0 15 1 32t3 33l56 390h119l-57 -408q-1 -10 -2.5 -21.5t-1.5 -21.5q0 -65 35 -107.5t107 -42.5q86 0 131 54t57 141zM252 769l104 103h143l76 -103h-114l-42 49
l-57 -49h-110z" />
    <glyph glyph-name="Udieresis" unicode="&#xdc;" horiz-adv-x="692" 
d="M504 294l58 406h119l-57 -408q-20 -144 -101.5 -223.5t-213.5 -79.5q-116 0 -184.5 69.5t-68.5 186.5q0 15 1 32t3 33l56 390h119l-57 -408q-1 -10 -2.5 -21.5t-1.5 -21.5q0 -65 35 -107.5t107 -42.5q86 0 131 54t57 141zM254 828q0 26 18.5 45.5t45.5 19.5t46.5 -19.5
t19.5 -45.5q0 -27 -19.5 -46t-46.5 -19t-45.5 19t-18.5 46zM454 828q0 26 18.5 45.5t46.5 19.5q26 0 45.5 -19.5t19.5 -45.5q0 -27 -19.5 -46t-45.5 -19q-28 0 -46.5 19t-18.5 46z" />
    <glyph glyph-name="Yacute" unicode="&#xdd;" horiz-adv-x="606" 
d="M191 700l116 -313l203 313h135l-293 -440l-37 -260h-119l37 260l-168 440h126zM359 872h143l-110 -103h-120z" />
    <glyph glyph-name="Thorn" unicode="&#xde;" horiz-adv-x="609" 
d="M301 127h-136l-19 -127h-119l99 700h119l-15 -108h137q109 0 173 -60t64 -152q0 -58 -22 -105t-61.5 -80t-95.5 -50.5t-124 -17.5zM345 481h-131l-34 -243h125q83 0 130.5 35.5t47.5 103.5q0 49 -37.5 76.5t-100.5 27.5z" />
    <glyph glyph-name="germandbls" unicode="&#xdf;" horiz-adv-x="622" 
d="M31 0l61 437q19 129 94.5 202t196.5 73q43 0 82 -14.5t68 -40t46 -60.5t17 -75q0 -53 -26.5 -96t-66.5 -66q37 -22 58.5 -59.5t21.5 -83.5q0 -50 -19 -90.5t-53 -68.5t-81.5 -43t-103.5 -15h-89l14 104h73q57 0 100.5 27t43.5 83q0 42 -32 65t-83 23h-74l15 106h58
q54 0 90 28.5t36 79.5q0 37 -28.5 63.5t-78.5 26.5q-66 0 -109 -42t-55 -130l-61 -434h-115z" />
    <glyph glyph-name="agrave" unicode="&#xe0;" horiz-adv-x="587" 
d="M41 214q0 58 19 110.5t52.5 92t80 62.5t100.5 23q41 0 77.5 -15.5t61.5 -53.5l8 57h114l-69 -490h-114l7 47q-23 -25 -59.5 -41.5t-86.5 -16.5q-42 0 -77 17t-60.5 47t-39.5 71.5t-14 89.5zM158 219q0 -54 28 -90t77 -36q34 0 61.5 15t46.5 40t29 57t10 65q0 54 -29 91.5
t-75 37.5q-34 0 -61.5 -15t-46.5 -40t-29.5 -58t-10.5 -67zM206 700h144l61 -138h-110z" />
    <glyph glyph-name="aacute" unicode="&#xe1;" horiz-adv-x="587" 
d="M41 214q0 58 19 110.5t52.5 92t80 62.5t100.5 23q41 0 77.5 -15.5t61.5 -53.5l8 57h114l-69 -490h-114l7 47q-23 -25 -59.5 -41.5t-86.5 -16.5q-42 0 -77 17t-60.5 47t-39.5 71.5t-14 89.5zM158 219q0 -54 28 -90t77 -36q34 0 61.5 15t46.5 40t29 57t10 65q0 54 -29 91.5
t-75 37.5q-34 0 -61.5 -15t-46.5 -40t-29.5 -58t-10.5 -67zM364 700h144l-136 -138h-113z" />
    <glyph glyph-name="acircumflex" unicode="&#xe2;" horiz-adv-x="587" 
d="M41 214q0 58 19 110.5t52.5 92t80 62.5t100.5 23q41 0 77.5 -15.5t61.5 -53.5l8 57h114l-69 -490h-114l7 47q-23 -25 -59.5 -41.5t-86.5 -16.5q-42 0 -77 17t-60.5 47t-39.5 71.5t-14 89.5zM158 219q0 -54 28 -90t77 -36q34 0 61.5 15t46.5 40t29 57t10 65q0 54 -29 91.5
t-75 37.5q-34 0 -61.5 -15t-46.5 -40t-29.5 -58t-10.5 -67zM296 700h136l74 -138h-99l-50 69l-67 -69h-107z" />
    <glyph glyph-name="atilde" unicode="&#xe3;" horiz-adv-x="587" 
d="M41 214q0 58 19 110.5t52.5 92t80 62.5t100.5 23q41 0 77.5 -15.5t61.5 -53.5l8 57h114l-69 -490h-114l7 47q-23 -25 -59.5 -41.5t-86.5 -16.5q-42 0 -77 17t-60.5 47t-39.5 71.5t-14 89.5zM158 219q0 -54 28 -90t77 -36q34 0 61.5 15t46.5 40t29 57t10 65q0 54 -29 91.5
t-75 37.5q-34 0 -61.5 -15t-46.5 -40t-29.5 -58t-10.5 -67zM439 700h80q-7 -48 -36 -82t-70 -34q-13 0 -25.5 4t-25.5 8l-27 9q-8 3 -16 5t-16 2q-11 0 -20 -6.5t-12 -21.5h-80q7 49 35.5 82.5t69.5 33.5q13 0 26 -3.5t26 -7.5l27 -10q8 -3 15.5 -5t15.5 -2q11 0 20.5 7
t12.5 21z" />
    <glyph glyph-name="adieresis" unicode="&#xe4;" horiz-adv-x="587" 
d="M41 214q0 58 19 110.5t52.5 92t80 62.5t100.5 23q41 0 77.5 -15.5t61.5 -53.5l8 57h114l-69 -490h-114l7 47q-23 -25 -59.5 -41.5t-86.5 -16.5q-42 0 -77 17t-60.5 47t-39.5 71.5t-14 89.5zM158 219q0 -54 28 -90t77 -36q34 0 61.5 15t46.5 40t29 57t10 65q0 54 -29 91.5
t-75 37.5q-34 0 -61.5 -15t-46.5 -40t-29.5 -58t-10.5 -67zM194 644q0 26 18.5 45.5t45.5 19.5t46.5 -19.5t19.5 -45.5q0 -27 -19.5 -46t-46.5 -19t-45.5 19t-18.5 46zM394 644q0 26 18.5 45.5t46.5 19.5q26 0 45.5 -19.5t19.5 -45.5q0 -27 -19.5 -46t-45.5 -19
q-28 0 -46.5 19t-18.5 46z" />
    <glyph glyph-name="aring" unicode="&#xe5;" horiz-adv-x="587" 
d="M41 214q0 58 19 110.5t52.5 92t80 62.5t100.5 23q41 0 77.5 -15.5t61.5 -53.5l8 57h114l-69 -490h-114l7 47q-23 -25 -59.5 -41.5t-86.5 -16.5q-42 0 -77 17t-60.5 47t-39.5 71.5t-14 89.5zM158 219q0 -54 28 -90t77 -36q34 0 61.5 15t46.5 40t29 57t10 65q0 54 -29 91.5
t-75 37.5q-34 0 -61.5 -15t-46.5 -40t-29.5 -58t-10.5 -67zM313 629q0 -10 6.5 -16t16.5 -6q11 0 20.5 8t9.5 21q0 10 -6.5 16t-16.5 6q-12 0 -21 -8t-9 -21zM249 623q0 41 31 70t71 29q34 0 56.5 -22.5t22.5 -56.5q0 -41 -30.5 -69.5t-73.5 -28.5q-34 0 -55.5 23t-21.5 55z
" />
    <glyph glyph-name="ae" unicode="&#xe6;" horiz-adv-x="911" 
d="M865 214h-347q0 -54 30 -87t85 -33q40 0 74.5 16.5t63.5 46.5l67 -74q-37 -40 -90.5 -67t-126.5 -27q-43 0 -78.5 13t-60.5 38l-6 -40h-105l7 47q-23 -25 -59.5 -41.5t-86.5 -16.5q-42 0 -77 17t-60.5 47t-39.5 71.5t-14 89.5q0 58 19 110.5t52.5 92t80 62.5t100.5 23
q41 0 77.5 -15.5t61.5 -53.5l8 57h105l-6 -39q29 25 63.5 38t71.5 13q52 0 89.5 -19t61.5 -49.5t35.5 -69t11.5 -78.5q0 -27 -3.5 -49.5zM158 219q0 -54 28 -90t77 -36q34 0 61.5 15t46.5 40t29 57t10 65q0 54 -29 91.5t-75 37.5q-34 0 -61.5 -15t-46.5 -40t-29.5 -58
t-10.5 -67zM663 399q-50 0 -83 -29.5t-46 -71.5h223q1 44 -23.5 72.5t-70.5 28.5zM506 214q0 -1 2 -1t5 1h-7z" />
    <glyph glyph-name="ccedilla" unicode="&#xe7;" horiz-adv-x="539" 
d="M415 160l64 -83q-30 -31 -67 -52.5t-82 -29.5l-74 -132h-117l83 130q-81 14 -131 76.5t-50 151.5q0 60 22.5 111.5t61 89t91 59t111.5 21.5q63 0 112.5 -24.5t80.5 -67.5l-87 -75q-19 28 -47.5 43.5t-63.5 15.5q-33 0 -63 -13t-52 -36t-35 -54t-13 -67q0 -55 33 -91.5
t91 -36.5q40 0 72 16.5t60 47.5z" />
    <glyph glyph-name="egrave" unicode="&#xe8;" horiz-adv-x="551" 
d="M504 214h-346v-8q1 -48 30.5 -80t84.5 -32q39 0 73.5 16.5t63.5 46.5l68 -74q-38 -40 -91.5 -67t-126.5 -27q-99 0 -158.5 63t-59.5 162q0 60 20.5 112.5t56.5 91.5t85.5 61.5t108.5 22.5q52 0 90 -19t61.5 -49.5t35 -69t11.5 -78.5q0 -27 -3.5 -49.5zM190 700h144
l61 -138h-110zM302 399q-49 0 -82.5 -29.5t-46.5 -71.5h223q1 44 -23.5 72.5t-70.5 28.5z" />
    <glyph glyph-name="eacute" unicode="&#xe9;" horiz-adv-x="551" 
d="M504 214h-346v-8q1 -48 30.5 -80t84.5 -32q39 0 73.5 16.5t63.5 46.5l68 -74q-38 -40 -91.5 -67t-126.5 -27q-99 0 -158.5 63t-59.5 162q0 60 20.5 112.5t56.5 91.5t85.5 61.5t108.5 22.5q52 0 90 -19t61.5 -49.5t35 -69t11.5 -78.5q0 -27 -3.5 -49.5zM348 700h144
l-136 -138h-113zM302 399q-49 0 -82.5 -29.5t-46.5 -71.5h223q1 44 -23.5 72.5t-70.5 28.5z" />
    <glyph glyph-name="ecircumflex" unicode="&#xea;" horiz-adv-x="551" 
d="M504 214h-346v-8q1 -48 30.5 -80t84.5 -32q39 0 73.5 16.5t63.5 46.5l68 -74q-38 -40 -91.5 -67t-126.5 -27q-99 0 -158.5 63t-59.5 162q0 60 20.5 112.5t56.5 91.5t85.5 61.5t108.5 22.5q52 0 90 -19t61.5 -49.5t35 -69t11.5 -78.5q0 -27 -3.5 -49.5zM280 700h136
l74 -138h-99l-50 69l-67 -69h-107zM302 399q-49 0 -82.5 -29.5t-46.5 -71.5h223q1 44 -23.5 72.5t-70.5 28.5z" />
    <glyph glyph-name="edieresis" unicode="&#xeb;" horiz-adv-x="551" 
d="M504 214h-346v-8q1 -48 30.5 -80t84.5 -32q39 0 73.5 16.5t63.5 46.5l68 -74q-38 -40 -91.5 -67t-126.5 -27q-99 0 -158.5 63t-59.5 162q0 60 20.5 112.5t56.5 91.5t85.5 61.5t108.5 22.5q52 0 90 -19t61.5 -49.5t35 -69t11.5 -78.5q0 -27 -3.5 -49.5zM302 399
q-49 0 -82.5 -29.5t-46.5 -71.5h223q1 44 -23.5 72.5t-70.5 28.5zM378 644q0 26 18.5 45.5t46.5 19.5q26 0 45.5 -19.5t19.5 -45.5q0 -27 -19.5 -46t-45.5 -19q-28 0 -46.5 19t-18.5 46zM178 644q0 26 18.5 45.5t45.5 19.5t46.5 -19.5t19.5 -45.5q0 -27 -19.5 -46t-46.5 -19
t-45.5 19t-18.5 46z" />
    <glyph glyph-name="igrave" unicode="&#xec;" horiz-adv-x="259" 
d="M38 0l69 490h115l-69 -490h-115zM28 700h144l61 -138h-110z" />
    <glyph glyph-name="iacute" unicode="&#xed;" horiz-adv-x="259" 
d="M38 0l69 490h115l-69 -490h-115zM193 700h144l-136 -138h-113z" />
    <glyph glyph-name="icircumflex" unicode="&#xee;" horiz-adv-x="259" 
d="M38 0l69 490h115l-69 -490h-115zM125 700h136l74 -138h-99l-50 69l-67 -69h-107z" />
    <glyph glyph-name="idieresis" unicode="&#xef;" horiz-adv-x="259" 
d="M38 0l69 490h115l-69 -490h-115zM23 644q0 26 18.5 45.5t45.5 19.5t46.5 -19.5t19.5 -45.5q0 -27 -19.5 -46t-46.5 -19t-45.5 19t-18.5 46zM223 644q0 26 18.5 45.5t46.5 19.5q26 0 45.5 -19.5t19.5 -45.5q0 -27 -19.5 -46t-45.5 -19q-28 0 -46.5 19t-18.5 46z" />
    <glyph glyph-name="eth" unicode="&#xf0;" horiz-adv-x="576" 
d="M192 491l13 91l67 31l-52 87h127l23 -41l110 53l-13 -92l-58 -28l68 -119q28 -49 43 -100t15 -102q0 -56 -19.5 -107t-56 -90t-87.5 -62t-114 -23q-95 0 -156.5 58.5t-61.5 148.5q0 61 22 109.5t58 81.5t82.5 51t95.5 18q18 0 39.5 -3t34.5 -10l-60 103zM409 238
q0 47 -30 78t-79 31q-58 0 -99.5 -41t-41.5 -101q0 -47 29 -77.5t78 -30.5q59 0 101 40.5t42 100.5z" />
    <glyph glyph-name="ntilde" unicode="&#xf1;" horiz-adv-x="570" 
d="M215 490l-6 -44q24 24 61 40t76 16q80 0 126 -49.5t46 -132.5q0 -12 -1.5 -24t-2.5 -25l-38 -271h-116l40 281q1 6 1.5 12.5t0.5 12.5q0 41 -21 65t-64 24q-59 0 -92 -41.5t-43 -109.5l-34 -244h-114l69 490h112zM429 700h80q-7 -48 -36 -82t-70 -34q-13 0 -25.5 4
t-25.5 8l-27 9q-8 3 -16 5t-16 2q-11 0 -20 -6.5t-12 -21.5h-80q7 49 35.5 82.5t69.5 33.5q13 0 26 -3.5t26 -7.5l27 -10q8 -3 15.5 -5t15.5 -2q11 0 20.5 7t12.5 21z" />
    <glyph glyph-name="ograve" unicode="&#xf2;" horiz-adv-x="596" 
d="M41 219q0 60 22.5 112.5t61.5 90t91.5 59t111.5 21.5q51 0 93 -18.5t71.5 -50t46 -74t16.5 -89.5q0 -61 -22.5 -112.5t-61.5 -89t-91.5 -58.5t-111.5 -21q-50 0 -92 18t-72 49t-46.5 73.5t-16.5 89.5zM159 224q0 -55 33.5 -91.5t86.5 -36.5q66 0 112 49t46 121
q0 55 -33 91.5t-87 36.5q-66 0 -112 -49t-46 -121zM194 700h144l61 -138h-110z" />
    <glyph glyph-name="oacute" unicode="&#xf3;" horiz-adv-x="596" 
d="M41 219q0 60 22.5 112.5t61.5 90t91.5 59t111.5 21.5q51 0 93 -18.5t71.5 -50t46 -74t16.5 -89.5q0 -61 -22.5 -112.5t-61.5 -89t-91.5 -58.5t-111.5 -21q-50 0 -92 18t-72 49t-46.5 73.5t-16.5 89.5zM159 224q0 -55 33.5 -91.5t86.5 -36.5q66 0 112 49t46 121
q0 55 -33 91.5t-87 36.5q-66 0 -112 -49t-46 -121zM359 700h144l-136 -138h-113z" />
    <glyph glyph-name="ocircumflex" unicode="&#xf4;" horiz-adv-x="596" 
d="M41 219q0 60 22.5 112.5t61.5 90t91.5 59t111.5 21.5q51 0 93 -18.5t71.5 -50t46 -74t16.5 -89.5q0 -61 -22.5 -112.5t-61.5 -89t-91.5 -58.5t-111.5 -21q-50 0 -92 18t-72 49t-46.5 73.5t-16.5 89.5zM159 224q0 -55 33.5 -91.5t86.5 -36.5q66 0 112 49t46 121
q0 55 -33 91.5t-87 36.5q-66 0 -112 -49t-46 -121zM290 700h136l74 -138h-99l-50 69l-67 -69h-107z" />
    <glyph glyph-name="otilde" unicode="&#xf5;" horiz-adv-x="596" 
d="M41 219q0 60 22.5 112.5t61.5 90t91.5 59t111.5 21.5q51 0 93 -18.5t71.5 -50t46 -74t16.5 -89.5q0 -61 -22.5 -112.5t-61.5 -89t-91.5 -58.5t-111.5 -21q-50 0 -92 18t-72 49t-46.5 73.5t-16.5 89.5zM159 224q0 -55 33.5 -91.5t86.5 -36.5q66 0 112 49t46 121
q0 55 -33 91.5t-87 36.5q-66 0 -112 -49t-46 -121zM433 700h80q-7 -48 -36 -82t-70 -34q-13 0 -25.5 4t-25.5 8l-27 9q-8 3 -16 5t-16 2q-11 0 -20 -6.5t-12 -21.5h-80q7 49 35.5 82.5t69.5 33.5q13 0 26 -3.5t26 -7.5l27 -10q8 -3 15.5 -5t15.5 -2q11 0 20.5 7t12.5 21z
" />
    <glyph glyph-name="odieresis" unicode="&#xf6;" horiz-adv-x="596" 
d="M41 219q0 60 22.5 112.5t61.5 90t91.5 59t111.5 21.5q51 0 93 -18.5t71.5 -50t46 -74t16.5 -89.5q0 -61 -22.5 -112.5t-61.5 -89t-91.5 -58.5t-111.5 -21q-50 0 -92 18t-72 49t-46.5 73.5t-16.5 89.5zM159 224q0 -55 33.5 -91.5t86.5 -36.5q66 0 112 49t46 121
q0 55 -33 91.5t-87 36.5q-66 0 -112 -49t-46 -121zM188 644q0 26 18.5 45.5t45.5 19.5t46.5 -19.5t19.5 -45.5q0 -27 -19.5 -46t-46.5 -19t-45.5 19t-18.5 46zM388 644q0 26 18.5 45.5t46.5 19.5q26 0 45.5 -19.5t19.5 -45.5q0 -27 -19.5 -46t-45.5 -19q-28 0 -46.5 19
t-18.5 46z" />
    <glyph glyph-name="divide" unicode="&#xf7;" horiz-adv-x="623" 
d="M53 202l15 107h496l-15 -107h-496zM209 61q0 29 20.5 50t50.5 21t51 -21t21 -50q0 -31 -21 -51.5t-51 -20.5t-50.5 20.5t-20.5 51.5zM263 449q0 30 20 51t51 21q30 0 51 -21t21 -51q0 -31 -21 -51.5t-51 -20.5q-31 0 -51 20.5t-20 51.5z" />
    <glyph glyph-name="oslash" unicode="&#xf8;" horiz-adv-x="596" 
d="M47 24l42 49q-23 30 -35.5 67.5t-12.5 78.5q0 60 22.5 112.5t61.5 90t91.5 59t111.5 21.5q28 0 54 -6.5t48 -16.5l41 48l74 -59l-41 -48q25 -31 38 -69t13 -81q0 -61 -22.5 -112.5t-61.5 -89t-91.5 -58.5t-111.5 -21q-30 0 -56.5 6.5t-49.5 17.5l-41 -48zM279 96
q66 0 112 49t46 121q0 16 -3.5 31t-8.5 28l-188 -222q10 -4 20.5 -5.5t21.5 -1.5zM159 224q0 -15 2.5 -29t7.5 -27l185 220q-8 3 -17.5 4.5t-19.5 1.5q-66 0 -112 -49t-46 -121z" />
    <glyph glyph-name="ugrave" unicode="&#xf9;" horiz-adv-x="559" 
d="M345 0l6 43q-28 -27 -64.5 -40.5t-76.5 -13.5q-76 0 -117 46.5t-41 125.5q0 13 1 27t3 27l39 275h114l-39 -283q-1 -7 -1.5 -13.5t-0.5 -12.5q0 -40 20 -63t60 -23q57 0 87 39.5t40 107.5l35 248h116l-69 -490h-112zM172 700h144l61 -138h-110z" />
    <glyph glyph-name="uacute" unicode="&#xfa;" horiz-adv-x="559" 
d="M345 0l6 43q-28 -27 -64.5 -40.5t-76.5 -13.5q-76 0 -117 46.5t-41 125.5q0 13 1 27t3 27l39 275h114l-39 -283q-1 -7 -1.5 -13.5t-0.5 -12.5q0 -40 20 -63t60 -23q57 0 87 39.5t40 107.5l35 248h116l-69 -490h-112zM337 700h144l-136 -138h-113z" />
    <glyph glyph-name="ucircumflex" unicode="&#xfb;" horiz-adv-x="559" 
d="M345 0l6 43q-28 -27 -64.5 -40.5t-76.5 -13.5q-76 0 -117 46.5t-41 125.5q0 13 1 27t3 27l39 275h114l-39 -283q-1 -7 -1.5 -13.5t-0.5 -12.5q0 -40 20 -63t60 -23q57 0 87 39.5t40 107.5l35 248h116l-69 -490h-112zM268 700h136l74 -138h-99l-50 69l-67 -69h-107z" />
    <glyph glyph-name="udieresis" unicode="&#xfc;" horiz-adv-x="559" 
d="M345 0l6 43q-28 -27 -64.5 -40.5t-76.5 -13.5q-76 0 -117 46.5t-41 125.5q0 13 1 27t3 27l39 275h114l-39 -283q-1 -7 -1.5 -13.5t-0.5 -12.5q0 -40 20 -63t60 -23q57 0 87 39.5t40 107.5l35 248h116l-69 -490h-112zM167 644q0 26 18.5 45.5t45.5 19.5t46.5 -19.5
t19.5 -45.5q0 -27 -19.5 -46t-46.5 -19t-45.5 19t-18.5 46zM367 644q0 26 18.5 45.5t46.5 19.5q26 0 45.5 -19.5t19.5 -45.5q0 -27 -19.5 -46t-45.5 -19q-28 0 -46.5 19t-18.5 46z" />
    <glyph glyph-name="yacute" unicode="&#xfd;" horiz-adv-x="544" 
d="M196 -194h-126l107 195l-125 489h123l82 -345l181 345h128zM334 700h144l-136 -138h-113z" />
    <glyph glyph-name="thorn" unicode="&#xfe;" horiz-adv-x="608" 
d="M447 268q0 56 -30 92.5t-82 36.5q-66 0 -111 -50.5t-45 -124.5q0 -56 30.5 -92.5t82.5 -36.5q66 0 110.5 51t44.5 124zM566 276q0 -63 -22 -116.5t-59 -91t-86.5 -58.5t-105.5 -21q-46 0 -80 15.5t-57 44.5l-35 -243h-114l125 894h114l-37 -256q28 26 66.5 42t83.5 16
q46 0 84 -17.5t65 -47.5t42.5 -71.5t15.5 -89.5z" />
    <glyph glyph-name="ydieresis" unicode="&#xff;" horiz-adv-x="544" 
d="M196 -194h-126l107 195l-125 489h123l82 -345l181 345h128zM164 644q0 26 18.5 45.5t45.5 19.5t46.5 -19.5t19.5 -45.5q0 -27 -19.5 -46t-46.5 -19t-45.5 19t-18.5 46zM364 644q0 26 18.5 45.5t46.5 19.5q26 0 45.5 -19.5t19.5 -45.5q0 -27 -19.5 -46t-45.5 -19
q-28 0 -46.5 19t-18.5 46z" />
    <glyph glyph-name="Amacron" unicode="&#x100;" horiz-adv-x="700" 
d="M464 700l174 -700h-121l-39 147h-299l-79 -147h-129l373 700h120zM384 540l-148 -285h218zM294 776l14 98h241l-14 -98h-241z" />
    <glyph glyph-name="amacron" unicode="&#x101;" horiz-adv-x="587" 
d="M41 214q0 58 19 110.5t52.5 92t80 62.5t100.5 23q41 0 77.5 -15.5t61.5 -53.5l8 57h114l-69 -490h-114l7 47q-23 -25 -59.5 -41.5t-86.5 -16.5q-42 0 -77 17t-60.5 47t-39.5 71.5t-14 89.5zM158 219q0 -54 28 -90t77 -36q34 0 61.5 15t46.5 40t29 57t10 65q0 54 -29 91.5
t-75 37.5q-34 0 -61.5 -15t-46.5 -40t-29.5 -58t-10.5 -67zM245 700h241l-14 -97h-241z" />
    <glyph glyph-name="Abreve" unicode="&#x102;" horiz-adv-x="700" 
d="M464 700l174 -700h-121l-39 147h-299l-79 -147h-129l373 700h120zM384 540l-148 -285h218zM410 748q-59 0 -92 36.5t-29 97.5h90q0 -19 9.5 -31.5t34.5 -12.5q24 0 37.5 12.5t18.5 31.5h91q-13 -61 -56.5 -97.5t-103.5 -36.5z" />
    <glyph glyph-name="abreve" unicode="&#x103;" horiz-adv-x="587" 
d="M41 214q0 58 19 110.5t52.5 92t80 62.5t100.5 23q41 0 77.5 -15.5t61.5 -53.5l8 57h114l-69 -490h-114l7 47q-23 -25 -59.5 -41.5t-86.5 -16.5q-42 0 -77 17t-60.5 47t-39.5 71.5t-14 89.5zM158 219q0 -54 28 -90t77 -36q34 0 61.5 15t46.5 40t29 57t10 65q0 54 -29 91.5
t-75 37.5q-34 0 -61.5 -15t-46.5 -40t-29.5 -58t-10.5 -67zM348 554q-62 0 -95.5 40.5t-29.5 105.5h88q-1 -22 10 -38t38 -16t42 16t22 38h93q-14 -66 -59.5 -106t-108.5 -40z" />
    <glyph glyph-name="Aogonek" unicode="&#x104;" horiz-adv-x="700" 
d="M623 -114l-10 -71q-7 -1 -20 -3t-29 -2q-46 0 -71 20t-25 56q0 37 23.5 66t52.5 48h-27l-39 147h-299l-79 -147h-129l373 700h120l174 -700q-41 -25 -57 -44t-16 -37q0 -15 13 -24t41 -9h4zM384 540l-148 -285h218z" />
    <glyph glyph-name="aogonek" unicode="&#x105;" horiz-adv-x="587" 
d="M470 -114l-10 -71q-7 -1 -20 -3t-29 -2q-46 0 -71 20.5t-25 57.5q0 36 23.5 64.5t52.5 47.5h-20l7 47q-23 -25 -59.5 -41.5t-86.5 -16.5q-42 0 -77 17t-60.5 47t-39.5 71.5t-14 89.5q0 58 19 110.5t52.5 92t80 62.5t100.5 23q41 0 77.5 -15.5t61.5 -53.5l8 57h114
l-69 -490q-41 -25 -57 -44t-16 -37q0 -15 13 -24t41 -9h4zM158 219q0 -54 28 -90t77 -36q34 0 61.5 15t46.5 40t29 57t10 65q0 54 -29 91.5t-75 37.5q-34 0 -61.5 -15t-46.5 -40t-29.5 -58t-10.5 -67z" />
    <glyph glyph-name="Cacute" unicode="&#x106;" horiz-adv-x="719" 
d="M585 200l70 -88q-57 -58 -132 -90.5t-167 -32.5q-72 0 -131 24.5t-100 68t-64 103t-23 128.5q0 88 32 162t87.5 126.5t130 81.5t159.5 29q87 0 152 -35t108 -92l-90 -80q-31 43 -76.5 69t-108.5 26q-50 0 -99 -20.5t-86.5 -57t-61 -89.5t-23.5 -117q0 -98 58 -156.5
t149 -58.5q62 0 117 25t99 74zM459 868h143l-110 -103h-120z" />
    <glyph glyph-name="cacute" unicode="&#x107;" horiz-adv-x="539" 
d="M415 160l64 -83q-40 -41 -92 -64.5t-120 -23.5q-50 0 -92 17.5t-71.5 48.5t-46 73.5t-16.5 92.5q0 60 22.5 111.5t61 89t91 59t111.5 21.5q63 0 112.5 -24.5t80.5 -67.5l-87 -75q-19 28 -47.5 43.5t-63.5 15.5q-33 0 -63 -13t-52 -36t-35 -54t-13 -67q0 -55 33 -91.5
t91 -36.5q40 0 72 16.5t60 47.5zM360 700h144l-136 -138h-113z" />
    <glyph glyph-name="Ccircumflex" unicode="&#x108;" horiz-adv-x="719" 
d="M585 200l70 -88q-57 -58 -132 -90.5t-167 -32.5q-72 0 -131 24.5t-100 68t-64 103t-23 128.5q0 88 32 162t87.5 126.5t130 81.5t159.5 29q87 0 152 -35t108 -92l-90 -80q-31 43 -76.5 69t-108.5 26q-50 0 -99 -20.5t-86.5 -57t-61 -89.5t-23.5 -117q0 -98 58 -156.5
t149 -58.5q62 0 117 25t99 74zM301 765l104 103h143l76 -103h-114l-42 49l-57 -49h-110z" />
    <glyph glyph-name="ccircumflex" unicode="&#x109;" horiz-adv-x="539" 
d="M415 160l64 -83q-40 -41 -92 -64.5t-120 -23.5q-50 0 -92 17.5t-71.5 48.5t-46 73.5t-16.5 92.5q0 60 22.5 111.5t61 89t91 59t111.5 21.5q63 0 112.5 -24.5t80.5 -67.5l-87 -75q-19 28 -47.5 43.5t-63.5 15.5q-33 0 -63 -13t-52 -36t-35 -54t-13 -67q0 -55 33 -91.5
t91 -36.5q40 0 72 16.5t60 47.5zM292 700h136l74 -138h-99l-50 69l-67 -69h-107z" />
    <glyph glyph-name="Cdotaccent" unicode="&#x10a;" horiz-adv-x="719" 
d="M585 200l70 -88q-57 -58 -132 -90.5t-167 -32.5q-72 0 -131 24.5t-100 68t-64 103t-23 128.5q0 88 32 162t87.5 126.5t130 81.5t159.5 29q87 0 152 -35t108 -92l-90 -80q-31 43 -76.5 69t-108.5 26q-50 0 -99 -20.5t-86.5 -57t-61 -89.5t-23.5 -117q0 -98 58 -156.5
t149 -58.5q62 0 117 25t99 74zM386 822q0 29 20.5 50t50.5 21q29 0 50.5 -21t21.5 -50t-21.5 -50t-50.5 -21q-30 0 -50.5 21t-20.5 50z" />
    <glyph glyph-name="cdotaccent" unicode="&#x10b;" horiz-adv-x="539" 
d="M415 160l64 -83q-40 -41 -92 -64.5t-120 -23.5q-50 0 -92 17.5t-71.5 48.5t-46 73.5t-16.5 92.5q0 60 22.5 111.5t61 89t91 59t111.5 21.5q63 0 112.5 -24.5t80.5 -67.5l-87 -75q-19 28 -47.5 43.5t-63.5 15.5q-33 0 -63 -13t-52 -36t-35 -54t-13 -67q0 -55 33 -91.5
t91 -36.5q40 0 72 16.5t60 47.5zM284 640q0 30 20.5 51t50.5 21t51 -21t21 -51q0 -29 -21 -49.5t-51 -20.5t-50.5 20.5t-20.5 49.5z" />
    <glyph glyph-name="Ccaron" unicode="&#x10c;" horiz-adv-x="719" 
d="M585 200l70 -88q-57 -58 -132 -90.5t-167 -32.5q-72 0 -131 24.5t-100 68t-64 103t-23 128.5q0 88 32 162t87.5 126.5t130 81.5t159.5 29q87 0 152 -35t108 -92l-90 -80q-31 43 -76.5 69t-108.5 26q-50 0 -99 -20.5t-86.5 -57t-61 -89.5t-23.5 -117q0 -98 58 -156.5
t149 -58.5q62 0 117 25t99 74zM638 868l-104 -103h-143l-76 103h110l42 -49l56 49h115z" />
    <glyph glyph-name="ccaron" unicode="&#x10d;" horiz-adv-x="539" 
d="M415 160l64 -83q-40 -41 -92 -64.5t-120 -23.5q-50 0 -92 17.5t-71.5 48.5t-46 73.5t-16.5 92.5q0 60 22.5 111.5t61 89t91 59t111.5 21.5q63 0 112.5 -24.5t80.5 -67.5l-87 -75q-19 28 -47.5 43.5t-63.5 15.5q-33 0 -63 -13t-52 -36t-35 -54t-13 -67q0 -55 33 -91.5
t91 -36.5q40 0 72 16.5t60 47.5zM417 562h-137l-74 138h99l48 -68l68 68h108z" />
    <glyph glyph-name="Dcaron" unicode="&#x10e;" horiz-adv-x="719" 
d="M27 0l99 700h214q65 0 126.5 -17.5t109.5 -55t77 -96.5t29 -140q0 -109 -40 -184.5t-102.5 -121t-141.5 -65.5t-157 -20h-214zM320 589h-92l-67 -478h87q62 0 118.5 15t99 48.5t68 86t25.5 127.5q0 55 -19 93.5t-51.5 62t-76 34.5t-92.5 11zM615 872l-104 -103h-143
l-76 103h110l42 -49l56 49h115z" />
    <glyph glyph-name="dcaron" unicode="&#x10f;" horiz-adv-x="607" 
d="M41 217q0 64 22.5 117t60 90t87.5 57.5t106 20.5q47 0 81 -16.5t55 -42.5l36 257h115l-99 -700h-113l7 46q-28 -26 -67 -41.5t-84 -15.5t-83.5 17.5t-65.5 48.5t-42.5 72.5t-15.5 89.5zM160 222q0 -56 30 -92.5t82 -36.5q66 0 111.5 50.5t45.5 124.5q0 56 -30.5 92.5
t-83.5 36.5q-66 0 -110.5 -51t-44.5 -124zM723 511l86 189h-117l-54 -189h85z" />
    <glyph glyph-name="Dcroat" unicode="&#x110;" horiz-adv-x="719" 
d="M27 0l43 304h-76l14 107h77l41 289h214q65 0 126.5 -17.5t109.5 -55t77 -96.5t29 -140q0 -109 -40 -184.5t-102.5 -121t-141.5 -65.5t-157 -20h-214zM310 304h-121l-27 -193h86q62 0 118.5 15t99 48.5t68 86t25.5 127.5q0 55 -19 93.5t-51.5 62t-76 34.5t-92.5 11h-91
l-25 -178h120z" />
    <glyph glyph-name="dcroat" unicode="&#x111;" horiz-adv-x="607" 
d="M41 217q0 64 22.5 117t60 90t87.5 57.5t106 20.5q47 0 81 -16.5t55 -42.5l14 99h-169l14 100h169l8 58h115l-9 -58h61l-14 -100h-61l-76 -542h-113l7 46q-28 -26 -67 -41.5t-84 -15.5t-83.5 17.5t-65.5 48.5t-42.5 72.5t-15.5 89.5zM160 222q0 -56 30 -92.5t82 -36.5
q66 0 111.5 50.5t45.5 124.5q0 56 -30.5 92.5t-83.5 36.5q-66 0 -110.5 -51t-44.5 -124z" />
    <glyph glyph-name="Emacron" unicode="&#x112;" horiz-adv-x="634" 
d="M27 0l99 700h493l-16 -111h-375l-24 -177h360l-16 -109h-360l-27 -192h375l-16 -111h-493zM267 776l14 98h241l-14 -98h-241z" />
    <glyph glyph-name="emacron" unicode="&#x113;" horiz-adv-x="551" 
d="M504 214h-346v-8q1 -48 30.5 -80t84.5 -32q39 0 73.5 16.5t63.5 46.5l68 -74q-38 -40 -91.5 -67t-126.5 -27q-99 0 -158.5 63t-59.5 162q0 60 20.5 112.5t56.5 91.5t85.5 61.5t108.5 22.5q52 0 90 -19t61.5 -49.5t35 -69t11.5 -78.5q0 -27 -3.5 -49.5zM229 700h241
l-14 -97h-241zM302 399q-49 0 -82.5 -29.5t-46.5 -71.5h223q1 44 -23.5 72.5t-70.5 28.5z" />
    <glyph glyph-name="Ebreve" unicode="&#x114;" horiz-adv-x="634" 
d="M27 0l99 700h493l-16 -111h-375l-24 -177h360l-16 -109h-360l-27 -192h375l-16 -111h-493zM382 748q-59 0 -92 36.5t-29 97.5h90q0 -19 9.5 -31.5t34.5 -12.5q24 0 37.5 12.5t18.5 31.5h91q-13 -61 -56.5 -97.5t-103.5 -36.5z" />
    <glyph glyph-name="ebreve" unicode="&#x115;" horiz-adv-x="551" 
d="M504 214h-346v-8q1 -48 30.5 -80t84.5 -32q39 0 73.5 16.5t63.5 46.5l68 -74q-38 -40 -91.5 -67t-126.5 -27q-99 0 -158.5 63t-59.5 162q0 60 20.5 112.5t56.5 91.5t85.5 61.5t108.5 22.5q52 0 90 -19t61.5 -49.5t35 -69t11.5 -78.5q0 -27 -3.5 -49.5zM332 554
q-62 0 -95.5 40.5t-29.5 105.5h88q-1 -22 10 -38t38 -16t42 16t22 38h93q-14 -66 -59.5 -106t-108.5 -40zM302 399q-49 0 -82.5 -29.5t-46.5 -71.5h223q1 44 -23.5 72.5t-70.5 28.5z" />
    <glyph glyph-name="Edotaccent" unicode="&#x116;" horiz-adv-x="634" 
d="M27 0l99 700h493l-16 -111h-375l-24 -177h360l-16 -109h-360l-27 -192h375l-16 -111h-493zM323 826q0 29 20.5 50t50.5 21q29 0 50.5 -21t21.5 -50t-21.5 -50t-50.5 -21q-30 0 -50.5 21t-20.5 50z" />
    <glyph glyph-name="edotaccent" unicode="&#x117;" horiz-adv-x="551" 
d="M504 214h-346v-8q1 -48 30.5 -80t84.5 -32q39 0 73.5 16.5t63.5 46.5l68 -74q-38 -40 -91.5 -67t-126.5 -27q-99 0 -158.5 63t-59.5 162q0 60 20.5 112.5t56.5 91.5t85.5 61.5t108.5 22.5q52 0 90 -19t61.5 -49.5t35 -69t11.5 -78.5q0 -27 -3.5 -49.5zM302 399
q-49 0 -82.5 -29.5t-46.5 -71.5h223q1 44 -23.5 72.5t-70.5 28.5zM272 640q0 30 20.5 51t50.5 21t51 -21t21 -51q0 -29 -21 -49.5t-51 -20.5t-50.5 20.5t-20.5 49.5z" />
    <glyph glyph-name="Eogonek" unicode="&#x118;" horiz-adv-x="634" 
d="M27 0l99 700h493l-16 -111h-375l-24 -177h360l-16 -109h-360l-27 -192h375l-16 -111q-41 -25 -57 -44t-16 -37q0 -15 13 -24t41 -9h4l-10 -71q-7 -1 -20 -3t-29 -2q-46 0 -71 20t-25 56q0 37 23.5 66t52.5 48h-399z" />
    <glyph glyph-name="eogonek" unicode="&#x119;" horiz-adv-x="551" 
d="M326 -114l-10 -71q-7 -1 -20 -3t-29 -2q-46 0 -71 20.5t-25 57.5q0 31 18.5 57.5t43.5 45.5q-87 8 -139 69.5t-52 153.5q0 60 20.5 112.5t56.5 91.5t85.5 61.5t108.5 22.5q52 0 90 -19t61.5 -49.5t35 -69t11.5 -78.5q0 -27 -3.5 -49.5l-3.5 -22.5h-346v-8q1 -48 30.5 -80
t84.5 -32q39 0 73.5 16.5t63.5 46.5l68 -74q-27 -29 -62 -51.5t-78 -32.5q-40 -24 -55 -43t-15 -37q0 -15 13 -24t41 -9h4zM302 399q-49 0 -82.5 -29.5t-46.5 -71.5h223q1 44 -23.5 72.5t-70.5 28.5z" />
    <glyph glyph-name="Ecaron" unicode="&#x11a;" horiz-adv-x="634" 
d="M27 0l99 700h493l-16 -111h-375l-24 -177h360l-16 -109h-360l-27 -192h375l-16 -111h-493zM554 872l-104 -103h-143l-76 103h110l42 -49l56 49h115z" />
    <glyph glyph-name="ecaron" unicode="&#x11b;" horiz-adv-x="551" 
d="M504 214h-346v-8q1 -48 30.5 -80t84.5 -32q39 0 73.5 16.5t63.5 46.5l68 -74q-38 -40 -91.5 -67t-126.5 -27q-99 0 -158.5 63t-59.5 162q0 60 20.5 112.5t56.5 91.5t85.5 61.5t108.5 22.5q52 0 90 -19t61.5 -49.5t35 -69t11.5 -78.5q0 -27 -3.5 -49.5zM405 562h-137
l-74 138h99l48 -68l68 68h108zM302 399q-49 0 -82.5 -29.5t-46.5 -71.5h223q1 44 -23.5 72.5t-70.5 28.5z" />
    <glyph glyph-name="Gcircumflex" unicode="&#x11c;" horiz-adv-x="744" 
d="M432 600q-50 0 -99 -20.5t-86.5 -57t-61 -89t-23.5 -116.5q0 -96 58 -156t149 -60q46 0 90.5 14.5t81.5 42.5l14 105h-161l16 110h278l-39 -271q-54 -51 -130 -82t-163 -31q-71 0 -129.5 25.5t-100.5 69.5t-65 103.5t-23 127.5q0 89 33 162.5t89 125.5t130.5 80.5
t156.5 28.5q88 0 152.5 -34t108.5 -91l-88 -79q-32 45 -78.5 68.5t-109.5 23.5zM292 769l104 103h143l76 -103h-114l-42 49l-57 -49h-110z" />
    <glyph glyph-name="gcircumflex" unicode="&#x11d;" horiz-adv-x="594" 
d="M9 -102l87 74q16 -28 48 -49.5t81 -21.5q66 0 107.5 37.5t49.5 96.5l3 26q-26 -26 -62.5 -38t-79.5 -12q-44 0 -81 17t-63.5 46t-41.5 69.5t-15 86.5q0 65 23.5 116t61 85.5t85 52.5t94.5 18q41 0 77 -15.5t58 -45.5l7 49h113l-64 -456q-16 -110 -90.5 -174.5
t-192.5 -64.5q-44 0 -79 11.5t-60 27.5t-41.5 34t-24.5 30zM160 236q0 -54 30.5 -87t78.5 -33q29 0 56 12t47.5 33t32.5 51t12 65q0 54 -30.5 87t-79.5 33q-29 0 -56 -12t-47 -33t-32 -51t-12 -65zM290 700h136l74 -138h-99l-50 69l-67 -69h-107z" />
    <glyph glyph-name="Gbreve" unicode="&#x11e;" horiz-adv-x="744" 
d="M432 600q-50 0 -99 -20.5t-86.5 -57t-61 -89t-23.5 -116.5q0 -96 58 -156t149 -60q46 0 90.5 14.5t81.5 42.5l14 105h-161l16 110h278l-39 -271q-54 -51 -130 -82t-163 -31q-71 0 -129.5 25.5t-100.5 69.5t-65 103.5t-23 127.5q0 89 33 162.5t89 125.5t130.5 80.5
t156.5 28.5q88 0 152.5 -34t108.5 -91l-88 -79q-32 45 -78.5 68.5t-109.5 23.5zM446 748q-59 0 -92 36.5t-29 97.5h90q0 -19 9.5 -31.5t34.5 -12.5q24 0 37.5 12.5t18.5 31.5h91q-13 -61 -56.5 -97.5t-103.5 -36.5z" />
    <glyph glyph-name="gbreve" unicode="&#x11f;" horiz-adv-x="594" 
d="M9 -102l87 74q16 -28 48 -49.5t81 -21.5q66 0 107.5 37.5t49.5 96.5l3 26q-26 -26 -62.5 -38t-79.5 -12q-44 0 -81 17t-63.5 46t-41.5 69.5t-15 86.5q0 65 23.5 116t61 85.5t85 52.5t94.5 18q41 0 77 -15.5t58 -45.5l7 49h113l-64 -456q-16 -110 -90.5 -174.5
t-192.5 -64.5q-44 0 -79 11.5t-60 27.5t-41.5 34t-24.5 30zM160 236q0 -54 30.5 -87t78.5 -33q29 0 56 12t47.5 33t32.5 51t12 65q0 54 -30.5 87t-79.5 33q-29 0 -56 -12t-47 -33t-32 -51t-12 -65zM342 554q-62 0 -95.5 40.5t-29.5 105.5h88q-1 -22 10 -38t38 -16t42 16
t22 38h93q-14 -66 -59.5 -106t-108.5 -40z" />
    <glyph glyph-name="Gdotaccent" unicode="&#x120;" horiz-adv-x="744" 
d="M432 600q-50 0 -99 -20.5t-86.5 -57t-61 -89t-23.5 -116.5q0 -96 58 -156t149 -60q46 0 90.5 14.5t81.5 42.5l14 105h-161l16 110h278l-39 -271q-54 -51 -130 -82t-163 -31q-71 0 -129.5 25.5t-100.5 69.5t-65 103.5t-23 127.5q0 89 33 162.5t89 125.5t130.5 80.5
t156.5 28.5q88 0 152.5 -34t108.5 -91l-88 -79q-32 45 -78.5 68.5t-109.5 23.5zM377 826q0 29 20.5 50t50.5 21q29 0 50.5 -21t21.5 -50t-21.5 -50t-50.5 -21q-30 0 -50.5 21t-20.5 50z" />
    <glyph glyph-name="gdotaccent" unicode="&#x121;" horiz-adv-x="594" 
d="M9 -102l87 74q16 -28 48 -49.5t81 -21.5q66 0 107.5 37.5t49.5 96.5l3 26q-26 -26 -62.5 -38t-79.5 -12q-44 0 -81 17t-63.5 46t-41.5 69.5t-15 86.5q0 65 23.5 116t61 85.5t85 52.5t94.5 18q41 0 77 -15.5t58 -45.5l7 49h113l-64 -456q-16 -110 -90.5 -174.5
t-192.5 -64.5q-44 0 -79 11.5t-60 27.5t-41.5 34t-24.5 30zM160 236q0 -54 30.5 -87t78.5 -33q29 0 56 12t47.5 33t32.5 51t12 65q0 54 -30.5 87t-79.5 33q-29 0 -56 -12t-47 -33t-32 -51t-12 -65zM270 640q0 30 20.5 51t50.5 21t51 -21t21 -51q0 -29 -21 -49.5t-51 -20.5
t-50.5 20.5t-20.5 49.5z" />
    <glyph glyph-name="Gcommaaccent" unicode="&#x122;" horiz-adv-x="744" 
d="M432 600q-50 0 -99 -20.5t-86.5 -57t-61 -89t-23.5 -116.5q0 -96 58 -156t149 -60q46 0 90.5 14.5t81.5 42.5l14 105h-161l16 110h278l-39 -271q-54 -51 -130 -82t-163 -31q-71 0 -129.5 25.5t-100.5 69.5t-65 103.5t-23 127.5q0 89 33 162.5t89 125.5t130.5 80.5
t156.5 28.5q88 0 152.5 -34t108.5 -91l-88 -79q-32 45 -78.5 68.5t-109.5 23.5zM245 -194h93l90 137h-117z" />
    <glyph glyph-name="gcommaaccent" unicode="&#x123;" horiz-adv-x="594" 
d="M9 -102l87 74q16 -28 48 -49.5t81 -21.5q66 0 107.5 37.5t49.5 96.5l3 26q-26 -26 -62.5 -38t-79.5 -12q-44 0 -81 17t-63.5 46t-41.5 69.5t-15 86.5q0 65 23.5 116t61 85.5t85 52.5t94.5 18q41 0 77 -15.5t58 -45.5l7 49h113l-64 -456q-16 -110 -90.5 -174.5
t-192.5 -64.5q-44 0 -79 11.5t-60 27.5t-41.5 34t-24.5 30zM160 236q0 -54 30.5 -87t78.5 -33q29 0 56 12t47.5 33t32.5 51t12 65q0 54 -30.5 87t-79.5 33q-29 0 -56 -12t-47 -33t-32 -51t-12 -65zM350 700h92l-65 -137h-118z" />
    <glyph glyph-name="Hcircumflex" unicode="&#x124;" horiz-adv-x="713" 
d="M475 0l43 303h-330l-42 -303h-119l99 700h119l-41 -287h329l41 287h119l-99 -700h-119zM259 769l104 103h143l76 -103h-114l-42 49l-57 -49h-110z" />
    <glyph glyph-name="hcircumflex" unicode="&#x125;" horiz-adv-x="570" 
d="M247 700l-36 -251q24 23 60 38t75 15q80 0 126 -49.5t46 -132.5q0 -12 -1.5 -24t-2.5 -25l-38 -271h-116l40 281q1 6 1.5 12.5t0.5 12.5q0 41 -21 65t-64 24q-59 0 -92 -41.5t-43 -109.5l-34 -244h-114l99 700h114zM45 769l104 103h143l76 -103h-114l-42 49l-57 -49h-110
z" />
    <glyph glyph-name="Hbar" unicode="&#x126;" horiz-adv-x="713" 
d="M594 0h-119l43 303h-330l-42 -303h-119l71 505h-74l14 99h74l14 96h119l-14 -96h329l14 96h119l-14 -96h74l-13 -99h-75zM204 413h329l13 92h-329z" />
    <glyph glyph-name="hbar" unicode="&#x127;" horiz-adv-x="570" 
d="M247 700l-9 -58h169l-14 -100h-169l-13 -93q24 23 60 38t75 15q80 0 126 -49.5t46 -132.5q0 -12 -1.5 -24t-2.5 -25l-38 -271h-116l40 281q1 6 1.5 12.5t0.5 12.5q0 41 -21 65t-64 24q-59 0 -92 -41.5t-43 -109.5l-34 -244h-114l76 542h-61l14 100h61l9 58h114z" />
    <glyph glyph-name="Itilde" unicode="&#x128;" horiz-adv-x="265" 
d="M27 0l99 700h119l-99 -700h-119zM289 885h80q-7 -48 -36 -82t-70 -34q-13 0 -26 4l-26 8l-26 9q-8 4 -16 5.5t-16 1.5q-11 0 -20 -6.5t-12 -21.5h-80q7 49 35.5 82.5t69.5 33.5q13 0 26 -3.5t26 -7.5l27 -10q8 -3 15.5 -5t15.5 -2q11 0 20.5 7t12.5 21z" />
    <glyph glyph-name="itilde" unicode="&#x129;" horiz-adv-x="259" 
d="M38 0l69 490h115l-69 -490h-115zM267 700h80q-7 -48 -36 -82t-70 -34q-13 0 -25.5 4t-25.5 8l-27 9q-8 3 -16 5t-16 2q-11 0 -20 -6.5t-12 -21.5h-80q7 49 35.5 82.5t69.5 33.5q13 0 26 -3.5t26 -7.5l27 -10q8 -3 15.5 -5t15.5 -2q11 0 20.5 7t12.5 21z" />
    <glyph glyph-name="Imacron" unicode="&#x12a;" horiz-adv-x="265" 
d="M27 0l99 700h119l-99 -700h-119zM73 776l14 98h241l-14 -98h-241z" />
    <glyph glyph-name="imacron" unicode="&#x12b;" horiz-adv-x="259" 
d="M38 0l69 490h115l-69 -490h-115zM74 700h241l-14 -97h-241z" />
    <glyph glyph-name="Ibreve" unicode="&#x12c;" horiz-adv-x="265" 
d="M27 0l99 700h119l-99 -700h-119zM189 748q-59 0 -92 36.5t-29 97.5h90q0 -19 9.5 -31.5t34.5 -12.5q24 0 37.5 12.5t18.5 31.5h91q-13 -61 -56.5 -97.5t-103.5 -36.5z" />
    <glyph glyph-name="ibreve" unicode="&#x12d;" horiz-adv-x="259" 
d="M38 0l69 490h115l-69 -490h-115zM176 554q-62 0 -95.5 40.5t-29.5 105.5h88q-1 -22 10 -38t38 -16t42 16t22 38h93q-14 -66 -59.5 -106t-108.5 -40z" />
    <glyph glyph-name="Iogonek" unicode="&#x12e;" horiz-adv-x="265" 
d="M27 0l99 700h119l-99 -700q-41 -25 -57 -44t-16 -37q0 -15 13 -24t41 -9h4l-10 -71q-7 -1 -20 -3t-29 -2q-46 0 -71 20t-25 56q0 37 23.5 66t52.5 48h-25z" />
    <glyph glyph-name="iogonek" unicode="&#x12f;" horiz-adv-x="259" 
d="M38 0l69 490h115l-69 -490q-41 -25 -57 -44t-16 -37q0 -15 13 -24t41 -9h4l-10 -71q-7 -1 -20 -3t-29 -2q-46 0 -71 20.5t-25 57.5q0 36 23.5 64.5t52.5 47.5h-21zM114 640q0 30 20.5 51t49.5 21q30 0 51 -21t21 -51q0 -29 -21 -49.5t-51 -20.5q-29 0 -49.5 20.5
t-20.5 49.5z" />
    <glyph glyph-name="Idotaccent" unicode="&#x130;" horiz-adv-x="265" 
d="M27 0l99 700h119l-99 -700h-119zM130 826q0 29 20.5 50t50.5 21q29 0 50.5 -21t21.5 -50t-21.5 -50t-50.5 -21q-30 0 -50.5 21t-20.5 50z" />
    <glyph glyph-name="dotlessi" unicode="&#x131;" horiz-adv-x="259" 
d="M38 0l69 490h115l-69 -490h-115z" />
    <glyph glyph-name="IJ" unicode="&#x132;" horiz-adv-x="764" 
d="M27 0l99 700h119l-99 -700h-119zM242 97l88 75q19 -34 47 -53.5t68 -19.5q52 0 83.5 34t39.5 92l66 475h120l-68 -483q-15 -103 -77 -165.5t-173 -62.5q-64 0 -115 30t-79 78z" />
    <glyph glyph-name="ij" unicode="&#x133;" horiz-adv-x="526" 
d="M38 0l69 490h115l-69 -490h-115zM114 640q0 30 20.5 51t49.5 21q30 0 51 -21t21 -51q0 -29 -21 -49.5t-51 -20.5q-29 0 -49.5 20.5t-20.5 49.5zM306 -27l73 517h115l-76 -532q-11 -83 -56.5 -123t-125.5 -40q-25 0 -42.5 1l-17.5 1l14 105l16.5 -0.5t19.5 -0.5
q37 0 56 16t24 56zM385 640q0 30 20.5 51t50.5 21q29 0 50.5 -21t21.5 -51q0 -29 -21.5 -49.5t-50.5 -20.5q-30 0 -50.5 20.5t-20.5 49.5z" />
    <glyph glyph-name="Jcircumflex" unicode="&#x134;" horiz-adv-x="513" 
d="M-9 97l88 75q19 -34 47 -53.5t68 -19.5q52 0 83.5 34t39.5 92l66 475h120l-68 -483q-15 -103 -77 -165.5t-173 -62.5q-64 0 -115 30t-79 78zM294 769l104 103h143l76 -103h-114l-42 49l-57 -49h-110z" />
    <glyph glyph-name="jcircumflex" unicode="&#x135;" horiz-adv-x="267" 
d="M47 -27l73 517h115l-76 -532q-11 -83 -56.5 -123t-125.5 -40q-25 0 -42.5 1l-17.5 1l14 105l16.5 -0.5t19.5 -0.5q37 0 56 16t24 56zM138 700h136l74 -138h-99l-50 69l-67 -69h-107z" />
    <glyph glyph-name="Kcommaaccent" unicode="&#x136;" horiz-adv-x="645" 
d="M27 0l99 700h119l-47 -330l310 330h147l-285 -302l203 -398h-130l-159 310l-111 -117l-27 -193h-119zM160 -194h93l90 137h-117z" />
    <glyph glyph-name="kcommaaccent" unicode="&#x137;" horiz-adv-x="533" 
d="M34 0l99 700h114l-56 -396l194 186h151l-215 -205l153 -285h-131l-108 208l-67 -63l-20 -145h-114zM121 -194h93l90 137h-117z" />
    <glyph glyph-name="kgreenlandic" unicode="&#x138;" horiz-adv-x="533" 
d="M34 0l69 490h115l-27 -186l194 186h151l-215 -205l153 -285h-131l-108 208l-67 -63l-20 -145h-114z" />
    <glyph glyph-name="Lacute" unicode="&#x139;" horiz-adv-x="554" 
d="M27 0l99 700h119l-84 -589h329l-15 -111h-448zM216 872h143l-110 -103h-120z" />
    <glyph glyph-name="lacute" unicode="&#x13a;" horiz-adv-x="253" 
d="M34 0l99 700h114l-99 -700h-114zM228 872h143l-110 -103h-120z" />
    <glyph glyph-name="Lcommaaccent" unicode="&#x13b;" horiz-adv-x="554" 
d="M27 0l99 700h119l-84 -589h329l-15 -111h-448zM140 -194h93l90 137h-117z" />
    <glyph glyph-name="lcommaaccent" unicode="&#x13c;" horiz-adv-x="253" 
d="M34 0l99 700h114l-99 -700h-114zM-36 -194h93l90 137h-117z" />
    <glyph glyph-name="Lcaron" unicode="&#x13d;" horiz-adv-x="554" 
d="M27 0l99 700h119l-84 -589h329l-15 -111h-448zM383 511l86 189h-117l-54 -189h85z" />
    <glyph glyph-name="lcaron" unicode="&#x13e;" horiz-adv-x="253" 
d="M34 0l99 700h114l-99 -700h-114zM359 511l86 189h-117l-54 -189h85z" />
    <glyph glyph-name="Ldot" unicode="&#x13f;" horiz-adv-x="554" 
d="M27 0l99 700h119l-84 -589h329l-15 -111h-448zM334 346q0 29 20.5 50t50.5 21q29 0 50.5 -21t21.5 -50t-21.5 -50t-50.5 -21q-30 0 -50.5 21t-20.5 50z" />
    <glyph glyph-name="ldot" unicode="&#x140;" horiz-adv-x="369" 
d="M34 0l99 700h114l-99 -700h-114zM254 345q0 30 20.5 51t50.5 21t51 -21t21 -51q0 -29 -21 -49.5t-51 -20.5t-50.5 20.5t-20.5 49.5z" />
    <glyph glyph-name="Lslash" unicode="&#x141;" horiz-adv-x="554" 
d="M475 0h-448l35 251l-85 -35l16 118l86 35l47 331h119l-40 -279l175 72l-15 -117l-176 -73l-27 -192h328z" />
    <glyph glyph-name="lslash" unicode="&#x142;" horiz-adv-x="253" 
d="M148 0h-114l39 280l-76 -35l16 110l76 35l44 310h114l-36 -253l80 37l-15 -110l-81 -37z" />
    <glyph glyph-name="Nacute" unicode="&#x143;" horiz-adv-x="733" 
d="M476 0l-257 523l-73 -523h-119l99 700h138l255 -525l74 525h120l-99 -700h-138zM424 872h143l-110 -103h-120z" />
    <glyph glyph-name="nacute" unicode="&#x144;" horiz-adv-x="570" 
d="M215 490l-6 -44q24 24 61 40t76 16q80 0 126 -49.5t46 -132.5q0 -12 -1.5 -24t-2.5 -25l-38 -271h-116l40 281q1 6 1.5 12.5t0.5 12.5q0 41 -21 65t-64 24q-59 0 -92 -41.5t-43 -109.5l-34 -244h-114l69 490h112zM355 700h144l-136 -138h-113z" />
    <glyph glyph-name="Ncommaaccent" unicode="&#x145;" horiz-adv-x="733" 
d="M476 0l-257 523l-73 -523h-119l99 700h138l255 -525l74 525h120l-99 -700h-138zM199 -194h93l90 137h-117z" />
    <glyph glyph-name="ncommaaccent" unicode="&#x146;" horiz-adv-x="570" 
d="M215 490l-6 -44q24 24 61 40t76 16q80 0 126 -49.5t46 -132.5q0 -12 -1.5 -24t-2.5 -25l-38 -271h-116l40 281q1 6 1.5 12.5t0.5 12.5q0 41 -21 65t-64 24q-59 0 -92 -41.5t-43 -109.5l-34 -244h-114l69 490h112zM136 -194h93l90 137h-117z" />
    <glyph glyph-name="Ncaron" unicode="&#x147;" horiz-adv-x="733" 
d="M476 0l-257 523l-73 -523h-119l99 700h138l255 -525l74 525h120l-99 -700h-138zM603 872l-104 -103h-143l-76 103h110l42 -49l56 49h115z" />
    <glyph glyph-name="ncaron" unicode="&#x148;" horiz-adv-x="570" 
d="M215 490l-6 -44q24 24 61 40t76 16q80 0 126 -49.5t46 -132.5q0 -12 -1.5 -24t-2.5 -25l-38 -271h-116l40 281q1 6 1.5 12.5t0.5 12.5q0 41 -21 65t-64 24q-59 0 -92 -41.5t-43 -109.5l-34 -244h-114l69 490h112zM411 562h-137l-74 138h99l48 -68l68 68h108z" />
    <glyph glyph-name="Eng" unicode="&#x14a;" horiz-adv-x="733" 
d="M495 0l-278 504l-71 -504h-119l99 700h124l272 -506l71 506h120l-104 -734q-12 -87 -59.5 -129t-131.5 -42q-25 0 -44 1l-19 1l15 109h38q39 0 58.5 16.5t26.5 58.5z" />
    <glyph glyph-name="eng" unicode="&#x14b;" horiz-adv-x="570" 
d="M215 490l-6 -44q24 24 61 40t76 16q80 0 126 -49.5t46 -132.5q0 -12 -1.5 -24t-2.5 -25l-44 -313q-11 -83 -57 -123t-127 -40q-25 0 -42.5 1l-17.5 1l15 105l16 -0.5t20 -0.5q37 0 55.5 16t23.5 56l44 308q1 6 1.5 12.5t0.5 12.5q0 41 -21 65t-64 24q-59 0 -92 -41.5
t-43 -109.5l-34 -244h-114l69 490h112z" />
    <glyph glyph-name="Omacron" unicode="&#x14c;" horiz-adv-x="798" 
d="M38 311q0 87 33.5 160.5t89 127t130.5 83.5t157 30q68 0 125.5 -25t99 -68t64.5 -102t23 -127q0 -86 -32.5 -159.5t-87.5 -127t-129.5 -84t-158.5 -30.5q-68 0 -126 25t-99.5 68.5t-65 102.5t-23.5 126zM162 317q0 -45 13.5 -84.5t39.5 -68.5t64 -46t87 -17
q59 0 109.5 23t86.5 61.5t56.5 90t20.5 107.5q0 45 -14 85t-40 69t-64 46t-85 17q-60 0 -110.5 -23t-86.5 -62t-56.5 -90.5t-20.5 -107.5zM338 776l14 98h241l-14 -98h-241z" />
    <glyph glyph-name="omacron" unicode="&#x14d;" horiz-adv-x="596" 
d="M41 219q0 60 22.5 112.5t61.5 90t91.5 59t111.5 21.5q51 0 93 -18.5t71.5 -50t46 -74t16.5 -89.5q0 -61 -22.5 -112.5t-61.5 -89t-91.5 -58.5t-111.5 -21q-50 0 -92 18t-72 49t-46.5 73.5t-16.5 89.5zM159 224q0 -55 33.5 -91.5t86.5 -36.5q66 0 112 49t46 121
q0 55 -33 91.5t-87 36.5q-66 0 -112 -49t-46 -121zM239 700h241l-14 -97h-241z" />
    <glyph glyph-name="Obreve" unicode="&#x14e;" horiz-adv-x="798" 
d="M38 311q0 87 33.5 160.5t89 127t130.5 83.5t157 30q68 0 125.5 -25t99 -68t64.5 -102t23 -127q0 -86 -32.5 -159.5t-87.5 -127t-129.5 -84t-158.5 -30.5q-68 0 -126 25t-99.5 68.5t-65 102.5t-23.5 126zM162 317q0 -45 13.5 -84.5t39.5 -68.5t64 -46t87 -17
q59 0 109.5 23t86.5 61.5t56.5 90t20.5 107.5q0 45 -14 85t-40 69t-64 46t-85 17q-60 0 -110.5 -23t-86.5 -62t-56.5 -90.5t-20.5 -107.5zM453 748q-59 0 -92 36.5t-29 97.5h90q0 -19 9.5 -31.5t34.5 -12.5q24 0 37.5 12.5t18.5 31.5h91q-13 -61 -56.5 -97.5t-103.5 -36.5z
" />
    <glyph glyph-name="obreve" unicode="&#x14f;" horiz-adv-x="596" 
d="M41 219q0 60 22.5 112.5t61.5 90t91.5 59t111.5 21.5q51 0 93 -18.5t71.5 -50t46 -74t16.5 -89.5q0 -61 -22.5 -112.5t-61.5 -89t-91.5 -58.5t-111.5 -21q-50 0 -92 18t-72 49t-46.5 73.5t-16.5 89.5zM159 224q0 -55 33.5 -91.5t86.5 -36.5q66 0 112 49t46 121
q0 55 -33 91.5t-87 36.5q-66 0 -112 -49t-46 -121zM342 554q-62 0 -95.5 40.5t-29.5 105.5h88q-1 -22 10 -38t38 -16t42 16t22 38h93q-14 -66 -59.5 -106t-108.5 -40z" />
    <glyph glyph-name="Ohungarumlaut" unicode="&#x150;" horiz-adv-x="798" 
d="M38 311q0 87 33.5 160.5t89 127t130.5 83.5t157 30q68 0 125.5 -25t99 -68t64.5 -102t23 -127q0 -86 -32.5 -159.5t-87.5 -127t-129.5 -84t-158.5 -30.5q-68 0 -126 25t-99.5 68.5t-65 102.5t-23.5 126zM162 317q0 -45 13.5 -84.5t39.5 -68.5t64 -46t87 -17
q59 0 109.5 23t86.5 61.5t56.5 90t20.5 107.5q0 45 -14 85t-40 69t-64 46t-85 17q-60 0 -110.5 -23t-86.5 -62t-56.5 -90.5t-20.5 -107.5zM304 769l81 103h121l-96 -103h-106zM481 769l81 103h122l-97 -103h-106z" />
    <glyph glyph-name="ohungarumlaut" unicode="&#x151;" horiz-adv-x="596" 
d="M41 219q0 60 22.5 112.5t61.5 90t91.5 59t111.5 21.5q51 0 93 -18.5t71.5 -50t46 -74t16.5 -89.5q0 -61 -22.5 -112.5t-61.5 -89t-91.5 -58.5t-111.5 -21q-50 0 -92 18t-72 49t-46.5 73.5t-16.5 89.5zM159 224q0 -55 33.5 -91.5t86.5 -36.5q66 0 112 49t46 121
q0 55 -33 91.5t-87 36.5q-66 0 -112 -49t-46 -121zM274 700h123l-115 -131h-107zM451 700h123l-115 -131h-107z" />
    <glyph glyph-name="OE" unicode="&#x152;" horiz-adv-x="942" 
d="M38 312q0 88 33.5 160t90.5 122.5t133 78t160 27.5h472l-16 -111h-317l-25 -177h302l-15 -109h-302l-27 -192h317l-15 -111h-460q-70 0 -130.5 21t-105 60.5t-70 98t-25.5 132.5zM161 317q0 -92 56.5 -149t157.5 -57h32l67 478h-32q-60 0 -111.5 -20.5t-89 -56.5t-59 -86
t-21.5 -109z" />
    <glyph glyph-name="oe" unicode="&#x153;" horiz-adv-x="941" 
d="M892 214h-344q-4 -54 27 -87t88 -33q40 0 73 17t60 49l69 -74q-37 -40 -89.5 -68.5t-125.5 -28.5q-63 0 -106.5 25t-71.5 72q-40 -46 -94.5 -71.5t-115.5 -25.5q-49 0 -90 17.5t-70 48t-45 73t-16 92.5q0 60 23 111.5t62 89.5t91.5 59.5t111.5 21.5q60 0 104.5 -27
t71.5 -73q36 46 87 73t111 27q52 0 89.5 -18.5t62 -48.5t36 -68.5t11.5 -78.5q0 -28 -5 -51zM159 224q0 -55 32 -91.5t85 -36.5q34 0 63 13.5t50.5 37.5t34 55.5t12.5 67.5q0 54 -32.5 89t-85.5 35q-66 0 -112.5 -49t-46.5 -121zM692 399q-50 0 -82.5 -29.5t-46.5 -71.5h222
q4 44 -21.5 72.5t-71.5 28.5z" />
    <glyph glyph-name="Racute" unicode="&#x154;" horiz-adv-x="666" 
d="M443 0l-119 238h-145l-33 -238h-119l99 700h268q105 0 171 -57t66 -153q0 -87 -49.5 -148t-133.5 -86l128 -256h-133zM376 589h-147l-34 -241h141q83 0 128.5 37t45.5 100q0 50 -36 77t-98 27zM401 872h143l-110 -103h-120z" />
    <glyph glyph-name="racute" unicode="&#x155;" horiz-adv-x="373" 
d="M385 496l-16 -110h-20q-69 0 -114 -42.5t-58 -136.5l-29 -207h-114l69 490h112l-7 -52q29 31 66 45t80 14q10 0 19 -0.5t12 -0.5zM272 700h144l-136 -138h-113z" />
    <glyph glyph-name="Rcommaaccent" unicode="&#x156;" horiz-adv-x="666" 
d="M443 0l-119 238h-145l-33 -238h-119l99 700h268q105 0 171 -57t66 -153q0 -87 -49.5 -148t-133.5 -86l128 -256h-133zM376 589h-147l-34 -241h141q83 0 128.5 37t45.5 100q0 50 -36 77t-98 27zM170 -194h93l90 137h-117z" />
    <glyph glyph-name="rcommaaccent" unicode="&#x157;" horiz-adv-x="373" 
d="M385 496l-16 -110h-20q-69 0 -114 -42.5t-58 -136.5l-29 -207h-114l69 490h112l-7 -52q29 31 66 45t80 14q10 0 19 -0.5t12 -0.5zM-39 -194h93l90 137h-117z" />
    <glyph glyph-name="Rcaron" unicode="&#x158;" horiz-adv-x="666" 
d="M443 0l-119 238h-145l-33 -238h-119l99 700h268q105 0 171 -57t66 -153q0 -87 -49.5 -148t-133.5 -86l128 -256h-133zM376 589h-147l-34 -241h141q83 0 128.5 37t45.5 100q0 50 -36 77t-98 27zM580 872l-104 -103h-143l-76 103h110l42 -49l56 49h115z" />
    <glyph glyph-name="rcaron" unicode="&#x159;" horiz-adv-x="373" 
d="M385 496l-16 -110h-20q-69 0 -114 -42.5t-58 -136.5l-29 -207h-114l69 490h112l-7 -52q29 31 66 45t80 14q10 0 19 -0.5t12 -0.5zM328 562h-137l-74 138h99l48 -68l68 68h108z" />
    <glyph glyph-name="Sacute" unicode="&#x15a;" horiz-adv-x="642" 
d="M359 290l-87 17q-81 16 -131.5 63.5t-50.5 125.5q0 52 23 92.5t60.5 67.5t86.5 41.5t101 14.5q88 0 152.5 -33.5t100.5 -78.5l-88 -80q-28 34 -73.5 58t-104.5 24q-60 0 -98.5 -27.5t-38.5 -71.5q0 -34 27 -54t80 -30l70 -13q98 -18 147.5 -69t49.5 -127q0 -97 -78 -159
t-211 -62q-94 0 -164.5 39t-111.5 93l88 79q32 -43 83 -72t118 -29q68 0 112 28.5t44 76.5q0 33 -27.5 54.5t-78.5 31.5zM385 872h143l-110 -103h-120z" />
    <glyph glyph-name="sacute" unicode="&#x15b;" horiz-adv-x="486" 
d="M266 186l-54 13q-66 16 -104 52.5t-38 95.5q0 36 15.5 65t42 49t61.5 30.5t73 10.5q53 0 102.5 -20t84.5 -58l-78 -74q-18 19 -47.5 35.5t-69.5 16.5q-31 0 -50.5 -13t-19.5 -35q0 -16 12 -27t34 -16l62 -16q57 -14 99 -49t42 -98q0 -72 -56.5 -115.5t-152.5 -43.5
q-72 0 -127 29.5t-77 65.5l78 70q28 -35 64.5 -51t73.5 -16q36 0 59.5 14t23.5 38q0 16 -14 28t-39 19zM302 700h144l-136 -138h-113z" />
    <glyph glyph-name="Scircumflex" unicode="&#x15c;" horiz-adv-x="642" 
d="M359 290l-87 17q-81 16 -131.5 63.5t-50.5 125.5q0 52 23 92.5t60.5 67.5t86.5 41.5t101 14.5q88 0 152.5 -33.5t100.5 -78.5l-88 -80q-28 34 -73.5 58t-104.5 24q-60 0 -98.5 -27.5t-38.5 -71.5q0 -34 27 -54t80 -30l70 -13q98 -18 147.5 -69t49.5 -127q0 -97 -78 -159
t-211 -62q-94 0 -164.5 39t-111.5 93l88 79q32 -43 83 -72t118 -29q68 0 112 28.5t44 76.5q0 33 -27.5 54.5t-78.5 31.5zM227 769l104 103h143l76 -103h-114l-42 49l-57 -49h-110z" />
    <glyph glyph-name="scircumflex" unicode="&#x15d;" horiz-adv-x="486" 
d="M266 186l-54 13q-66 16 -104 52.5t-38 95.5q0 36 15.5 65t42 49t61.5 30.5t73 10.5q53 0 102.5 -20t84.5 -58l-78 -74q-18 19 -47.5 35.5t-69.5 16.5q-31 0 -50.5 -13t-19.5 -35q0 -16 12 -27t34 -16l62 -16q57 -14 99 -49t42 -98q0 -72 -56.5 -115.5t-152.5 -43.5
q-72 0 -127 29.5t-77 65.5l78 70q28 -35 64.5 -51t73.5 -16q36 0 59.5 14t23.5 38q0 16 -14 28t-39 19zM233 700h136l74 -138h-99l-50 69l-67 -69h-107z" />
    <glyph glyph-name="Scedilla" unicode="&#x15e;" horiz-adv-x="642" 
d="M359 290l-87 17q-81 16 -131.5 63.5t-50.5 125.5q0 52 23 92.5t60.5 67.5t86.5 41.5t101 14.5q88 0 152.5 -33.5t100.5 -78.5l-88 -80q-28 34 -73.5 58t-104.5 24q-60 0 -98.5 -27.5t-38.5 -71.5q0 -34 27 -54t80 -30l70 -13q98 -18 147.5 -69t49.5 -127q0 -82 -56 -140
t-155 -74l-73 -133h-117l81 127q-83 7 -145.5 44t-99.5 87l88 79q32 -43 83 -72t118 -29q68 0 112 28.5t44 76.5q0 33 -27.5 54.5t-78.5 31.5z" />
    <glyph glyph-name="scedilla" unicode="&#x15f;" horiz-adv-x="486" 
d="M266 186l-54 13q-66 16 -104 52.5t-38 95.5q0 36 15.5 65t42 49t61.5 30.5t73 10.5q53 0 102.5 -20t84.5 -58l-78 -74q-18 19 -47.5 35.5t-69.5 16.5q-31 0 -50.5 -13t-19.5 -35q0 -16 12 -27t34 -16l62 -16q57 -14 99 -49t42 -98q0 -62 -42.5 -103.5t-116.5 -51.5
l-72 -130h-117l84 131q-53 10 -92 35.5t-57 54.5l78 70q28 -35 64.5 -51t73.5 -16q36 0 59.5 14t23.5 38q0 16 -14 28t-39 19z" />
    <glyph glyph-name="Scaron" unicode="&#x160;" horiz-adv-x="642" 
d="M359 290l-87 17q-81 16 -131.5 63.5t-50.5 125.5q0 52 23 92.5t60.5 67.5t86.5 41.5t101 14.5q88 0 152.5 -33.5t100.5 -78.5l-88 -80q-28 34 -73.5 58t-104.5 24q-60 0 -98.5 -27.5t-38.5 -71.5q0 -34 27 -54t80 -30l70 -13q98 -18 147.5 -69t49.5 -127q0 -97 -78 -159
t-211 -62q-94 0 -164.5 39t-111.5 93l88 79q32 -43 83 -72t118 -29q68 0 112 28.5t44 76.5q0 33 -27.5 54.5t-78.5 31.5zM564 872l-104 -103h-143l-76 103h110l42 -49l56 49h115z" />
    <glyph glyph-name="scaron" unicode="&#x161;" horiz-adv-x="486" 
d="M266 186l-54 13q-66 16 -104 52.5t-38 95.5q0 36 15.5 65t42 49t61.5 30.5t73 10.5q53 0 102.5 -20t84.5 -58l-78 -74q-18 19 -47.5 35.5t-69.5 16.5q-31 0 -50.5 -13t-19.5 -35q0 -16 12 -27t34 -16l62 -16q57 -14 99 -49t42 -98q0 -72 -56.5 -115.5t-152.5 -43.5
q-72 0 -127 29.5t-77 65.5l78 70q28 -35 64.5 -51t73.5 -16q36 0 59.5 14t23.5 38q0 16 -14 28t-39 19zM358 562h-137l-74 138h99l48 -68l68 68h108z" />
    <glyph glyph-name="uni0162" unicode="&#x162;" horiz-adv-x="598" 
d="M81 700h538l-16 -111h-210l-83 -589h-6l-76 -137h-117l88 137h-8l83 589h-208z" />
    <glyph glyph-name="uni0163" unicode="&#x163;" horiz-adv-x="362" 
d="M283 0l-10.5 -0.5t-24.5 -0.5l-76 -136h-117l94 147q-42 17 -58 59t-8 102l30 213h-70l15 106h70l20 137h114l-20 -137h111l-15 -106h-111l-30 -213q-5 -37 9 -52t51 -15h8t14 0.5t13 0.5h6z" />
    <glyph glyph-name="Tcaron" unicode="&#x164;" horiz-adv-x="598" 
d="M81 700h538l-16 -111h-210l-83 -589h-119l83 589h-208zM537 872l-104 -103h-143l-76 103h110l42 -49l56 49h115z" />
    <glyph glyph-name="tcaron" unicode="&#x165;" horiz-adv-x="362" 
d="M478 749l-86 -189h-85l54 189h117zM219 -2q-81 0 -114 46t-22 127l30 213h-70l15 106h70l20 137h114l-20 -137h111l-15 -106h-111l-30 -213q-5 -37 9 -52t51 -15h8t14 0.5t13 0.5h6l-15 -105l-19.5 -1t-44.5 -1z" />
    <glyph glyph-name="Tbar" unicode="&#x166;" horiz-adv-x="598" 
d="M66 589l15 111h538l-16 -111h-210l-32 -225h133l-14 -99h-133l-37 -265h-119l37 265h-132l15 99h131l32 225h-208z" />
    <glyph glyph-name="tbar" unicode="&#x167;" horiz-adv-x="362" 
d="M83 171l4 32h-70l15 104h70l11 77h-70l15 106h70l20 137h114l-20 -137h111l-15 -106h-111l-11 -77h110l-14 -104h-111l-4 -32q-5 -37 9 -52t51 -15h8t14 0.5t13 0.5h6l-15 -105l-19.5 -1t-44.5 -1q-81 0 -114 46t-22 127z" />
    <glyph glyph-name="Utilde" unicode="&#x168;" horiz-adv-x="692" 
d="M504 294l58 406h119l-57 -408q-20 -144 -101.5 -223.5t-213.5 -79.5q-116 0 -184.5 69.5t-68.5 186.5q0 15 1 32t3 33l56 390h119l-57 -408q-1 -10 -2.5 -21.5t-1.5 -21.5q0 -65 35 -107.5t107 -42.5q86 0 131 54t57 141zM505 885h80q-7 -48 -36 -82t-70 -34q-13 0 -26 4
l-26 8l-26 9q-8 4 -16 5.5t-16 1.5q-11 0 -20 -6.5t-12 -21.5h-80q7 49 35.5 82.5t69.5 33.5q13 0 26 -3.5t26 -7.5l27 -10q8 -3 15.5 -5t15.5 -2q11 0 20.5 7t12.5 21z" />
    <glyph glyph-name="utilde" unicode="&#x169;" horiz-adv-x="559" 
d="M345 0l6 43q-28 -27 -64.5 -40.5t-76.5 -13.5q-76 0 -117 46.5t-41 125.5q0 13 1 27t3 27l39 275h114l-39 -283q-1 -7 -1.5 -13.5t-0.5 -12.5q0 -40 20 -63t60 -23q57 0 87 39.5t40 107.5l35 248h116l-69 -490h-112zM411 700h80q-7 -48 -36 -82t-70 -34q-13 0 -25.5 4
t-25.5 8l-27 9q-8 3 -16 5t-16 2q-11 0 -20 -6.5t-12 -21.5h-80q7 49 35.5 82.5t69.5 33.5q13 0 26 -3.5t26 -7.5l27 -10q8 -3 15.5 -5t15.5 -2q11 0 20.5 7t12.5 21z" />
    <glyph glyph-name="Umacron" unicode="&#x16a;" horiz-adv-x="692" 
d="M504 294l58 406h119l-57 -408q-20 -144 -101.5 -223.5t-213.5 -79.5q-116 0 -184.5 69.5t-68.5 186.5q0 15 1 32t3 33l56 390h119l-57 -408q-1 -10 -2.5 -21.5t-1.5 -21.5q0 -65 35 -107.5t107 -42.5q86 0 131 54t57 141zM290 776l14 98h241l-14 -98h-241z" />
    <glyph glyph-name="umacron" unicode="&#x16b;" horiz-adv-x="559" 
d="M345 0l6 43q-28 -27 -64.5 -40.5t-76.5 -13.5q-76 0 -117 46.5t-41 125.5q0 13 1 27t3 27l39 275h114l-39 -283q-1 -7 -1.5 -13.5t-0.5 -12.5q0 -40 20 -63t60 -23q57 0 87 39.5t40 107.5l35 248h116l-69 -490h-112zM218 700h241l-14 -97h-241z" />
    <glyph glyph-name="Ubreve" unicode="&#x16c;" horiz-adv-x="692" 
d="M504 294l58 406h119l-57 -408q-20 -144 -101.5 -223.5t-213.5 -79.5q-116 0 -184.5 69.5t-68.5 186.5q0 15 1 32t3 33l56 390h119l-57 -408q-1 -10 -2.5 -21.5t-1.5 -21.5q0 -65 35 -107.5t107 -42.5q86 0 131 54t57 141zM405 748q-59 0 -92 36.5t-29 97.5h90
q0 -19 9.5 -31.5t34.5 -12.5q24 0 37.5 12.5t18.5 31.5h91q-13 -61 -56.5 -97.5t-103.5 -36.5z" />
    <glyph glyph-name="ubreve" unicode="&#x16d;" horiz-adv-x="559" 
d="M345 0l6 43q-28 -27 -64.5 -40.5t-76.5 -13.5q-76 0 -117 46.5t-41 125.5q0 13 1 27t3 27l39 275h114l-39 -283q-1 -7 -1.5 -13.5t-0.5 -12.5q0 -40 20 -63t60 -23q57 0 87 39.5t40 107.5l35 248h116l-69 -490h-112zM320 554q-62 0 -95.5 40.5t-29.5 105.5h88
q-1 -22 10 -38t38 -16t42 16t22 38h93q-14 -66 -59.5 -106t-108.5 -40z" />
    <glyph glyph-name="Uring" unicode="&#x16e;" horiz-adv-x="692" 
d="M504 294l58 406h119l-57 -408q-20 -144 -101.5 -223.5t-213.5 -79.5q-116 0 -184.5 69.5t-68.5 186.5q0 15 1 32t3 33l56 390h119l-57 -408q-1 -10 -2.5 -21.5t-1.5 -21.5q0 -65 35 -107.5t107 -42.5q86 0 131 54t57 141zM385 772q0 -10 7 -17t17 -7q13 0 22.5 9t9.5 22
q0 10 -7 17t-17 7q-13 0 -22.5 -9t-9.5 -22zM318 766q0 43 32.5 73t74.5 30q36 0 59.5 -23.5t23.5 -59.5q0 -43 -32.5 -73t-76.5 -30q-35 0 -58 24.5t-23 58.5z" />
    <glyph glyph-name="uring" unicode="&#x16f;" horiz-adv-x="559" 
d="M345 0l6 43q-28 -27 -64.5 -40.5t-76.5 -13.5q-76 0 -117 46.5t-41 125.5q0 13 1 27t3 27l39 275h114l-39 -283q-1 -7 -1.5 -13.5t-0.5 -12.5q0 -40 20 -63t60 -23q57 0 87 39.5t40 107.5l35 248h116l-69 -490h-112zM305 629q0 -10 6.5 -16t16.5 -6q11 0 20.5 8t9.5 21
q0 10 -6.5 16t-16.5 6q-12 0 -21 -8t-9 -21zM241 623q0 41 31 70t71 29q34 0 56.5 -22.5t22.5 -56.5q0 -41 -30.5 -69.5t-73.5 -28.5q-34 0 -55.5 23t-21.5 55z" />
    <glyph glyph-name="Uhungarumlaut" unicode="&#x170;" horiz-adv-x="692" 
d="M504 294l58 406h119l-57 -408q-20 -144 -101.5 -223.5t-213.5 -79.5q-116 0 -184.5 69.5t-68.5 186.5q0 15 1 32t3 33l56 390h119l-57 -408q-1 -10 -2.5 -21.5t-1.5 -21.5q0 -65 35 -107.5t107 -42.5q86 0 131 54t57 141zM256 769l81 103h121l-96 -103h-106zM433 769
l81 103h122l-97 -103h-106z" />
    <glyph glyph-name="uhungarumlaut" unicode="&#x171;" horiz-adv-x="559" 
d="M345 0l6 43q-28 -27 -64.5 -40.5t-76.5 -13.5q-76 0 -117 46.5t-41 125.5q0 13 1 27t3 27l39 275h114l-39 -283q-1 -7 -1.5 -13.5t-0.5 -12.5q0 -40 20 -63t60 -23q57 0 87 39.5t40 107.5l35 248h116l-69 -490h-112zM253 700h123l-115 -131h-107zM430 700h123l-115 -131
h-107z" />
    <glyph glyph-name="Uogonek" unicode="&#x172;" horiz-adv-x="692" 
d="M359 -114l-10 -71q-7 -1 -20 -3t-29 -2q-46 0 -71 20t-25 56q0 34 19 60.5t44 45.5q-98 11 -154.5 78.5t-56.5 174.5q0 15 1 32t3 33l56 390h119l-57 -408q-1 -10 -2.5 -21.5t-1.5 -21.5q0 -65 35 -107.5t107 -42.5q86 0 131 54t57 141l58 406h119l-57 -408
q-18 -129 -85.5 -206.5t-176.5 -92.5q-34 -22 -47.5 -40t-13.5 -34q0 -15 13 -24t41 -9h4z" />
    <glyph glyph-name="uogonek" unicode="&#x173;" horiz-adv-x="559" 
d="M345 0l6 43q-28 -27 -64.5 -40.5t-76.5 -13.5q-76 0 -117 46.5t-41 125.5q0 13 1 27t3 27l39 275h114l-39 -283q-1 -7 -1.5 -13.5t-0.5 -12.5q0 -40 20 -63t60 -23q57 0 87 39.5t40 107.5l35 248h116l-69 -490q-41 -25 -57 -44t-16 -37q0 -15 13 -24t41 -9h4l-10 -71
q-7 -1 -20 -3t-29 -2q-46 0 -71 20.5t-25 57.5q0 36 23.5 64.5t52.5 47.5h-18z" />
    <glyph glyph-name="Wcircumflex" unicode="&#x174;" horiz-adv-x="926" 
d="M635 197l197 503h132l-289 -700h-125l-61 508l-207 -508h-125l-91 700h125l56 -503l199 503h131zM365 769l104 103h143l76 -103h-114l-42 49l-57 -49h-110z" />
    <glyph glyph-name="wcircumflex" unicode="&#x175;" horiz-adv-x="779" 
d="M211 150l141 340h134l47 -340l134 340h128l-211 -490h-129l-52 344l-149 -344h-130l-72 490h119zM382 700h136l74 -138h-99l-50 69l-67 -69h-107z" />
    <glyph glyph-name="Ycircumflex" unicode="&#x176;" horiz-adv-x="606" 
d="M191 700l116 -313l203 313h135l-293 -440l-37 -260h-119l37 260l-168 440h126zM201 769l104 103h143l76 -103h-114l-42 49l-57 -49h-110z" />
    <glyph glyph-name="ycircumflex" unicode="&#x177;" horiz-adv-x="544" 
d="M196 -194h-126l107 195l-125 489h123l82 -345l181 345h128zM266 700h136l74 -138h-99l-50 69l-67 -69h-107z" />
    <glyph glyph-name="Ydieresis" unicode="&#x178;" horiz-adv-x="606" 
d="M191 700l116 -313l203 313h135l-293 -440l-37 -260h-119l37 260l-168 440h126zM203 828q0 26 18.5 45.5t45.5 19.5t46.5 -19.5t19.5 -45.5q0 -27 -19.5 -46t-46.5 -19t-45.5 19t-18.5 46zM403 828q0 26 18.5 45.5t46.5 19.5q26 0 45.5 -19.5t19.5 -45.5q0 -27 -19.5 -46
t-45.5 -19q-28 0 -46.5 19t-18.5 46z" />
    <glyph glyph-name="Zacute" unicode="&#x179;" horiz-adv-x="641" 
d="M115 700h520l-15 -106l-436 -483h373l-15 -111h-529l15 106l435 483h-365zM377 872h143l-110 -103h-120z" />
    <glyph glyph-name="zacute" unicode="&#x17a;" horiz-adv-x="506" 
d="M104 490h380l-13 -93l-275 -293h244l-14 -104h-399l13 93l271 294h-222zM322 700h144l-136 -138h-113z" />
    <glyph glyph-name="Zdotaccent" unicode="&#x17b;" horiz-adv-x="641" 
d="M115 700h520l-15 -106l-436 -483h373l-15 -111h-529l15 106l435 483h-365zM316 826q0 29 20.5 50t50.5 21q29 0 50.5 -21t21.5 -50t-21.5 -50t-50.5 -21q-30 0 -50.5 21t-20.5 50z" />
    <glyph glyph-name="zdotaccent" unicode="&#x17c;" horiz-adv-x="506" 
d="M104 490h380l-13 -93l-275 -293h244l-14 -104h-399l13 93l271 294h-222zM246 640q0 30 20.5 51t50.5 21t51 -21t21 -51q0 -29 -21 -49.5t-51 -20.5t-50.5 20.5t-20.5 49.5z" />
    <glyph glyph-name="Zcaron" unicode="&#x17d;" horiz-adv-x="641" 
d="M115 700h520l-15 -106l-436 -483h373l-15 -111h-529l15 106l435 483h-365zM557 872l-104 -103h-143l-76 103h110l42 -49l56 49h115z" />
    <glyph glyph-name="zcaron" unicode="&#x17e;" horiz-adv-x="506" 
d="M104 490h380l-13 -93l-275 -293h244l-14 -104h-399l13 93l271 294h-222zM379 562h-137l-74 138h99l48 -68l68 68h108z" />
    <glyph glyph-name="florin" unicode="&#x192;" horiz-adv-x="402" 
d="M78 -12l56 396h-75l15 106h74l6 35q14 98 74 142.5t150 44.5q16 0 27 -0.5l11 -0.5l-15 -107h-30q-51 0 -75 -21t-30 -64l-4 -29h116l-15 -106h-116l-56 -402q-14 -97 -74 -142t-150 -45q-16 0 -27 0.5l-11 0.5l16 108h29q51 0 74.5 20.5t29.5 63.5z" />
    <glyph glyph-name="Aringacute" unicode="&#x1fa;" horiz-adv-x="700" 
d="M319 765q0 43 32.5 73t74.5 30q36 0 59.5 -23.5t23.5 -59.5q0 -27 -13 -49.5t-35 -35.5h3l174 -700h-121l-39 147h-299l-79 -147h-129l373 700h4q-13 11 -21 28t-8 37zM384 540l-148 -285h218zM447 1003h143l-110 -103h-120zM386 771q0 -10 7 -17t17 -7q13 0 22.5 9
t9.5 22q0 10 -7 17t-17 7q-13 0 -22.5 -9t-9.5 -22z" />
    <glyph glyph-name="aringacute" unicode="&#x1fb;" horiz-adv-x="587" 
d="M41 214q0 58 19 110.5t52.5 92t80 62.5t100.5 23q41 0 77.5 -15.5t61.5 -53.5l8 57h114l-69 -490h-114l7 47q-23 -25 -59.5 -41.5t-86.5 -16.5q-42 0 -77 17t-60.5 47t-39.5 71.5t-14 89.5zM158 219q0 -54 28 -90t77 -36q34 0 61.5 15t46.5 40t29 57t10 65q0 54 -29 91.5
t-75 37.5q-34 0 -61.5 -15t-46.5 -40t-29.5 -58t-10.5 -67zM313 629q0 13 9 21t21 8q10 0 16.5 -6t6.5 -16q0 -13 -9.5 -21t-20.5 -8q-10 0 -16.5 6t-6.5 16zM249 623q0 -32 21.5 -55t55.5 -23q43 0 73.5 28.5t30.5 69.5q0 34 -22.5 56.5t-56.5 22.5q-40 0 -71 -29t-31 -70z
M400 907h144l-136 -138h-113z" />
    <glyph glyph-name="AEacute" unicode="&#x1fc;" horiz-adv-x="927" 
d="M912 700l-17 -111h-405l45 -177h321l-15 -109h-279l48 -192h218l-15 -111h-297l-38 147h-300l-79 -147h-128l373 700h568zM384 540l-149 -285h218zM637 872h143l-110 -103h-120z" />
    <glyph glyph-name="aeacute" unicode="&#x1fd;" horiz-adv-x="911" 
d="M865 214h-347q0 -54 30 -87t85 -33q40 0 74.5 16.5t63.5 46.5l67 -74q-37 -40 -90.5 -67t-126.5 -27q-43 0 -78.5 13t-60.5 38l-6 -40h-105l7 47q-23 -25 -59.5 -41.5t-86.5 -16.5q-42 0 -77 17t-60.5 47t-39.5 71.5t-14 89.5q0 58 19 110.5t52.5 92t80 62.5t100.5 23
q41 0 77.5 -15.5t61.5 -53.5l8 57h105l-6 -39q29 25 63.5 38t71.5 13q52 0 89.5 -19t61.5 -49.5t35.5 -69t11.5 -78.5q0 -27 -3.5 -49.5zM158 219q0 -54 28 -90t77 -36q34 0 61.5 15t46.5 40t29 57t10 65q0 54 -29 91.5t-75 37.5q-34 0 -61.5 -15t-46.5 -40t-29.5 -58
t-10.5 -67zM543 700h144l-136 -138h-113zM663 399q-50 0 -83 -29.5t-46 -71.5h223q1 44 -23.5 72.5t-70.5 28.5zM506 214q0 -1 2 -1t5 1h-7z" />
    <glyph glyph-name="Oslashacute" unicode="&#x1fe;" horiz-adv-x="798" 
d="M38 311q0 87 33.5 160.5t89 127t130.5 83.5t157 30q43 0 82 -10.5t73 -29.5l52 62l72 -58l-51 -61q40 -43 62 -101t22 -124q0 -86 -32.5 -159.5t-87.5 -127t-129.5 -84t-158.5 -30.5q-46 0 -87.5 11.5t-76.5 32.5l-54 -64l-72 58l55 66q-37 43 -58 99t-21 119zM639 383
q0 40 -11 75t-31 63l-333 -396q22 -12 47.5 -18t54.5 -6q59 0 109.5 23t86.5 61.5t56.5 90t20.5 107.5zM162 317q0 -37 9 -69.5t26 -59.5l329 392q-19 10 -42 15t-48 5q-60 0 -110.5 -23t-86.5 -62t-56.5 -90.5t-20.5 -107.5zM459 872h143l-110 -103h-120z" />
    <glyph glyph-name="oslashacute" unicode="&#x1ff;" horiz-adv-x="596" 
d="M47 24l42 49q-23 30 -35.5 67.5t-12.5 78.5q0 60 22.5 112.5t61.5 90t91.5 59t111.5 21.5q28 0 54 -6.5t48 -16.5l41 48l74 -59l-41 -48q25 -31 38 -69t13 -81q0 -61 -22.5 -112.5t-61.5 -89t-91.5 -58.5t-111.5 -21q-30 0 -56.5 6.5t-49.5 17.5l-41 -48zM279 96
q66 0 112 49t46 121q0 16 -3.5 31t-8.5 28l-188 -222q10 -4 20.5 -5.5t21.5 -1.5zM159 224q0 -15 2.5 -29t7.5 -27l185 220q-8 3 -17.5 4.5t-19.5 1.5q-66 0 -112 -49t-46 -121zM359 700h144l-136 -138h-113z" />
    <glyph glyph-name="Scommaaccent" unicode="&#x218;" horiz-adv-x="642" 
d="M359 290l-87 17q-81 16 -131.5 63.5t-50.5 125.5q0 52 23 92.5t60.5 67.5t86.5 41.5t101 14.5q88 0 152.5 -33.5t100.5 -78.5l-88 -80q-28 34 -73.5 58t-104.5 24q-60 0 -98.5 -27.5t-38.5 -71.5q0 -34 27 -54t80 -30l70 -13q98 -18 147.5 -69t49.5 -127q0 -97 -78 -159
t-211 -62q-94 0 -164.5 39t-111.5 93l88 79q32 -43 83 -72t118 -29q68 0 112 28.5t44 76.5q0 33 -27.5 54.5t-78.5 31.5zM172 -194h93l90 137h-117z" />
    <glyph glyph-name="scommaaccent" unicode="&#x219;" horiz-adv-x="486" 
d="M266 186l-54 13q-66 16 -104 52.5t-38 95.5q0 36 15.5 65t42 49t61.5 30.5t73 10.5q53 0 102.5 -20t84.5 -58l-78 -74q-18 19 -47.5 35.5t-69.5 16.5q-31 0 -50.5 -13t-19.5 -35q0 -16 12 -27t34 -16l62 -16q57 -14 99 -49t42 -98q0 -72 -56.5 -115.5t-152.5 -43.5
q-72 0 -127 29.5t-77 65.5l78 70q28 -35 64.5 -51t73.5 -16q36 0 59.5 14t23.5 38q0 16 -14 28t-39 19zM96 -194h93l90 137h-117z" />
    <glyph glyph-name="Tcommaaccent" unicode="&#x21a;" horiz-adv-x="598" 
d="M81 700h538l-16 -111h-210l-83 -589h-119l83 589h-208zM126 -194h93l90 137h-117z" />
    <glyph glyph-name="tcommaaccent" unicode="&#x21b;" horiz-adv-x="362" 
d="M219 -2q-81 0 -114 46t-22 127l30 213h-70l15 106h70l20 137h114l-20 -137h111l-15 -106h-111l-30 -213q-5 -37 9 -52t51 -15h8t14 0.5t13 0.5h6l-15 -105l-19.5 -1t-44.5 -1zM67 -194h93l90 137h-117z" />
    <glyph glyph-name="dotlessj" unicode="&#x237;" horiz-adv-x="267" 
d="M47 -27l73 517h115l-76 -532q-11 -83 -56.5 -123t-125.5 -40q-25 0 -42.5 1l-17.5 1l14 105l16.5 -0.5t19.5 -0.5q37 0 56 16t24 56z" />
    <glyph glyph-name="circumflex" unicode="&#x2c6;" horiz-adv-x="500" 
d="M201 700h136l74 -138h-99l-50 69l-67 -69h-107z" />
    <glyph glyph-name="caron" unicode="&#x2c7;" horiz-adv-x="500" 
d="M299 562h-137l-74 138h99l48 -68l68 68h108z" />
    <glyph glyph-name="uni02C9" unicode="&#x2c9;" horiz-adv-x="500" 
d="M136 700h241l-14 -97h-241z" />
    <glyph glyph-name="breve" unicode="&#x2d8;" horiz-adv-x="500" 
d="M233 554q-62 0 -95.5 40.5t-29.5 105.5h88q-1 -22 10 -38t38 -16t42 16t22 38h93q-14 -66 -59.5 -106t-108.5 -40z" />
    <glyph glyph-name="dotaccent" unicode="&#x2d9;" horiz-adv-x="500" 
d="M178 640q0 30 20.5 51t50.5 21t51 -21t21 -51q0 -29 -21 -49.5t-51 -20.5t-50.5 20.5t-20.5 49.5z" />
    <glyph glyph-name="ring" unicode="&#x2da;" horiz-adv-x="500" 
d="M225 629q0 -10 6.5 -16t16.5 -6q11 0 20.5 8t9.5 21q0 10 -6.5 16t-16.5 6q-12 0 -21 -8t-9 -21zM161 623q0 41 31 70t71 29q34 0 56.5 -22.5t22.5 -56.5q0 -41 -30.5 -69.5t-73.5 -28.5q-34 0 -55.5 23t-21.5 55z" />
    <glyph glyph-name="ogonek" unicode="&#x2db;" horiz-adv-x="500" 
d="M320 -114l-10 -71q-7 -1 -20 -3t-29 -2q-46 0 -71 20.5t-25 57.5q0 38 26.5 68t57.5 49l86 -5q-41 -25 -57 -44t-16 -37q0 -15 13 -24t41 -9h4z" />
    <glyph glyph-name="tilde" unicode="&#x2dc;" horiz-adv-x="500" 
d="M334 700h80q-7 -48 -36 -82t-70 -34q-13 0 -25.5 4t-25.5 8l-27 9q-8 3 -16 5t-16 2q-11 0 -20 -6.5t-12 -21.5h-80q7 49 35.5 82.5t69.5 33.5q13 0 26 -3.5t26 -7.5l27 -10q8 -3 15.5 -5t15.5 -2q11 0 20.5 7t12.5 21z" />
    <glyph glyph-name="hungarumlaut" unicode="&#x2dd;" horiz-adv-x="500" 
d="M149 700h123l-115 -131h-107zM326 700h123l-115 -131h-107z" />
    <glyph glyph-name="commaaccent" unicode="&#x326;" horiz-adv-x="500" 
d="M251 -194h-93l66 137h117z" />
    <glyph glyph-name="Deltagreek" unicode="&#x394;" horiz-adv-x="669" 
d="M352 700h112l143 -597l-14 -103h-568l14 103zM390 559l-232 -451h338z" />
    <glyph glyph-name="Omegagreek" unicode="&#x3a9;" horiz-adv-x="763" 
d="M639 104l-15 -104h-227l31 221q78 16 129 75.5t51 139.5q0 38 -14.5 69.5t-39.5 53t-58.5 33.5t-71.5 12q-45 0 -87 -15.5t-74 -43.5t-51.5 -68.5t-19.5 -90.5q0 -62 34.5 -107t92.5 -58l-31 -221h-228l15 104h122l9 55q-56 26 -93 85.5t-37 137.5q0 76 30.5 137.5
t80.5 104t114.5 65.5t132.5 23q56 0 108.5 -19.5t92.5 -55t64 -85.5t24 -110q0 -53 -16.5 -99t-44.5 -82.5t-64.5 -64t-75.5 -42.5l-6 -50h123z" />
    <glyph glyph-name="mugreek" unicode="&#x3bc;" horiz-adv-x="567" 
d="M7 -194l96 684h116l-40 -285q-7 -51 11.5 -80.5t64.5 -29.5q57 0 88.5 39.5t41.5 107.5l34 248h115l-69 -490h-112l6 45q-26 -26 -57 -41t-71 -15q-21 0 -42 7t-37 21l-29 -211h-116z" />
    <glyph glyph-name="pi" unicode="&#x3c0;" horiz-adv-x="644" 
d="M351 0l54 384h-179l-54 -384h-111l53 384h-76l15 106h555l-15 -106h-76l-54 -384h-112z" />
    <glyph glyph-name="Wgrave" unicode="&#x1e80;" horiz-adv-x="926" 
d="M635 197l197 503h132l-289 -700h-125l-61 508l-207 -508h-125l-91 700h125l56 -503l199 503h131zM382 872h138l59 -103h-116z" />
    <glyph glyph-name="wgrave" unicode="&#x1e81;" horiz-adv-x="779" 
d="M211 150l141 340h134l47 -340l134 340h128l-211 -490h-129l-52 344l-149 -344h-130l-72 490h119zM285 700h144l61 -138h-110z" />
    <glyph glyph-name="Wacute" unicode="&#x1e82;" horiz-adv-x="926" 
d="M635 197l197 503h132l-289 -700h-125l-61 508l-207 -508h-125l-91 700h125l56 -503l199 503h131zM523 872h143l-110 -103h-120z" />
    <glyph glyph-name="wacute" unicode="&#x1e83;" horiz-adv-x="779" 
d="M211 150l141 340h134l47 -340l134 340h128l-211 -490h-129l-52 344l-149 -344h-130l-72 490h119zM450 700h144l-136 -138h-113z" />
    <glyph glyph-name="Wdieresis" unicode="&#x1e84;" horiz-adv-x="926" 
d="M635 197l197 503h132l-289 -700h-125l-61 508l-207 -508h-125l-91 700h125l56 -503l199 503h131zM367 828q0 26 18.5 45.5t45.5 19.5t46.5 -19.5t19.5 -45.5q0 -27 -19.5 -46t-46.5 -19t-45.5 19t-18.5 46zM567 828q0 26 18.5 45.5t46.5 19.5q26 0 45.5 -19.5t19.5 -45.5
q0 -27 -19.5 -46t-45.5 -19q-28 0 -46.5 19t-18.5 46z" />
    <glyph glyph-name="wdieresis" unicode="&#x1e85;" horiz-adv-x="779" 
d="M211 150l141 340h134l47 -340l134 340h128l-211 -490h-129l-52 344l-149 -344h-130l-72 490h119zM280 644q0 26 18.5 45.5t45.5 19.5t46.5 -19.5t19.5 -45.5q0 -27 -19.5 -46t-46.5 -19t-45.5 19t-18.5 46zM480 644q0 26 18.5 45.5t46.5 19.5q26 0 45.5 -19.5t19.5 -45.5
q0 -27 -19.5 -46t-45.5 -19q-28 0 -46.5 19t-18.5 46z" />
    <glyph glyph-name="Ygrave" unicode="&#x1ef2;" horiz-adv-x="606" 
d="M191 700l116 -313l203 313h135l-293 -440l-37 -260h-119l37 260l-168 440h126zM218 872h138l59 -103h-116z" />
    <glyph glyph-name="ygrave" unicode="&#x1ef3;" horiz-adv-x="544" 
d="M196 -194h-126l107 195l-125 489h123l82 -345l181 345h128zM169 700h144l61 -138h-110z" />
    <glyph glyph-name="thinspace" unicode="&#x2009;" horiz-adv-x="104" 
 />
    <glyph glyph-name="endash" unicode="&#x2013;" horiz-adv-x="531" 
d="M36 209l15 104h442l-15 -104h-442z" />
    <glyph glyph-name="emdash" unicode="&#x2014;" horiz-adv-x="942" 
d="M34 209l14 104h854l-15 -104h-853z" />
    <glyph glyph-name="quoteleft" unicode="&#x2018;" horiz-adv-x="273" 
d="M275 468h-115l-101 232h128z" />
    <glyph glyph-name="quoteright" unicode="&#x2019;" horiz-adv-x="273" 
d="M178 468h-115l88 232h128z" />
    <glyph glyph-name="quotesinglbase" unicode="&#x201a;" horiz-adv-x="275" 
d="M73 -120h-119l126 234h133z" />
    <glyph glyph-name="quotedblleft" unicode="&#x201c;" horiz-adv-x="479" 
d="M481 468h-115l-100 232h127zM274 468h-114l-101 232h128z" />
    <glyph glyph-name="quotedblright" unicode="&#x201d;" horiz-adv-x="479" 
d="M178 468h-115l88 232h127zM384 468h-114l87 232h128z" />
    <glyph glyph-name="quotedblbase" unicode="&#x201e;" horiz-adv-x="486" 
d="M73 -120h-119l126 234h133zM284 -120h-120l127 234h133z" />
    <glyph glyph-name="dagger" unicode="&#x2020;" horiz-adv-x="575" 
d="M74 490h181l29 210h114l-30 -210h184l-15 -109h-184l-81 -575h-113l80 575h-180z" />
    <glyph glyph-name="daggerdbl" unicode="&#x2021;" horiz-adv-x="592" 
d="M39 186h183l28 195h-181l16 109h180l29 210h114l-29 -210h183l-15 -109h-184l-27 -195h180l-16 -110h-180l-37 -270h-114l38 270h-184z" />
    <glyph glyph-name="bullet" unicode="&#x2022;" horiz-adv-x="424" 
d="M67 262q0 58 41.5 99.5t99.5 41.5t99 -41.5t41 -99.5t-41 -99t-99 -41t-99.5 41t-41.5 99z" />
    <glyph glyph-name="ellipsis" unicode="&#x2026;" horiz-adv-x="791" 
d="M40 65q0 31 21.5 53t52.5 22t53.5 -22t22.5 -53t-22.5 -53t-53.5 -22t-52.5 22t-21.5 53zM300 65q0 31 21.5 53t52.5 22t53.5 -22t22.5 -53t-22.5 -53t-53.5 -22t-52.5 22t-21.5 53zM560 65q0 31 22 53t53 22t53.5 -22t22.5 -53t-22.5 -53t-53.5 -22t-53 22t-22 53z" />
    <glyph glyph-name="perthousand" unicode="&#x2030;" horiz-adv-x="1123" 
d="M100 558q0 32 13 60.5t35 49t51.5 32.5t61.5 12q56 0 90.5 -38t34.5 -91q0 -32 -13 -60.5t-34.5 -49t-50 -32.5t-60.5 -12q-58 0 -93 37.5t-35 91.5zM192 563q0 -20 13 -33t32 -13q22 0 39.5 16.5t17.5 43.5q0 22 -13.5 34.5t-29.5 12.5q-22 0 -40.5 -16.5t-18.5 -44.5z
M430 119q0 32 13 60.5t35 49t51.5 32.5t61.5 12q57 0 91 -38t34 -91q0 -32 -13 -60.5t-34.5 -49t-50 -32.5t-60.5 -12q-58 0 -93 37.5t-35 91.5zM523 124q0 -21 12.5 -33.5t31.5 -12.5q21 0 39 16.5t18 43.5q0 22 -13.5 34t-29.5 12q-22 0 -40 -16t-18 -44zM770 119
q0 32 13 60.5t35 49t51.5 32.5t62.5 12q56 0 90.5 -38t34.5 -91q0 -32 -13 -60.5t-34.5 -49t-50.5 -32.5t-61 -12q-57 0 -92.5 37.5t-35.5 91.5zM864 124q0 -21 12.5 -33.5t30.5 -12.5q22 0 40 16.5t18 43.5q0 22 -13.5 34t-29.5 12q-22 0 -40 -16t-18 -44zM82 0l529 700
h123l-528 -700h-124z" />
    <glyph glyph-name="guilsinglleft" unicode="&#x2039;" horiz-adv-x="350" 
d="M38 245l171 245h125l-178 -250l104 -240h-119z" />
    <glyph glyph-name="guilsinglright" unicode="&#x203a;" horiz-adv-x="350" 
d="M312 245l-171 -245h-125l178 250l-104 240h119z" />
    <glyph glyph-name="fraction" unicode="&#x2044;" horiz-adv-x="615" 
d="M-9 0l529 700h115l-529 -700h-115z" />
    <glyph glyph-name="zerosuperior" unicode="&#x2070;" horiz-adv-x="399" 
d="M186 388q42 0 63.5 38t21.5 109q0 42 -15.5 64t-43.5 22q-41 0 -62.5 -38t-21.5 -104q0 -42 14.5 -66.5t43.5 -24.5zM179 302q-74 0 -112 47.5t-38 120.5q0 104 53 170.5t140 66.5q72 0 110 -47.5t38 -120.5q0 -51 -12.5 -94.5t-37 -75t-60 -49.5t-81.5 -18z" />
    <glyph glyph-name="foursuperior" unicode="&#x2074;" horiz-adv-x="382" 
d="M348 388h-58l-11 -80h-95l11 80h-184l11 74l206 238h106l-33 -233h58zM121 467h85l17 120z" />
    <glyph glyph-name="zeroinferior" unicode="&#x2080;" horiz-adv-x="399" 
d="M186 79q42 0 63.5 38t21.5 109q0 42 -15.5 64t-43.5 22q-41 0 -62.5 -38t-21.5 -104q0 -42 14.5 -66.5t43.5 -24.5zM179 -7q-74 0 -112 47.5t-38 120.5q0 104 53 170.5t140 66.5q72 0 110 -47.5t38 -120.5q0 -51 -12.5 -94.5t-37 -75t-60 -49.5t-81.5 -18z" />
    <glyph glyph-name="oneinferior" unicode="&#x2081;" horiz-adv-x="347" 
d="M24 84h99l28 197q-19 -11 -46 -17.5t-57 -6.5l12 81q31 1 64 13.5t51 40.5h87l-43 -308h96l-12 -84h-291z" />
    <glyph glyph-name="twoinferior" unicode="&#x2082;" horiz-adv-x="381" 
d="M134 84h191l-12 -84h-300l2 13q10 69 46 117.5t115 82.5l23 9q33 15 46 27.5t13 30.5q0 15 -13.5 25t-35.5 10q-29 0 -55 -16.5t-44 -43.5l-53 59q23 35 68 60t97 25q26 0 50 -6.5t42.5 -19.5t30 -32.5t11.5 -45.5q0 -51 -30 -82.5t-87 -56.5l-27 -12q-39 -17 -55.5 -30
t-22.5 -30z" />
    <glyph glyph-name="threeinferior" unicode="&#x2083;" horiz-adv-x="371" 
d="M281 204q20 -10 33.5 -29.5t13.5 -48.5q0 -32 -14.5 -57t-38.5 -42t-56.5 -25.5t-67.5 -8.5q-46 0 -83.5 18t-56.5 46l72 62q16 -23 38 -33t45 -10q28 0 47 13t19 34q0 16 -15.5 26.5t-52.5 10.5h-35l11 76h31q38 0 55.5 12.5t17.5 31.5q0 16 -13.5 25t-35.5 9
q-24 0 -43 -8.5t-38 -28.5l-55 59q28 25 66 43.5t87 18.5q25 0 48.5 -5.5t41.5 -17t29 -30t11 -44.5q0 -35 -17 -58.5t-44 -38.5z" />
    <glyph glyph-name="fourinferior" unicode="&#x2084;" horiz-adv-x="382" 
d="M348 80h-58l-11 -80h-95l11 80h-184l11 74l206 238h106l-33 -233h58zM121 159h85l17 120z" />
    <glyph glyph-name="Euro" unicode="&#x20ac;" horiz-adv-x="697" 
d="M85 481h82q40 101 120.5 166t195.5 65q80 0 131.5 -31t81.5 -74l-86 -77q-24 37 -57.5 54.5t-80.5 17.5q-60 0 -106 -33.5t-74 -87.5h216l-14 -101h-237q-1 -7 -2 -14.5t-2 -14.5l-2 -16t-2 -15h236l-14 -100h-215q12 -53 47.5 -87t99.5 -34q50 0 89 18t75 55l66 -86
q-54 -50 -114 -73.5t-126 -23.5q-59 0 -104 17.5t-77 48t-51.5 73t-26.5 92.5h-87l15 100h69q1 8 2 17l2 18l2 12t2 13h-69z" />
    <glyph glyph-name="numero" unicode="&#x2116;" horiz-adv-x="1205" 
d="M476 0l-257 523l-73 -523h-119l99 700h138l255 -525l74 525h120l-99 -700h-138zM772 504q0 44 17.5 82t47 65.5t69.5 43.5t85 16q81 0 130.5 -47.5t49.5 -118.5q0 -44 -15.5 -82.5t-44 -67t-69.5 -45t-91 -16.5q-78 0 -128.5 48t-50.5 122zM870 508q0 -39 23.5 -64.5
t63.5 -25.5q49 0 83 34.5t34 83.5q0 40 -24 65.5t-64 25.5q-48 0 -82 -34.5t-34 -84.5z" />
    <glyph glyph-name="published" unicode="&#x2117;" horiz-adv-x="813" 
d="M48 314q0 84 33.5 157t89.5 126t131 84t157 31q68 0 126 -24.5t100 -68t65.5 -103.5t23.5 -131q0 -84 -33.5 -156.5t-89.5 -125.5t-131 -83.5t-157 -30.5q-68 0 -126 24t-100 67t-65.5 103t-23.5 131zM127 315q0 -53 17.5 -98.5t49.5 -79t77 -52.5t100 -19q66 0 125 25.5
t103 68.5t70 101.5t26 124.5q0 52 -17.5 97.5t-49.5 79t-77 53t-100 19.5q-66 0 -125.5 -25.5t-103.5 -69t-69.5 -102t-25.5 -123.5zM362 288h81q70 0 117 40.5t47 102.5q0 50 -35 79.5t-93 29.5h-171l-54 -381h90zM386 460h77q24 0 37 -10.5t13 -29.5q0 -25 -17.5 -38.5
t-45.5 -13.5h-77z" />
    <glyph glyph-name="trademark" unicode="&#x2122;" horiz-adv-x="863" 
d="M81 700h302l-11 -84h-107l-43 -309h-92l44 309h-105zM560 374l-48 166l-33 -233h-90l55 393h104l64 -227l128 227h112l-55 -393h-89l32 233l-94 -166h-86z" />
    <glyph glyph-name="Omega" unicode="&#x2126;" horiz-adv-x="763" 
d="M639 104l-15 -104h-227l31 221q78 16 129 75.5t51 139.5q0 38 -14.5 69.5t-39.5 53t-58.5 33.5t-71.5 12q-45 0 -87 -15.5t-74 -43.5t-51.5 -68.5t-19.5 -90.5q0 -62 34.5 -107t92.5 -58l-31 -221h-228l15 104h122l9 55q-56 26 -93 85.5t-37 137.5q0 76 30.5 137.5
t80.5 104t114.5 65.5t132.5 23q56 0 108.5 -19.5t92.5 -55t64 -85.5t24 -110q0 -53 -16.5 -99t-44.5 -82.5t-64.5 -64t-75.5 -42.5l-6 -50h123z" />
    <glyph glyph-name="LeftArrow" unicode="&#x2190;" horiz-adv-x="811" 
d="M482 523l-207 -178h504l-16 -111h-518l162 -181l-80 -76l-269 313l357 312z" />
    <glyph glyph-name="UpArrow" unicode="&#x2191;" horiz-adv-x="723" 
d="M613 326l-156 182l-72 -508h-110l71 507l-203 -183l-73 79l354 309l271 -315z" />
    <glyph glyph-name="RightArrow" unicode="&#x2192;" horiz-adv-x="811" 
d="M341 56l207 178h-503l16 111h517l-162 181l81 76l268 -313l-356 -312z" />
    <glyph glyph-name="DownwArrow" unicode="&#x2193;" horiz-adv-x="723" 
d="M148 375l156 -182l71 508h110l-71 -507l203 183l73 -79l-353 -309l-272 315z" />
    <glyph glyph-name="NorthWestArrow" unicode="&#x2196;" horiz-adv-x="676" 
d="M551 414h-257l304 -354l-85 -75l-306 359l-37 -264h-108l62 441h442z" />
    <glyph glyph-name="NorthEastArrow" unicode="&#x2197;" horiz-adv-x="676" 
d="M452 414h-260l13 107h436l-62 -441h-110l35 241l-390 -335l-70 88z" />
    <glyph glyph-name="SouthEastArrow" unicode="&#x2198;" horiz-adv-x="676" 
d="M135 107h258l-305 354l85 75l307 -359l36 264h108l-62 -441h-441z" />
    <glyph glyph-name="SouthWestArrow" unicode="&#x2199;" horiz-adv-x="676" 
d="M249 107h260l-13 -107h-436l62 441h110l-35 -241l390 335l69 -88z" />
    <glyph glyph-name="partialdiff" unicode="&#x2202;" horiz-adv-x="611" 
d="M251 -11q-42 0 -81 15t-68.5 42t-47 66t-17.5 88q0 60 23 108.5t60.5 82.5t85.5 52t98 18q40 0 83 -17t66 -55q16 100 -22 156.5t-112 56.5q-43 0 -78 -18t-60 -46l-68 83q39 41 95.5 66t122.5 25q56 0 101.5 -21t76.5 -59t48 -92t17 -119q0 -94 -23 -173.5t-65 -136.5
t-101.5 -89.5t-133.5 -32.5zM299 350q-27 0 -53 -10t-45.5 -28.5t-32 -45.5t-12.5 -60q0 -51 30.5 -79t73.5 -28q60 0 102.5 42.5t42.5 105.5q0 46 -30 74.5t-76 28.5z" />
    <glyph glyph-name="Delta" unicode="&#x2206;" horiz-adv-x="669" 
d="M352 700h112l143 -597l-14 -103h-568l14 103zM390 559l-232 -451h338z" />
    <glyph glyph-name="product" unicode="&#x220f;" horiz-adv-x="656" 
d="M397 -194l111 788h-274l-111 -788h-111l126 894h497l-126 -894h-112z" />
    <glyph glyph-name="summation" unicode="&#x2211;" horiz-adv-x="527" 
d="M229 591l150 -341l-241 -335h296l-15 -109h-432l15 103l249 345l-152 343l14 103h432l-16 -109h-300z" />
    <glyph glyph-name="minus" unicode="&#x2212;" horiz-adv-x="617" 
d="M53 207l15 106h490l-15 -106h-490z" />
    <glyph glyph-name="radical" unicode="&#x221a;" horiz-adv-x="691" 
d="M53 490h189l76 -336l278 546h124l-360 -700h-117l-92 384h-113z" />
    <glyph glyph-name="infinity" unicode="&#x221e;" horiz-adv-x="1110" 
d="M566 338l31 34q22 25 48.5 48.5t57 41.5t65.5 29t75 11q49 0 90.5 -18.5t71 -49.5t46.5 -73.5t17 -90.5q0 -60 -23 -111.5t-62 -89t-91.5 -59t-111.5 -21.5q-42 0 -75.5 11t-59.5 29t-45.5 41.5t-34.5 48.5l-20 34l-30 -33q-22 -25 -48 -48.5t-56 -42t-65.5 -29.5
t-77.5 -11q-49 0 -90.5 18t-72 49.5t-47.5 73.5t-17 90q0 60 23.5 111.5t63 89.5t92 59.5t111.5 21.5q84 0 133.5 -40t80.5 -89zM322 393q-32 0 -62 -13t-53 -35.5t-36.5 -53t-13.5 -64.5q0 -55 34.5 -92.5t88.5 -37.5q49 0 86.5 27.5t75.5 70.5l46 52l-30 52
q-26 43 -56.5 68.5t-79.5 25.5zM623 242l30 -51q25 -42 56 -68t80 -26q32 0 61.5 13t52.5 35.5t36.5 53t13.5 64.5q0 56 -34.5 93t-87.5 37q-49 0 -87 -27t-75 -70z" />
    <glyph glyph-name="integral" unicode="&#x222b;" horiz-adv-x="375" 
d="M92 -6l74 524q14 102 75 148t151 46q15 0 26 -0.5l11 -0.5l-15 -107h-29q-51 0 -75 -24t-30 -67l-75 -526q-14 -101 -74.5 -146.5t-150.5 -45.5q-16 0 -26.5 0.5l-10.5 0.5l15 108h29q51 0 75 23.5t30 66.5z" />
    <glyph glyph-name="approxequal" unicode="&#x2248;" horiz-adv-x="661" 
d="M511 449h97q-5 -66 -42.5 -109.5t-97.5 -43.5q-19 0 -37 4t-37 9l-120 35q-10 3 -23 6.5t-26 3.5q-23 0 -36 -15t-16 -37h-97q5 66 42 109.5t97 43.5q19 0 37.5 -4t36.5 -10l122 -34q11 -3 23 -6t25 -3q24 0 36.5 14.5t15.5 36.5zM481 239h97q-5 -66 -42 -109.5
t-97 -43.5q-19 0 -37.5 4t-36.5 9l-121 35q-11 3 -23.5 6t-25.5 3q-23 0 -36 -14.5t-16 -36.5h-96q5 66 41.5 109t96.5 43q19 0 37.5 -4t36.5 -8l122 -35q11 -4 23 -7t25 -3q24 0 36.5 15t15.5 37z" />
    <glyph glyph-name="notequal" unicode="&#x2260;" horiz-adv-x="642" 
d="M76 301l15 107h281l62 89h118l-63 -89h92l-15 -107h-148l-67 -95h202l-15 -106h-258l-73 -107h-119l74 107h-114l15 106h171l66 95h-224z" />
    <glyph glyph-name="lessequal" unicode="&#x2264;" horiz-adv-x="637" 
d="M50 240l17 117l523 156l-17 -121l-372 -95l344 -99l-16 -116zM1 -106l16 106h501l-16 -106h-501z" />
    <glyph glyph-name="greaterequal" unicode="&#x2265;" horiz-adv-x="632" 
d="M572 356l-16 -117l-524 -156l17 120l372 96l-345 98l17 116zM6 -106l16 106h500l-15 -106h-501z" />
    <glyph glyph-name="BlackSquare" unicode="&#x25a0;" horiz-adv-x="651" 
d="M80 137v491h491v-491h-491z" />
    <glyph glyph-name="UpTriangle" unicode="&#x25b2;" horiz-adv-x="760" 
d="M40 80l340 540l340 -540h-680z" />
    <glyph glyph-name="RightTriangle" unicode="&#x25ba;" horiz-adv-x="660" 
d="M620 350l-540 -340v680z" />
    <glyph glyph-name="DownTriangle" unicode="&#x25bc;" horiz-adv-x="760" 
d="M380 80l-340 540h680z" />
    <glyph glyph-name="LeftTriangle" unicode="&#x25c0;" horiz-adv-x="660" 
d="M580 10l-540 340l540 340v-680z" />
    <glyph glyph-name="Diamond" unicode="&#x25c6;" horiz-adv-x="718" 
d="M40 385l319 319l319 -319l-319 -319z" />
    <glyph glyph-name="lozenge" unicode="&#x25ca;" horiz-adv-x="647" 
d="M338 700h105l154 -453l-282 -452h-105l-154 452zM174 239l104 -308l201 324l-103 309z" />
    <glyph glyph-name="BlackCircle" unicode="&#x25cf;" horiz-adv-x="630" 
d="M315 75q-57 0 -107 21.5t-87.5 59t-59 87.5t-21.5 107q0 56 21.5 106.5t59 87.5t87.5 59t107 22q56 0 106.5 -22t87.5 -59t59 -87.5t22 -106.5q0 -57 -22 -107t-59 -87.5t-87.5 -59t-106.5 -21.5z" />
    <glyph glyph-name="HeavyBlackHeart" unicode="&#x2764;" horiz-adv-x="646" 
d="M461 626q25 0 52.5 -7.5t50.5 -25t37.5 -48t14.5 -75.5q0 -58 -36 -98t-84.5 -80.5t-97.5 -90.5t-75 -127h-1q-25 77 -74 127t-97.5 90.5t-84.5 80.5t-36 98q0 45 14.5 75.5t37 48t50 25t53.5 7.5q32 0 55 -10t38 -25t24 -33.5t13 -35.5h15q4 17 13 35.5t24.5 33.5
t38.5 25t55 10z" />
    <glyph glyph-name="i.TRK" horiz-adv-x="259" 
d="M38 0l69 490h115l-69 -490h-115zM114 640q0 30 20.5 51t49.5 21q30 0 51 -21t21 -51q0 -29 -21 -49.5t-51 -20.5q-29 0 -49.5 20.5t-20.5 49.5z" />
    <glyph glyph-name="a.ordn" horiz-adv-x="462" 
d="M34 499q0 46 15.5 85.5t43 67.5t65 44t80.5 16q37 0 61.5 -12t40.5 -29l4 33h94l-51 -361h-94l5 32q-18 -16 -46 -28.5t-67 -12.5q-36 0 -64 13.5t-47.5 36t-29.5 52.5t-10 63zM130 508q0 -39 19 -65.5t59 -26.5q51 0 81.5 36t30.5 85q0 40 -21 66.5t-64 26.5t-74 -35.5
t-31 -86.5z" />
    <glyph glyph-name="d.ordn" horiz-adv-x="474" 
d="M35 497q0 46 17.5 85.5t47 68t68.5 44.5t82 16q34 0 59.5 -11.5t40.5 -27.5l26 185h94l-72 -515h-92l4 32q-20 -17 -49.5 -28.5t-63.5 -11.5q-71 0 -116.5 45.5t-45.5 117.5zM332 538q0 40 -23 65.5t-62 25.5q-48 0 -81 -35.5t-33 -86.5q0 -40 23 -66t62 -26
q48 0 81 35.5t33 87.5z" />
    <glyph glyph-name="e.ordn" horiz-adv-x="433" 
d="M393 499h-264q-1 -37 21 -59.5t65 -22.5q30 0 56 11.5t47 33.5l55 -56q-28 -30 -69.5 -51t-98.5 -21q-77 0 -124 44.5t-47 116.5q0 44 16 83.5t44 69t67 46.5t84 17q41 0 70.5 -13.5t48 -36t27.5 -51.5t9 -59q0 -19 -3.5 -35.5zM235 631q-36 0 -59.5 -20.5t-32.5 -48.5
h161q2 30 -17 49.5t-52 19.5z" />
    <glyph glyph-name="g.ordn" horiz-adv-x="465" 
d="M299 368l3 17q-20 -17 -47 -26t-60 -9q-69 0 -114 42t-45 113q0 48 18 86.5t47 64.5t67 40.5t78 14.5q33 0 57 -11t40 -29l5 32h93l-46 -326q-11 -81 -71 -133.5t-153 -52.5q-37 0 -63.5 8t-45 19.5t-30.5 24.5t-18 23l74 61q10 -18 33 -35.5t61 -17.5q49 0 80.5 26.5
t36.5 67.5zM325 544q0 38 -23.5 61.5t-58.5 23.5q-43 0 -75.5 -31.5t-32.5 -81.5q0 -37 22.5 -60.5t57.5 -23.5q43 0 76.5 31.5t33.5 80.5z" />
    <glyph glyph-name="l.ordn" horiz-adv-x="199" 
d="M26 342l72 515h95l-72 -515h-95z" />
    <glyph glyph-name="m.ordn" horiz-adv-x="667" 
d="M145 531l-27 -189h-94l51 361h93l-4 -31q17 16 43.5 27.5t57.5 11.5q34 0 60 -12.5t41 -34.5q23 21 54.5 34t67.5 13q75 0 108.5 -41.5t23.5 -117.5l-30 -210h-94l29 208q5 35 -8 56.5t-47 21.5q-36 0 -59 -24.5t-29 -67.5l-27 -194h-95l30 207q5 36 -9 57.5t-46 21.5
q-37 0 -60.5 -25.5t-29.5 -71.5z" />
    <glyph glyph-name="o.ordn" horiz-adv-x="467" 
d="M34 504q0 44 17.5 82t47 65.5t69.5 43.5t85 16q81 0 130.5 -47.5t49.5 -118.5q0 -44 -15.5 -82.5t-44 -67t-69.5 -45t-91 -16.5q-78 0 -128.5 48t-50.5 122zM132 508q0 -39 23.5 -64.5t63.5 -25.5q49 0 83 34.5t34 83.5q0 40 -24 65.5t-64 25.5q-48 0 -82 -34.5
t-34 -84.5z" />
    <glyph glyph-name="r.ordn" horiz-adv-x="298" 
d="M297 707l-12 -87h-17q-51 0 -85 -30t-43 -96l-22 -152h-94l51 361h93l-5 -37q21 21 48.5 31.5t59.5 10.5h13t13 -1z" />
    <glyph glyph-name="s.ordn" horiz-adv-x="377" 
d="M207 474l-51 13q-52 12 -78 37.5t-26 62.5q0 29 13.5 52t35.5 39t50.5 24.5t58.5 8.5q42 0 77.5 -14.5t62.5 -42.5l-67 -59q-14 13 -35.5 25.5t-51.5 12.5q-22 0 -36 -9.5t-14 -22.5q0 -10 8 -16.5t23 -10.5l56 -12q45 -10 74.5 -33.5t29.5 -66.5q0 -56 -47.5 -92
t-123.5 -36q-54 0 -94 21.5t-58 47.5l67 57q22 -25 48.5 -37.5t53.5 -12.5q25 0 42.5 10t17.5 26q0 10 -8.5 17t-27.5 11z" />
    <glyph glyph-name="t.ordn" horiz-adv-x="283" 
d="M169 341q-63 0 -89.5 30.5t-18.5 91.5l22 156h-53l12 84h53l14 100h94l-14 -100h85l-11 -84h-86l-20 -145q-4 -28 6.5 -39t38.5 -11h32l-11 -82l-17 -0.5t-37 -0.5z" />
    <glyph glyph-name="caron.alt" horiz-adv-x="500" 
d="M335 700l-86 -189h-85l54 189h117z" />
    <glyph glyph-name="revcommaaccent" horiz-adv-x="500" 
d="M249 700h92l-65 -137h-118z" />
    <glyph glyph-name="grave.cap" horiz-adv-x="500" 
d="M151 872h138l59 -103h-116z" />
    <glyph glyph-name="acute.cap" horiz-adv-x="500" 
d="M222 872h143l-110 -103h-120z" />
    <glyph glyph-name="circumflex.cap" horiz-adv-x="500" 
d="M88 769l104 103h143l76 -103h-114l-42 49l-57 -49h-110z" />
    <glyph glyph-name="caron.cap" horiz-adv-x="500" 
d="M411 872l-104 -103h-143l-76 103h110l42 -49l56 49h115z" />
    <glyph glyph-name="tilde.cap" horiz-adv-x="500" 
d="M334 885h80q-7 -48 -36 -82t-70 -34q-13 0 -26 4l-26 8l-26 9q-8 4 -16 5.5t-16 1.5q-11 0 -20 -6.5t-12 -21.5h-80q7 49 35.5 82.5t69.5 33.5q13 0 26 -3.5t26 -7.5l27 -10q8 -3 15.5 -5t15.5 -2q11 0 20.5 7t12.5 21z" />
    <glyph glyph-name="dieresis.cap" horiz-adv-x="500" 
d="M85 828q0 26 18.5 45.5t45.5 19.5t46.5 -19.5t19.5 -45.5q0 -27 -19.5 -46t-46.5 -19t-45.5 19t-18.5 46zM285 828q0 26 18.5 45.5t46.5 19.5q26 0 45.5 -19.5t19.5 -45.5q0 -27 -19.5 -46t-45.5 -19q-28 0 -46.5 19t-18.5 46z" />
    <glyph glyph-name="macron.cap" horiz-adv-x="500" 
d="M122 776l14 98h241l-14 -98h-241z" />
    <glyph glyph-name="breve.cap" horiz-adv-x="500" 
d="M235 748q-59 0 -92 36.5t-29 97.5h90q0 -19 9.5 -31.5t34.5 -12.5q24 0 37.5 12.5t18.5 31.5h91q-13 -61 -56.5 -97.5t-103.5 -36.5z" />
    <glyph glyph-name="ring.cap" horiz-adv-x="500" 
d="M222 772q0 -10 7 -17t17 -7q13 0 22.5 9t9.5 22q0 10 -7 17t-17 7q-13 0 -22.5 -9t-9.5 -22zM155 766q0 43 32.5 73t74.5 30q36 0 59.5 -23.5t23.5 -59.5q0 -43 -32.5 -73t-76.5 -30q-35 0 -58 24.5t-23 58.5z" />
    <glyph glyph-name="hungarumlaut.cap" horiz-adv-x="500" 
d="M60 769l81 103h121l-96 -103h-106zM237 769l81 103h122l-97 -103h-106z" />
    <glyph glyph-name="dotaccent.cap" horiz-adv-x="500" 
d="M178 826q0 29 20.5 50t50.5 21q29 0 50.5 -21t21.5 -50t-21.5 -50t-50.5 -21q-30 0 -50.5 21t-20.5 50z" />
    <glyph glyph-name="cedilla.cap" horiz-adv-x="500" 
d="M340 11l3 -11l-76 -137h-117l95 148h95z" />
    <glyph glyph-name="ogonek.cap" horiz-adv-x="500" 
d="M320 -114l-10 -71q-7 -1 -20 -3t-29 -2q-46 0 -71 20t-25 56q0 40 26.5 70t57.5 49l86 -5q-41 -25 -57 -44t-16 -37q0 -15 13 -24t41 -9h4z" />
    <glyph glyph-name="commaaccent.cap" horiz-adv-x="500" 
d="M251 -194h-93l66 137h117z" />
    <glyph glyph-name="hyphen.cap" horiz-adv-x="291" 
d="M17 298l14 104h249l-15 -104h-248z" />
    <glyph glyph-name="exclamdown.cap" horiz-adv-x="315" 
d="M240 480l-68 -480h-118l67 480h119zM278 636q0 -31 -21.5 -53.5t-52.5 -22.5t-53.5 22.5t-22.5 53.5t22.5 53t53.5 22t52.5 -22t21.5 -53z" />
    <glyph glyph-name="questiondown.cap" horiz-adv-x="550" 
d="M279 481h118l-25 -172l-38 -1q-75 -1 -121.5 -37t-46.5 -87q0 -37 28 -61t72 -24q53 0 95 25t74 68l66 -83q-44 -54 -108.5 -87t-139.5 -33q-44 0 -82 15t-65.5 40.5t-43.5 61t-16 76.5q0 87 61 147.5t161 74.5zM432 636q0 -31 -21.5 -53t-52.5 -22t-53.5 22t-22.5 53
t22.5 53t53.5 22t52.5 -22t21.5 -53z" />
    <glyph glyph-name="guilsinglleft.cap" horiz-adv-x="350" 
d="M38 349l171 245h125l-178 -250l104 -240h-119z" />
    <glyph glyph-name="guilsinglright.cap" horiz-adv-x="350" 
d="M312 349l-171 -245h-125l178 250l-104 240h119z" />
    <glyph glyph-name="guillemotleft.cap" horiz-adv-x="613" 
d="M38 350l171 245h125l-178 -250l104 -240h-119zM300 350l171 245h125l-178 -250l104 -240h-119z" />
    <glyph glyph-name="guillemotright.cap" horiz-adv-x="613" 
d="M319 349l-171 -245h-125l178 250l-104 240h119zM581 349l-171 -245h-125l178 250l-104 240h119z" />
    <glyph glyph-name="slash.cap" horiz-adv-x="548" 
d="M25 0l394 700h124l-393 -700h-125z" />
    <glyph glyph-name="backslash.cap" horiz-adv-x="423" 
d="M174 700l197 -700h-117l-196 700h116z" />
    <glyph glyph-name="endash.cap" horiz-adv-x="531" 
d="M36 298l15 104h442l-15 -104h-442z" />
    <glyph glyph-name="emdash.cap" horiz-adv-x="942" 
d="M34 298l14 104h854l-15 -104h-853z" />
    <glyph glyph-name="periodcentered.cap" horiz-adv-x="291" 
d="M73 350q0 31 22 53.5t53 22.5t53.5 -22.5t22.5 -53.5t-22.5 -53t-53.5 -22t-53 22t-22 53z" />
    <glyph glyph-name="parenleft.cap" horiz-adv-x="378" 
d="M426 738q-104 -93 -169.5 -209.5t-65.5 -255.5q0 -88 28 -169t88 -150l-83 -69q-29 32 -56.5 74t-48 90.5t-33 104.5t-12.5 117q0 82 21 158.5t58 144.5t88.5 129t113.5 112z" />
    <glyph glyph-name="parenright.cap" horiz-adv-x="378" 
d="M-38 -38q104 93 169.5 209.5t65.5 255.5q0 88 -28.5 169t-88.5 150l83 69q29 -32 56.5 -74t48 -90.5t33 -104.5t12.5 -117q0 -82 -21 -158.5t-58 -144.5t-88.5 -129t-113.5 -112z" />
    <glyph glyph-name="bracketleft.cap" horiz-adv-x="369" 
d="M40 -97l126 894h262l-15 -107h-146l-96 -680h146l-15 -107h-262z" />
    <glyph glyph-name="bracketright.cap" horiz-adv-x="369" 
d="M323 797l-126 -894h-262l15 107h146l96 680h-146l15 107h262z" />
    <glyph glyph-name="braceleft.cap" horiz-adv-x="427" 
d="M324 612l-74 -523q-7 -46 14 -64t58 -18h48l-15 -105h-62q-88 0 -130 50t-29 139l28 207h-110l15 110h110l29 205q13 93 66.5 139.5t143.5 46.5h65l-15 -106h-50q-37 0 -61 -17.5t-31 -63.5z" />
    <glyph glyph-name="braceright.cap" horiz-adv-x="427" 
d="M113 89l74 523q6 46 -15 64t-58 18h-47l14 105h63q87 0 129.5 -50t29.5 -139l-29 -206h111l-15 -109h-111l-29 -207q-13 -93 -66.5 -139.5t-143.5 -46.5h-65l15 106h51q37 0 61 17.5t31 63.5z" />
    <glyph glyph-name="numero_s" horiz-adv-x="1576" 
d="M476 0l-257 523l-73 -523h-119l99 700h138l255 -525l74 525h120l-99 -700h-138zM772 504q0 44 17.5 82t47 65.5t69.5 43.5t85 16q81 0 130.5 -47.5t49.5 -118.5q0 -44 -15.5 -82.5t-44 -67t-69.5 -45t-91 -16.5q-78 0 -128.5 48t-50.5 122zM870 508q0 -39 23.5 -64.5
t63.5 -25.5q49 0 83 34.5t34 83.5q0 40 -24 65.5t-64 25.5q-48 0 -82 -34.5t-34 -84.5zM1405 474l-51 13q-52 12 -78 37.5t-26 62.5q0 29 13.5 52t35.5 39t50.5 24.5t58.5 8.5q42 0 77.5 -14.5t62.5 -42.5l-67 -59q-14 13 -35.5 25.5t-51.5 12.5q-22 0 -36 -9.5t-14 -22.5
q0 -10 8 -16.5t23 -10.5l56 -12q45 -10 74.5 -33.5t29.5 -66.5q0 -56 -47.5 -92t-123.5 -36q-54 0 -94 21.5t-58 47.5l67 57q22 -25 48.5 -37.5t53.5 -12.5q25 0 42.5 10t17.5 26q0 10 -8.5 17t-27.5 11z" />
    <glyph glyph-name="numeroLC" horiz-adv-x="1018" 
d="M215 490l-6 -44q24 24 61 40t76 16q80 0 126 -49.5t46 -132.5q0 -12 -1.5 -24t-2.5 -25l-38 -271h-116l40 281q1 6 1.5 12.5t0.5 12.5q0 41 -21 65t-64 24q-59 0 -92 -41.5t-43 -109.5l-34 -244h-114l69 490h112zM585 504q0 44 17.5 82t47 65.5t69.5 43.5t85 16
q81 0 130.5 -47.5t49.5 -118.5q0 -44 -15.5 -82.5t-44 -67t-69.5 -45t-91 -16.5q-78 0 -128.5 48t-50.5 122zM683 508q0 -39 23.5 -64.5t63.5 -25.5q49 0 83 34.5t34 83.5q0 40 -24 65.5t-64 25.5q-48 0 -82 -34.5t-34 -84.5z" />
    <glyph glyph-name="numeroLC_s" horiz-adv-x="1388" 
d="M215 490l-6 -44q24 24 61 40t76 16q80 0 126 -49.5t46 -132.5q0 -12 -1.5 -24t-2.5 -25l-38 -271h-116l40 281q1 6 1.5 12.5t0.5 12.5q0 41 -21 65t-64 24q-59 0 -92 -41.5t-43 -109.5l-34 -244h-114l69 490h112zM585 504q0 44 17.5 82t47 65.5t69.5 43.5t85 16
q81 0 130.5 -47.5t49.5 -118.5q0 -44 -15.5 -82.5t-44 -67t-69.5 -45t-91 -16.5q-78 0 -128.5 48t-50.5 122zM683 508q0 -39 23.5 -64.5t63.5 -25.5q49 0 83 34.5t34 83.5q0 40 -24 65.5t-64 25.5q-48 0 -82 -34.5t-34 -84.5zM1218 474l-51 13q-52 12 -78 37.5t-26 62.5
q0 29 13.5 52t35.5 39t50.5 24.5t58.5 8.5q42 0 77.5 -14.5t62.5 -42.5l-67 -59q-14 13 -35.5 25.5t-51.5 12.5q-22 0 -36 -9.5t-14 -22.5q0 -10 8 -16.5t23 -10.5l56 -12q45 -10 74.5 -33.5t29.5 -66.5q0 -56 -47.5 -92t-123.5 -36q-54 0 -94 21.5t-58 47.5l67 57
q22 -25 48.5 -37.5t53.5 -12.5q25 0 42.5 10t17.5 26q0 10 -8.5 17t-27.5 11z" />
    <glyph glyph-name="zero.osf" horiz-adv-x="671" 
d="M299 -11q-52 0 -98.5 18.5t-81.5 51.5t-55 80t-20 104q0 70 27.5 128.5t72.5 100t104 64.5t122 23q52 0 99 -19t82 -52.5t55.5 -81.5t20.5 -105q0 -66 -26 -123.5t-70.5 -99t-104.5 -65.5t-127 -24zM507 298q0 66 -42.5 108t-105.5 42q-41 0 -77 -16.5t-62 -44t-41 -63.5
t-15 -76q0 -65 40.5 -107t105.5 -42q41 0 77 16.5t62.5 43.5t42 63t15.5 76z" />
    <glyph glyph-name="one.osf" horiz-adv-x="503" 
d="M32 111h163l39 280q-32 -21 -74.5 -34t-93.5 -13l14 107q53 2 104.5 23.5t84.5 72.5h107l-62 -436h154l-16 -111h-435z" />
    <glyph glyph-name="two.osf" horiz-adv-x="580" 
d="M176 111h342l-16 -111h-487l5 39q13 98 87 162t190 100l50 15q51 16 71 33.5t20 43.5q0 23 -23 39t-68 16q-28 0 -57 -7.5t-55.5 -20.5t-49 -30.5t-37.5 -37.5l-68 77q21 28 51.5 52t67 41t77.5 27t82 10q43 0 80 -11t64 -32t43 -50t16 -65q0 -74 -50.5 -117.5
t-136.5 -68.5l-61 -18q-49 -16 -89 -35.5t-48 -50.5z" />
    <glyph glyph-name="three.osf" horiz-adv-x="568" 
d="M415 206q33 -18 59.5 -56.5t26.5 -90.5q0 -55 -22 -97t-59 -70t-87 -42t-106 -14q-69 0 -129.5 29t-100.5 83l87 76q28 -40 67 -59t86 -19q28 0 54.5 7t46 21.5t31.5 36t12 49.5q0 43 -36.5 65t-99.5 22h-56l16 112h45q78 0 117.5 31t39.5 80q0 39 -29.5 59t-69.5 20
q-46 0 -85.5 -18t-73.5 -53l-67 79q46 44 106 73t129 29q42 0 80.5 -12t67.5 -34.5t46.5 -56t17.5 -76.5q0 -35 -11 -63t-27.5 -49.5t-36.5 -36.5t-39 -25z" />
    <glyph glyph-name="four.osf" horiz-adv-x="610" 
d="M542 0h-93l-21 -153h-119l21 153h-315l14 99l371 448h126l-62 -440h93zM158 107h187l39 270z" />
    <glyph glyph-name="five.osf" horiz-adv-x="587" 
d="M420 88q0 50 -32.5 80.5t-83.5 30.5q-40 0 -75 -20t-54 -52h-110l76 420h409l-15 -111h-299l-32 -171q24 17 54 28.5t73 11.5q42 0 80.5 -14.5t67 -41.5t45.5 -66t17 -86q0 -57 -22 -105t-61.5 -82.5t-94 -54t-119.5 -19.5q-73 0 -128 30.5t-90 81.5l91 79q23 -35 59 -58
t87 -23q31 0 59.5 10t50 28.5t34.5 45t13 58.5z" />
    <glyph glyph-name="six.osf" horiz-adv-x="612" 
d="M282 -11q-107 0 -172.5 77.5t-65.5 214.5q0 94 25 174t70 136.5t108 88.5t138 32q66 0 114.5 -28.5t76.5 -67.5l-87 -78q-17 28 -48.5 46t-74.5 18q-71 0 -127.5 -61.5t-70.5 -160.5q32 39 77.5 60t95.5 21q43 0 81.5 -15.5t66.5 -43t44.5 -66.5t16.5 -86q0 -61 -23 -110
t-60 -82t-85.5 -51t-99.5 -18zM322 353q-28 0 -53.5 -10.5t-45.5 -29t-32 -45t-12 -58.5q0 -48 30.5 -79.5t79.5 -31.5q26 0 52 10t45.5 28.5t32 45.5t12.5 61q0 50 -31.5 79.5t-77.5 29.5z" />
    <glyph glyph-name="seven.osf" horiz-adv-x="559" 
d="M69 316l32 231h493l-15 -104q-122 -117 -202 -256.5t-117 -299.5l-9 -40h-120l9 39q38 166 111.5 305t179.5 245h-231l-17 -120h-114z" />
    <glyph glyph-name="eight.osf" horiz-adv-x="595" 
d="M251 -11q-93 0 -154 52t-61 136q0 37 13 68.5t32 55t42 39.5t43 24q-24 16 -46.5 49t-22.5 80q0 50 20.5 90.5t55 69t80.5 44t96 15.5q87 0 145 -52.5t58 -134.5q0 -34 -11 -61.5t-27 -48t-35.5 -35t-35.5 -23.5q28 -14 55 -52.5t27 -89.5q0 -52 -21 -94t-58 -71t-87 -45
t-108 -16zM296 305q-57 0 -98 -31t-41 -85q0 -43 31.5 -66.5t78.5 -23.5q57 0 98 30.5t41 84.5q0 43 -30.5 67t-79.5 24zM338 602q-20 0 -42 -6.5t-39.5 -19.5t-29 -33.5t-11.5 -48.5q0 -39 28 -60.5t67 -21.5q46 0 83 28t37 79q0 42 -29.5 62.5t-63.5 20.5z" />
    <glyph glyph-name="nine.osf" horiz-adv-x="611" 
d="M329 559q108 0 173 -77.5t65 -214.5q0 -94 -25 -174t-70 -136.5t-108 -88.5t-138 -32q-66 0 -114.5 28.5t-76.5 67.5l87 78q17 -28 48.5 -46t74.5 -18q71 0 127.5 61.5t70.5 160.5q-32 -39 -77.5 -60t-95.5 -21q-43 0 -81.5 15.5t-66.5 43t-44.5 66.5t-16.5 86
q0 61 23 110t60 82t85.5 51t99.5 18zM289 195q28 0 54 10.5t45.5 29t31.5 45t12 58.5q0 48 -30 79.5t-79 31.5q-27 0 -52.5 -10t-45.5 -28.5t-32 -45.5t-12 -61q0 -50 31 -79.5t77 -29.5z" />
    <glyph glyph-name="Euro.osf" horiz-adv-x="697" 
d="M85 481h82q40 101 120.5 166t195.5 65q80 0 131.5 -31t81.5 -74l-86 -77q-24 37 -57.5 54.5t-80.5 17.5q-60 0 -106 -33.5t-74 -87.5h216l-14 -101h-237q-1 -7 -2 -14.5t-2 -14.5l-2 -16t-2 -15h236l-14 -100h-215q12 -53 47.5 -87t99.5 -34q50 0 89 18t75 55l66 -86
q-54 -50 -114 -73.5t-126 -23.5q-59 0 -104 17.5t-77 48t-51.5 73t-26.5 92.5h-87l15 100h69q1 8 2 17l2 18l2 12t2 13h-69z" />
    <glyph glyph-name="dollar.osf" horiz-adv-x="646" 
d="M447 815l-16 -110q62 -12 108.5 -41t74.5 -64l-88 -80q-19 23 -47.5 42.5t-62.5 29.5l-27 -187q97 -18 146.5 -69t49.5 -126q0 -90 -68.5 -151t-185.5 -69l-14 -104h-95l15 108q-72 10 -127.5 45.5t-89.5 81.5l88 79q25 -34 61.5 -59.5t82.5 -35.5l28 200l-8 2
q-81 16 -131.5 63.5t-50.5 125.5q0 49 20.5 87.5t54.5 66t78.5 43t93.5 18.5l15 104h95zM465 204q0 31 -23.5 51.5t-68.5 31.5l-26 -186q52 7 85 34.5t33 68.5zM211 503q0 -31 21.5 -50.5t64.5 -29.5l25 177q-49 -5 -80 -31.5t-31 -65.5z" />
    <glyph glyph-name="cent.osf" horiz-adv-x="539" 
d="M415 160l64 -83q-34 -35 -76 -57t-95 -29l-15 -105h-96l15 109q-78 17 -124.5 78.5t-46.5 147.5q0 54 18.5 101.5t51 84t77 61t95.5 31.5l15 105h96l-15 -107q45 -8 80.5 -30.5t60.5 -56.5l-87 -75q-13 19 -31 32.5t-39 20.5l-40 -287q26 6 48.5 21t43.5 38zM159 224
q0 -41 17.5 -72.5t51.5 -45.5l39 278q-47 -17 -77.5 -60.5t-30.5 -99.5z" />
    <glyph glyph-name="sterling.osf" horiz-adv-x="640" 
d="M444 311h-163l16 -199h152l17 123h107l-33 -235h-511l16 112h132l-16 199h-89l14 100h68q-1 7 -0.5 13.5t0.5 9.5q0 76 25.5 129.5t63.5 86t84.5 47.5t87.5 15q81 0 129.5 -33t73.5 -76l-91 -81q-18 31 -48 55.5t-74 24.5q-61 0 -96 -43t-35 -111q0 -6 -0.5 -16.5
t0.5 -20.5h183z" />
    <glyph glyph-name="florin.osf" horiz-adv-x="402" 
d="M78 -12l56 396h-75l15 106h74l6 35q14 98 74 142.5t150 44.5q16 0 27 -0.5l11 -0.5l-15 -107h-30q-51 0 -75 -21t-30 -64l-4 -29h116l-15 -106h-116l-56 -402q-14 -97 -74 -142t-150 -45q-16 0 -27 0.5l-11 0.5l16 108h29q51 0 74.5 20.5t29.5 63.5z" />
    <glyph glyph-name="yen.osf" horiz-adv-x="642" 
d="M525 124h-178l-17 -124h-119l18 124h-173l14 101h173l9 60h-173l14 101h126l-140 314h131l118 -302l198 302h129l-220 -314h126l-14 -101h-177l-8 -60h176z" />
    <glyph glyph-name="zero.to" 
d="M558 319q0 -72 -22.5 -133t-62.5 -104.5t-95 -68t-119 -24.5q-101 0 -159 65.5t-58 172.5q0 72 22.5 133.5t61.5 105.5t94 68.5t119 24.5q101 0 160 -66.5t59 -173.5zM438 307q0 61 -28.5 101t-85.5 40q-40 0 -70.5 -17t-50.5 -45.5t-30.5 -66.5t-10.5 -80
q0 -61 28 -100.5t85 -39.5q38 0 68.5 16.5t51.5 44.5t32 66t11 81z" />
    <glyph glyph-name="one.to" 
d="M69 111h163l39 280q-32 -21 -74.5 -34t-93.5 -13l14 107q53 2 104.5 23.5t84.5 72.5h107l-62 -436h154l-16 -111h-435z" />
    <glyph glyph-name="two.to" 
d="M180 111h342l-16 -111h-487l5 39q13 98 87 162t190 100l50 15q51 16 71 33.5t20 43.5q0 23 -23 39t-68 16q-28 0 -57 -7.5t-55.5 -20.5t-49 -30.5t-37.5 -37.5l-68 77q21 28 51.5 52t67 41t77.5 27t82 10q43 0 80 -11t64 -32t43 -50t16 -65q0 -74 -50.5 -117.5
t-136.5 -68.5l-61 -18q-49 -16 -89 -35.5t-48 -50.5z" />
    <glyph glyph-name="three.to" 
d="M434 206q33 -18 59.5 -56.5t26.5 -90.5q0 -55 -22 -97t-59 -70t-87 -42t-106 -14q-69 0 -129.5 29t-100.5 83l87 76q28 -40 67 -59t86 -19q28 0 54.5 7t46 21.5t31.5 36t12 49.5q0 43 -36.5 65t-99.5 22h-56l16 112h45q78 0 117.5 31t39.5 80q0 39 -29.5 59t-69.5 20
q-46 0 -85.5 -18t-73.5 -53l-67 79q46 44 106 73t129 29q42 0 80.5 -12t67.5 -34.5t46.5 -56t17.5 -76.5q0 -35 -11 -63t-27.5 -49.5t-36.5 -36.5t-39 -25z" />
    <glyph glyph-name="four.to" 
d="M537 0h-93l-21 -153h-119l21 153h-315l14 99l371 448h126l-62 -440h93zM153 107h187l39 270z" />
    <glyph glyph-name="five.to" 
d="M427 88q0 50 -32.5 80.5t-83.5 30.5q-40 0 -75 -20t-54 -52h-110l76 420h409l-15 -111h-299l-32 -171q24 17 54 28.5t73 11.5q42 0 80.5 -14.5t67 -41.5t45.5 -66t17 -86q0 -57 -22 -105t-61.5 -82.5t-94 -54t-119.5 -19.5q-73 0 -128 30.5t-90 81.5l91 79q23 -35 59 -58
t87 -23q31 0 59.5 10t50 28.5t34.5 45t13 58.5z" />
    <glyph glyph-name="six.to" 
d="M271 -11q-107 0 -172.5 77.5t-65.5 214.5q0 94 25 174t70 136.5t108 88.5t138 32q66 0 114.5 -28.5t76.5 -67.5l-87 -78q-17 28 -48.5 46t-74.5 18q-71 0 -127.5 -61.5t-70.5 -160.5q32 39 77.5 60t95.5 21q43 0 81.5 -15.5t66.5 -43t44.5 -66.5t16.5 -86q0 -61 -23 -110
t-60 -82t-85.5 -51t-99.5 -18zM311 353q-28 0 -53.5 -10.5t-45.5 -29t-32 -45t-12 -58.5q0 -48 30.5 -79.5t79.5 -31.5q26 0 52 10t45.5 28.5t32 45.5t12.5 61q0 50 -31.5 79.5t-77.5 29.5z" />
    <glyph glyph-name="seven.to" 
d="M58 316l32 231h493l-15 -104q-122 -117 -202 -256.5t-117 -299.5l-9 -40h-120l9 39q38 166 111.5 305t179.5 245h-231l-17 -120h-114z" />
    <glyph glyph-name="eight.to" 
d="M257 -11q-93 0 -154 52t-61 136q0 37 13 68.5t32 55t42 39.5t43 24q-24 16 -46.5 49t-22.5 80q0 50 20.5 90.5t55 69t80.5 44t96 15.5q87 0 145 -52.5t58 -134.5q0 -34 -11 -61.5t-27 -48t-35.5 -35t-35.5 -23.5q28 -14 55 -52.5t27 -89.5q0 -52 -21 -94t-58 -71t-87 -45
t-108 -16zM302 305q-57 0 -98 -31t-41 -85q0 -43 31.5 -66.5t78.5 -23.5q57 0 98 30.5t41 84.5q0 43 -30.5 67t-79.5 24zM344 602q-20 0 -42 -6.5t-39.5 -19.5t-29 -33.5t-11.5 -48.5q0 -39 28 -60.5t67 -21.5q46 0 83 28t37 79q0 42 -29.5 62.5t-63.5 20.5z" />
    <glyph glyph-name="nine.to" 
d="M328 559q108 0 173 -77.5t65 -214.5q0 -94 -25 -174t-70 -136.5t-108 -88.5t-138 -32q-66 0 -114.5 28.5t-76.5 67.5l87 78q17 -28 48.5 -46t74.5 -18q71 0 127.5 61.5t70.5 160.5q-32 -39 -77.5 -60t-95.5 -21q-43 0 -81.5 15.5t-66.5 43t-44.5 66.5t-16.5 86
q0 61 23 110t60 82t85.5 51t99.5 18zM288 195q28 0 54 10.5t45.5 29t31.5 45t12 58.5q0 48 -30 79.5t-79 31.5q-27 0 -52.5 -10t-45.5 -28.5t-32 -45.5t-12 -61q0 -50 31 -79.5t77 -29.5z" />
    <glyph glyph-name="Euro.to" 
d="M186 317h214l-14 -100h-195q11 -53 43 -86t86 -33q49 0 88.5 20.5t75.5 63.5l64 -80q-43 -48 -102 -80.5t-149 -32.5q-97 0 -157 64t-75 164h-64l14 100h47l2 20l2 20l3 21h-46l14 100h59q18 48 46 90.5t66 74.5t87 50.5t109 18.5q77 0 127 -30.5t84 -81.5l-86 -79
q-25 40 -55.5 61t-81.5 21q-59 0 -100 -36.5t-66 -88.5h196l-13 -100h-215l-4 -26l-2 -18t-2 -17z" />
    <glyph glyph-name="dollar.to" 
d="M429 815l-16 -109q63 -13 103.5 -46t62.5 -61l-87 -78q-13 18 -35 40t-59 33l-28 -193l7 -2q83 -24 130.5 -68t47.5 -115q0 -90 -57 -152.5t-185 -72.5l-15 -105h-95l15 107q-72 10 -122.5 49t-75.5 79l88 79q19 -27 47 -55.5t79 -38.5l28 201l-9 3q-75 22 -119 66
t-44 116q0 91 61 151t168 68l15 104h95zM431 201q0 32 -21.5 51.5t-55.5 29.5l-25 -178q53 8 77.5 35.5t24.5 61.5zM210 505q0 -28 17.5 -47t51.5 -31l25 173q-52 -7 -73 -34.5t-21 -60.5z" />
    <glyph glyph-name="cent.to" 
d="M440 160l64 -83q-34 -35 -76.5 -57t-94.5 -28l-15 -106h-96l15 109q-78 17 -124.5 78.5t-46.5 147.5q0 54 18.5 101.5t51 84t77 61t95.5 31.5l15 105h96l-15 -107q45 -8 80.5 -30.5t60.5 -56.5l-88 -75q-13 19 -30.5 32t-38.5 20l-40 -286q25 6 47.5 21t44.5 38zM184 224
q0 -41 17.5 -72.5t51.5 -45.5l39 278q-47 -17 -77.5 -60.5t-30.5 -99.5z" />
    <glyph glyph-name="sterling.to" 
d="M420 311h-163l16 -199h152l17 123h107l-33 -235h-511l16 112h132l-16 199h-89l14 100h68q-1 7 -0.5 13.5t0.5 9.5q0 76 25.5 129.5t63.5 86t84.5 47.5t87.5 15q81 0 129.5 -33t73.5 -76l-91 -81q-18 31 -48 55.5t-74 24.5q-61 0 -96 -43t-35 -111q0 -6 -0.5 -16.5
t0.5 -20.5h183z" />
    <glyph glyph-name="florin.to" 
d="M205 -12l56 396h-75l14 106h75l6 35q14 98 74 142.5t150 44.5q16 0 27 -0.5l11 -0.5l-16 -107h-29q-51 0 -75 -21t-30 -64l-4 -29h116l-15 -106h-116l-56 -402q-14 -97 -74 -142t-150 -45q-16 0 -27 0.5l-11 0.5l16 108h28q51 0 75 20.5t30 63.5z" />
    <glyph glyph-name="yen.to" 
d="M473 125h-178l-17 -125h-119l18 125h-173l14 100h173l9 60h-174l15 101h128l-130 314h131l106 -302l191 302h130l-216 -314h128l-14 -101h-177l-8 -60h177z" />
    <glyph glyph-name="zero.tf" 
d="M436 426q0 79 -24 127.5t-76 48.5q-44 0 -77 -27.5t-54 -73t-31 -104.5t-10 -122q0 -79 24.5 -127.5t76.5 -48.5q45 0 77.5 28t53 73.5t30.5 104.5t10 121zM45 270q0 86 18.5 166t55.5 141t93.5 98t131.5 37q56 0 96 -22t65.5 -59.5t37.5 -89t12 -110.5q0 -86 -18 -166
t-55 -141t-93 -98t-132 -37q-54 0 -94.5 22t-66.5 59.5t-38.5 89t-12.5 110.5z" />
    <glyph glyph-name="one.tf" 
d="M57 111h174l61 433q-32 -21 -80.5 -34t-99.5 -13l15 107q26 1 55 6.5t56 17t50.5 29.5t39.5 43h106l-83 -589h166l-15 -111h-460z" />
    <glyph glyph-name="two.tf" 
d="M168 111h353l-15 -111h-488l3 23q15 115 74.5 199.5t199.5 147.5l34 15q61 28 92.5 58t31.5 77q0 37 -28.5 59.5t-76.5 22.5q-57 0 -103.5 -32t-76.5 -83l-70 82q42 63 109.5 103t151.5 40q43 0 82 -12.5t68.5 -36.5t47 -59.5t17.5 -81.5q0 -88 -53.5 -141.5
t-147.5 -97.5l-63 -30q-57 -27 -93.5 -60.5t-48.5 -81.5z" />
    <glyph glyph-name="three.tf" 
d="M434 359q33 -18 59.5 -56.5t26.5 -90.5q0 -55 -22 -97t-59 -70t-87 -42t-106 -14q-69 0 -129.5 29t-100.5 83l87 76q28 -40 67 -59t86 -19q28 0 54.5 7t46 21.5t31.5 36t12 49.5q0 43 -36.5 65t-99.5 22h-56l16 112h45q78 0 117.5 31t39.5 80q0 39 -29.5 59t-69.5 20
q-46 0 -85.5 -18t-73.5 -53l-67 79q46 44 106 73t129 29q42 0 80.5 -12t67.5 -34.5t46.5 -56t17.5 -76.5q0 -35 -11 -63t-27.5 -49.5t-36.5 -36.5t-39 -25z" />
    <glyph glyph-name="four.tf" 
d="M553 160h-101l-22 -160h-119l22 160h-318l13 99l375 441h126l-62 -433h101zM158 267h190l38 268z" />
    <glyph glyph-name="five.tf" 
d="M427 241q0 50 -32.5 80.5t-83.5 30.5q-40 0 -75 -20t-54 -52h-110l76 420h409l-15 -111h-299l-32 -171q24 17 54 28.5t73 11.5q42 0 80.5 -14.5t67 -41.5t45.5 -66t17 -86q0 -57 -22 -105t-61.5 -82.5t-94 -54t-119.5 -19.5q-73 0 -128 30.5t-90 81.5l91 79
q23 -35 59 -58t87 -23q31 0 59.5 10t50 28.5t34.5 45t13 58.5z" />
    <glyph glyph-name="six.tf" 
d="M271 -11q-107 0 -172.5 77.5t-65.5 214.5q0 94 25 174t70 136.5t108 88.5t138 32q66 0 114.5 -28.5t76.5 -67.5l-87 -78q-17 28 -48.5 46t-74.5 18q-71 0 -127.5 -61.5t-70.5 -160.5q32 39 77.5 60t95.5 21q43 0 81.5 -15.5t66.5 -43t44.5 -66.5t16.5 -86q0 -61 -23 -110
t-60 -82t-85.5 -51t-99.5 -18zM311 353q-28 0 -53.5 -10.5t-45.5 -29t-32 -45t-12 -58.5q0 -48 30.5 -79.5t79.5 -31.5q26 0 52 10t45.5 28.5t32 45.5t12.5 61q0 50 -31.5 79.5t-77.5 29.5z" />
    <glyph glyph-name="seven.tf" 
d="M62 469l32 231h493l-15 -104q-122 -117 -202 -256.5t-117 -299.5l-9 -40h-120l9 39q38 166 111.5 305t179.5 245h-231l-17 -120h-114z" />
    <glyph glyph-name="eight.tf" 
d="M257 -11q-93 0 -154 52t-61 136q0 37 13 68.5t32 55t42 39.5t43 24q-24 16 -46.5 49t-22.5 80q0 50 20.5 90.5t55 69t80.5 44t96 15.5q87 0 145 -52.5t58 -134.5q0 -34 -11 -61.5t-27 -48t-35.5 -35t-35.5 -23.5q28 -14 55 -52.5t27 -89.5q0 -52 -21 -94t-58 -71t-87 -45
t-108 -16zM302 305q-57 0 -98 -31t-41 -85q0 -43 31.5 -66.5t78.5 -23.5q57 0 98 30.5t41 84.5q0 43 -30.5 67t-79.5 24zM344 602q-20 0 -42 -6.5t-39.5 -19.5t-29 -33.5t-11.5 -48.5q0 -39 28 -60.5t67 -21.5q46 0 83 28t37 79q0 42 -29.5 62.5t-63.5 20.5z" />
    <glyph glyph-name="nine.tf" 
d="M328 712q108 0 173 -77.5t65 -214.5q0 -94 -25 -174t-70 -136.5t-108 -88.5t-138 -32q-66 0 -114.5 28.5t-76.5 67.5l87 78q17 -28 48.5 -46t74.5 -18q71 0 127.5 61.5t70.5 160.5q-32 -39 -77.5 -60t-95.5 -21q-43 0 -81.5 15.5t-66.5 43t-44.5 66.5t-16.5 86
q0 61 23 110t60 82t85.5 51t99.5 18zM288 348q28 0 54 10.5t45.5 29t31.5 45t12 58.5q0 48 -30 79.5t-79 31.5q-27 0 -52.5 -10t-45.5 -28.5t-32 -45.5t-12 -61q0 -50 31 -79.5t77 -29.5z" />
    <glyph glyph-name="Euro.tf" 
d="M190 317h214l-14 -100h-195q11 -53 43 -86t86 -33q49 0 88.5 20.5t75.5 63.5l64 -80q-43 -48 -102 -80.5t-149 -32.5q-97 0 -157 64t-75 164h-64l14 100h47l2 20l2 20l3 21h-46l14 100h59q18 48 46 90.5t66 74.5t87 50.5t109 18.5q77 0 127 -30.5t84 -81.5l-86 -79
q-25 40 -55.5 61t-81.5 21q-59 0 -100 -36.5t-66 -88.5h196l-13 -100h-215l-4 -26l-2 -18t-2 -17z" />
    <glyph glyph-name="dollar.tf" 
d="M429 815l-16 -109q63 -13 103.5 -46t62.5 -61l-87 -78q-13 18 -35 40t-59 33l-28 -193l7 -2q83 -24 130.5 -68t47.5 -115q0 -90 -57 -152.5t-185 -72.5l-15 -105h-95l15 107q-72 10 -122.5 49t-75.5 79l88 79q19 -27 47 -55.5t79 -38.5l28 201l-9 3q-75 22 -119 66
t-44 116q0 91 61 151t168 68l15 104h95zM431 201q0 32 -21.5 51.5t-55.5 29.5l-25 -178q53 8 77.5 35.5t24.5 61.5zM210 505q0 -28 17.5 -47t51.5 -31l25 173q-52 -7 -73 -34.5t-21 -60.5z" />
    <glyph glyph-name="cent.tf" 
d="M440 160l64 -83q-34 -35 -76.5 -57t-94.5 -28l-15 -106h-96l15 109q-78 17 -124.5 78.5t-46.5 147.5q0 54 18.5 101.5t51 84t77 61t95.5 31.5l15 105h96l-15 -107q45 -8 80.5 -30.5t60.5 -56.5l-88 -75q-13 19 -30.5 32t-38.5 20l-40 -286q25 6 47.5 21t44.5 38zM184 224
q0 -41 17.5 -72.5t51.5 -45.5l39 278q-47 -17 -77.5 -60.5t-30.5 -99.5z" />
    <glyph glyph-name="sterling.tf" 
d="M420 311h-162l16 -199h151l17 123h107l-33 -235h-511l16 112h132l-16 199h-88l13 100h69q-1 7 -1 13.5v9.5q0 76 25.5 129.5t64 86t84.5 47.5t87 15q82 0 130.5 -33t73.5 -76l-91 -81q-18 31 -48.5 55.5t-74.5 24.5q-60 0 -95.5 -43t-35.5 -111v-16.5t1 -20.5h183z" />
    <glyph glyph-name="florin.tf" 
d="M205 -12l56 396h-75l14 106h75l6 35q14 98 74 142.5t150 44.5q16 0 27 -0.5l11 -0.5l-16 -107h-29q-51 0 -75 -21t-30 -64l-4 -29h116l-15 -106h-116l-56 -402q-14 -97 -74 -142t-150 -45q-16 0 -27 0.5l-11 0.5l16 108h28q51 0 75 20.5t30 63.5z" />
    <glyph glyph-name="yen.tf" 
d="M485 125h-178l-17 -125h-119l18 125h-173l14 100h173l9 60h-174l15 101h128l-130 314h131l106 -302l191 302h130l-216 -314h128l-14 -101h-177l-8 -60h177z" />
    <glyph glyph-name="A.ss01" horiz-adv-x="680" 
d="M515 700l91 -700h-119l-19 141h-293l-59 -141h-126l287 700h238zM354 590l-135 -339h237l-41 339h-61z" />
    <glyph glyph-name="G.ss01" horiz-adv-x="744" 
d="M396 263l16 110h278l-53 -373h-117l6 36q-34 -22 -78.5 -34.5t-96.5 -12.5q-70 0 -128 25.5t-99 69t-63.5 103.5t-22.5 128q0 86 33 159.5t89 126t130.5 82t156.5 29.5q84 0 153 -34t108 -93l-89 -80q-24 37 -70 66t-113 29q-56 0 -106.5 -22t-88 -60t-59.5 -89.5
t-22 -109.5q0 -47 14.5 -87t41.5 -69t65.5 -45.5t86.5 -16.5q51 0 95.5 14.5t78.5 42.5l15 105h-161z" />
    <glyph glyph-name="I.ss01" horiz-adv-x="480" 
d="M103 591l16 109h347l-16 -109h-115l-67 -482h115l-16 -109h-347l15 109h114l68 482h-114z" />
    <glyph glyph-name="J.ss01" horiz-adv-x="566" 
d="M220 590l15 110h325l-68 -473q-15 -112 -82.5 -175t-172.5 -63q-49 0 -88.5 17.5t-65 47.5t-37 72t-5.5 91l3 28h118l-3 -28q-7 -59 18.5 -88.5t70.5 -29.5q54 0 86 35t41 98l50 358h-205z" />
    <glyph glyph-name="K.ss01" horiz-adv-x="608" 
d="M27 0l99 700h119l-40 -280h73l226 280h139l-273 -336l178 -364h-127l-150 308h-82l-43 -308h-119z" />
    <glyph glyph-name="M.ss01" horiz-adv-x="872" 
d="M412 194l176 506h264l-99 -700h-120l83 589h-43l-212 -589h-146l-44 589h-42l-83 -589h-119l99 700h257z" />
    <glyph glyph-name="Q.ss01" horiz-adv-x="797" 
d="M38 314q0 83 32 156t87 126.5t129.5 84.5t158.5 31q68 0 126 -25t99.5 -68.5t65 -103.5t23.5 -128q0 -84 -32.5 -157t-88 -126.5t-130.5 -84t-159 -30.5q-68 0 -125.5 25.5t-98.5 69t-64 103t-23 127.5zM369 274l91 81l121 -141q26 35 41.5 78t15.5 91q0 45 -14.5 85
t-41 69t-64 46t-82.5 17q-56 0 -106 -22.5t-87.5 -61t-59.5 -89.5t-22 -108q0 -46 14.5 -86t41.5 -69t65 -46t84 -17q33 0 64.5 8.5t58.5 24.5z" />
    <glyph glyph-name="V.ss01" horiz-adv-x="680" 
d="M336 110l247 590h128l-297 -700h-242l-101 700h120l82 -590h63z" />
    <glyph glyph-name="W.ss01" horiz-adv-x="961" 
d="M633 110l244 590h127l-301 -700h-208l-29 200l-86 -200h-213l-104 700h124l78 -590h51l108 250l-52 340h114l22 -170l70 170h123l-153 -340l37 -250h48z" />
    <glyph glyph-name="X.ss01" horiz-adv-x="653" 
d="M364 305h-74l-176 -305h-130l209 359l-97 341h122l80 -285h73l163 285h129l-195 -341l109 -359h-122z" />
    <glyph glyph-name="a.ss01" horiz-adv-x="534" 
d="M122 385l14 105h364l-69 -490h-228q-70 0 -113 41t-43 104q0 38 15 68.5t41.5 52t62.5 33t78 11.5h117l10 75h-249zM156 151q0 -21 15.5 -34.5t42.5 -13.5h117l15 107h-117q-32 0 -52.5 -16t-20.5 -43z" />
    <glyph glyph-name="e.ss01" horiz-adv-x="479" 
d="M248 158q-21 0 -41.5 5.5t-33.5 14.5l-10 -75h242l-15 -103h-356l44 316q13 90 68 138t139 48q73 0 119.5 -47t46.5 -115q0 -42 -17.5 -75.5t-45.5 -57.5t-65 -36.5t-75 -12.5zM256 262q35 0 58 22.5t23 53.5q0 24 -16.5 42t-45.5 18q-34 0 -58 -22.5t-24 -53.5
q0 -24 17 -42t46 -18z" />
    <glyph glyph-name="f.ss01" horiz-adv-x="427" 
d="M39 384l15 106h64l9 63q10 72 60.5 115.5t121.5 43.5q69 0 114.5 -46t38.5 -115l-1 -10h-113l1 9q2 25 -11.5 40t-35.5 15q-26 0 -41 -17.5t-18 -42.5l-8 -55h219l-14 -106h-220l-55 -384h-116l54 384h-64z" />
    <glyph glyph-name="g.ss01" horiz-adv-x="568" 
d="M561 490l-15 -105h-62q13 -19 20 -42t7 -49q0 -45 -16.5 -84.5t-45.5 -68.5t-68.5 -46.5t-85.5 -19.5l169 -167l-15 -102h-446l15 107h286l-166 162q-38 38 -61.5 84.5t-23.5 100.5q0 52 21 95t56.5 72.5t82.5 46t99 16.5h249zM396 291q0 41 -28 67t-71 26
q-51 0 -89.5 -33.5t-38.5 -85.5q0 -42 28 -68t71 -26q51 0 89.5 34t38.5 86zM283 86v1v-1z" />
    <glyph glyph-name="h.ss01" horiz-adv-x="564" 
d="M247 700l-30 -210h314l-69 -490h-115l53 384h-198l-54 -384h-114l98 700h115z" />
    <glyph glyph-name="j.ss01" horiz-adv-x="269" 
d="M140 -194h-228l15 105h112l81 579h116zM127 640q0 30 20.5 51t50.5 21q29 0 50.5 -21t21.5 -51q0 -29 -21.5 -49.5t-50.5 -20.5q-30 0 -50.5 20.5t-20.5 49.5z" />
    <glyph glyph-name="k.ss01" horiz-adv-x="524" 
d="M34 0l99 700h115l-57 -403h75l123 193h129l-164 -250l102 -240h-118l-81 191h-81l-27 -191h-115z" />
    <glyph glyph-name="l.ss01" horiz-adv-x="252" 
d="M148 0h-114l99 700h114z" />
    <glyph glyph-name="m.ss01" horiz-adv-x="850" 
d="M817 490l-69 -490h-115l54 384h-186l-53 -384h-115l54 384h-185l-54 -384h-114l69 490h714z" />
    <glyph glyph-name="n.ss01" horiz-adv-x="564" 
d="M103 490h428l-69 -490h-115l53 384h-198l-54 -384h-114z" />
    <glyph glyph-name="r.ss01" horiz-adv-x="367" 
d="M202 384l-54 -384h-114l69 490h268l-15 -106h-154z" />
    <glyph glyph-name="s.ss01" horiz-adv-x="482" 
d="M264 502q53 0 103.5 -20t81.5 -56l-76 -85q-41 31 -62.5 45.5t-47.5 14.5q-25 0 -39.5 -13.5t-14.5 -29.5q0 -13 8.5 -23.5t25.5 -21.5l192 -127q-6 -42 -23 -78t-45 -62.5t-67 -41.5t-88 -15q-67 0 -114 26.5t-76 62.5l73 83q43 -37 70.5 -51.5t57.5 -14.5q27 0 46 13
t27 32l-130 81q-35 22 -58 55.5t-23 76.5q0 34 14.5 61.5t39 47t57 30t68.5 10.5z" />
    <glyph glyph-name="t.ss01" horiz-adv-x="407" 
d="M163 627h122l-20 -137h129l-15 -106h-136l-40 -278h138l-15 -106h-251l54 384h-92l15 106h91z" />
    <glyph glyph-name="u.ss01" horiz-adv-x="559" 
d="M457 0h-423l69 490h114l-54 -384h194l54 384h115z" />
    <glyph glyph-name="y.ss01" horiz-adv-x="556" 
d="M279 -194h-119l26 190l-128 494h122l84 -347l180 347h131l-269 -494z" />
    <glyph glyph-name="a.ordn.ss01" horiz-adv-x="410" 
d="M88 620l12 83h286l-51 -361h-181q-56 0 -88 29t-32 73q0 56 44.5 91t107.5 35h87l7 50h-192zM262 492h-89q-22 0 -35.5 -11t-13.5 -27q0 -13 10.5 -22t29.5 -9h88z" />
    <glyph glyph-name="e.ordn.ss01" horiz-adv-x="379" 
d="M184 460q-14 0 -25.5 2.5t-21.5 6.5l-6 -46h182l-12 -81h-276l33 233q9 66 56.5 101t105.5 35q55 0 90.5 -31t35.5 -80q0 -31 -13.5 -57t-36 -44.5t-52 -28.5t-60.5 -10zM195 540q25 0 41.5 15.5t16.5 34.5q0 16 -12 28.5t-33 12.5q-25 0 -41 -16t-16 -35q0 -16 12 -28
t32 -12z" />
    <glyph glyph-name="g.ordn.ss01" horiz-adv-x="439" 
d="M438 703l-12 -82h-48q10 -13 15.5 -30t5.5 -36q0 -64 -46 -109t-113 -54l124 -113l-12 -80h-344l12 83h211l-126 112q-31 27 -47 59.5t-16 70.5t17 71t45 57t64.5 37.5t74.5 13.5h195zM303 553q0 29 -20 47.5t-52 18.5q-37 0 -65.5 -23t-28.5 -60q0 -29 21 -48t52 -19
q37 0 65 24t28 60z" />
    <glyph glyph-name="m.ordn.ss01" horiz-adv-x="662" 
d="M638 703l-51 -361h-94l39 277h-138l-39 -277h-95l39 277h-137l-39 -277h-95l51 361h559z" />
    <glyph glyph-name="r.ordn.ss01" horiz-adv-x="278" 
d="M159 619l-39 -277h-94l51 361h211l-13 -84h-116z" />
    <glyph glyph-name="s.ordn.ss01" horiz-adv-x="374" 
d="M211 711q41 0 75 -14.5t59 -40.5l-60 -65q-33 24 -49 34.5t-35 10.5q-18 0 -29 -9.5t-11 -20.5q0 -9 6.5 -16.5t19.5 -15.5l147 -92q-5 -28 -14.5 -54.5t-28 -47t-48.5 -33.5t-74 -13q-57 0 -93.5 19.5t-59.5 45.5l58 63q34 -25 55.5 -37t42.5 -12q20 0 31.5 9.5
t15.5 25.5l-101 61q-23 14 -40 35t-17 51q0 52 44 84t106 32z" />
    <glyph glyph-name="t.ordn.ss01" horiz-adv-x="318" 
d="M259 342h-197l38 277h-69l12 84h69l14 100h100l-14 -100h102l-12 -84h-108l-27 -194h104z" />
    <glyph glyph-name="Agrave.ss01" horiz-adv-x="680" 
d="M515 700l91 -700h-119l-19 141h-293l-59 -141h-126l287 700h238zM354 590l-135 -339h237l-41 339h-61zM264 872h138l59 -103h-116z" />
    <glyph glyph-name="Aacute.ss01" horiz-adv-x="680" 
d="M515 700l91 -700h-119l-19 141h-293l-59 -141h-126l287 700h238zM354 590l-135 -339h237l-41 339h-61zM404 872h143l-110 -103h-120z" />
    <glyph glyph-name="Acircumflex.ss01" horiz-adv-x="680" 
d="M515 700l91 -700h-119l-19 141h-293l-59 -141h-126l287 700h238zM354 590l-135 -339h237l-41 339h-61zM246 769l104 103h143l76 -103h-114l-42 49l-57 -49h-110z" />
    <glyph glyph-name="Atilde.ss01" horiz-adv-x="680" 
d="M515 700l91 -700h-119l-19 141h-293l-59 -141h-126l287 700h238zM354 590l-135 -339h237l-41 339h-61zM499 885h80q-7 -48 -36 -82t-70 -34q-13 0 -26 4l-26 8l-26 9q-8 4 -16 5.5t-16 1.5q-11 0 -20 -6.5t-12 -21.5h-80q7 49 35.5 82.5t69.5 33.5q13 0 26 -3.5t26 -7.5
l27 -10q8 -3 15.5 -5t15.5 -2q11 0 20.5 7t12.5 21z" />
    <glyph glyph-name="Adieresis.ss01" horiz-adv-x="680" 
d="M515 700l91 -700h-119l-19 141h-293l-59 -141h-126l287 700h238zM354 590l-135 -339h237l-41 339h-61zM249 828q0 26 18.5 45.5t45.5 19.5t46.5 -19.5t19.5 -45.5q0 -27 -19.5 -46t-46.5 -19t-45.5 19t-18.5 46zM449 828q0 26 18.5 45.5t46.5 19.5q26 0 45.5 -19.5
t19.5 -45.5q0 -27 -19.5 -46t-45.5 -19q-28 0 -46.5 19t-18.5 46z" />
    <glyph glyph-name="Amacron.ss01" horiz-adv-x="680" 
d="M515 700l91 -700h-119l-19 141h-293l-59 -141h-126l287 700h238zM354 590l-135 -339h237l-41 339h-61zM284 776l14 98h241l-14 -98h-241z" />
    <glyph glyph-name="Abreve.ss01" horiz-adv-x="680" 
d="M515 700l91 -700h-119l-19 141h-293l-59 -141h-126l287 700h238zM354 590l-135 -339h237l-41 339h-61zM400 748q-59 0 -92 36.5t-29 97.5h90q0 -19 9.5 -31.5t34.5 -12.5q24 0 37.5 12.5t18.5 31.5h91q-13 -61 -56.5 -97.5t-103.5 -36.5z" />
    <glyph glyph-name="Aring.ss01" horiz-adv-x="680" 
d="M312 765q0 43 32.5 73t74.5 30q36 0 59.5 -23.5t23.5 -59.5q0 -27 -13 -49.5t-35 -35.5h61l91 -700h-119l-19 141h-293l-59 -141h-126l287 700h64q-13 11 -21 28t-8 37zM354 590l-135 -339h237l-41 339h-61zM379 771q0 -10 7 -17t17 -7q13 0 22.5 9t9.5 22q0 10 -7 17
t-17 7q-13 0 -22.5 -9t-9.5 -22z" />
    <glyph glyph-name="Aringacute.ss01" horiz-adv-x="680" 
d="M312 765q0 43 32.5 73t74.5 30q36 0 59.5 -23.5t23.5 -59.5q0 -27 -13 -49.5t-35 -35.5h61l91 -700h-119l-19 141h-293l-59 -141h-126l287 700h64q-13 11 -21 28t-8 37zM354 590l-135 -339h237l-41 339h-61zM440 1003h143l-110 -103h-120zM379 771q0 -10 7 -17t17 -7
q13 0 22.5 9t9.5 22q0 10 -7 17t-17 7q-13 0 -22.5 -9t-9.5 -22z" />
    <glyph glyph-name="Aogonek.ss01" horiz-adv-x="680" 
d="M591 -114l-10 -71q-7 -1 -20 -3t-29 -2q-46 0 -71 20t-25 56q0 37 23.5 66t52.5 48h-25l-19 141h-293l-59 -141h-126l287 700h238l91 -700q-41 -25 -57 -44t-16 -37q0 -15 13 -24t41 -9h4zM354 590l-135 -339h237l-41 339h-61z" />
    <glyph glyph-name="AE.ss01" horiz-adv-x="896" 
d="M277 700h604l-15 -111h-337l23 -177h274l-15 -109h-245l25 -192h207l-15 -111h-296l-19 141h-293l-59 -141h-126zM354 590l-135 -339h237l-42 339h-60z" />
    <glyph glyph-name="AEacute.ss01" horiz-adv-x="896" 
d="M277 700h604l-15 -111h-337l23 -177h274l-15 -109h-245l25 -192h207l-15 -111h-296l-19 141h-293l-59 -141h-126zM354 590l-135 -339h237l-42 339h-60zM575 872h143l-110 -103h-120z" />
    <glyph glyph-name="Ccedilla.ss01" horiz-adv-x="719" 
d="M585 200l70 -88q-50 -51 -113.5 -82.5t-139.5 -38.5l-18 -128h-114l19 132q-57 10 -104 38.5t-79.5 70t-50 95t-17.5 114.5q0 88 32 162t87.5 126.5t130 81.5t159.5 29q87 0 152 -35t108 -92l-90 -80q-31 43 -76.5 69t-108.5 26q-50 0 -99 -20.5t-86.5 -57t-61 -89.5
t-23.5 -117q0 -98 58 -156.5t149 -58.5q62 0 117 25t99 74z" />
    <glyph glyph-name="Gcircumflex.ss01" horiz-adv-x="744" 
d="M396 263l16 110h278l-53 -373h-117l6 36q-34 -22 -78.5 -34.5t-96.5 -12.5q-70 0 -128 25.5t-99 69t-63.5 103.5t-22.5 128q0 86 33 159.5t89 126t130.5 82t156.5 29.5q84 0 153 -34t108 -93l-89 -80q-24 37 -70 66t-113 29q-56 0 -106.5 -22t-88 -60t-59.5 -89.5
t-22 -109.5q0 -47 14.5 -87t41.5 -69t65.5 -45.5t86.5 -16.5q51 0 95.5 14.5t78.5 42.5l15 105h-161zM301 769l104 103h143l76 -103h-114l-42 49l-57 -49h-110z" />
    <glyph glyph-name="Gbreve.ss01" horiz-adv-x="744" 
d="M396 263l16 110h278l-53 -373h-117l6 36q-34 -22 -78.5 -34.5t-96.5 -12.5q-70 0 -128 25.5t-99 69t-63.5 103.5t-22.5 128q0 86 33 159.5t89 126t130.5 82t156.5 29.5q84 0 153 -34t108 -93l-89 -80q-24 37 -70 66t-113 29q-56 0 -106.5 -22t-88 -60t-59.5 -89.5
t-22 -109.5q0 -47 14.5 -87t41.5 -69t65.5 -45.5t86.5 -16.5q51 0 95.5 14.5t78.5 42.5l15 105h-161zM455 748q-59 0 -92 36.5t-29 97.5h90q0 -19 9.5 -31.5t34.5 -12.5q24 0 37.5 12.5t18.5 31.5h91q-13 -61 -56.5 -97.5t-103.5 -36.5z" />
    <glyph glyph-name="Gdotaccent.ss01" horiz-adv-x="744" 
d="M396 263l16 110h278l-53 -373h-117l6 36q-34 -22 -78.5 -34.5t-96.5 -12.5q-70 0 -128 25.5t-99 69t-63.5 103.5t-22.5 128q0 86 33 159.5t89 126t130.5 82t156.5 29.5q84 0 153 -34t108 -93l-89 -80q-24 37 -70 66t-113 29q-56 0 -106.5 -22t-88 -60t-59.5 -89.5
t-22 -109.5q0 -47 14.5 -87t41.5 -69t65.5 -45.5t86.5 -16.5q51 0 95.5 14.5t78.5 42.5l15 105h-161zM386 826q0 29 20.5 50t50.5 21q29 0 50.5 -21t21.5 -50t-21.5 -50t-50.5 -21q-30 0 -50.5 21t-20.5 50z" />
    <glyph glyph-name="Gcommaaccent.ss01" horiz-adv-x="744" 
d="M396 263l16 110h278l-53 -373h-117l6 36q-34 -22 -78.5 -34.5t-96.5 -12.5q-70 0 -128 25.5t-99 69t-63.5 103.5t-22.5 128q0 86 33 159.5t89 126t130.5 82t156.5 29.5q84 0 153 -34t108 -93l-89 -80q-24 37 -70 66t-113 29q-56 0 -106.5 -22t-88 -60t-59.5 -89.5
t-22 -109.5q0 -47 14.5 -87t41.5 -69t65.5 -45.5t86.5 -16.5q51 0 95.5 14.5t78.5 42.5l15 105h-161zM230 -194h93l90 137h-117z" />
    <glyph glyph-name="Igrave.ss01" horiz-adv-x="480" 
d="M103 591l16 109h347l-16 -109h-115l-67 -482h115l-16 -109h-347l15 109h114l68 482h-114zM158 872h138l59 -103h-116z" />
    <glyph glyph-name="Iacute.ss01" horiz-adv-x="480" 
d="M103 591l16 109h347l-16 -109h-115l-67 -482h115l-16 -109h-347l15 109h114l68 482h-114zM299 872h143l-110 -103h-120z" />
    <glyph glyph-name="Icircumflex.ss01" horiz-adv-x="480" 
d="M103 591l16 109h347l-16 -109h-115l-67 -482h115l-16 -109h-347l15 109h114l68 482h-114zM141 769l104 103h143l76 -103h-114l-42 49l-57 -49h-110z" />
    <glyph glyph-name="Itilde.ss01" horiz-adv-x="480" 
d="M103 591l16 109h347l-16 -109h-115l-67 -482h115l-16 -109h-347l15 109h114l68 482h-114zM394 885h80q-7 -48 -36 -82t-70 -34q-13 0 -26 4l-26 8l-26 9q-8 4 -16 5.5t-16 1.5q-11 0 -20 -6.5t-12 -21.5h-80q7 49 35.5 82.5t69.5 33.5q13 0 26 -3.5t26 -7.5l27 -10
q8 -3 15.5 -5t15.5 -2q11 0 20.5 7t12.5 21z" />
    <glyph glyph-name="Idieresis.ss01" horiz-adv-x="480" 
d="M103 591l16 109h347l-16 -109h-115l-67 -482h115l-16 -109h-347l15 109h114l68 482h-114zM143 828q0 26 18.5 45.5t45.5 19.5t46.5 -19.5t19.5 -45.5q0 -27 -19.5 -46t-46.5 -19t-45.5 19t-18.5 46zM343 828q0 26 18.5 45.5t46.5 19.5q26 0 45.5 -19.5t19.5 -45.5
q0 -27 -19.5 -46t-45.5 -19q-28 0 -46.5 19t-18.5 46z" />
    <glyph glyph-name="Imacron.ss01" horiz-adv-x="480" 
d="M103 591l16 109h347l-16 -109h-115l-67 -482h115l-16 -109h-347l15 109h114l68 482h-114zM179 776l14 98h241l-14 -98h-241z" />
    <glyph glyph-name="Ibreve.ss01" horiz-adv-x="480" 
d="M103 591l16 109h347l-16 -109h-115l-67 -482h115l-16 -109h-347l15 109h114l68 482h-114zM294 748q-59 0 -92 36.5t-29 97.5h90q0 -19 9.5 -31.5t34.5 -12.5q24 0 37.5 12.5t18.5 31.5h91q-13 -61 -56.5 -97.5t-103.5 -36.5z" />
    <glyph glyph-name="Idotaccent.ss01" horiz-adv-x="480" 
d="M103 591l16 109h347l-16 -109h-115l-67 -482h115l-16 -109h-347l15 109h114l68 482h-114zM232 826q0 29 20.5 50t50.5 21q29 0 50.5 -21t21.5 -50t-21.5 -50t-50.5 -21q-30 0 -50.5 21t-20.5 50z" />
    <glyph glyph-name="Iogonek.ss01" horiz-adv-x="480" 
d="M242 -114l-10 -71q-7 -1 -20 -3t-29 -2q-46 0 -71 20t-25 56q0 37 23.5 66t52.5 48h-143l15 109h114l68 482h-114l16 109h347l-16 -109h-115l-67 -482h115l-16 -109h-110q-41 -25 -57 -44t-16 -37q0 -15 13 -24t41 -9h4z" />
    <glyph glyph-name="IJ.ss01" horiz-adv-x="1040" 
d="M103 591l16 109h347l-16 -109h-115l-67 -482h115l-16 -109h-347l15 109h114l68 482h-114zM691 590l15 110h325l-68 -473q-15 -112 -82.5 -175t-172.5 -63q-49 0 -88.5 17.5t-65 47.5t-37 72t-5.5 91l3 28h118l-3 -28q-7 -59 18.5 -88.5t70.5 -29.5q54 0 86 35t41 98
l50 358h-205z" />
    <glyph glyph-name="Jcircumflex.ss01" horiz-adv-x="566" 
d="M220 590l15 110h325l-68 -473q-15 -112 -82.5 -175t-172.5 -63q-49 0 -88.5 17.5t-65 47.5t-37 72t-5.5 91l3 28h118l-3 -28q-7 -59 18.5 -88.5t70.5 -29.5q54 0 86 35t41 98l50 358h-205zM247 769l104 103h143l76 -103h-114l-42 49l-57 -49h-110z" />
    <glyph glyph-name="Kcommaaccent.ss01" horiz-adv-x="608" 
d="M27 0l99 700h119l-40 -280h73l226 280h139l-273 -336l178 -364h-127l-150 308h-82l-43 -308h-119zM148 -194h93l90 137h-117z" />
    <glyph glyph-name="Scedilla.ss01" horiz-adv-x="642" 
d="M359 290l-87 17q-81 16 -131.5 63.5t-50.5 125.5q0 52 23 92.5t60.5 67.5t86.5 41.5t101 14.5q88 0 152.5 -33.5t100.5 -78.5l-88 -80q-28 34 -73.5 58t-104.5 24q-60 0 -98.5 -27.5t-38.5 -71.5q0 -34 27 -54t80 -30l70 -13q98 -18 147.5 -69t49.5 -127
q0 -87 -62.5 -146t-170.5 -72l-18 -129h-114l18 130q-72 10 -128 46t-90 82l88 79q32 -43 83 -72t118 -29q68 0 112 28.5t44 76.5q0 33 -27.5 54.5t-78.5 31.5z" />
    <glyph glyph-name="uni0162.ss01" horiz-adv-x="598" 
d="M81 700h538l-16 -111h-210l-83 -589h-3l-19 -137h-114l19 137h-2l83 589h-208z" />
    <glyph glyph-name="Wgrave.ss01" horiz-adv-x="961" 
d="M633 110l244 590h127l-301 -700h-208l-29 200l-86 -200h-213l-104 700h124l78 -590h51l108 250l-52 340h114l22 -170l70 170h123l-153 -340l37 -250h48zM401 872h138l59 -103h-116z" />
    <glyph glyph-name="Wacute.ss01" horiz-adv-x="961" 
d="M633 110l244 590h127l-301 -700h-208l-29 200l-86 -200h-213l-104 700h124l78 -590h51l108 250l-52 340h114l22 -170l70 170h123l-153 -340l37 -250h48zM542 872h143l-110 -103h-120z" />
    <glyph glyph-name="Wcircumflex.ss01" horiz-adv-x="961" 
d="M633 110l244 590h127l-301 -700h-208l-29 200l-86 -200h-213l-104 700h124l78 -590h51l108 250l-52 340h114l22 -170l70 170h123l-153 -340l37 -250h48zM384 769l104 103h143l76 -103h-114l-42 49l-57 -49h-110z" />
    <glyph glyph-name="Wdieresis.ss01" horiz-adv-x="961" 
d="M633 110l244 590h127l-301 -700h-208l-29 200l-86 -200h-213l-104 700h124l78 -590h51l108 250l-52 340h114l22 -170l70 170h123l-153 -340l37 -250h48zM386 828q0 26 18.5 45.5t45.5 19.5t46.5 -19.5t19.5 -45.5q0 -27 -19.5 -46t-46.5 -19t-45.5 19t-18.5 46zM586 828
q0 26 18.5 45.5t46.5 19.5q26 0 45.5 -19.5t19.5 -45.5q0 -27 -19.5 -46t-45.5 -19q-28 0 -46.5 19t-18.5 46z" />
    <glyph glyph-name="agrave.ss01" horiz-adv-x="534" 
d="M122 385l14 105h364l-69 -490h-228q-70 0 -113 41t-43 104q0 38 15 68.5t41.5 52t62.5 33t78 11.5h117l10 75h-249zM156 151q0 -21 15.5 -34.5t42.5 -13.5h117l15 107h-117q-32 0 -52.5 -16t-20.5 -43zM199 700h144l61 -138h-110z" />
    <glyph glyph-name="aacute.ss01" horiz-adv-x="534" 
d="M122 385l14 105h364l-69 -490h-228q-70 0 -113 41t-43 104q0 38 15 68.5t41.5 52t62.5 33t78 11.5h117l10 75h-249zM156 151q0 -21 15.5 -34.5t42.5 -13.5h117l15 107h-117q-32 0 -52.5 -16t-20.5 -43zM349 700h144l-136 -138h-113z" />
    <glyph glyph-name="acircumflex.ss01" horiz-adv-x="534" 
d="M122 385l14 105h364l-69 -490h-228q-70 0 -113 41t-43 104q0 38 15 68.5t41.5 52t62.5 33t78 11.5h117l10 75h-249zM156 151q0 -21 15.5 -34.5t42.5 -13.5h117l15 107h-117q-32 0 -52.5 -16t-20.5 -43zM281 700h136l74 -138h-99l-50 69l-67 -69h-107z" />
    <glyph glyph-name="atilde.ss01" horiz-adv-x="534" 
d="M122 385l14 105h364l-69 -490h-228q-70 0 -113 41t-43 104q0 38 15 68.5t41.5 52t62.5 33t78 11.5h117l10 75h-249zM156 151q0 -21 15.5 -34.5t42.5 -13.5h117l15 107h-117q-32 0 -52.5 -16t-20.5 -43zM423 700h80q-7 -48 -36 -82t-70 -34q-13 0 -25.5 4t-25.5 8l-27 9
q-8 3 -16 5t-16 2q-11 0 -20 -6.5t-12 -21.5h-80q7 49 35.5 82.5t69.5 33.5q13 0 26 -3.5t26 -7.5l27 -10q8 -3 15.5 -5t15.5 -2q11 0 20.5 7t12.5 21z" />
    <glyph glyph-name="adieresis.ss01" horiz-adv-x="534" 
d="M122 385l14 105h364l-69 -490h-228q-70 0 -113 41t-43 104q0 38 15 68.5t41.5 52t62.5 33t78 11.5h117l10 75h-249zM156 151q0 -21 15.5 -34.5t42.5 -13.5h117l15 107h-117q-32 0 -52.5 -16t-20.5 -43zM179 644q0 26 18.5 45.5t45.5 19.5t46.5 -19.5t19.5 -45.5
q0 -27 -19.5 -46t-46.5 -19t-45.5 19t-18.5 46zM379 644q0 26 18.5 45.5t46.5 19.5q26 0 45.5 -19.5t19.5 -45.5q0 -27 -19.5 -46t-45.5 -19q-28 0 -46.5 19t-18.5 46z" />
    <glyph glyph-name="amacron.ss01" horiz-adv-x="534" 
d="M122 385l14 105h364l-69 -490h-228q-70 0 -113 41t-43 104q0 38 15 68.5t41.5 52t62.5 33t78 11.5h117l10 75h-249zM156 151q0 -21 15.5 -34.5t42.5 -13.5h117l15 107h-117q-32 0 -52.5 -16t-20.5 -43zM230 700h241l-14 -97h-241z" />
    <glyph glyph-name="abreve.ss01" horiz-adv-x="534" 
d="M122 385l14 105h364l-69 -490h-228q-70 0 -113 41t-43 104q0 38 15 68.5t41.5 52t62.5 33t78 11.5h117l10 75h-249zM156 151q0 -21 15.5 -34.5t42.5 -13.5h117l15 107h-117q-32 0 -52.5 -16t-20.5 -43zM332 554q-62 0 -95.5 40.5t-29.5 105.5h88q-1 -22 10 -38t38 -16
t42 16t22 38h93q-14 -66 -59.5 -106t-108.5 -40z" />
    <glyph glyph-name="aring.ss01" horiz-adv-x="534" 
d="M122 385l14 105h364l-69 -490h-228q-70 0 -113 41t-43 104q0 38 15 68.5t41.5 52t62.5 33t78 11.5h117l10 75h-249zM156 151q0 -21 15.5 -34.5t42.5 -13.5h117l15 107h-117q-32 0 -52.5 -16t-20.5 -43zM317 629q0 -10 6.5 -16t16.5 -6q11 0 20.5 8t9.5 21q0 10 -6.5 16
t-16.5 6q-12 0 -21 -8t-9 -21zM253 623q0 41 31 70t71 29q34 0 56.5 -22.5t22.5 -56.5q0 -41 -30.5 -69.5t-73.5 -28.5q-34 0 -55.5 23t-21.5 55z" />
    <glyph glyph-name="aringacute.ss01" horiz-adv-x="534" 
d="M122 385l14 105h364l-69 -490h-228q-70 0 -113 41t-43 104q0 38 15 68.5t41.5 52t62.5 33t78 11.5h117l10 75h-249zM156 151q0 -21 15.5 -34.5t42.5 -13.5h117l15 107h-117q-32 0 -52.5 -16t-20.5 -43zM317 629q0 13 9 21t21 8q10 0 16.5 -6t6.5 -16q0 -13 -9.5 -21
t-20.5 -8q-10 0 -16.5 6t-6.5 16zM253 623q0 -32 21.5 -55t55.5 -23q43 0 73.5 28.5t30.5 69.5q0 34 -22.5 56.5t-56.5 22.5q-40 0 -71 -29t-31 -70zM407 907h144l-136 -138h-113z" />
    <glyph glyph-name="aogonek.ss01" horiz-adv-x="534" 
d="M416 -114l-10 -71q-7 -1 -20 -3t-29 -2q-46 0 -71 20.5t-25 57.5q0 36 23.5 64.5t52.5 47.5h-134q-70 0 -113 41t-43 104q0 38 15 68.5t41.5 52t62.5 33t78 11.5h117l10 75h-249l14 105h364l-69 -490q-41 -25 -57 -44t-16 -37q0 -15 13 -24t41 -9h4zM156 151
q0 -21 15.5 -34.5t42.5 -13.5h117l15 107h-117q-32 0 -52.5 -16t-20.5 -43z" />
    <glyph glyph-name="ae.ss01" horiz-adv-x="761" 
d="M671 104l-15 -104h-452q-73 0 -115 39t-42 102q0 76 56.5 115.5t140.5 39.5h114l13 89h-250l16 105h440q72 0 114 -39.5t42 -98.5q0 -76 -55.5 -116t-139.5 -40h-79l-13 -92h225zM156 146q0 -20 15 -31.5t38 -11.5h122l13 93h-122q-28 0 -47 -12.5t-19 -37.5zM569 387
h-83l-13 -91h84q29 0 48 12t19 39q0 19 -15 29.5t-40 10.5z" />
    <glyph glyph-name="aeacute.ss01" horiz-adv-x="761" 
d="M671 104l-15 -104h-452q-73 0 -115 39t-42 102q0 76 56.5 115.5t140.5 39.5h114l13 89h-250l16 105h440q72 0 114 -39.5t42 -98.5q0 -76 -55.5 -116t-139.5 -40h-79l-13 -92h225zM156 146q0 -20 15 -31.5t38 -11.5h122l13 93h-122q-28 0 -47 -12.5t-19 -37.5zM569 387
h-83l-13 -91h84q29 0 48 12t19 39q0 19 -15 29.5t-40 10.5zM454 700h144l-136 -138h-113z" />
    <glyph glyph-name="ccedilla.ss01" horiz-adv-x="539" 
d="M415 160l64 -83q-31 -33 -70 -54.5t-88 -28.5l-18 -131h-114l19 133q-76 18 -121.5 79t-45.5 146q0 60 22.5 111.5t61 89t91 59t111.5 21.5q63 0 112.5 -24.5t80.5 -67.5l-87 -75q-19 28 -47.5 43.5t-63.5 15.5q-33 0 -63 -13t-52 -36t-35 -54t-13 -67q0 -55 33 -91.5
t91 -36.5q40 0 72 16.5t60 47.5z" />
    <glyph glyph-name="egrave.ss01" horiz-adv-x="479" 
d="M248 158q-21 0 -41.5 5.5t-33.5 14.5l-10 -75h242l-15 -103h-356l44 316q13 90 68 138t139 48q73 0 119.5 -47t46.5 -115q0 -42 -17.5 -75.5t-45.5 -57.5t-65 -36.5t-75 -12.5zM256 262q35 0 58 22.5t23 53.5q0 24 -16.5 42t-45.5 18q-34 0 -58 -22.5t-24 -53.5
q0 -24 17 -42t46 -18zM152 700h144l61 -138h-110z" />
    <glyph glyph-name="eacute.ss01" horiz-adv-x="479" 
d="M248 158q-21 0 -41.5 5.5t-33.5 14.5l-10 -75h242l-15 -103h-356l44 316q13 90 68 138t139 48q73 0 119.5 -47t46.5 -115q0 -42 -17.5 -75.5t-45.5 -57.5t-65 -36.5t-75 -12.5zM256 262q35 0 58 22.5t23 53.5q0 24 -16.5 42t-45.5 18q-34 0 -58 -22.5t-24 -53.5
q0 -24 17 -42t46 -18zM317 700h144l-136 -138h-113z" />
    <glyph glyph-name="ecircumflex.ss01" horiz-adv-x="479" 
d="M248 158q-21 0 -41.5 5.5t-33.5 14.5l-10 -75h242l-15 -103h-356l44 316q13 90 68 138t139 48q73 0 119.5 -47t46.5 -115q0 -42 -17.5 -75.5t-45.5 -57.5t-65 -36.5t-75 -12.5zM256 262q35 0 58 22.5t23 53.5q0 24 -16.5 42t-45.5 18q-34 0 -58 -22.5t-24 -53.5
q0 -24 17 -42t46 -18zM249 700h136l74 -138h-99l-50 69l-67 -69h-107z" />
    <glyph glyph-name="ecaron.ss01" horiz-adv-x="479" 
d="M248 158q-21 0 -41.5 5.5t-33.5 14.5l-10 -75h242l-15 -103h-356l44 316q13 90 68 138t139 48q73 0 119.5 -47t46.5 -115q0 -42 -17.5 -75.5t-45.5 -57.5t-65 -36.5t-75 -12.5zM256 262q35 0 58 22.5t23 53.5q0 24 -16.5 42t-45.5 18q-34 0 -58 -22.5t-24 -53.5
q0 -24 17 -42t46 -18zM374 562h-137l-74 138h99l48 -68l68 68h108z" />
    <glyph glyph-name="edieresis.ss01" horiz-adv-x="479" 
d="M248 158q-21 0 -41.5 5.5t-33.5 14.5l-10 -75h242l-15 -103h-356l44 316q13 90 68 138t139 48q73 0 119.5 -47t46.5 -115q0 -42 -17.5 -75.5t-45.5 -57.5t-65 -36.5t-75 -12.5zM256 262q35 0 58 22.5t23 53.5q0 24 -16.5 42t-45.5 18q-34 0 -58 -22.5t-24 -53.5
q0 -24 17 -42t46 -18zM147 644q0 26 18.5 45.5t45.5 19.5t46.5 -19.5t19.5 -45.5q0 -27 -19.5 -46t-46.5 -19t-45.5 19t-18.5 46zM347 644q0 26 18.5 45.5t46.5 19.5q26 0 45.5 -19.5t19.5 -45.5q0 -27 -19.5 -46t-45.5 -19q-28 0 -46.5 19t-18.5 46z" />
    <glyph glyph-name="emacron.ss01" horiz-adv-x="479" 
d="M248 158q-21 0 -41.5 5.5t-33.5 14.5l-10 -75h242l-15 -103h-356l44 316q13 90 68 138t139 48q73 0 119.5 -47t46.5 -115q0 -42 -17.5 -75.5t-45.5 -57.5t-65 -36.5t-75 -12.5zM256 262q35 0 58 22.5t23 53.5q0 24 -16.5 42t-45.5 18q-34 0 -58 -22.5t-24 -53.5
q0 -24 17 -42t46 -18zM198 700h241l-14 -97h-241z" />
    <glyph glyph-name="ebreve.ss01" horiz-adv-x="479" 
d="M248 158q-21 0 -41.5 5.5t-33.5 14.5l-10 -75h242l-15 -103h-356l44 316q13 90 68 138t139 48q73 0 119.5 -47t46.5 -115q0 -42 -17.5 -75.5t-45.5 -57.5t-65 -36.5t-75 -12.5zM256 262q35 0 58 22.5t23 53.5q0 24 -16.5 42t-45.5 18q-34 0 -58 -22.5t-24 -53.5
q0 -24 17 -42t46 -18zM301 554q-62 0 -95.5 40.5t-29.5 105.5h88q-1 -22 10 -38t38 -16t42 16t22 38h93q-14 -66 -59.5 -106t-108.5 -40z" />
    <glyph glyph-name="edotaccent.ss01" horiz-adv-x="479" 
d="M248 158q-21 0 -41.5 5.5t-33.5 14.5l-10 -75h242l-15 -103h-356l44 316q13 90 68 138t139 48q73 0 119.5 -47t46.5 -115q0 -42 -17.5 -75.5t-45.5 -57.5t-65 -36.5t-75 -12.5zM256 262q35 0 58 22.5t23 53.5q0 24 -16.5 42t-45.5 18q-34 0 -58 -22.5t-24 -53.5
q0 -24 17 -42t46 -18zM241 640q0 30 20.5 51t50.5 21t51 -21t21 -51q0 -29 -21 -49.5t-51 -20.5t-50.5 20.5t-20.5 49.5z" />
    <glyph glyph-name="eogonek.ss01" horiz-adv-x="479" 
d="M375 -114l-10 -71q-7 -1 -20 -3t-29 -2q-46 0 -71 20.5t-25 57.5q0 36 23.5 64.5t52.5 47.5h-262l44 316q13 90 68 138t139 48q73 0 119.5 -47t46.5 -115q0 -42 -17.5 -75.5t-45.5 -57.5t-65 -36.5t-75 -12.5q-21 0 -41.5 5.5t-33.5 14.5l-10 -75h242l-15 -103
q-41 -25 -57 -44t-16 -37q0 -15 13 -24t41 -9h4zM256 262q35 0 58 22.5t23 53.5q0 24 -16.5 42t-45.5 18q-34 0 -58 -22.5t-24 -53.5q0 -24 17 -42t46 -18z" />
    <glyph glyph-name="gcircumflex.ss01" horiz-adv-x="568" 
d="M561 490l-15 -105h-62q13 -19 20 -42t7 -49q0 -45 -16.5 -84.5t-45.5 -68.5t-68.5 -46.5t-85.5 -19.5l169 -167l-15 -102h-446l15 107h286l-166 162q-38 38 -61.5 84.5t-23.5 100.5q0 52 21 95t56.5 72.5t82.5 46t99 16.5h249zM396 291q0 41 -28 67t-71 26
q-51 0 -89.5 -33.5t-38.5 -85.5q0 -42 28 -68t71 -26q51 0 89.5 34t38.5 86zM287 700h136l74 -138h-99l-50 69l-67 -69h-107zM283 86v1v-1z" />
    <glyph glyph-name="gbreve.ss01" horiz-adv-x="568" 
d="M561 490l-15 -105h-62q13 -19 20 -42t7 -49q0 -45 -16.5 -84.5t-45.5 -68.5t-68.5 -46.5t-85.5 -19.5l169 -167l-15 -102h-446l15 107h286l-166 162q-38 38 -61.5 84.5t-23.5 100.5q0 52 21 95t56.5 72.5t82.5 46t99 16.5h249zM396 291q0 41 -28 67t-71 26
q-51 0 -89.5 -33.5t-38.5 -85.5q0 -42 28 -68t71 -26q51 0 89.5 34t38.5 86zM339 554q-62 0 -95.5 40.5t-29.5 105.5h88q-1 -22 10 -38t38 -16t42 16t22 38h93q-14 -66 -59.5 -106t-108.5 -40zM283 86v1v-1z" />
    <glyph glyph-name="gdotaccent.ss01" horiz-adv-x="568" 
d="M561 490l-15 -105h-62q13 -19 20 -42t7 -49q0 -45 -16.5 -84.5t-45.5 -68.5t-68.5 -46.5t-85.5 -19.5l169 -167l-15 -102h-446l15 107h286l-166 162q-38 38 -61.5 84.5t-23.5 100.5q0 52 21 95t56.5 72.5t82.5 46t99 16.5h249zM396 291q0 41 -28 67t-71 26
q-51 0 -89.5 -33.5t-38.5 -85.5q0 -42 28 -68t71 -26q51 0 89.5 34t38.5 86zM279 640q0 30 20.5 51t50.5 21t51 -21t21 -51q0 -29 -21 -49.5t-51 -20.5t-50.5 20.5t-20.5 49.5zM283 86v1v-1z" />
    <glyph glyph-name="gcommaaccent.ss01" horiz-adv-x="568" 
d="M561 490l-15 -105h-62q13 -19 20 -42t7 -49q0 -45 -16.5 -84.5t-45.5 -68.5t-68.5 -46.5t-85.5 -19.5l169 -167l-15 -102h-446l15 107h286l-166 162q-38 38 -61.5 84.5t-23.5 100.5q0 52 21 95t56.5 72.5t82.5 46t99 16.5h249zM396 291q0 41 -28 67t-71 26
q-51 0 -89.5 -33.5t-38.5 -85.5q0 -42 28 -68t71 -26q51 0 89.5 34t38.5 86zM340 700h92l-65 -137h-118zM283 87v-1v1z" />
    <glyph glyph-name="hcircumflex.ss01" horiz-adv-x="564" 
d="M247 700l-30 -210h314l-69 -490h-115l53 384h-198l-54 -384h-114l98 700h115zM40 769l104 103h143l76 -103h-114l-42 49l-57 -49h-110z" />
    <glyph glyph-name="hbar.ss01" horiz-adv-x="564" 
d="M247 700l-9 -58h169l-14 -100h-169l-7 -52h314l-69 -490h-115l53 384h-198l-54 -384h-114l76 542h-61l14 100h61l8 58h115z" />
    <glyph glyph-name="ij.ss01" horiz-adv-x="528" 
d="M38 0l69 490h115l-69 -490h-115zM114 640q0 30 20.5 51t49.5 21q30 0 51 -21t21 -51q0 -29 -21 -49.5t-51 -20.5q-29 0 -49.5 20.5t-20.5 49.5zM399 -194h-228l15 105h112l81 579h116zM386 640q0 30 20.5 51t50.5 21q29 0 50.5 -21t21.5 -51q0 -29 -21.5 -49.5
t-50.5 -20.5q-30 0 -50.5 20.5t-20.5 49.5z" />
    <glyph glyph-name="dotlessj.ss01" horiz-adv-x="269" 
d="M140 -194h-228l15 105h112l81 579h116z" />
    <glyph glyph-name="jcircumflex.ss01" horiz-adv-x="269" 
d="M140 -194h-228l15 105h112l81 579h116zM137 700h136l74 -138h-99l-50 69l-67 -69h-107z" />
    <glyph glyph-name="kcommaaccent.ss01" horiz-adv-x="524" 
d="M34 0l99 700h115l-57 -403h75l123 193h129l-164 -250l102 -240h-118l-81 191h-81l-27 -191h-115zM119 -194h93l90 137h-117z" />
    <glyph glyph-name="kgreenlandic.ss01" horiz-adv-x="524" 
d="M34 0l69 490h115l-27 -193h75l123 193h129l-164 -250l102 -240h-118l-81 191h-81l-27 -191h-115z" />
    <glyph glyph-name="lacute.ss01" horiz-adv-x="252" 
d="M148 0h-114l99 700h114zM226 872h143l-110 -103h-120z" />
    <glyph glyph-name="lcaron.ss01" horiz-adv-x="252" 
d="M445 700l-86 -189h-85l54 189h117zM148 0h-114l99 700h114z" />
    <glyph glyph-name="lcommaaccent.ss01" horiz-adv-x="252" 
d="M148 0h-114l99 700h114zM-33 -194h93l90 137h-117z" />
    <glyph glyph-name="lslash.ss01" horiz-adv-x="253" 
d="M148 0h-114l39 280l-76 -35l16 110l76 35l44 310h114l-36 -253l80 37l-15 -110l-81 -37z" />
    <glyph glyph-name="ldot.ss01" horiz-adv-x="370" 
d="M148 0h-114l99 700h114zM256 345q0 30 20.5 51t50.5 21t51 -21t21 -51q0 -29 -21 -49.5t-51 -20.5t-50.5 20.5t-20.5 49.5z" />
    <glyph glyph-name="nacute.ss01" horiz-adv-x="564" 
d="M103 490h428l-69 -490h-115l53 384h-198l-54 -384h-114zM345 700h144l-136 -138h-113z" />
    <glyph glyph-name="ncaron.ss01" horiz-adv-x="564" 
d="M103 490h428l-69 -490h-115l53 384h-198l-54 -384h-114zM402 562h-137l-74 138h99l48 -68l68 68h108z" />
    <glyph glyph-name="ntilde.ss01" horiz-adv-x="564" 
d="M103 490h428l-69 -490h-115l53 384h-198l-54 -384h-114zM419 700h80q-7 -48 -36 -82t-70 -34q-13 0 -25.5 4t-25.5 8l-27 9q-8 3 -16 5t-16 2q-11 0 -20 -6.5t-12 -21.5h-80q7 49 35.5 82.5t69.5 33.5q13 0 26 -3.5t26 -7.5l27 -10q8 -3 15.5 -5t15.5 -2q11 0 20.5 7
t12.5 21z" />
    <glyph glyph-name="ncommaaccent.ss01" horiz-adv-x="564" 
d="M103 490h428l-69 -490h-115l53 384h-198l-54 -384h-114zM126 -194h93l90 137h-117z" />
    <glyph glyph-name="oe.ss01" horiz-adv-x="851" 
d="M619 159q-28 0 -50 8.5t-39 22.5q-7 -25 -19 -46.5t-29 -38.5h297l-14 -105h-496q-51 0 -93.5 17.5t-72 48t-46 72t-16.5 88.5q0 60 23 110.5t61.5 87.5t91 57.5t110.5 20.5q54 0 98 -21.5t71 -58.5q27 36 69.5 58t93.5 22q72 0 118 -45t46 -111q0 -42 -16.5 -76.5
t-44.5 -59t-65 -38t-78 -13.5zM160 230q0 -54 32 -88.5t84 -34.5q63 0 108.5 47t45.5 116q0 54 -32 88.5t-83 34.5q-64 0 -109.5 -47t-45.5 -116zM627 262q35 0 58.5 23.5t23.5 52.5q0 24 -17 42t-45 18q-36 0 -59 -23.5t-23 -52.5q0 -24 16.5 -42t45.5 -18z" />
    <glyph glyph-name="eng.ss01" horiz-adv-x="564" 
d="M103 490h428l-96 -684h-227l14 105h112l66 473h-198l-54 -384h-114z" />
    <glyph glyph-name="racute.ss01" horiz-adv-x="367" 
d="M202 384l-54 -384h-114l69 490h268l-15 -106h-154zM270 700h144l-136 -138h-113z" />
    <glyph glyph-name="rcaron.ss01" horiz-adv-x="367" 
d="M202 384l-54 -384h-114l69 490h268l-15 -106h-154zM326 562h-137l-74 138h99l48 -68l68 68h108z" />
    <glyph glyph-name="rcommaaccent.ss01" horiz-adv-x="367" 
d="M202 384l-54 -384h-114l69 490h268l-15 -106h-154zM-36 -194h93l90 137h-117z" />
    <glyph glyph-name="sacute.ss01" horiz-adv-x="482" 
d="M264 502q53 0 103.5 -20t81.5 -56l-76 -85q-41 31 -62.5 45.5t-47.5 14.5q-25 0 -39.5 -13.5t-14.5 -29.5q0 -13 8.5 -23.5t25.5 -21.5l192 -127q-6 -42 -23 -78t-45 -62.5t-67 -41.5t-88 -15q-67 0 -114 26.5t-76 62.5l73 83q43 -37 70.5 -51.5t57.5 -14.5q27 0 46 13
t27 32l-130 81q-35 22 -58 55.5t-23 76.5q0 34 14.5 61.5t39 47t57 30t68.5 10.5zM303 700h144l-136 -138h-113z" />
    <glyph glyph-name="scircumflex.ss01" horiz-adv-x="482" 
d="M264 502q53 0 103.5 -20t81.5 -56l-76 -85q-41 31 -62.5 45.5t-47.5 14.5q-25 0 -39.5 -13.5t-14.5 -29.5q0 -13 8.5 -23.5t25.5 -21.5l192 -127q-6 -42 -23 -78t-45 -62.5t-67 -41.5t-88 -15q-67 0 -114 26.5t-76 62.5l73 83q43 -37 70.5 -51.5t57.5 -14.5q27 0 46 13
t27 32l-130 81q-35 22 -58 55.5t-23 76.5q0 34 14.5 61.5t39 47t57 30t68.5 10.5zM235 700h136l74 -138h-99l-50 69l-67 -69h-107z" />
    <glyph glyph-name="scaron.ss01" horiz-adv-x="482" 
d="M264 502q53 0 103.5 -20t81.5 -56l-76 -85q-41 31 -62.5 45.5t-47.5 14.5q-25 0 -39.5 -13.5t-14.5 -29.5q0 -13 8.5 -23.5t25.5 -21.5l192 -127q-6 -42 -23 -78t-45 -62.5t-67 -41.5t-88 -15q-67 0 -114 26.5t-76 62.5l73 83q43 -37 70.5 -51.5t57.5 -14.5q27 0 46 13
t27 32l-130 81q-35 22 -58 55.5t-23 76.5q0 34 14.5 61.5t39 47t57 30t68.5 10.5zM360 562h-137l-74 138h99l48 -68l68 68h108z" />
    <glyph glyph-name="scedilla.ss01" horiz-adv-x="482" 
d="M264 502q53 0 103.5 -20t81.5 -56l-76 -85q-41 31 -62.5 45.5t-47.5 14.5q-25 0 -39.5 -13.5t-14.5 -29.5q0 -13 8.5 -23.5t25.5 -21.5l192 -127q-10 -69 -50 -120.5t-108 -68.5l-19 -134h-114l18 131q-47 8 -82 31.5t-58 52.5l73 83q43 -37 70.5 -51.5t57.5 -14.5
q27 0 46 13t27 32l-130 81q-35 22 -58 55.5t-23 76.5q0 34 14.5 61.5t39 47t57 30t68.5 10.5z" />
    <glyph glyph-name="scommaaccent.ss01" horiz-adv-x="482" 
d="M264 502q53 0 103.5 -20t81.5 -56l-76 -85q-41 31 -62.5 45.5t-47.5 14.5q-25 0 -39.5 -13.5t-14.5 -29.5q0 -13 8.5 -23.5t25.5 -21.5l192 -127q-6 -42 -23 -78t-45 -62.5t-67 -41.5t-88 -15q-67 0 -114 26.5t-76 62.5l73 83q43 -37 70.5 -51.5t57.5 -14.5q27 0 46 13
t27 32l-130 81q-35 22 -58 55.5t-23 76.5q0 34 14.5 61.5t39 47t57 30t68.5 10.5zM95 -194h93l90 137h-117z" />
    <glyph glyph-name="germandbls.ss01" horiz-adv-x="629" 
d="M283 306l15 110l149 173h-210l-83 -589h-120l98 700h471l-15 -108l-161 -182q69 -14 112 -63t43 -117q0 -54 -20.5 -97t-56 -72t-84.5 -45t-106 -16h-75l17 116h66q57 0 97 27.5t40 79.5q0 40 -27.5 61.5t-77.5 21.5h-72z" />
    <glyph glyph-name="tcaron.ss01" horiz-adv-x="409" 
d="M489 749l-86 -189h-85l54 189h117zM163 627h122l-20 -137h129l-15 -106h-136l-40 -278h138l-15 -106h-251l54 384h-92l15 106h91z" />
    <glyph glyph-name="tcommaaccent.ss01" horiz-adv-x="409" 
d="M163 627h122l-20 -137h129l-15 -106h-136l-40 -278h138l-15 -106h-251l54 384h-92l15 106h91zM72 -194h93l90 137h-117z" />
    <glyph glyph-name="tbar.ss01" horiz-adv-x="407" 
d="M369 307l-15 -104h-137l-14 -97h138l-15 -106h-251l28 203h-92l15 104h92l11 77h-92l15 106h91l20 137h122l-20 -137h129l-15 -106h-136l-11 -77h137z" />
    <glyph glyph-name="uni0163.ss01" horiz-adv-x="409" 
d="M163 627h122l-20 -137h129l-15 -106h-136l-40 -278h138l-15 -106h-65l-19 -137h-114l19 137h-72l54 384h-92l15 106h91z" />
    <glyph glyph-name="ugrave.ss01" horiz-adv-x="559" 
d="M457 0h-423l69 490h114l-54 -384h194l54 384h115zM176 700h144l61 -138h-110z" />
    <glyph glyph-name="uacute.ss01" horiz-adv-x="559" 
d="M457 0h-423l69 490h114l-54 -384h194l54 384h115zM341 700h144l-136 -138h-113z" />
    <glyph glyph-name="ucircumflex.ss01" horiz-adv-x="559" 
d="M457 0h-423l69 490h114l-54 -384h194l54 384h115zM273 700h136l74 -138h-99l-50 69l-67 -69h-107z" />
    <glyph glyph-name="utilde.ss01" horiz-adv-x="559" 
d="M457 0h-423l69 490h114l-54 -384h194l54 384h115zM415 700h80q-7 -48 -36 -82t-70 -34q-13 0 -25.5 4t-25.5 8l-27 9q-8 3 -16 5t-16 2q-11 0 -20 -6.5t-12 -21.5h-80q7 49 35.5 82.5t69.5 33.5q13 0 26 -3.5t26 -7.5l27 -10q8 -3 15.5 -5t15.5 -2q11 0 20.5 7t12.5 21z
" />
    <glyph glyph-name="udieresis.ss01" horiz-adv-x="559" 
d="M457 0h-423l69 490h114l-54 -384h194l54 384h115zM171 644q0 26 18.5 45.5t45.5 19.5t46.5 -19.5t19.5 -45.5q0 -27 -19.5 -46t-46.5 -19t-45.5 19t-18.5 46zM371 644q0 26 18.5 45.5t46.5 19.5q26 0 45.5 -19.5t19.5 -45.5q0 -27 -19.5 -46t-45.5 -19q-28 0 -46.5 19
t-18.5 46z" />
    <glyph glyph-name="umacron.ss01" horiz-adv-x="559" 
d="M457 0h-423l69 490h114l-54 -384h194l54 384h115zM222 700h241l-14 -97h-241z" />
    <glyph glyph-name="ubreve.ss01" horiz-adv-x="559" 
d="M457 0h-423l69 490h114l-54 -384h194l54 384h115zM324 554q-62 0 -95.5 40.5t-29.5 105.5h88q-1 -22 10 -38t38 -16t42 16t22 38h93q-14 -66 -59.5 -106t-108.5 -40z" />
    <glyph glyph-name="uring.ss01" horiz-adv-x="559" 
d="M457 0h-423l69 490h114l-54 -384h194l54 384h115zM309 629q0 -10 6.5 -16t16.5 -6q11 0 20.5 8t9.5 21q0 10 -6.5 16t-16.5 6q-12 0 -21 -8t-9 -21zM245 623q0 41 31 70t71 29q34 0 56.5 -22.5t22.5 -56.5q0 -41 -30.5 -69.5t-73.5 -28.5q-34 0 -55.5 23t-21.5 55z" />
    <glyph glyph-name="uhungarumlaut.ss01" horiz-adv-x="559" 
d="M457 0h-423l69 490h114l-54 -384h194l54 384h115zM269 700h123l-115 -131h-107zM446 700h123l-115 -131h-107z" />
    <glyph glyph-name="uogonek.ss01" horiz-adv-x="559" 
d="M286 -114l-10 -71q-7 -1 -20 -3t-29 -2q-46 0 -71 20.5t-25 57.5q0 36 23.5 64.5t52.5 47.5h-173l69 490h114l-54 -384h194l54 384h115l-69 -490h-156q-41 -25 -57 -44t-16 -37q0 -15 13 -24t41 -9h4z" />
    <glyph glyph-name="ygrave.ss01" horiz-adv-x="556" 
d="M279 -194h-119l26 190l-128 494h122l84 -347l180 347h131l-269 -494zM176 700h144l61 -138h-110z" />
    <glyph glyph-name="yacute.ss01" horiz-adv-x="556" 
d="M279 -194h-119l26 190l-128 494h122l84 -347l180 347h131l-269 -494zM341 700h144l-136 -138h-113z" />
    <glyph glyph-name="ycircumflex.ss01" horiz-adv-x="556" 
d="M279 -194h-119l26 190l-128 494h122l84 -347l180 347h131l-269 -494zM272 700h136l74 -138h-99l-50 69l-67 -69h-107z" />
    <glyph glyph-name="ydieresis.ss01" horiz-adv-x="556" 
d="M279 -194h-119l26 190l-128 494h122l84 -347l180 347h131l-269 -494zM170 644q0 26 18.5 45.5t45.5 19.5t46.5 -19.5t19.5 -45.5q0 -27 -19.5 -46t-46.5 -19t-45.5 19t-18.5 46zM370 644q0 26 18.5 45.5t46.5 19.5q26 0 45.5 -19.5t19.5 -45.5q0 -27 -19.5 -46t-45.5 -19
q-28 0 -46.5 19t-18.5 46z" />
    <glyph glyph-name="f_b.ss01" horiz-adv-x="948" 
d="M907 273q0 -62 -22 -114.5t-59 -90t-87.5 -58.5t-107.5 -21q-45 0 -81 17.5t-55 45.5l-8 -52h-112l54 384h-209l-55 -384h-116l54 384h-64l15 106h64l9 63q10 72 60.5 115.5t121.5 43.5q56 0 97.5 -31.5t52.5 -80.5l15 100h114l-35 -251q25 22 60.5 37.5t81.5 15.5
q45 0 84 -17.5t67.5 -48t44.5 -72.5t16 -91zM788 268q0 56 -30.5 92.5t-82.5 36.5q-66 0 -110.5 -50.5t-44.5 -124.5q0 -56 30.5 -92.5t82.5 -36.5q66 0 110.5 51t44.5 124zM243 545l-8 -55h209l7 51h-103l1 9q2 25 -11.5 40t-35.5 15q-26 0 -41 -17.5t-18 -42.5z" />
    <glyph glyph-name="f_f_b.ss01" horiz-adv-x="1273" 
d="M1233 273q0 -62 -22 -114.5t-59 -90t-87.5 -58.5t-107.5 -21q-46 0 -82 17.5t-55 45.5l-7 -52h-113l54 384h-209l-54 -384h-116l53 384h-208l-55 -384h-116l54 384h-64l15 106h64l9 63q10 72 60.5 115.5t121.5 43.5q58 0 101 -34t51 -86q19 54 66 87t107 33
q56 0 98 -31.5t53 -80.5l14 100h115l-35 -251q24 22 60 37.5t81 15.5q46 0 85 -17.5t67.5 -48t44.5 -72.5t16 -91zM1114 268q0 56 -30.5 92.5t-83.5 36.5q-66 0 -110.5 -50.5t-44.5 -124.5q0 -56 31 -92.5t83 -36.5q66 0 110.5 51t44.5 124zM243 545l-8 -55h209l6 51h-102
l1 9q2 25 -11.5 40t-35.5 15q-26 0 -41 -17.5t-18 -42.5zM568 545l-7 -55h208l8 51h-104l1 9q3 25 -10.5 40t-36.5 15q-25 0 -40 -17.5t-19 -42.5z" />
    <glyph glyph-name="f_f.ss01" horiz-adv-x="753" 
d="M39 384l15 106h64l9 63q10 72 60.5 115.5t121.5 43.5q58 0 101 -34t51 -86q19 54 66 87t107 33q69 0 115 -46t39 -115l-1 -10h-114l1 9q3 25 -10.5 40t-36.5 15q-25 0 -40 -17.5t-19 -42.5l-7 -55h219l-15 -106h-220l-54 -384h-116l53 384h-208l-55 -384h-116l54 384h-64
zM243 545l-8 -55h209l6 51h-102l1 9q2 25 -11.5 40t-35.5 15q-26 0 -41 -17.5t-18 -42.5z" />
    <glyph glyph-name="f_h.ss01" horiz-adv-x="905" 
d="M588 700l-29 -210h313l-69 -490h-115l54 384h-199l-53 -384h-115l54 384h-209l-55 -384h-116l54 384h-64l15 106h64l9 63q10 72 60.5 115.5t121.5 43.5q56 0 97.5 -31.5t52.5 -80.5l15 100h114zM243 545l-8 -55h209l7 51h-103l1 9q2 25 -11.5 40t-35.5 15
q-26 0 -41 -17.5t-18 -42.5z" />
    <glyph glyph-name="f_f_h.ss01" horiz-adv-x="1230" 
d="M39 384l15 106h64l9 63q10 72 60.5 115.5t121.5 43.5q58 0 101 -34t51 -86q19 54 66 87t107 33q56 0 97.5 -30.5t52.5 -79.5l15 98h114l-29 -210h313l-69 -490h-115l54 384h-199l-53 -384h-115l54 384h-209l-54 -384h-116l53 384h-208l-55 -384h-116l54 384h-64zM243 545
l-8 -55h209l6 51h-102l1 9q2 25 -11.5 40t-35.5 15q-26 0 -41 -17.5t-18 -42.5zM568 545l-7 -55h208l7 51h-103l1 9q3 25 -10.5 40t-36.5 15q-25 0 -40 -17.5t-19 -42.5z" />
    <glyph glyph-name="fi.ss01" horiz-adv-x="596" 
d="M375 0l54 384h-209l-55 -384h-116l54 384h-64l15 106h64l9 63q10 72 60.5 115.5t121.5 43.5q69 0 114.5 -46t38.5 -115l-1 -10h-113l1 9q2 25 -11.5 40t-35.5 15q-26 0 -41 -17.5t-18 -42.5l-8 -55h324l-69 -490h-115z" />
    <glyph glyph-name="f_f_i.ss01" horiz-adv-x="922" 
d="M701 0l53 384h-209l-54 -384h-116l53 384h-208l-55 -384h-116l54 384h-64l15 106h64l9 63q10 72 60.5 115.5t121.5 43.5q58 0 101 -34t51 -86q19 54 66 87t107 33q69 0 115 -46t39 -115l-1 -10h-114l1 9q3 25 -10.5 40t-36.5 15q-25 0 -40 -17.5t-19 -42.5l-7 -55h324
l-69 -490h-115zM243 545l-8 -55h209l6 51h-102l1 9q2 25 -11.5 40t-35.5 15q-26 0 -41 -17.5t-18 -42.5z" />
    <glyph glyph-name="f_j.ss01" horiz-adv-x="592" 
d="M463 -194h-227l15 105h111l66 473h-208l-55 -384h-116l54 384h-64l15 106h64l9 63q10 72 60.5 115.5t121.5 43.5q69 0 114.5 -46t38.5 -115l-1 -10h-113l1 9q2 25 -11.5 40t-35.5 15q-26 0 -41 -17.5t-18 -42.5l-8 -55h324z" />
    <glyph glyph-name="f_f_j.ss01" horiz-adv-x="918" 
d="M220 384l-55 -384h-116l54 384h-64l15 106h64l9 63q10 72 60.5 115.5t121.5 43.5q58 0 101 -34t51 -86q19 54 66 87t107 33q69 0 115 -46t39 -115l-1 -10h-114l1 9q3 25 -10.5 40t-36.5 15q-25 0 -40 -17.5t-19 -42.5l-7 -55h324l-96 -684h-227l15 105h111l66 473h-209
l-54 -384h-116l53 384h-208zM243 545l-8 -55h209l6 51h-102l1 9q2 25 -11.5 40t-35.5 15q-26 0 -41 -17.5t-18 -42.5z" />
    <glyph glyph-name="f_k.ss01" horiz-adv-x="865" 
d="M39 384l15 106h64l9 63q10 72 60.5 115.5t121.5 43.5q56 0 97.5 -31.5t52.5 -80.5l15 100h115l-57 -403h75l123 193h129l-164 -250l101 -240h-117l-82 191h-80l-27 -191h-115l54 384h-209l-55 -384h-116l54 384h-64zM243 545l-8 -55h209l7 51h-103l1 9q2 25 -11.5 40
t-35.5 15q-26 0 -41 -17.5t-18 -42.5z" />
    <glyph glyph-name="f_f_k.ss01" horiz-adv-x="1190" 
d="M39 384l15 106h64l9 63q10 72 60.5 115.5t121.5 43.5q58 0 101 -34t51 -86q19 54 66 87t107 33q56 0 98 -31.5t53 -80.5l14 100h116l-58 -403h75l124 193h128l-163 -250l101 -240h-118l-81 191h-80l-27 -191h-116l54 384h-209l-54 -384h-116l53 384h-208l-55 -384h-116
l54 384h-64zM243 545l-8 -55h209l6 51h-102l1 9q2 25 -11.5 40t-35.5 15q-26 0 -41 -17.5t-18 -42.5zM568 545l-7 -55h208l8 51h-104l1 9q3 25 -10.5 40t-36.5 15q-25 0 -40 -17.5t-19 -42.5z" />
    <glyph glyph-name="fl.ss01" horiz-adv-x="594" 
d="M489 0h-114l54 384h-209l-55 -384h-116l54 384h-64l15 106h64l9 63q10 72 60.5 115.5t121.5 43.5q56 0 98 -32t53 -82l14 102h114zM243 545l-8 -55h209l8 51h-104l1 9q2 25 -11.5 40t-35.5 15q-26 0 -41 -17.5t-18 -42.5z" />
    <glyph glyph-name="f_f_l.ss01" horiz-adv-x="919" 
d="M39 384l15 106h64l9 63q10 72 60.5 115.5t121.5 43.5q58 0 101 -34t51 -86q19 54 66 87t107 33q56 0 98 -31.5t53 -80.5l14 100h114l-99 -700h-114l54 384h-209l-54 -384h-116l53 384h-208l-55 -384h-116l54 384h-64zM243 545l-8 -55h209l6 51h-102l1 9q2 25 -11.5 40
t-35.5 15q-26 0 -41 -17.5t-18 -42.5zM568 545l-7 -55h208l8 51h-104l1 9q3 25 -10.5 40t-36.5 15q-25 0 -40 -17.5t-19 -42.5z" />
    <glyph glyph-name="f_t.ss01" horiz-adv-x="709" 
d="M39 384l15 106h64l9 63q10 72 60.5 115.5t121.5 43.5q60 0 103 -36.5t49 -91.5l6 43h122l-20 -137h131l-15 -106h-138l-40 -278h134l-14 -106h-248l54 384h-213l-55 -384h-116l54 384h-64zM235 490h212l7 51h-106l1 9q2 25 -11.5 40t-35.5 15q-26 0 -41 -17.5t-18 -42.5z
" />
    </font>
</defs>
</svg>
